<svg xmlns="http://www.w3.org/2000/svg" height="480" width="640" xmlns:v="https://vecta.io/nano"><path fill="#74acdf" d="M0 0h640v480H0z"/><path fill="#fff" d="M0 160.003h640v160.003H0z"/><g id="A" transform="matrix(.96 0 0 .96 -64 0)"><path id="B" d="M396.84 251.31l28.454 61.992s.49 1.185 1.28.859.299-1.512.299-1.512l-23.715-63.956m-.68 24.12c-.347 9.428 5.452 14.613 4.694 23.032s3.867 13.18 4.94 16.454-1.16 5.232-.198 5.698 3.07-2.12 2.383-6.775-4.22-6.037-3.39-16.32-4.206-12.678-2.98-22.058" fill="#f6b40e" stroke="#85340a" stroke-width="1.112"/><use href="#B" transform="rotate(22.5 400 250)"/><use href="#B" transform="rotate(45 400 250)"/><use href="#B" transform="rotate(67.5 400 250)"/><path id="C" d="M404.31 274.41c.453 9.054 5.587 13.063 4.579 21.314 2.213-6.525-3.124-11.583-2.82-21.22m-7.649-23.757l19.487 42.577-16.329-43.887" fill="#85340a"/><use href="#C" transform="rotate(22.5 400 250)"/><use href="#C" transform="rotate(45 400 250)"/><use href="#C" transform="rotate(67.5 400 250)"/></g><use href="#A" transform="rotate(90 320 240)"/><use href="#A" transform="rotate(180 320 240)"/><use href="#A" transform="rotate(270 320 240)"/><circle r="26.667" cy="240" cx="320" fill="#f6b40e" stroke="#85340a" stroke-width="1.44"/><path id="D" d="M329.091 234.298c-1.82 0-3.564.789-4.59 2.43 2.051 1.845 6.582 2.046 9.66-.21a7.04 7.04 0 0 0-5.07-2.22zm-.03.42c1.773-.033 3.429.781 3.66 1.59-2.051 2.256-5.329 2.06-7.38.42.898-1.436 2.342-1.985 3.72-2.01z" fill="#843511"/><g transform="matrix(-1 0 0 1 640.24 0)"><use href="#F"/><use href="#E"/></g><use href="#G" x="18.108"/><use href="#H" transform="matrix(-1 0 0 1 640.24 0)"/><g fill="#85340a"><path d="M315.92 243.686c-.877.16-1.5.939-1.5 1.83 0 1.02.842 1.83 1.86 1.83.602 0 1.154-.285 1.5-.78.71.534 1.694.59 2.22.6h.24c.526-.01 1.51-.066 2.22-.6.346.495.898.78 1.5.78 1.018 0 1.86-.81 1.86-1.83 0-.891-.623-1.67-1.5-1.83.492.174.81.65.81 1.17a1.23 1.23 0 0 1-1.23 1.23 1.24 1.24 0 0 1-1.23-1.17c-.2.4-.993 1.59-2.55 1.65-1.557-.06-2.35-1.25-2.55-1.65a1.24 1.24 0 0 1-1.23 1.17 1.23 1.23 0 0 1-1.23-1.23c0-.52.318-.996.81-1.17zm2.006 5.463c-2.052 0-2.863 1.86-4.71 3.09 1.026-.41 1.834-1.219 3.27-2.04s2.661.18 3.48.18h.03c.82 0 2.044-1 3.48-.18s2.274 1.63 3.3 2.04c-1.846-1.23-2.687-3.09-4.74-3.09-.41 0-1.22.221-2.04.63h-.03c-.819-.41-1.63-.63-2.04-.63zm-.691 2.429c-.81.035-1.881.198-3.42.66 3.694-.82 4.509.42 6.15.42h.03c1.642 0 2.456-1.24 6.15-.42-4.103-1.231-4.92-.42-6.15-.42h-.03c-.769 0-1.38-.3-2.73-.24z"/><path d="M314 252.211l-.78.03c4.308.41 2.237 2.88 6.75 2.88h.03c4.513 0 2.471-2.47 6.78-2.88-4.513-.41-3.086 2.25-6.78 2.25h-.03c-3.463 0-2.396-2.324-5.97-2.28zm9.696 6.663a3.694 3.694 0 0 0-7.385 0 3.797 3.797 0 0 1 7.385 0z"/></g><path id="E" d="M303.42 234.26c4.719-4.103 10.666-4.719 13.95-1.641.803 1.076 1.318 2.226 1.53 3.427.412 2.335-.318 4.859-2.148 7.445.207 0 .618.204.823.41 1.628-3.114 2.204-6.313 1.67-9.356a13.263 13.263 0 0 0-.643-2.338c-4.513-3.691-10.665-4.102-15.178 2.052z" fill="#85340a"/><path id="F" d="M310.803 233.03c2.666 0 3.282.616 4.513 1.642s1.846.82 2.051 1.026 0 .82-.41.614-1.231-.614-2.46-1.64-2.461-1.026-3.693-1.026c-3.692 0-5.743 3.076-6.153 2.871s2.052-3.487 6.153-3.487z" fill="#85340a"/><use href="#D" x="-18.414"/><circle id="G" cy="236.304" cx="310.918" r="1.846" fill="#85340a"/><path id="H" d="M305.878 237.542c3.488 2.668 6.975 2.462 9.026 1.231s2.051-1.64 1.642-1.64-.82.41-2.461 1.23-4.102.821-8.204-.82z" fill="#85340a"/></svg>