<svg xmlns="http://www.w3.org/2000/svg" height="480" width="640" xmlns:v="https://vecta.io/nano"><style><![CDATA[.B{fill:#fcc}.C{fill:#9cc}.D{fill:#ccf}.E{fill:#c33}.F{fill:#69c}.G{fill:#6cc}.H{fill:#9cf}.I{fill:#cff}]]></style><defs><clipPath id="A"><path fill-opacity=".67" d="M0 0h288v216H0z"/></clipPath><path id="B" d="M139.695 36.923l2.952 2.952-2.952-2.952m5.904 0l2.95 2.952-2.95-2.952z"/><path id="C" d="M136.743 42.827l2.952 2.952-2.952-2.953z"/><path id="D" d="M133.79 51.684l2.953 2.952-2.952-2.952z"/><path id="E" d="M151.503 51.684l2.952 2.952-2.952-2.952z"/><path id="F" d="M133.79 54.636l2.953 2.952-2.952-2.952m17.713 0l2.952 2.952-2.952-2.952z"/><path id="G" d="M136.743 57.588l2.952 2.952-2.952-2.952m11.808 0l2.953 2.952-2.952-2.952z"/><path id="H" d="M130.838 63.492l2.953 2.952-2.952-2.952m23.617 0l2.952 2.952-2.952-2.952z"/><path id="I" d="M127.886 69.396l2.952 2.952-2.952-2.952zm29.521 0l2.952 2.952-2.953-2.952z"/><path id="J" d="M127.886 72.348l2.952 2.952-2.952-2.952m29.52 0l2.953 2.952-2.953-2.952z"/><path id="K" d="M160.36 78.252l2.95 2.952-2.95-2.952z"/><path id="L" d="M124.934 81.204l2.952 2.953-2.952-2.952z"/><path id="M" d="M127.886 87.11l2.952 2.95-2.952-2.95m29.52 0l2.953 2.95-2.953-2.95z"/><path id="N" d="M121.982 93.013l2.952 2.952-2.952-2.952m41.33 0l2.952 2.952-2.953-2.952z"/><path id="O" d="M124.934 95.965l2.952 2.952-2.952-2.952m35.425 0l2.95 2.952-2.95-2.952z"/><path id="P" d="M125.917 100.886l.984 1.968-.983-1.968m35.425 0l.985 1.968-.985-1.968z"/><path id="Q" d="M121.982 104.82l2.952 2.953-2.952-2.952m41.33 0l2.952 2.953-2.953-2.952z"/><path id="R" d="M101.317 113.678l2.953 2.952-2.953-2.952z"/><path id="S" d="M86.557 116.63l2.952 2.952-2.953-2.952z"/><path id="T" d="M109.19 117.613l1.97.984-1.97-.984m67.9 0l1.967.984-1.968-.984z"/><path id="U" d="M240.066 137.294l2.952 2.953-2.952-2.953z"/><path id="V" d="M86.557 146.15l2.952 2.953-2.953-2.952z"/></defs><g transform="scale(2.2222)" clip-path="url(#A)"><path fill="#39c" d="M0 0v216h324V0H0z"/><path fill="#ff0" d="M0 144v12h324v-12H0zm0 24v12h324v-12H0z"/></g><path d="M142.647 28.067l2.952 2.952-2.953-2.953zm-2.952 5.903l2.952 2.953-2.952-2.952m5.904 0l2.95 2.953-2.95-2.952z" class="C"/><use href="#B" class="D"/><use href="#C" class="G"/><path fill="#c66" d="M142.647 42.827l2.952 2.952-2.953-2.953z"/><path d="M148.55 42.827l2.953 2.952-2.952-2.953z" class="G"/><path d="M136.743 45.78l2.952 2.95-2.952-2.95zm11.807 0l2.953 2.95-2.952-2.95z" class="D"/><path d="M139.695 48.73l2.952 2.954-2.952-2.953m5.904 0l2.95 2.954-2.95-2.953z" class="B"/><use href="#D" class="G"/><path d="M142.16 34.065l-20.695 78.45-78.68 21.367 78.453 20.476 20.922 78.45 20.918-78.45 78.452-20.922-78.452-20.922-20.918-78.45z" stroke="#fff" stroke-width="3.69" fill="#c00"/><use href="#E" class="G"/><use href="#F" class="H"/><use href="#G" class="B"/><use href="#D" x="-2.952" y="8.856" class="F"/><path d="M137.726 62.51l.984 1.967-.984-1.968m11.808 0l.984 1.967-.984-1.968z" class="E"/><use href="#E" x="2.952" y="8.856" class="F"/><use href="#H" class="H"/><use href="#F" y="11.808" class="B"/><use href="#I" class="F"/><use href="#J" class="C"/><use href="#J" y="2.952" class="I"/><use href="#E" x="-26.569" y="26.568" class="F"/><use href="#H" y="14.76" class="B"/><use href="#K" class="F"/><use href="#L" class="C"/><path d="M131.82 83.174l.986 1.967-.985-1.966m23.618 0l.984 1.967-.984-1.966z" class="E"/><path d="M160.36 81.204l2.95 2.953-2.95-2.952z" class="C"/><path d="M124.934 84.157l2.952 2.952-2.952-2.953m35.425 0l2.95 2.952-2.95-2.953z" class="I"/><use href="#M" class="B"/><use href="#L" x="-2.952" y="8.856" class="C"/><path d="M128.87 92.03l.984 1.968-.985-1.968m29.52 0l.985 1.968-.985-1.968z" class="E"/><path d="M163.31 90.06l2.954 2.953-2.953-2.952z" class="C"/><use href="#N" class="D"/><use href="#O" class="B"/><use href="#C" x="-17.713" y="56.09" class="C"/><use href="#P" class="E"/><use href="#C" x="29.521" y="56.09" class="C"/><path d="M119.03 101.87l2.952 2.95-2.952-2.95m47.234 0l2.952 2.95-2.952-2.95z" class="D"/><use href="#Q" class="B"/><use href="#E" x="-35.425" y="56.089" class="C"/><use href="#N" y="14.76" class="E"/><path d="M169.216 107.773l2.952 2.952-2.952-2.952m-61.994 2.952l2.952 2.953-2.952-2.952z" class="C"/><path d="M110.174 110.725l2.952 2.953-2.952-2.952m64.946 0l2.952 2.952-2.952-2.952z" class="D"/><path d="M178.072 110.725l2.952 2.953-2.952-2.952m-79.707 2.952l2.952 2.952-2.952-2.952z" class="C"/><use href="#R" class="D"/><use href="#E" x="-38.377" y="61.994" class="B"/><path d="M116.078 113.678l2.952 2.952-2.952-2.952m53.138 0l2.952 2.952-2.952-2.952z" class="E"/><use href="#E" x="20.665" y="61.994" class="B"/><use href="#E" x="32.473" y="61.994" class="D"/><use href="#E" x="35.425" y="61.994" class="C"/><use href="#S" class="F"/><use href="#K" x="-70.85" y="38.378" class="C"/><use href="#D" x="-41.33" y="64.946" class="I"/><use href="#E" x="-47.233" y="64.946" class="B"/><use href="#T" class="E"/><use href="#E" x="29.521" y="64.946" class="B"/><use href="#E" x="41.33" y="64.946" class="I"/><use href="#E" x="44.282" y="64.946" class="C"/><path d="M198.737 116.63l2.952 2.952-2.953-2.952M77.7 119.582l2.953 2.952-2.952-2.952z" class="F"/><use href="#E" x="-70.85" y="67.898" class="C"/><use href="#E" x="-67.898" y="67.898" class="I"/><use href="#E" x="-56.09" y="67.898" class="B"/><path d="M100.334 120.565l1.968.984-1.968-.985m85.61 0l1.97.984-1.97-.985z" class="E"/><use href="#R" x="88.563" y="5.904" class="B"/><use href="#K" x="41.33" y="41.33" class="I"/><use href="#D" x="70.85" y="67.898" class="C"/><path d="M207.593 119.582l2.952 2.952-2.952-2.952m-138.75 2.952l2.953 2.952-2.952-2.952z" class="F"/><use href="#E" x="-79.707" y="70.85" class="H"/><use href="#S" y="5.904" class="B"/><path d="M91.478 123.517l1.968.984-1.968-.983m103.324 0l1.967.984-1.968-.983z" class="E"/><use href="#S" x="112.18" y="5.904" class="B"/><use href="#S" x="126.94" y="5.904" class="H"/><use href="#K" x="56.09" y="44.282" class="F"/><use href="#E" x="-91.515" y="73.802" class="G"/><use href="#E" x="-88.563" y="73.802" class="H"/><path d="M74.75 125.486l2.95 2.952-2.95-2.952zm135.795 0l2.952 2.952-2.952-2.952z" class="B"/><use href="#R" x="121.036" y="11.808" class="H"/><path d="M225.306 125.486l2.952 2.952-2.952-2.952m-174.174 2.952l2.952 2.952-2.952-2.952z" class="G"/><use href="#E" x="-97.419" y="76.754" class="D"/><use href="#E" x="-85.611" y="76.754" class="B"/><path d="M70.813 129.42l1.968.985-1.967-.984m144.653 0l1.968.985-1.968-.984z" class="E"/><path d="M219.4 128.438l2.954 2.952-2.953-2.952z" class="B"/><use href="#E" x="79.707" y="76.754" class="D"/><use href="#E" x="82.659" y="76.754" class="G"/><use href="#E" x="-109.228" y="79.706" class="C"/><use href="#D" x="-88.563" y="79.706" class="D"/><path d="M57.036 131.39l2.952 2.952-2.952-2.952zm171.222 0l2.952 2.952-2.952-2.952z" class="B"/><use href="#E" x="88.563" y="79.706" class="D"/><path d="M243.018 131.39l2.952 2.952-2.952-2.952M36.37 134.342l2.953 2.952-2.952-2.952z" class="C"/><path fill="#c66" d="M51.132 134.342l2.952 2.952-2.952-2.952zm183.03 0l2.952 2.952-2.952-2.952z"/><path d="M248.922 134.342l2.953 2.952-2.953-2.952m-206.647 2.952l2.952 2.953-2.952-2.953z" class="C"/><path d="M45.227 137.294l2.953 2.953-2.952-2.953z" class="D"/><path d="M57.036 137.294l2.952 2.953-2.952-2.953m171.222 0l2.952 2.953-2.952-2.953z" class="B"/><use href="#U" class="D"/><use href="#U" x="2.952" class="C"/><use href="#C" x="-85.611" y="97.42" class="G"/><use href="#C" x="-82.659" y="97.42" class="D"/><use href="#C" x="-70.851" y="97.42" class="B"/><path d="M70.813 141.23l1.968.984-1.967-.984m144.653 0l1.968.984-1.968-.984z" class="E"/><path d="M219.4 140.247l2.954 2.952-2.953-2.953z" class="B"/><use href="#C" x="94.467" y="97.42" class="D"/><path d="M234.162 140.247l2.952 2.952-2.952-2.953M59.988 143.2l2.952 2.95-2.952-2.95z" class="G"/><path d="M62.94 143.2l2.952 2.95-2.952-2.95z" class="H"/><path d="M74.75 143.2l2.95 2.95-2.95-2.95zm135.795 0l2.952 2.95-2.952-2.95z" class="B"/><path d="M222.353 143.2l2.953 2.95-2.953-2.95z" class="H"/><path d="M225.306 143.2l2.952 2.95-2.952-2.95z" class="G"/><use href="#L" x="-56.09" y="64.946" class="F"/><use href="#L" x="-53.138" y="64.946" class="H"/><use href="#V" class="B"/><path d="M91.478 147.134l1.968.984-1.968-.984m103.324 0l1.967.984-1.968-.984z" class="E"/><use href="#V" x="112.18" class="B"/><use href="#V" x="126.94" class="H"/><path d="M216.45 146.15l2.95 2.953-2.95-2.952M77.7 149.104l2.953 2.952-2.952-2.952z" class="F"/><use href="#E" x="-70.85" y="97.419" class="C"/><use href="#E" x="-67.898" y="97.419" class="I"/><use href="#E" x="-56.09" y="97.419" class="B"/><path d="M100.334 150.086l1.968.984-1.968-.984m85.61 0l1.97.984-1.97-.984z" class="E"/><use href="#R" x="88.563" y="35.425" class="B"/><use href="#K" x="41.33" y="70.851" class="I"/><use href="#D" x="70.85" y="97.419" class="C"/><path d="M207.593 149.103l2.952 2.952-2.952-2.952m-121.036 2.952l2.952 2.952-2.953-2.952z" class="F"/><use href="#K" x="-70.85" y="73.803" class="C"/><use href="#D" x="-41.33" y="100.371" class="I"/><use href="#E" x="-47.233" y="100.371" class="B"/><use href="#T" y="35.425" class="E"/><use href="#E" x="29.521" y="100.371" class="B"/><use href="#E" x="41.33" y="100.371" class="I"/><use href="#E" x="44.282" y="100.371" class="C"/><use href="#S" x="112.18" y="35.425" class="F"/><use href="#C" x="-38.378" y="112.18" class="C"/><path d="M101.317 155.007l2.953 2.952-2.953-2.953z" class="D"/><use href="#C" x="-23.617" y="112.18" class="B"/><path d="M116.078 155.007l2.952 2.952-2.952-2.953m53.138 0l2.952 2.952-2.952-2.953z" class="E"/><use href="#C" x="35.425" y="112.18" class="B"/><use href="#C" x="47.233" y="112.18" class="D"/><path d="M186.928 155.007l2.952 2.952-2.952-2.953m-79.706 2.952l2.952 2.95-2.952-2.95z" class="C"/><path d="M110.174 157.96l2.952 2.95-2.952-2.95m64.946 0l2.952 2.95-2.952-2.95z" class="D"/><path d="M178.072 157.96l2.952 2.95-2.952-2.95m-61.994 2.95l2.952 2.953-2.952-2.952z" class="C"/><use href="#Q" y="56.09" class="E"/><use href="#L" x="44.282" y="79.706" class="C"/><use href="#N" y="70.85" class="B"/><use href="#U" x="-121.036" y="29.521" class="D"/><use href="#P" y="67.898" class="E"/><use href="#U" x="-73.802" y="29.521" class="D"/><path d="M119.03 169.768l2.952 2.952-2.952-2.952m47.234 0l2.952 2.952-2.952-2.952z" class="C"/><use href="#O" y="76.755" class="B"/><use href="#E" x="-29.521" y="123.988" class="D"/><path d="M128.87 177.64l.984 1.97-.985-1.97m29.52 0l.985 1.97-.985-1.97z" class="E"/><path d="M163.31 175.672l2.954 2.952-2.953-2.952z" class="D"/><use href="#N" y="85.611" class="C"/><use href="#J" y="109.228" class="B"/><use href="#E" x="-26.569" y="132.844" class="I"/><path d="M131.82 186.497l.986 1.968-.985-1.968m23.618 0l.984 1.968-.984-1.968z" class="E"/><use href="#K" y="106.276" class="I"/><use href="#O" y="91.515" class="C"/><use href="#E" x="-26.569" y="138.748" class="F"/><use href="#H" y="126.94" class="B"/><use href="#K" y="112.18" class="F"/><use href="#I" y="123.988" class="I"/><path d="M127.886 196.336l2.952 2.953-2.952-2.954m29.52 0l2.953 2.953-2.953-2.954z" class="C"/><use href="#M" y="112.18" class="F"/><path d="M133.79 202.24l2.953 2.953-2.952-2.952m17.713 0l2.952 2.953-2.952-2.952z" class="B"/><use href="#D" x="-2.952" y="153.509" class="H"/><path d="M137.726 207.162l.984 1.968-.984-1.968m11.808 0l.984 1.968-.984-1.968z" class="E"/><use href="#E" x="2.952" y="153.509" class="H"/><use href="#H" y="144.653" class="F"/><path d="M136.743 211.097l2.952 2.952-2.952-2.953m11.808 0l2.953 2.952-2.952-2.953z" class="B"/><path d="M133.79 214.05l2.953 2.95-2.952-2.95zm17.713 0l2.952 2.95-2.952-2.95z" class="H"/><path d="M133.79 217l2.953 2.953L133.79 217m17.713 0l2.952 2.953-2.952-2.952z" class="G"/><use href="#B" y="183.03" class="B"/><use href="#G" y="165.317" class="D"/><use href="#U" x="-103.323" y="88.563" class="G"/><path fill="#c66" d="M142.647 225.857l2.952 2.953-2.953-2.953z"/><path d="M148.55 225.857l2.953 2.953-2.952-2.953z" class="G"/><use href="#B" y="194.839" class="D"/><path d="M139.695 234.714l2.952 2.952-2.952-2.952m5.904 0l2.95 2.952-2.95-2.952m-2.953 5.904l2.952 2.952-2.953-2.952z" class="C"/></svg>