<svg xmlns="http://www.w3.org/2000/svg" height="480" width="640" xmlns:v="https://vecta.io/nano"><style><![CDATA[.B{stroke:#000}.C{fill:#0000c4}.D{fill:#e10000}.E{stroke-width:.8}.F{stroke-width:1pt}.G{fill:#ffdf00}.H{fill-rule:evenodd}.I{fill:#005b00}.J{stroke-width:4.104}.K{stroke-width:.737}.L{stroke-width:.471}.M{stroke-width:.5pt}.N{stroke-width:.738}.O{stroke-width:.545}.P{stroke-width:.847}.Q{stroke-width:.849}]]></style><g class="H"><path fill="#ffe800" d="M0 0h640v480H0z"/><path fill="#00148e" d="M0 240h640v240H0z"/><path fill="#da0010" d="M0 360h640v120H0z"/><path d="M269.55 290.834l-72.424 76.485-1.277-1.644 72.422-76.485 1.277 1.644zm50.452 12.5l-94.777 99.908-1.662-1.572 94.777-99.91 1.662 1.574z"/><g fill="gray" class="B J"><use href="#B" transform="matrix(-.07 -.07 -.1 .1 265.03 429.55)"/><use href="#B" transform="matrix(-.07 -.07 -.1 .1 240.59 390.52)"/></g><g class="B K"><path d="M207.901 114.858s-7.972 215.43 23.917 215.43 47.835-22.677 47.835-22.677l-.387-118.419-71.366-74.336z" class="G"/><path d="M227.377 134.928c0 11.339-3.531 172.685 12.414 172.685s39.862-11.339 39.862-11.339l-.387-107.078-51.889-54.266z" class="C"/><path d="M237.754 145.782c0 11.339 2.036 139.149 17.981 139.149h23.918l-.387-95.738-41.512-43.413z" class="D"/></g><path d="M206.202 116.02l72.422 76.485 1.277-1.642-72.422-76.485-1.276 1.642z"/><path d="M184.314 158.981s-20.551 208.698 41.102 208.698c51.378 0 51.378-32.953 61.654-32.953l-10.278-76.892-92.481-98.853z" class="B E G"/></g><g class="B"><use href="#C" transform="matrix(.4 -.03 -.05 .35 135.14 147.37)" stroke-width="2.305" fill="none"/><g class="F H"><use href="#D" transform="matrix(.14 -.22 .3 .14 175.87 257.36)" class="I"/><use href="#E" transform="matrix(.18 -.1 .1 .17 177.61 256.68)" fill="red"/><g class="I"><use href="#D" transform="matrix(.18 .12 -.13 .33 181 96.41)"/><use href="#D" transform="matrix(.17 -.03 -.03 .33 179.31 159.26)"/><use href="#D" transform="matrix(.06 .25 -.17 .2 227.98 45.45)"/><use href="#D" transform="matrix(.2 -.2 .2 .24 150.27 241.08)"/><use href="#D" transform="matrix(.22 -.22 .25 .2 135.57 282.11)"/><use href="#D" transform="matrix(.26 .1 -.2 .32 130.78 147.66)"/><use href="#D" transform="matrix(.15 .2 -.32 .22 178.5 103.35)"/><use href="#D" transform="matrix(.08 .1 -.14 .16 250.68 102.64)"/><use href="#D" transform="matrix(.1 0 -.08 .17 238.09 136.41)"/><use href="#D" transform="matrix(0 .14 -.14 .08 287.38 81.13)"/><use href="#D" transform="matrix(.07 .1 -.25 .15 220.69 115.6)"/><use href="#D" transform="matrix(.13 .22 -.33 .2 207.03 70.11)"/></g></g><use href="#C" transform="matrix(.35 -.2 .14 .28 111.76 227.82)" stroke-width="2.37" fill="none"/><g class="H"><g fill="red" class="F"><use href="#E" transform="matrix(.18 -.1 .1 .17 200.34 224.62)"/><use href="#E" transform="matrix(.18 -.1 .1 .17 211.12 218.26)"/><use href="#E" transform="matrix(.2 -.1 .07 .13 166.81 232.7)"/><use href="#E" transform="matrix(.2 -.1 .07 .13 169.93 231.34)"/><use href="#E" transform="matrix(.2 -.1 .07 .13 168.14 234.25)"/></g><g stroke-width=".224pt"><use href="#F" fill="red"/><use href="#F" x="2.29" y="-2.38" fill="red"/><use href="#F" x="2.87" y="-1.23" fill="red"/></g></g></g><g class="H"><g class="E B"><path d="M204.864 180.947c0 10.985-20.551 131.812 30.827 164.765 20.551 10.984 51.378-10.985 51.378 0l-10.272-87.879-71.932-76.886z" class="C"/><path d="M225.419 202.914c0 10.985-10.275 98.859 20.551 120.826 20.551 21.968 71.932 16.01 71.932 16.01l-41.105-81.914-51.376-54.92z" class="D"/></g><path d="M183.85 158.08l94.775 99.91 1.662-1.573-94.776-99.91-1.66 1.574z"/><g class="B"><g fill="#cececc" class="F"><use href="#G" transform="matrix(.14 -.14 .1 .1 86.35 192.15)"/><use href="#H" transform="matrix(.1 -.16 .14 .1 113.99 183.83)"/></g><path d="M212.762 110.888c0 .62-.783 1.124-1.748 1.124s-1.749-.503-1.749-1.124.784-1.124 1.748-1.124 1.749.504 1.749 1.124zm-2.498 2.373c0 10.74 8.367 56.343 9.033 57.468.056 1.332-1.887 1.915-2.831.25-2.62-5.203-8.297-47.973-8.533-57.966-.098-4.12 1.504-4.44 3.33-4.371 1.504.063 3.33 1.117 3.33 2.373 0 1.499-2.332 2.622-4.33 2.248z" class="D L"/><use href="#I" transform="matrix(.38 .1 -.15 .3 76.05 38.16)" class="C F"/><path d="M186.655 151.54c0 1.034-.979 1.873-2.185 1.873s-2.186-.839-2.186-1.873.98-1.873 2.185-1.873 2.186.84 2.186 1.873zm-3.122 3.955c0 17.9 10.458 93.905 11.291 95.78.07 2.22-2.359 3.191-3.539.416-3.275-8.671-10.371-79.955-10.666-96.61-.122-6.867 1.88-7.4 4.163-7.285 1.88.105 4.163 1.863 4.163 3.955 0 2.498-2.915 4.37-5.412 3.746z" class="D M"/><use href="#I" transform="matrix(.48 .15 -.2 .48 16.67 31.58)" class="C F"/></g><path d="M370.454 290.834l72.423 76.485 1.277-1.644-72.423-76.485-1.276 1.644zM320 303.334l94.778 99.908 1.662-1.572-94.777-99.91-1.662 1.574z"/><g fill="gray" class="B J"><use href="#B" transform="matrix(.07 -.07 .1 .1 374.97 429.55)"/><use href="#B" transform="matrix(.07 -.07 .1 .1 399.41 390.52)"/></g><g class="B K"><path d="M432.119 114.858s7.972 215.43-23.917 215.43-47.835-22.677-47.835-22.677l.387-118.419 71.366-74.336z" class="G"/><path d="M412.643 134.928c0 11.339 3.531 172.685-12.414 172.685s-39.862-11.339-39.862-11.339l.387-107.078 51.89-54.266z" class="C"/><path d="M402.266 145.782c0 11.339-2.036 139.149-17.981 139.149h-23.918l.387-95.738 41.512-43.413z" class="D"/></g><path d="M433.814 116.02l-72.423 76.485-1.276-1.642 72.423-76.485 1.277 1.642z"/><g class="B"><g class="F I"><use href="#J" transform="matrix(.16 -.07 .08 .35 309.51 210.98)"/><use href="#J" transform="matrix(.2 -.05 .07 .4 291.49 182.57)"/><use href="#J" transform="matrix(.23 .14 -.03 .4 296.48 69.41)"/><use href="#J" transform="matrix(.25 .03 .02 .44 274.4 114.91)"/><use href="#J" transform="matrix(.18 .17 -.04 .35 329.99 66.98)"/><use href="#J" transform="matrix(.23 0 .03 .4 280.58 141.86)"/><use href="#J" transform="matrix(.2 -.07 .07 .38 290.14 196.84)"/><use href="#J" transform="matrix(.2 -.03 .05 .4 292.69 166.78)"/><use href="#J" transform="matrix(.22 .15 -.05 .38 305.08 65.51)"/><use href="#J" transform="matrix(.24 .05 0 .44 278.88 97.67)"/><use href="#J" transform="matrix(.17 .17 -.06 .33 338.96 70)"/><use href="#J" transform="matrix(.24 .02 0 .4 276.43 128.02)"/></g><g class="E"><path d="M455.706 158.981s20.551 208.698-41.102 208.698c-51.378 0-51.378-32.953-61.654-32.953l10.278-76.892 92.481-98.853z" class="G"/><path d="M435.156 180.947c0 10.985 20.551 131.812-30.827 164.765-20.551 10.984-51.378-10.985-51.378 0l10.272-87.879 71.932-76.886z" class="C"/><path d="M414.601 202.914c0 10.985 10.275 98.859-20.551 120.826-20.551 21.968-71.932 16.01-71.932 16.01l41.105-81.914 51.376-54.92z" class="D"/></g></g><path d="M456.172 158.08l-94.777 99.91-1.66-1.573 94.775-99.91 1.662 1.574z"/><g class="B"><g fill="#cececc" class="F"><use href="#G" transform="matrix(-.14 -.14 -.1 .1 553.66 192.15)"/><use href="#H" transform="matrix(-.1 -.16 -.14 .1 526.03 183.83)"/></g><path d="M427.278 110.888c0 .62.783 1.124 1.748 1.124s1.749-.503 1.749-1.124-.784-1.124-1.748-1.124-1.749.504-1.749 1.124zm2.498 2.373c0 10.74-8.367 56.343-9.033 57.468-.056 1.332 1.887 1.915 2.831.25 2.62-5.203 8.297-47.973 8.533-57.966.098-4.12-1.504-4.44-3.33-4.371-1.504.063-3.33 1.117-3.33 2.373 0 1.499 2.332 2.622 4.33 2.248z" class="D L"/><use href="#I" transform="matrix(-.38 .1 .15 .3 563.96 38.16)" class="C F"/><path d="M453.345 151.54c0 1.034.979 1.873 2.185 1.873s2.186-.839 2.186-1.873-.98-1.873-2.185-1.873-2.186.84-2.186 1.873zm3.122 3.955c0 17.9-10.458 93.905-11.291 95.78-.07 2.22 2.359 3.191 3.539.416 3.275-8.671 10.371-79.955 10.666-96.61.122-6.867-1.88-7.4-4.163-7.285-1.88.105-4.163 1.863-4.163 3.955 0 2.498 2.915 4.37 5.412 3.746z" class="D M"/><use href="#I" transform="matrix(-.48 .15 .2 .48 623.32 31.58)" class="C F"/><path d="M287.073 422.599c10.276 6.604 21.512 5.126 30.827 0v-87.873h-20.551c10.276 32.953 10.276 65.906-10.276 87.873z" class="D E"/><g class="C N"><path d="M303.303 336.685c0 62.007-14.863 75.789-14.863 88.186 6.201 0 10.313-5.774 14.863-13.779 6.201-12.402 6.799-75.376 6.201-74.41h-6.201z"/><path d="M290.903 336.685c-.283 36.239-15.678 69.748-12.774 77.168 3.316 6.632 12.774-15.158 25.176-2.756 6.201-12.402 6.799-75.376 6.201-74.41h-18.603z"/></g><g class="G O"><path d="M292.343 331.347c0 40.748-14.244 43.456-14.244 54.321 6.201 0 14.211-5.94 14.244-5.423 6.201-8.15 6.799-49.533 6.201-48.898h-6.201z"/><path d="M279.943 331.347c-.284 23.814-15.305 44.023-12.402 48.898 3.316 4.358 12.402-8.15 24.803 0 6.201-8.15 6.799-49.533 6.201-48.898h-18.602z"/></g><path d="M352.947 422.609c-10.276 6.604-21.512 5.116-30.827-.009v-87.866h20.551c-10.276 32.953-10.276 65.906 10.276 87.873z" class="D E"/><g class="C N"><path d="M336.707 336.695c0 62.007 14.863 75.789 14.863 88.186-6.201 0-10.313-5.774-14.863-13.779-6.201-12.402-6.799-75.376-6.201-74.41h6.201z"/><path d="M349.107 336.695c.284 36.239 15.678 69.748 12.774 77.168-3.316 6.632-12.774-15.158-25.175-2.756-6.201-12.402-6.799-75.376-6.201-74.41h18.602z"/></g><g class="G O"><path d="M347.687 331.357c0 40.748 14.244 43.456 14.244 54.321-6.201 0-14.211-5.94-14.244-5.423-6.201-8.15-6.799-49.533-6.201-48.898h6.201z"/><path d="M360.088 331.347c.284 23.814 15.306 44.023 12.402 48.898-3.316 4.358-12.402-8.15-24.803 0-6.201-8.15-6.799-49.533-6.201-48.898h18.602z"/></g><path d="M241.627 341.509l-10.761 7.795 10.761 7.795 5.38-3.898 2.69 3.898 2.69 7.795 2.69-7.795 2.69-3.898h144.228v-7.795H257.769l-2.69-3.898c0-3.898.564-7.795 2.69-7.795h10.761c0-3.898-5.381-11.693-16.141-11.693s-16.141 7.795-16.141 11.693h10.761c2.126 0 2.69 3.898 2.69 7.795l-2.693 3.898-5.381-3.898z" fill="#908f8a" stroke-width=".792"/><g fill="#b74d00" stroke-width=".506"><path d="M273.278 360.431h94.251v4.784h-94.251z"/><use href="#K"/><use href="#K" y="-9.567"/><path d="M273.278 336.514h94.251v4.783h-94.251zm0-4.784h94.251v4.784h-94.251z"/></g><g fill="#908f8a"><g class="P"><path d="M277.698 331.444l34.45 33.485h4.921l-34.45-33.485h-4.921z"/><path d="M277.698 365.926l34.45-33.485h4.921l-34.45 33.485h-4.921z"/></g><use href="#L" class="Q"/><g class="P"><path d="M322.038 331.444l34.45 33.485h4.922l-34.45-33.485h-4.921z"/><path d="M322.038 365.926l34.45-33.485h4.922l-34.45 33.485h-4.921z"/></g><g class="Q"><use href="#L" x="78.84"/><use href="#L" x="44.35"/><use href="#L" x="34.49"/></g></g><g class="E G"><path d="M389.826 235.867c0 54.57-32.225 98.859-71.932 98.859s-71.932-44.288-71.932-98.859 32.225-98.859 71.932-98.859 71.932 44.288 71.932 98.859zm-10.276 0c0 48.507-27.621 87.873-61.654 87.873s-61.654-39.367-61.654-87.873 27.621-87.873 61.654-87.873 61.654 39.368 61.654 87.873z"/><path d="M345.885 144.783c-8.605-5.005-18.064-7.773-27.99-7.773s-19.385 2.768-27.989 7.773l3.998 10.12c7.375-4.449 15.483-6.909 23.991-6.909s16.616 2.46 23.991 6.909l3.999-10.12zm.12 179.564c-8.605 5.005-18.064 7.773-27.99 7.773s-19.385-2.768-27.989-7.773l3.998-10.12c7.375 4.449 15.483 6.909 23.991 6.909s16.616-2.46 23.991-6.909l3.999 10.12z"/></g></g><path d="M379.554 235.867c0 48.532-27.603 87.873-61.654 87.873s-61.654-39.343-61.654-87.873 27.603-87.873 61.654-87.873 61.654 39.343 61.654 87.873z" fill="#a7cfff"/><g class="B"><g class="E"><path d="M379.554 235.867c.657 16.528-2.688 24.574-6.896 41.761-1.109 1.848-6.36-4.053-9.539-6.966s-4.531 2.629-8.431-1.889-6.409 1.276-9.27-2.539-29.754-4.375-29.792-4.703c2.662-1.411 16.397.094 14.195-6.94-2.494-7.266-18.034-.217-20.12-9.526-1.415-9.242-31.069-9.637-33.188-11.92.838 3.512 23.042 4.991 22.512 13.993-.483 3.668-21.862 4.74-23.923 7.844-1.766 3.903 16.778-1.058 17.466 3.74-.045 1.975-2.728.042-12.387 3.094-4.829 1.525 8.963 6.405 3.718 9.075s-16.391 3.837-15.911 4.959c1.705 5.523 25.922 12.112 23.51 13.06-8.557 4.067-13.08 6.741-17.184 9.084-11.159-15.905-18.065-37.874-18.065-62.124 18.395-7.071 14.481-8.516 48.514-8.516s45.228 1.445 74.791 8.516z" fill="#afff7b"/><path d="M379.554 235.867c-4.681 0-9.543 2.108-14.541 2.108s-10.13-2.108-15.35-2.108-11.186 2.81-16.537 2.81-10.085-2.809-15.472-2.809-10.768 2.106-16.098 2.106-10.607-2.108-15.786-2.108-10.26 2.108-15.196 2.108-9.727-2.108-14.326-2.108c0-12.127 1.726-23.682 4.848-34.193 15.704 1.24 6.404-9.744 15.704-9.744 5.02 0 10.112 1.153 14.638 6.069 1.419 0 8.398-7.051 16.189-6.069s4.925 16.909 15.295 17.755c5.257 4.214 8.348 6.903 15.532 8.601 10.275.996 39.643-1.55 39.848-.12.838 5.858 1.256 11.776 1.253 17.702z" fill="#fff"/></g><g stroke-width=".49"><path d="M327.2 286.991c0-2.719 2.702-4.542 2.702-8.892s-2.383-4.488-2.476-8.573c-.04-1.661 2.064-3.382 2.983-3.521s1.699 3.562 1.699 4.378-.932-2.012-1.716-2.101-2.463.302-2.463 1.118c0 1.632 2.97 3.647 2.743 9.084s-2.542 7.035-2.542 8.666 1.011 6.173 1.011 6.173-1.943-3.614-1.943-6.332z"/><path d="M335.86 286.611c0-2.719-2.702-4.542-2.702-8.892s2.39-4.487 2.476-8.573c.189-1.902-2.363-3.141-3.282-3.28s-1.997 3.802-1.997 4.618 1.082-2.494 1.865-2.582 2.911.302 2.911 1.118c0 1.631-2.97 3.647-2.743 9.084s2.542 7.035 2.542 8.666-1.011 6.173-1.011 6.173 1.943-3.614 1.943-6.332z"/></g></g><path d="M332.965 264.846c0 1.333-.65 2.413-1.454 2.413s-1.454-1.08-1.454-2.414.65-2.413 1.455-2.413 1.455 1.08 1.455 2.413zm16.951 8.964h.465v19.617h-.464zm4.182-1.487h.464v19.616h-.464z"/><path d="M352.597 281.23l.004-.493 3.978.684-.004.495z"/><g class="E"><path d="M295.401 286.923s15.11 7.023 18.395 11.237 1.971 4.214 1.971 4.214l33.507 1.405c0-2.107 5.912-2.108 7.227-7.023s1.313-6.32 1.313-6.32l-10.511 3.512.657-6.32h-9.197l-1.314 6.32-19.71-.702 1.314-16.855-3.942.702-.657 16.153c-.658 0-18.396-4.917-19.053-6.321z" fill="#b74d00" class="B"/><path d="M265.137 185.914s21.834-6.953 53.424-6.456 53.424 7.945 52.96 7.945-6.04-11.422-6.04-11.422-22.299-6.455-47.384-6.952-46.921 4.966-46.456 5.462l-6.503 11.422z" stroke="#fede00" fill="#fede00"/></g><path fill="#38a9f9" d="M306.072 169.855l13.562-.262.137 7.9-13.56.264zm-31.297 4.3l-4.783 7.784 16.165-1.992-1.297-7.783-10.085 1.99zm13.778-2.995l13.518-1.187.62 7.876-13.516 1.187zm48.837-.806l-13.538-.91-.475 7.888 13.537.91zm29.182 4.953l4.918 9.69-14.642-3.614 1.63-7.714 8.094 1.637zm-11.736-2.817l-13.453-1.83-.957 7.837 13.453 1.832z"/><g class="B G"><path d="M318.561 190.384l-1.496-8.351-4.373 7.105 1.607-8.327-6.577 4.774 4.466-7.037-7.789 1.724 6.641-4.675-7.813-1.6 7.813-1.6-6.641-4.669 7.789 1.717-4.466-7.037 6.577 4.774-1.607-8.327 4.373 7.105 1.496-8.351 1.491 8.351 4.373-7.105-1.607 8.327 6.583-4.774-4.472 7.037 7.795-1.717-6.647 4.669 7.813 1.6-7.813 1.6 6.647 4.675-7.795-1.724 4.472 7.037-6.583-4.774 1.607 8.327-4.373-7.105z" class="E"/><path d="M330.088 168.68c0 4.645-3.781 8.41-8.446 8.41s-8.446-3.765-8.446-8.41 3.781-8.41 8.446-8.41 8.446 3.765 8.446 8.41z" stroke-width=".715"/></g><path d="M320.676 170.552c0 .545-1.257.988-2.807.988s-2.807-.443-2.807-.988 1.256-.988 2.806-.988 2.806.442 2.806.988zm6.079-.002c0 .547-.943.99-2.105.99s-2.105-.443-2.105-.99.942-.987 2.105-.987 2.105.443 2.105.988z"/></g><g fill="none" class="B"><path d="M529.43 297.86l.8.8c-1.9-1.9-.995-1.125 1.603 3.204 2.393-.495 3.09-1.39 4.806-2.403" transform="matrix(.56 -.18 .17 .6 -26.71 90.63)" class="F"/><path d="M314.841 178.467l.464.496c-1.102-1.178-.651-.616 1.859.994 2.336.337 4.693-.742 6.039-2.483" class="E"/></g><g class="H"><path d="M281.395 194.854s.93 7.945-5.11 17.877-5.11 6.457-5.11 6.457 2.787 5.462 2.323 5.462-4.646-4.966-4.646-4.966l-5.11 5.462s4.646-8.442 4.18-8.442-1.393-2.98-1.393-2.98l3.715-1.49s5.575-10.428 5.575-9.93-16.724 11.42-16.724 11.42l22.3-18.87zm3.718 2.982c-.465 0 2.322 7.946 4.645 11.918s2.323 8.94 2.323 8.94l7.9 3.972-10.222-15.394 6.504 2.482-11.15-11.918zm0 20.857s5.574 5.96 6.04 7.945.463 6.456.463 6.456l-2.322-4.966-3.252 4.47s2.323-6.953 1.858-7.45-3.717 2.484-3.717 2.484 1.394-3.973 1.394-4.47 0-2.98-.464-4.47zm-27.875 13.9c1.858-1.49 5.574-2.482 5.574-2.482s-2.323 3.973-2.787 3.973-1.858 0-2.787-1.49zm64.107-21.848s12.078 7.45 12.078 7.946-7.897-3.476-7.897-3.476l-4.18-4.47zm-21.831-15.395c.93.497 17.653 14.4 17.188 14.4s-7.432-3.972-7.432-3.475v3.476l-3.717-7.945-.93 2.98-5.11-9.435zm4.176 22.345l4.646 9.435 4.645-.993s-8.825-8.442-9.29-8.442zm14.407-5.958c0 1.49.465 8.938.465 8.938s2.787 2.483 2.787 1.987-2.788-10.43-3.253-10.925z" fill="#b7e1ff"/><path d="M182.612 89.522s20.98-11.61 44.87-20.254 50.68-14.325 54.222-14.325c7.077 0 19.21 17.783 21.233 17.783s10.11-4.94 20.223-4.94 16.178 7.904 18.2 7.904h18.2c2.023 0-6.066-19.76 0-18.77 3.034.493 28.817 4.445 52.833 12.225s58.103 21.515 58.103 21.515-55.714 7.44-70.488 5.24c-2.022.988-.1 13.07-2.933 7.754-4.656-1.063-21.744-3.727-24.778-3.727s-8.69 3.427-16.78 5.402-18.2 4.94-18.2 4.94l13.146 20.747-16.178 7.903s-10.11-23.71-14.156-23.71-6.067 16.795-11.123 15.807-7.078-15.808-11.123-19.76-25.368-5.39-33.458-7.366-21.144-3.5-28.222-5.476-14.155 4.94-17.19 4.94 4.046-5.928 1.012-6.916-5.055 2.964-7.078 2.964-23.256-3.952-25.278-4.94 5.056-4.94 3.034-4.94h-8.09z" fill="#984000"/><g stroke="#772600"><path d="M333.47 79.636c0 5.499-4.51 9.957-10.074 9.957s-10.074-4.458-10.074-9.957 4.51-9.957 10.074-9.957 10.074 4.458 10.074 9.957z" fill="gray" stroke-width=".893"/><path d="M282.27 81.468c1.798-2.131 4.046-5.328 9.891-5.328 1.349-.533 1.349-3.73 4.495-3.73s2.248 3.197 4.496 4.262 20.681-1.066 20.681-1.066 1.798 1.599 1.798 3.73-1.349 3.73-1.798 3.73-18.433-1.598-19.782-1.066-2.248 1.066-5.395 1.066-4.046-3.73-6.294-3.73-4.496-.533-8.093 2.131z" fill="#984000" stroke-width="1.554"/></g></g><g fill="none"><path d="M337.118 80.389h7.193c2.584.036 3.476.962 5.845 1.066h6.294c2.289-.1 3.497-.734 5.845-1.066 3.916-.056 2.58-.418 1.798-3.197-.709-2.101-.797-3.075-1.798-4.263-.377-2.542-1.257-3.446-1.349-6.394-.412-2.249-1.172-3.761-.45-6.395 1.037 1.807 1.454 2.55 4.046 2.664 2.712 0 3.763-.066 5.395 1.066 1.259 1.565 2.939 1.066 5.395 1.066 2.073.45 2.419 1.7 4.046 2.664 1.918 1.259 3.157 1.598 5.844 1.598 2.151.455 4.018.825 5.395 1.598 1.147 1.626 2.957 2.028 5.395 2.131 1.363 0 2.417-.168 3.596-.533 2.073.118 4.178 0 6.744 0 1.664 2.307 2.048 3.156 4.946 3.197 1.981 1.65 3.652 1.932 5.395 2.665h6.744c2.411.22 3.183 1.392 5.395 2.131 2.191 1.206 4.245 2.032 5.845 2.664 1.59.41 3.665.533 5.844.533 1.669 1.016 3.675 1.107 4.946 2.131l5.845 1.599c2.38.374 3.29 1.261 5.395 1.598 1.81.613-.6 1.139-1.798 1.598-2.653-.116-2.845-1.263-5.395-1.598-1.356-.941-3.413-.815-5.395-1.599h-.45c1.782 1.249 3.496 2.055 2.697 4.262-2.292 0-4.149-.351-6.294-.533-2.264-.517-3.301-1.066-5.845-1.066 2.536-.724 3.201.086 4.945 1.066.647 2.579-.736 1.599-3.147 1.599-2.055-.874-3.287-1.915-5.845-2.131h-5.395c2.67.117 3.234 1.312 4.945 2.664.14.829-.036.791-1.349 1.066-1.393-1.433-3.21-1.924-5.395-2.664-2.128-.09-4.379-.309-6.294-1.066-1.314-.097-1.112-1.977 1.798 1.066 1.764 1.23 2.385 2.223 2.248 3.197-2.316-.686-3.463-1.786-4.946-2.664-2.089-.914-3.815-1.066-6.294-1.066-2.325-.725.241-1.144 1.798 1.598 3.343 2.806-.441 1.602-1.798 1.066l-5.844-2.131c-1.362-.461-2.549-.914-4.046-1.066 2.33.251 3.124 1.223 4.046 3.197 2.364 1.93-.104.992-2.248.533-1.369-1.409-3.101-2.131-4.046-3.73-2.255-1.336-2.312-2.874-.899.533.368 1.09.3 3.454.45 3.73-1.657-2.12-1.303-2.664-3.147-2.664-1.251-1.038-3.104-1.845-4.046-3.197-1.737-.193-1.847-.928-3.596-1.599l4.495 5.861c2.051 1.357 2.619 2.579 4.046 3.73.578 1.165 2.134 2.13.45.533-1.929-2.254-3.364-2.774-6.294-4.262l-4.046-3.73c-2.431-.93-1.487-1.454 0 1.598l4.496 5.328c1.017 1.571 2.737 3.238 4.046 4.263.405.72 1.617.852 0 1.066-1.374-1.471-3.347-2.41-4.946-3.73-2.242-.749-3.291-2.129-4.945-3.73-1.053-1.872-2.803-3.322-4.046-4.796-2.6-1.206.513 1.164 1.349 2.664l1.798 5.328c.751 1.779-2.287-.425-3.147-1.066-1.976-1.33-3.422-2.22-5.845-2.664-1.615-.416-3.673-.79-5.395-1.066-2.056-.656 1.091 1.536 2.248 3.73 2.273 2.531-2.25.456-3.596 0-2.22-.526-4.398-.533-6.744-.533-2.881.201-.823.623 0 2.131.887.81 1.522 2.514 1.349 3.197-1.899-.304-3.517-.967-5.844-1.066-1.879.742-4.143.533-6.294.533-.103 1.341.39.209 1.348 1.598 1.556.749 2.588 1.657 2.248 2.664h-13.037c-1.428.463.308.225 1.35 2.132-.583 1.729-1.337 1.066-3.147 1.066-1.227-.582-3.671-.844-4.946-1.599-1.266 0-1.171-.39-2.248-.533 3.789 3.178 1.91 2.384 4.046 4.796.369.146 1.221.533.449.533m-29.674 17.05c-.269 0-.864-1.72-1.798-3.197-.628-1.936-1.456-.829-2.248-3.73.094-3.009.185-3.55 0-6.394-1.853-1.531-2.623-2.006-4.046-4.796-2.284-2.265.334-6.1.768-8.912-1.991-.524-2.97 3.673-6.032 5.182-2.202 1.757-.246-3.633-1.321-6.78-.749-4.439-2.923 2.226-3.756 4.116-1.476 1.19-1.925 2.733-4.046.533 0-1.646 1.333-6.237.768-7.13-2.11 1.221-4.884 4.957-7.063 5.531-2.195-.565.478-4.745.478-7.846-.793-.314-3.968 8.242-5.27 8.321s-.733-8.318-1.342-8.137c-.956 1.587-2.875 4.938-4.206 6.063-2.553-.39.377-5.579.768-7.497.44-2.294-2.404 4.4-3.916 4.833-1.107 1.137-3.304 1.943-4.046 2.131.875-1.962 5.151-5.988 4.842-7.129-2.487.109-6.294 4.018-8.439 4.465-1.401 0-3.344.563-3.596.533.121-2.536 5.243-4.688 6.06-6.229-2.513.478-7.34 3.106-8.758 5.163-1.659.428-3.765.966-5.395 0 .242-2.392 4.011-7.039 4.843-8.563-2.267 1.183-3.413 2.109-5.845 2.664-.446.529-1.761 1.674-1.349.533.717-2.222 1.803-3.235 2.697-4.796-2.012.436-2.776 1.803-4.945 3.197-1.375.071-5.304 4.754-6.641 4.833-3.091 2.682-4.323 3.138-7.643 4.262-2.048.434-3.04.939-4.046 2.131 1.025-2.14 2.591-4.189 4.046-5.328.993-1.781 1.922-3.262 4.046-4.262.512-.742 1.941-.93.45-1.066-1.281 1.356-3.428 2.869-4.495 3.73-1.378 1.026-2.973 2.074-3.597 1.598.707-2.303 2.008-2.849 3.147-4.796 2.379-1.793.011-.612-1.798 0-1.171 1.238-3.273 2.153-4.945 3.197-1.921.594-3.16 1.962-5.395 2.664 0 .76.638-1.36.899-2.131 1.844-2.371 2.337-3.032 4.495-3.73.516-.917 1.193-.532-.45-.532-1.219 1.288-2.919 1.988-4.495 3.197-1.591.41-3.665.533-5.845.533-2.796.398-2.554.648 0-1.066 1.446-1.613 2.638-1.208 2.697-3.197-1.689 1.449-3.744 2.515-5.844 3.73-1.737.061-2.196.533-4.046.533.89-1.093 1.425-2.443 2.697-3.197 1.862-2.452-1.182-.473-1.798 0h-6.744c-1.206 1.786-.062.016.899-1.066 1.163-.717 2.364-1.65 2.248-2.131-1.342 1.38-2.896 2.015-4.046 3.197-1.253.445-2.697.667-2.697 1.066.979-1.711 2.571-2.744 3.596-4.262 1.515-.39 2.807-.94 3.147-1.599h-6.294 4.496c2.268 0 4.22-.24 6.295-.533 3.581-.707-.313-1.066-2.248-1.066-.375-.815 1.11-1.276 2.697-1.598 1.356-.762 3.033-1.438 4.495-2.131 1.419-.459 3.431-1.859 3.597-2.131-1.354.084-1.343.448-2.697.532 2.01-.184 3.456-.533 5.844-.533 2.168-.826 4.025-1.731 5.845-2.664.793-1.148 1.145-1.066-.899-1.066 1.813-.691 4.384-1.022 5.845-1.598 2.125-.54 4.023-1.361 5.395-2.131 1.317-1.061 2.076-2.296 3.596-3.197 1.763 1.42 1.783 1.598 4.946 1.598 2.541-.036 4.096-.759 5.395-2.131 1.946-.629 2.29-1.738 4.496-2.131 2.01.425 4.058.532 6.294.532 2.186-.678 4.233-1.923 5.845-3.197 1.375-.801 3.008-1.958 4.495-2.664 1.639 1.003 2.928 1.808 4.946 2.131 2.087-.367 3.172-1.558 4.946-2.131.966-1.386 2.37-2.122 4.046-2.664 2.611-1.52 2.407.503 3.596 2.131 1.322 1.642 3.071.858 4.946 1.598 1.034 1.886 1.795 3.172 3.147 4.262 1.05 1.507 2.297 1.931 4.495 2.131.801 1.267.163 2.18 1.799 2.665.644.81 1.76 1.154 2.697 1.598" stroke="#772600" stroke-width="1.036"/><path d="M331.95 114.757v.267c0-.745-.028-.349.45 1.066.161 1.165-.219 1.03-.674 1.865l-.225 3.463c-.145 1.156-.694 2.253-1.124 3.197-.433 1.003-2.31 1.558-2.248 2.931-1.077.365-1.103-.462-1.124-1.866-.644-.872-.867-2.069-1.349-3.197-.299-1.112-.937-1.93-1.349-3.197-.664-1.212-1.227-1.56-1.798-2.931-.223-.661-.184-1.477-.674-1.865-.734-1.1-1.212-1.277-2.473-1.332-.969.27-1.342.773-2.247 1.066-.694.274-2.044.186-2.922.533-.218.42.432.621.674 1.598-.576.564-.79 1.563-1.124 2.398-.531.796-.886 1.186-1.124 2.398.368.741.054 1.724-.45 2.398-.155 1.236-.657 1.88-.899 2.931-.725.584-.986 1.132-1.574 2.131-.517.857-.982.799-2.248.799-.99-.32-1.129-.956-2.023-1.332-.095-.338-.164-.42-.45-.532" stroke="#782600" stroke-width=".925"/></g><path d="M307.65 125.534s-.455 4.955-3.643 8.258-9.794 7.157-9.794 7.157 8.882-4.222 9.793-3.304-5.694 8.258-5.694 8.258 8.655-7.708 9.794-7.708 3.644 7.524 4.555 7.34-2.05-9.542-1.593-11.01 0-9.36 0-9.36l-3.416.368zm20.496-.672s-.456 5.297-3.644 8.828-9.794 7.65-9.794 7.65 8.882-4.512 9.793-3.53-5.692 8.827-5.692 8.827 8.654-8.24 9.793-8.24 3.645 8.043 4.556 7.847-2.05-10.2-1.594-11.77 0-10.004 0-10.004l-3.416.392zm-28.693-48.045c0 .987-.967 1.788-2.16 1.788s-2.158-.8-2.158-1.788.966-1.787 2.16-1.787 2.158.8 2.158 1.787z" fill="#812e00" class="H"/><defs ><path id="B" d="M478.35 60.236v88.583l17.717 88.582 17.717-88.583V60.235H478.35z"/><path id="C" d="M269.59 155.24c1.133 0 28.318-94.016 118.94-147.25"/><path id="D" d="M421.37-20.327c0 18.133-4.567 31.716-11.328 45.31-5.627-18.125-9.06-27.177-9.06-45.31s6.83-35.114 12.458-48.707c2.23 12.46 7.93 30.574 7.93 48.707z"/><path id="E" d="M454.22-169.28c0 4.066-3.804 7.363-8.495 7.363s-8.496-3.297-8.496-7.363 3.803-7.363 8.495-7.363 8.495 3.297 8.495 7.363z"/><path id="F" d="M252.646 167.252c.407.813-.024 1.853-.963 2.322s-2.029.19-2.435-.623.024-1.853.963-2.322 2.028-.19 2.435.623z"/><path id="G" d="M460.63 184.25l17.716 35.433V237.4c-.865-1.305 0 17.716-17.716 17.716s-17.717-35.433-17.717-35.433-17.716 35.433-17.716 70.866 17.716 53.15 17.716 53.15-2.61-36.704 17.717-35.434 17.716 17.716 17.716 17.716v35.433h17.717v-141.73l17.717-35.433-27.136-53.15-26.014 53.15z"/><path id="H" d="M557.82 95.67l-26.323 70.865 17.717 53.15-35.433-17.716 35.434 53.148v35.433h17.716v-35.43l35.433-53.15-35.433 17.717 17.717-53.15L557.82 95.67z"/><path id="I" d="M422.53 136.96c0 2.068-1.958 3.746-4.37 3.746s-4.372-1.678-4.372-3.746 1.96-3.747 4.37-3.747 4.372 1.68 4.372 3.747zm-6.244 7.91c31.488 61.414 48.722 166.77 50.387 170.52.14 4.44-4.718 6.382-7.077.832-2.48-3.315-12.667-100.18-49.138-172.18-.244-13.734 3.76-14.8 8.326-14.57 3.76.21 8.325 3.725 8.325 7.91 0 4.995-5.83 8.74-10.824 7.492z"/><path id="J" d="M428.17-16.928s81.556 90.618 111.01 154.05 54.37 156.32 54.37 156.32 2.266-86.086-36.246-163.11c-52.1-97.42-131.4-142.73-129.13-147.26z"/><path id="K" d="M273.278 355.648h94.251v4.784h-94.251zm0-4.784h94.251v4.784h-94.251z"/><path id="L" d="M278.616 331.444v33.485h4.96v-33.485h-4.96z"/></defs></svg>