<svg xmlns="http://www.w3.org/2000/svg" height="480" width="640" xmlns:v="https://vecta.io/nano"><style><![CDATA[.B{stroke-opacity:.996}.C{stroke-width:.606}.D{fill-rule:evenodd}.E{stroke:#000}.F{fill:#dd8b59}.G{stroke-width:1.16}.H{fill-opacity:.996}.I{fill:#fecf3e}.J{fill:#bcbcbc}.K{stroke:#512007}]]></style><defs><linearGradient id="A" gradientUnits="userSpaceOnUse"><stop stop-color="#a43907" stop-opacity=".996" offset="0"/><stop stop-color="#fff" offset="1"/></linearGradient><linearGradient id="B" y2="577.14" href="#A" x2="470.9" y1="592.2" x1="444.4"/><linearGradient id="C" y2="591.528" href="#A" x2="489.317" y1="601.886" x1="430.746"/><linearGradient id="D" y2="580.2" href="#A" x2="445.28" y1="578.68" x1="472.38"/><linearGradient id="E" y2="597.188" href="#A" x2="429.054" y1="592.502" x1="486.892"/><linearGradient id="F" y2="369.94" href="#A" x2="646.19" y1="369.94" x1="851.78"/><linearGradient id="G" y2="620.675" href="#A" x2="555.468" y1="618.821" x1="318.595"/><linearGradient id="H" y2="607.032" href="#A" x2="467.712" y1="605.928" x1="487.066"/><linearGradient id="I" y2="627.483" href="#A" x2="458.282" y1="624.652" x1="476.773"/><linearGradient id="J" y2="503.9" href="#A" x2="589.77" gradientTransform="scale(.84 1.2)" y1="517.88" x1="552"/><path id="K" d="M445.63 595.48s5.625-8.75 10.313-8.125 9.062 6.25 9.375 6.562 7.187-7.187 6.875-7.5-7.188-16.562-10.938-17.187-11.847 1.196-11.847 1.82-3.778 24.43-3.778 24.43z"/><path id="L" d="M433.13 586.11c0 .625 1.875 23.75 10 31.875s21.25 13.125 25.938 11.875 15.312-24.687 15.312-24.687-11.25 11.25-19.687 9.375-13.438-15.938-15-22.813-.313-20.313-.313-20.313l-16.25 14.688z"/><path id="M" d="M467.82 625.48c.625-.937 7.187-11.875 7.187-11.875l-3.598-2.538c-1.106 3.094-5.153 4.1-5.778 7.85s2.813 7.5 2.188 6.563z"/><path id="N" d="M475 622.98s1.25-5.312-2.812-5.937-6.214 2.973-5.625 1.562c.654-1.567 3.125-3.125 3.437-8.437s-.312-8.125-.312-8.125 1.562-6.876 8.125-5.938 6.875 5.938 6.875 7.813-.625 2.812-.625 2.812L475 622.98z"/></defs><g fill="#006"><path d="M0 0h640v480H0z"/><path d="M0 0h400v200H0z" class="D"/></g><g fill="#fff"><path d="M0 0v25.562L317.137 228.63h39.92v-25.56L39.918 0H0zm357.056 0v25.56L39.92 228.63H0v-25.562L317.137 0h39.92z"/><path d="M148.773 0v228.63h59.51V0h-59.51zM0 76.21v76.21h357.056V76.21H0z"/></g><path d="M0 91.452v45.726h357.056V91.452H0zM160.675.002v228.627h35.706V0h-35.705zM0 228.63l119.02-76.21h26.61L26.614 228.63H0zM0 0l119.02 76.21H92.405L0 17.042V.002zm211.425 76.21L330.445 0h26.61L238.038 76.21h-26.612zm145.63 152.42l-119.018-76.21h26.613l92.406 59.168v17.04z" fill="#c00"/><g class="D"><g fill="url(#B)"><path d="M670.97 321.56a13.22 13.22 0 0 0-2.03.188c-3.39.59-8.734 11.63-11.69 18.094-4.62 5.644-7.088 10.03-9.03 13.28-.755 1.263-1.92 2.728-1.563 4.407-6.996 1.718-7.344 7.724-7.344 10.06 0 2.48.782 3.72.782 3.72l4.187 7.843.03.094c4.458 9.216 11.058 21.626 14.75 22.656 5.244 1.462 18.822-3.55 29-12.156 16.69 6.875 38.073 12.562 61.97 12.562s45.248-5.69 61.938-12.563c10.18 8.606 23.758 13.618 29 12.156 3.705-1.033 10.324-13.525 14.78-22.75l4.19-7.844s.78-1.24.78-3.72c0-2.338-.377-8.344-7.375-10.062.35-1.678-.776-3.143-1.53-4.406-1.958-3.274-4.42-7.7-9.095-13.406-2.966-6.48-8.29-17.382-11.656-17.97-4.742-.825-14.97 1.58-14.97 2.407 0 .02-.057.45-.062.5l-20.54 19.4c0 .557 1.09 14.594 4.938 27-13.75 5.006-30.626 8.532-50.406 8.532-19.793 0-36.715-3.52-50.47-8.532 3.85-12.406 4.97-26.443 4.97-27l-20.53-19.4c-.005-.05-.063-.48-.063-.5 0-.723-7.83-2.675-12.968-2.593zm5.25 24.094c2.582-.032 5.332 2.095 7.594 4.47l-.25 1.374c-.624 2.872-1.696 6.663-3.188 10.625-5.87-3.43-10.66-6.996-14.312-10.312 2.228-2.37 5.806-5.596 9.594-6.124a4.06 4.06 0 0 1 .563-.03zm147.56 0c.187.002.377.005.563.03 3.788.53 7.397 3.757 9.625 6.126-3.66 3.324-8.457 6.91-14.344 10.344-1.498-3.97-2.563-7.778-3.188-10.656-.094-.432-.172-.907-.25-1.375 2.265-2.38 5.006-4.5 7.594-4.47zm-166 27.375c2.73 2.09 6.296 4.475 10.594 7-1.19.755-2.456 1.316-3.78 1.624-1.766.41-3.622.33-5.5-.063-.588-1.45-1.083-3.274-1.22-5.717-.051-.947-.082-1.895-.094-2.844zm184.47 0c-.014.877-.068 1.825-.125 2.843-.137 2.443-.6 4.267-1.188 5.72-1.88.392-3.766.47-5.53.06-1.326-.307-2.56-.868-3.75-1.624 4.3-2.525 7.862-4.908 10.593-7z" transform="matrix(1.17 0 0 1.17 -389.23 -21.96)" stroke="#fff" stroke-width="10"/><use href="#K" transform="matrix(-1.48 0 0 1.54 1073.61 -525.43)" class="E G"/></g><use href="#L" transform="matrix(-1.48 0 0 1.54 1073.61 -525.43)" fill="url(#C)" class="E G"/><g transform="matrix(1.48 0 0 1.54 -99.78 -525.43)" class="E G"><use href="#K" fill="url(#D)"/><use href="#L" fill="url(#E)"/></g><path d="M656.44 338.56c-4.742 5.785-7.274 10.257-9.25 13.562s-.814 7.906 3.75 14.47c4.92 7.072 45.374 34.718 98.062 34.718s93.142-27.646 98.062-34.72c4.564-6.562 5.695-11.162 3.72-14.468s-4.478-7.777-9.22-13.562c0 8.677-33.512 40.03-92.562 40.03s-92.562-31.353-92.562-40.03z" transform="matrix(1.17 0 0 1.17 -388.04 -20.79)" stroke-width="1.5" fill="url(#F)" class="E"/><g class="G E"><use href="#M" transform="matrix(1.48 0 0 1.54 -98.8 -524.06)" fill="url(#G)"/><use href="#N" transform="matrix(1.48 0 0 1.54 -99.78 -525.43)" fill="url(#H)"/></g></g><path d="M568.3 406.338l1.973 3.453 1.332-.83-.884-2.28.165-.448 2.318-1.446 6.067 10.608-.15.516-1.2.88.546.957 5.777-3.606-.547-.954-1.31.686-.507-.106-6.068-10.61 2.32-1.447.434.072 1.52 1.883 1.335-.833-1.973-3.452-11.148 6.958zm-14.253 8.169l.48.993 1.216-.513.478.155 5.21 10.764-.165.494-1.117.716.48.993 5.687-3.002-.48-.993-1.256.536-.48-.154-2.47-5.108 5.806-3.065 2.47 5.11-.143.482-1.158.737.48.993 5.667-2.99-.48-.993-1.215.514-.478-.154-5.21-10.765.165-.493 1.116-.718-.48-.993-5.665 2.99.48.994 1.256-.535.46.165 2.147 4.44-5.807 3.064-2.148-4.438.165-.494 1.157-.74-.48-.992-5.687 3zm-3.337 9.151l.305 1.066 1.628-.39.432.198 1.275 4.437-1.168.435c-3.32 1.037-6.004-.613-7.128-4.53-1.093-3.806.24-6.687 3.455-7.692a4.747 4.747 0 0 1 1.89-.21l.434.29 1.072 2.177 1.574-.492-1.06-3.697c-1.735.02-3.334.26-4.758.704-4.787 1.496-7.015 5.44-5.734 9.9 1.3 4.523 5.26 6.7 9.788 5.285 1.574-.493 3.083-1.296 4.575-2.403l-1.454-5.068.257-.413 1.22-.5-.306-1.066-6.298 1.968zm-13.338 12.512l6.428-2.024-.32-1.064-1.473.346-.45-.24-3.483-11.577.253-.412 1.407-.563-.32-1.064-6.428 2.025.32 1.064 1.452-.338.435.196 3.484 11.578-.24.456-1.385.554.32 1.064zm-34.8 5.693l11.316-1.036-.345-4.047-1.433.13-.155 2.432-.243.387-4.888.446-.502-5.88 2.74-.252.322.29.35 1.61 1.242-.115-.447-5.25-1.243.115-.073 1.65-.268.34-2.74.252-.458-5.383 4.194-.384.3.27.484 1.962 1.475-.136-.3-3.55-10.622.97.095 1.11 1.295-.005.364.287 1.028 12.056-.307.392-1.276.23.095 1.108zm-16.845-14.916l.02 1.112 1.228.092.345.357.21 12.053-.332.37-1.225.133.02 1.112 5.985-.104-.02-1.112-1.27-.09-.345-.358-.1-5.72 6.112-.107.1 5.72-.31.37-1.267.134.02 1.113 5.965-.104-.02-1.113-1.23-.092-.343-.357-.21-12.054.33-.37 1.226-.135-.02-1.113-5.965.104.02 1.113 1.272.092.323.358.087 4.97-6.113.108-.087-4.97.332-.37 1.267-.136-.02-1.112-5.985.105zm-12.847-.431l-.038 4.02 1.46.017.36-2.426.342-.29 2.54.03-.117 12.35-.364.36-1.376.095-.01 1.112 6.326.076.01-1.112-1.375-.13-.356-.367.116-12.35 2.54.03.314.3.337 2.434 1.458.017.038-4.018-12.206-.146zm-19.483 12.839l11.06.548.18-4.058-1.402-.07-.456 2.387-.285.35-4.778-.237.258-5.897 2.677.132.275.333.135 1.642 1.215.06.23-5.26-1.214-.06-.278 1.623-.303.302-2.677-.133.236-5.397 4.1.203.256.308.22 2.013 1.442.07.156-3.56-10.38-.514-.05 1.11 1.252.176.316.334-.53 12.088-.345.346-1.262.05-.048 1.11zm-25.347-6.559l5.87 1.98.324-1.06-1.282-.55-.208-.45 3.536-11.518.407-.197 1.35.336.324-1.058-5.87-1.98-.324 1.06 1.262.544.22.41-3.535 11.515-.42.24-1.33-.33-.324 1.06zm-10.438-4.054a11.392 11.392 0 0 0 3.572 1.99c3.22 1.086 5.773-.103 6.563-2.674.39-1.275.12-2.654-.772-3.838-.906-1.21-1.848-1.887-2.33-2.502-.828-1.04-1.18-1.875-.874-2.87.366-1.188 1.514-1.753 2.948-1.27.628.212 1.047.47 1.34.784l.183.396-.355 2.36 1.413.477 1.074-3.5c-1.09-.893-2.247-1.57-3.465-1.98-2.807-.946-5.204.296-5.94 2.694-.326 1.06-.18 2.276.465 3.423.618 1.09 1.43 1.77 2.08 2.466 1.156 1.247 1.625 2.263 1.267 3.43-.366 1.188-1.574 1.735-3.165 1.2a5.534 5.534 0 0 1-1.634-.887l-.155-.41.482-2.698-1.494-.504-1.2 3.912zm-13.266-5.554l9.996 4.997 1.672-3.665-1.265-.632-1.308 2.013-.392.207-4.318-2.158 2.43-5.327 2.42 1.21.13.417-.49 1.567 1.1.55 2.167-4.753-1.1-.55-.858 1.384-.39.155-2.42-1.21 2.223-4.873 3.703 1.85.12.388-.54 1.943 1.3.653 1.468-3.216-9.383-4.69-.458 1.002 1.09.67.166.436-4.977 10.916-.448.18-1.182-.467-.457 1.003zm-1.684-18.191l-5.03-3.466-.585.93.99.82.086.493-6.333 10.065-.466.113-1.11-.63-.585.93 5.03 3.465c1.723 1.187 3.194 1.793 4.835 1.62 2.136-.214 3.957-1.46 5.364-3.695 2.504-3.98 1.8-7.888-2.198-10.643zm-2.098.076l1 .69c2.74 1.886 2.98 4.526.74 8.09s-4.667 4.39-7.407 2.504l-1-.69 6.667-10.594zm40.078 15.69l-.224 1.088 1.167.376.258.383-2.438 11.837-.395.284-1.213-.152-.224 1.088 5.685 1.257.224-1.088-1.207-.382-.25-.426 1.03-4.998.343.075c2.035.45 2.363 1.52 2.553 3.77.104 1.135.08 2.176.945 3.296.398.53 1.088.96 1.956 1.152a13.78 13.78 0 0 0 2.052.27l.22-1.068-.262-.058c-1.35-.298-1.886-.764-2.06-2.08-.153-1.195-.067-2.43-.49-3.546-.317-.813-.917-1.386-1.834-1.845 2.374.037 3.83-.987 4.25-3.03.508-2.467-.83-4.156-3.955-4.847l-6.128-1.355zm3.872 2.18l.928.205c1.954.432 2.772 1.68 2.397 3.502-.422 2.045-1.642 2.75-3.798 2.273-.223-.05-.464-.102-.722-.183l1.194-5.797zm74.094 1.29l.173 1.098 1.33-.11.406.253 1.883 11.943-.3.42-1.294.334.173 1.098 6.265-1.07-.173-1.098-1.373.12-.413-.297-.795-5.042.378-.064c2.244-.383 2.973.482 3.997 2.493.525 1.013.886 1.988 2.18 2.687.602.334 1.466.462 2.422.3a16.52 16.52 0 0 0 2.192-.56l-.17-1.075-.29.05c-1.487.253-2.206.03-2.868-1.122-.598-1.047-.966-2.227-1.81-3.096-.624-.63-1.448-.925-2.552-.99 2.436-.9 3.542-2.423 3.217-4.484-.393-2.488-2.382-3.53-5.827-2.94l-6.755 1.153zm4.757.5l1.022-.175c2.155-.368 3.45.47 3.74 2.306.325 2.063-.66 3.197-3.036 3.603-.244.042-.51.087-.803.114l-.922-5.847z"/><g class="D"><g class="E G"><use href="#M" transform="matrix(-1.48 0 0 1.54 1072.67 -524.06)" fill="url(#I)"/><use href="#N" transform="matrix(-1.48 0 0 1.54 1073.61 -525.43)" fill="url(#J)"/></g><path d="M488.008 411.641s-111.636-32.74-110.985-157.296l.858-164.641h220.254l.864 163.702c.651 124.558-110.99 158.25-110.99 158.25z" stroke="#fff" fill="#0072c4" stroke-width="5.84" class="H"/><path d="M392.306 128.963c.184 0 1.534-1.282 2.77-2.412 1.727-.864 3.324-2.08 5.08-2.896 1.307-.757 3.89-1.344 5.077-1.93 1.555-.815 2.824-1.752 4.156-3.38.158-2.16.46-3.71.46-6.275l5.078-2.415c2.31-.65 2.812-1.574 5.08-1.93 1.46-.51 3.87-.485 6-.485 2.297 0 3.747 1.633 5.81 2.02 2.447.986 3.59 1.67 5.54 3.38 1.102 1.394 1.788 2.528 3.667 3.578 1.488.763 2.88 1.92 4.617 2.413 1.905 1.105 3.597 1.745 5.077 3.38 1.355.965 1.915 2.397 3.23 3.38 1.526 1.264 2.972 2.403 4.618 3.38 1.978 1.324 3.94 2.33 7.143 2.043 1.697-.1 3.523-.296 5.54.08 2.26 0 4.464-.04 6.464.485 2.355 0 4.26.318 6.463.482 2.064.386 4.168.483 6.463.483 2.002.522 4.205.482 6.464.482h12.926c2.352 0 4.733.096 6.463.484 2.33 0 4.333-.22 6.463-.485 2.507 0 4.42-.46 6.926-.482h7.85c2.014.552 4.59.93 6 1.93 1.848.528 2.768 1.404 4.616 1.932 1.416.726 3.565 1.875 4.617 3.378 1.303 1.363 2.64 3.314 3.693 5.31 1.285 1.855 1.774 3.974 2.77 6.276.528 2.205.895 4.302.923 6.757.502 2.093.464 4.396.464 6.758-.528 2.2-.643 4.65-1.386 6.758-.08 2.356-.55 4.487-.923 6.276-.41 1.975-.894 3.246-.924 5.792v6.758c-.16 2.217-.646 3.845-.922 6.275-1.117 2.108-2.186 4.573-3.23 7.24-1.537 1.072-2.87 2.595-3.694 3.863-.985.61-1.556 1.532-1.386 1.93 1.845.643 1.386 1.927 1.386 4.345l.923 6.276c.17 2.303.662 3.712 1.385 5.308.728.95.87.483-.924.483-1.334 1.047-2.684.5-3.23-1.448-1.078-1.3-1.432-2.87-1.847-5.31-.255-2.234-.612-4.412-1.385-5.79-.236-2.722-.96-2.694-3.693-2.898-1.3-1.152-3.017-1.45-5.54-1.45-2.513 0-2.724-.255-2.77 2.416v6.758c-.434 1.96-1.387 3.547-1.847 5.31-1.377 1.008-2.093 2.7-3.693 3.86-.762 2.193-1.87 2.574-4.156 2.897-.8-.998-2.102-2.3-2.77-3.378 1.293-2.17 2.422-2.496 3.233-4.827l2.306-4.828c-.985-1.516-1.87-2.2-2.77-4.345-.76-1.168-1.81-3.68-2.307-5.31-1.517-.527-3.904-.612-5.08-1.448-2.24-.522-2.866 1.93-5.54 1.93h-6.462c-2.858 0-3.572 1.596-6.002 1.45-.714.23-2.445-.103-5.08 0-1.928.67-4.252.48-6.462.48-2.342-.03-4.258-.568-6-.965l-6.464-1.447c-2.71 0-3.72.216-5.54 1.447-1.44.855-3.528 2.807-5.08 3.862-.655 1.602-.996 4.313-1.846 6.276-.49 1.883-1.288 3.077-1.846 4.828-.625 1.633-1.216 3.314-1.385 5.793-.156 3.253-.867 2.855-2.77 1.93-.793-1.346-2.057-2.827-2.77-4.344.42-2.457.893-3.68.924-6.276-.45-1.874-1.498-1.813-2.77-.483 0 2.528.117 4.477-.924 5.793-.52 1.995-1.356 2.857-2.77 3.862-.69 1.792-2.226 2.612-3.693 3.38-.235-.082 0-.647 0-1.93-1.106-2.208-.08-4.04-.08-6.76.03-2.437-.11-4.052.597-6.275 0-2.34-1.085-4.566-1.44-6.275-.858-1.793-1.353-2.68-3.693-3.38-1.645-.653-4.014-1.537-5.08-2.896-1.34-1.74-2.195-2.454-4.153-3.38-2.124-.77-3.155-1.473-4.616-2.414-1.427-1.574-2.587-2.256-3.232-4.343-.964-1.485-1.13-4.242-1.847-6.277-.157-2.12-.764-4.088-1.384-5.792-.274-2.12-.608-3.67-1.385-5.793-.257-1.984-.83-4.06-1.384-6.273 0-2.362.04-4.667-.462-6.76v-6.757c-.332-1.95-.455-4.807-.923-6.276 0-2.626-.28-4.11-.923-5.793-1.056-1.704-1.142-2.47-2.77-2.895-1.176 1.5-3.114 2.112-5.54 2.415-1.695-.387-4.086-.638-6.002-1.45-1.85-.455-3.117-1.187-4.617-1.93l-2.77-3.862c-.286-2.52-.836-3.82-.923-6.275 0-1.843.044-.865 1.846-3.38z" class="J"/><path d="M419.65 146.357l.328-.34c-.742.774-.47.4 1.306-.343l3.59-2.39c.854-.39 2.21-.9 2.938-1.705.91-.97 1.82-1.776 2.938-2.732 1.293-1.097 2.498-1.457 3.918-2.39 1.847-.137 2.516-.928 4.243-.34 1.622.367 2.294.377 3.592-1.025 1.31-.84 2.753-1.654 3.265-3.073v-2.046c-.025 2.23-.427 2.953-1.96 3.753-1.067 1.224-2.398 2.608-2.937 3.756-1.037 1.5-1.257 2.34-2.285 3.072-.844 1.075-2.292 1.644-2.61 3.412.464.813.04 1.258.977 1.366.946.812 1.93.466 3.265 0 1.328-1.537 1.925-2.53 2.612-4.095 1.095-1.497 1.708-2.21 2.284-3.414 1.135-.823 1.856-1.464 2.286-2.73 1.313-.77 2.393-1.578 3.263-2.39.976-.628 1.494-1.138 2.938-1.366-.02 1.833-.29 2.7-.978 3.755-.325 1.9-.26 2.802.326 4.096.938.58.772 1.084 1.306 2.39.532-1.13.802-3.415.98-4.78v-.342c0 1.493.136 3.473-.327 4.438.022 1.99.464 2.878.98 4.437.55.752.938 1.24 1.632 1.707.064-1.97.556-3.267.652-5.12.455 1.43.303 3.32.653 4.778.118 1.607.7 2.852 1.306 4.097.744.46.997 1.813 1.305.683.773-2.402.792-5.03 1.306-7.51.094-1.26.195-3.133.654-4.096l-.653 4.095c.094-1.26.195-3.132.654-4.095v-.34l.653 5.46c0 1.536-.1 3.1.327 4.437 1.086-.503 1.715-1.68 2.285-3.073.87-1.65 1.465-2.382 2.61-3.754l-2.61 3.754c.87-1.65 1.465-2.382 2.61-3.754v-.34l-.325 4.777c0 1.574-.018 3.358.326 4.438.385 1.81.91 2.145.98 4.095 0 .95-.124 1.92.327 2.39 1.406.367 1.41-.452 1.632-2.39.017-2.202.58-3.703.65-5.802 0-2.59.367.316.654 1.366.66 1.52.864 2.872.98 4.437 0 .95-.123 1.92.326 2.39 1.26-.523 1.76-1.996 2.612-2.732.65-1.616 1.322-2.33 1.96-3.41 1.69-.355 1.607-1.05 1.63-3.073 0-1.633-.127-3.352.328-4.78.523-1.483 1.016-3.134 1.305-4.436.61-.364 1.27.538 1.63 1.366.716 1.1.654 2.705.654 4.437.314 1.51.942 2.69 1.632 4.096.818 1.577 1.483 2.533 2.285 3.413.344 1.08.327 2.864.327 4.437 1.272-1.445 1.515-3.598 1.632-5.802-.17-1.5-.202-3.368-.653-4.78-.052-1.503-.32-3.055-.653-4.095-1.102-.53-1.276-1-.326-2.39 1.05-.908 2.185-.557 3.918-.34.876.915 1.236 1.405 1.305 3.41 0 1.82.077 3.218.653 4.44.64.982 1.272 1.657 1.63 3.413.502.428.89 1.12 1.634.342.41-1 .65-3.062.98-4.097.318-1.295.893-1.93 1.632-2.39 0 1.9-.022 3.066.653 4.44.638 1.524 1.082 2.097 1.63 3.755.697.485.786 1.53 1.633 2.046.2-1.602.327-3.437.327-5.46v-4.78c.12-1.625.514-2.54.98-3.752 1.05 1.31.98 1.852.98 3.753 1.073-.4 1.253-1.17 1.63-2.387.767-.675.976-.99 1.306.68.23 1.787.665 3.395.98 5.122.67.788 1.447 2.696 2.285 3.414.575.975 1.22 1.92 1.96 2.73.508 1.123.638 1.71 1.958 2.047 0-2.31.077-4.627-.326-6.826 0-1.96-.428-2.66-.653-4.437-.545-1.177-.865-2.912-.654-3.412 1.53 1.517 2.22 2.398 2.938 4.096.766 1.64 1.41 2.743 1.958 4.437.755.648 2.092 2.59 2.612 3.414 1.165 1.04 1.733 2.126 2.938 3.07.623.588 1.94.916 2.285.684-.06-2-.364-3.72-.98-5.46-.02-1.91-.458-2.948-.978-4.096-1.285-1.108-2.26-1.863-2.94-3.414-.505-.432-.604-.755-.653-1.705 1.876 1.552 3.187 2.936 4.57 4.777.936 1.213 1.412 1.763 2.613 2.39.65.73 2.545 1.638 3.916 2.048.823 1.09 1.922 1.718 3.265 2.05l-3.264-2.05c.823 1.09 1.922 1.718 3.265 2.05v.34c-.163-2.135-.947-3.695-1.958-5.462-.85-1.868-1.63-2.56-2.938-3.755-.854-1.352-1.81-2.15-3.264-3.07l-2.938-3.415c1.392-.874 3.027.592 4.57 1.366 1.274 1.38 2.465 3.18 3.264 4.095.87 1.753 1.537 2.838 2.94 4.437 1.405.834 2.38 1.66 3.59 2.73 1.87.518 1.124-.166.653-1.706-.647-1.926-.072-1.956 1.305-.682.908.647 1.92 1.725 3.263 2.39.58.752 1.457 1.17 2.286.682.345-.482.326-.427.326-1.024-.687-2.118-1.325-3.767-2.938-4.438-.74-.942-1.942-2.063-2.937-3.072-.65-1-1.408-1.576-1.96-2.73l1.96 2.73c-.65-1-1.408-1.576-1.96-2.73h-.326c1.97.073 2.672.573 4.242 1.366 1.12.408 2.327 1.475 2.94 2.388.635.845 1.655 1.753 2.284 2.73l3.265 2.39c1.087 1.425 1.282 2.352 1.307 4.44.626.964.738 2.938.978 4.094-.24 1.877-.882.403-.978-.683-.277-1.507-.85-1.428-1.96-1.023 0 2.062.228 2.626.98 4.096-.204 1.41-.672 2.44-1.306 3.414-.76.454-.925-1.004-1.63-1.707-.076-2.11-.67-2.343-1.96-3.414v1.366c.728 1.457 1.497 2.785 1.632 4.78.504 1.52.653 2.482.653 4.436 0 1.67.027 3.3-.326 4.78 0 1.85-.307 2.645-.328 4.437v9.558c-.25 1.207-.326 2.78-.326 4.436l.326-4.438c-.25 1.208-.326 2.782-.326 4.437v.34c-.62-1.715-1.296-3.267-1.632-5.12-1.058-1.047-1.73-2.126-2.286-3.413l-.653-4.438c-.46-1.203-.947-2.486-1.96-1.706-.4 2.544.106 4.06.98 6.484.513 1.608.457 2.872.98 4.438.757 1.805 1.365 2.064 0 4.095-.673 1.084-1.034 1.427-1.306 2.732-1.208.632-1.51.913-1.632 2.39-.406-1.328-1.393-2.884-1.96-4.438l-1.63-4.778c-.793-1.143-1.722-2.992-2.613-3.755-.82-1.102-1.997-2.94-2.612-4.095-1.25-1.457-1.526-2.3-2.61-3.07-.28-.683-.612-1.534-1.306-1.025 0 1.632-.13 3.35.326 4.777.33 2.013.91 3.13.98 5.12v3.756l-2.286-5.462c-.713-1.018-1.41-3.003-2.285-3.754-.555-1.324-.988-2.422-1.632-3.412-.167-.992-.606-.98-.98-1.707.022 1.935.61 2.613.98 4.095.636 1.3.84 3.48.653 4.096l-2.612-7.167c-.99-1.402-1.955-3.204-2.61-4.437-.972-1.172-1.97-1.21-2.938-2.048-.882-.437-1.726-.926-2.285-1.707.257 1.8.927 2.924 1.305 4.438.215 1.716.97 3.09 1.306 4.438-.363 2.335-.89-.648-1.306-1.707-.344-1.922-.98-2.99-1.632-4.097-.875-.622-1.67-1.727-2.612-2.39-.916-.367-.653.067-.653 1.366 0 2.112.077 3.507.653 4.78.652 1 .653 2.306.653 4.094l-.325 4.78V188c-.75-1.45-1.46-2.275-1.96-4.096-1.132-1.55-1.468-2.688-2.285-4.436-.724-.305-1.902-.556-2.61 0 .127 1.727.89 2.487.98 4.436-1.302 1.333-1.067 1.713-1.96-.34-.744-1.557-1.61-1.484-2.61-2.39-1.64-.214-1.12-1.263-1.634-2.73 0-1.315.13-2.642-.326-3.756-1.79 0-2.816-.064-3.917 1.025-.518 1.08-.335 3.033 0 4.436v4.778c-.372 1.196-1.11 1.26-1.306 2.73-.63 1.458-.84 3.066-1.305 4.098-1.163 1.05-.658 1.182-1.306-.683v-10.925c0-1.854.267-2.758.326-4.435-.677-1.415-.86-1.68-2.938-1.707-.506.882-.313 2.52 0 3.414 0 1.654.075 3.23.326 4.436 0 1.813.214 2.912.327 4.438-.062 1.81-.4 3.25-1.306 4.096-1.177.308-.128 1.057-1.305 1.366-1.18-.592-2.568-1.396-3.59-2.39-1.27-.404-2.466-.682-4.244-.682-2.164-.028-2.2-.29-2.938-2.05-.662-1.88-.973-3.514-1.306-5.46-.718-1.598-.886-2.687-1.306-4.437-.548-1.043-1.133-1.83-1.957-2.39-.473 1.726-.917 3.17-.98 5.12-.382.8-.462 2.834-.652 3.754-.655-1.01-.912-2.995-1.305-4.435-.62-2.07-1.148-3.414-3.265-2.73-2.197.027-2.26.09-2.286 2.39l2.612 4.094v4.778c0 1.973.115 2.544-1.306 3.072-.54-2.048-1.688-4.003-2.938-5.803-.17-1.392-.6-1.024-1.957-1.024-.91 0-1.837-.128-2.286.34v3.074c-.788.145-1.106-.008-1.633-.683-.57.993-.14 2.393 0 3.755-.415 1.518-.91 2.905-1.633 3.753-.144-.454-.47-.342 0-.342l-5.875-2.045c-1.134.146-1.957 1.19-2.613 2.046-1.66.56-2.393 1.002-4.244 1.025-1.776 0-2.64.28-4.244.342-1.155.262-2.662.34-4.244.34-.878-.26-2.41-.268-2.94-.682.675-1.005 1.426-1.513 1.96-3.07.894-.637 1.732-1.452 2.612-2.39.86-.613 1.87-1.883 2.61-2.73.51-1.645 1.21-1.93 2.286-2.732 1.94.076 2.32.692 4.244 1.024 1.88.712 2.92.922 3.918-.34 1.56-.66 2.882-1.69 4.57-2.05 1.307-.653 2.144-1.288 3.264-2.048 1.39-.837 2.05-1.696 3.265-2.73.347-1.392 1.33-2.467.98-4.097-1.767-.462-2.89-.277-3.918.683-1.43 1.177-1.7 1.666-3.265 2.73-1.352.385-1.93.98-3.59 1.366-1.365.476-3.01.342-4.57.342-1.428 0-3.322-.142-4.245.34 1.452-.977 3.197-1.993 4.57-2.39 1.318-.884 1.816-1.332 3.592-1.364.823-1.078 1.673-1.105 1.956-2.73.553-2.02-1.204-1.38-2.61-.684-1.327.244-2.79 1.183-3.918 1.707-1.09.38-2.68.663-4.244.683-.412-.615.322-1.106.653-2.05 1.525-.54 1.77-.738 1.96-2.388-1.73.24-2.39.808-3.92 1.024-1.665.436-3.394.63-5.22.683h-4.572c-1.604-.062-2.47-.342-4.243-.342-1.3-.68-1.306-1.002-1.306-3.072 1.024-1.176 2.02-1.022 3.917-1.022l3.59-1.707c1.183-.254 1.99-.76 1.633-1.364h-4.57c-1.76-.745-.08-1.086.98-1.707 1.587 0 3.225.093 4.243.682 1.963-.076 2.647-.697 4.242-2.05 1.25-1.03 1.864-1.687 3.265-2.388 1.006-1.11 1.956-1.723 2.612-2.73 1.342-1.28 2.23-1.988 2.937-3.072.864-.476 1.392-1.09.98-1.707-2.046.25-2.874.993-4.245 2.048-.796.793-1.57 1.503-2.612 2.048-1.47.874-2.385 1.228-4.242 1.365-1.676 0-2.964-.28-4.57-.34-1.774-.186-.142-.6.325-1.365.686-.48 1.22-1.542.653-2.39-1.365-.475-3.008-.34-4.57-.34h-4.57c-1.725-.067-2.455-.463-3.59-1.025-.353-.958.062-.683 1.305-.683 1.574-.062 2.69-.276 4.245-.683 1.535-.438 1.727-.95 1.958-2.732-1.506 0-3.21.02-4.243-.34h-2.94zm-28.274-7.739c-.287-2.52-.836-3.82-.924-6.275 0-1.843.045-.865 1.847-3.38.182 0 1.532-1.282 2.77-2.412 1.726-.864 3.323-2.08 5.078-2.896 1.307-.757 3.89-1.344 5.077-1.93 1.556-.815 2.825-1.752 4.156-3.38.16-2.16.464-3.71.464-6.275l5.077-2.415c2.312-.65 2.812-1.574 5.08-1.93 1.46-.51 3.872-.485 6-.485 2.298 0 3.747 1.633 5.81 2.02 2.447.986 3.59 1.67 5.54 3.38 1.103 1.394 1.788 2.528 3.668 3.578 1.487.763 2.88 1.92 4.616 2.413.015 1.743.386 1.442-.858 1.442-.132 1.786-.56 1.675-2.286 1.707a8.002 8.002 0 0 1-2.938-2.732c.653-1.773.22 1.435 0 2.048-.84.69-1.338 1.426-2.285.683-.53-1.666-.978-2.817-.978-4.78-.25-2.132-.846-.584-1.307.343-.442 1.72-.24 2.343.326 3.753-1.666 0-2.942-.157-4.245-.34-1.21-.302-2.572.068-3.918.682-1.71 1.073-1.177 1.08-.326 2.39 1.51.444 2.593 1.28 3.92 2.048l4.57-1.025c1.555-.54 2.98-.196 4.57 0 .788.414 1.825.497 2.284 1.026 0 1.055.084 2.158-.326 2.73-.68.452-1.324 1.7-2.286 2.047-1.44.825-2.95 1.344-4.57 1.707-2 .076-2.73.515-4.243 1.366-.25 1.725-.753 2.212-2.287 2.73-1.526.667-2.74 1.025-4.57 1.025-.908 0-1.835.13-2.285-.34 1.454-1.66 1.89-2.44 2.612-4.097.282-.69.873-1.134.327-1.707-1.934.076-2.44.063-2.612 2.048-.22 1.798-.91 2.1-2.285 2.73.37-1.664.432-2.943.98-4.436-1.156.262-2.662.34-4.245.34-.99.628-1.4.872-.98 2.05-1.312.456-2.91.175-4.57 0-1.386-.076-.62-.705-1.63-1.366-.663-1.3-1.424-1.616-2.94-1.707-.752.94-2.145 1.33-2.938 2.048-1.43.5-2.34.085-3.59-.683-1.63.05-1.412.576-.98 1.707.622.434-.038.907.98 1.024.938.852 1.74 1.025 3.59 1.025 1.415-.37 2.974-.34 4.57-.34 1.612.05 1.307.43 1.307 2.047-1.054.746-2.59.683-4.245.683-1.576-.196-2.784-.604-3.917-1.024-1.53-.113-2.752-.405-3.918 0-.526.583-2.11.838-.326 1.025.7.66 4.478.342 4.747 1.466.89.99.692 2.29-.83 2.29-.925-.483-1.64-.364-2.286 0-1.086.285-2.377.078-4.274.22 2.477.204-1.8-2.69-2.77-3.862z" fill="#fefefe"/><path d="M401.687 127.25c-.108 0-1.083.677-1.96 1.364-1.433.768-2.965 2.075-3.916 2.73-.748.6-.744.862-1.63 1.026 1.555-.22 2.248-.617 3.59-1.366 1.695-.204 3.338-.564 4.244-1.365.85-.298-.064-1.66-.327-2.39zm15.025-16.05c.187 0 .57 1.067 1.304 1.706.47 1.31.903 2.235.98 3.755.4-1.667 1.084-3.008 1.305-4.778-.507-.9-.54-1.32-1.958-1.365 0 .922.108.32-1.63.682z" class="J"/><path d="M407.533 123.224c-.731 0 1.288-.758 1.962-1.021.539-1.181.966-2.017 1.962-2.721 1.638.131 2.442.622 3.271 1.7 1.376.391 1.872 1.073 3.596 1.361.642.564 1.51.628 0 1.021-1.024.565-2.313.682-3.922.682-1.687.126-2.893.513-3.926 1.021-2.19 0-1.84.077-2.945-2.042z" fill="#c4c4c2" stroke-width="1.322" class="E"/><path d="M422.576 111.54v.34c0-.92-.02-.45.327 1.366.54 1.145.653 2.373.653 4.097.857-.64 1.572-1.916 1.96-3.073 0-2.695-.366-2.536-2.94-2.73zm12.084 39.25h.327c-.96 0-.42.06 1.306-1.024 1.117-.778 2.03-1.93 3.592-2.39 1.51-1.24 2.673-1.82 4.242-2.388.766-.367 1.44-1.005 2.286-.34-.243 1.683-.522 2.32-1.96 3.07-.742.973-1.912 1.54-2.936 2.048-1.062.488-2.23.513-2.612 1.707-1.776.817-1.994.68-4.244-.683zm6.205 9.902c.583-.46 2.627-2.592 3.59-3.412 1.09-1.503 2.193-2.653 3.265-3.414.952-1.465 2.17-2.446 2.94-3.755l2.61-3.412c0 1.492-.136 3.47.325 4.437 0 2.062-.227 2.626-.978 4.096-.74 1.21-1.294 2.01-2.938 2.732-1.484.822-2.373 1.11-3.592 2.047l-2.94 1.706c-.932.42-.504.236-2.283-1.024zm-10.119 7.848h.326c-.96 0-.42.058 1.306-1.025 1.393-1.457 2.503-1.963 4.245-2.73 1.325-.108 2.928-.452 3.917-1.025.79-.146 1.34-.648 1.958 0 1.025 1.45 1.307 1.858-.327 2.73-.78.694-2.158 1.392-3.262 1.708-.815.702-2.43.746-3.918 1.024-1.334 0-2.075.157-2.612-.683l2.612.682c-1.334 0-2.075.157-4.244-.683zm14.034 0v-.342c0 .953-.04.448.653-1.366 1.224-1.91 1.684-2.963 3.265-3.414.74-.936 2.023-1.178 3.59-1.707.59 1.027.137 2.223 0 3.415-.425 1.275-1.59 2.174-2.284 3.073-1.018.723-1.433 1.418-2.938 1.706-1.246 0-.585-.032-2.286-1.365z" class="J"/><path d="M412.788 124.16c0 .942-.73 1.706-1.632 1.706s-1.632-.764-1.632-1.707.73-1.708 1.632-1.708 1.632.764 1.632 1.707z"/><g stroke="#002b0d" fill="#005120" stroke-width="2.013" class="H B"><path d="M417.649 217.154h1.308c-4.1 0-1.65-.285 5.232 5.444 2.882-2.499 2.848-2.837 5.232 1.361 1.376 2.387 1.78-.246 3.922-2.723 1.036 4.943 1.696 10.13 5.235 5.444 4.04 0 8.273-.35 10.464 1.361 2.649 5.122 1.783-.867 3.926 1.363 5.76.719 5.651-5.141 11.924-6.656 3.9 5.071 5.609 1.17 10.467-1.36 3.608 1.05 7.009 6.745 7.696 1.209 2.954-5.014 3.212-4.589 5.233 0 2.871 2.692 4.085-1.346 6.542-2.721 4.378 2.664 9.262 3.034 15.697 1.361 1.089 4.534 3.836 2.567 6.542 1.36 5.787 2.53 7.804 3.305 14.389 0 3.262-4.01 1.415.112 3.922 2.723 4.88-1.575 3.533-1.91 9.161-1.361 5.654 0 6.112-.143 7.847-4.084 2.842 2.957 3.869 5.088 7.848 1.361 6.098.185 4.212.801 7.85-1.361 2.691 6.2 3.323 1.72 6.542 4.081-2.121 5.593-5.377 8.216-9.158 10.891-2.516 4.337-4.091 9.02-9.158 10.891-3.697 3.924-7.637 6.198-11.773 9.528-5.671 1.474-11.914 1.36-18.315 1.36h-54.938c-3.907 2.033-10.301 3-15.7 4.081-6.031 0-12.867.077-17.005-1.36-2.805-2.917-7.726-6.175-10.464-9.528-2.775-2.325-2.856-6.868-5.235-9.528-2.19-3.896-2.865-9.988-5.232-13.614v-9.523z"/><path d="M544.53 229.412v1.361c0-3.804.163-1.783-2.617 5.444-.562 1.756-1.794 2.167-3.925 2.721m-5.224-4.09h1.308c-4.844 4.759-8.104 6.953-9.158 12.251l9.158-12.251c-4.844 4.759-8.104 6.953-9.158 12.251m-10.472-19.042c0 .123-.184 4.856-1.308 6.807m-3.916 2.71v1.361-1.361zm-10.464-8.162h1.308-1.308 0zm-73.26 0c.625 0 3.197 4.321 6.542 6.807-.833 3.981-2.112 8.589 0 12.249m3.922-10.894c.625 0 3.197 4.323 6.542 6.807l-6.542-6.807c.625 0 3.197 4.323 6.542 6.807v1.361c0-4.204-.336-8.609 1.307-10.891 1.455 2.561 3.292 6.679 3.925 2.723 7.367-.274 10.922-2.427 15.698-4.081 0 2.002-.311 1.038 1.308 2.72m88.954-5.445h1.308c-2.467 2.141-4.36 6.502-6.542 9.528m-48.402-13.609h10.464"/></g><path d="M413.61 239.342c-15.702 0-20.906 16.41-36.61 16.41-.302 0-.588-.024-.883-.035v.993c-.06 11.375.835 21.97 2.466 31.864 14.485-1.058 19.866-16.41 35.028-16.41 15.704 0 20.945 16.446 36.65 16.446s20.943-16.447 36.646-16.447 20.944 16.447 36.648 16.447 20.944-16.447 36.647-16.447c15.123 0 20.52 15.244 34.92 16.373 1.724-10.158 2.635-21.07 2.574-32.784v-.037c-.294.012-.58.037-.883.037-15.702 0-20.906-16.41-36.61-16.41s-20.944 16.41-36.647 16.41-20.944-16.41-36.648-16.41-20.944 16.41-36.647 16.41-20.944-16.41-36.647-16.41zm0 64.064c-12.214 0-18.09 9.902-27.485 14.313a151.431 151.431 0 0 0 11.664 24.836c4.46-3.374 9.202-6.292 15.822-6.292 15.695-.012 20.934 16.4 36.64 16.4s20.945-16.41 36.65-16.41 20.943 16.41 36.646 16.41 20.944-16.41 36.648-16.41c6.472 0 11.15 2.794 15.527 6.07a152.782 152.782 0 0 0 11.7-24.725c-9.244-4.47-15.123-14.203-27.227-14.203-15.703 0-20.944 16.41-36.647 16.41s-20.945-16.41-36.65-16.41-20.943 16.41-36.646 16.41-20.944-16.41-36.648-16.41zm73.284 64.052c-15.703 0-20.944 16.448-36.647 16.448-14.85 0-20.347-14.703-34.182-16.3 18.49 20.597 39.458 33.068 53.757 39.92 4.836-3.752 9.844 4.564 17.072 4.564 7.178 0 12.16-8.36 16.963-4.636 14.14-6.885 34.853-19.375 53.242-39.775-13.384 1.956-18.932 16.225-33.558 16.225-15.703 0-20.944-16.447-36.648-16.447z" fill="#fff"/></g><g transform="matrix(1.18 0 0 1.18 -406.92 -18.22)"><g class="K B"><g fill="none"><path d="M675.025 273.755c2.18-.754 12.716-4.156 13.08-3.779s20.348 20.406 20.348 20.406l-16.713 3.401-16.715-20.028z" class="C"/><path d="M715.258 307.18c.307-4.789 9.243-32.036 9.243-32.036m-6.169 32.355c0-.299 7.087-32.061 7.087-32.061m-4.66 32.112l5.891-32.11m-11.085 27.846c1.54-.898 6.162-2.096 6.162-2.096m-4.01-2.693c1.54 0 4.622-1.198 4.622-1.198m-3.699-2.397c0-.299 4.622-1.198 4.622-1.198m-4.007-3.293l4.929-.898m-2.767-2.995c0 .299 3.389.299 3.389.299m-2.467-3.893c.615 0 3.389.597 3.389.597" stroke-width=".621"/><path d="M773.35 326.918c-.363-8.184-10.9-54.741-10.9-54.741m7.275 53.192c0-.51-8.357-52.694-8.357-52.694m4.72 48.611l-6.175-48.601m13.075 47.58c-1.816-1.535-7.266-3.582-7.266-3.582m4.729-4.602c-1.816 0-5.45-2.047-5.45-2.047m4.362-4.096c0-.51-5.45-2.047-5.45-2.047m4.725-5.627l-5.812-1.535m3.263-5.118c0 .51-3.996.51-3.996.51M765 285.47c-.725 0-3.996 1.021-3.996 1.021" stroke-width=".626"/><path d="M804.25 310.393c-.363-6.045-10.9-40.434-10.9-40.434m7.275 39.29c0-.377-8.357-38.922-8.357-38.922m4.72 35.906l-6.175-35.898m13.075 35.144c-1.816-1.134-7.266-2.645-7.266-2.645m4.729-3.399c-1.816 0-5.45-1.512-5.45-1.512m4.362-3.025c0-.377-5.45-1.512-5.45-1.512m4.725-4.156l-5.812-1.134m3.263-3.78c0 .377-3.996.377-3.996.377m2.909-4.914c-.725 0-3.996.754-3.996.754" class="C"/></g><g class="D F C"><path d="M753.5 313.808l1.09-94.848s3.27-.377 3.27 0l-.725 94.848c-.362.377-4 .754-3.635 0zm35.613-90.688l-.728 79.733-2.544 3.024.727-82.758h2.544z"/><path d="M713.175 298.312s3.634 38.922 45.419 37.788 53.413-39.299 53.413-39.299l-18.169-.757c-.362 0-14.534 18.139-32.7 17.761s-23.981-4.914-27.979-8.69-7.63-9.447-7.63-9.447l-21.075-8.692 1.091 8.313 7.63 3.023zm112.8-4.043c-.362-1.134-1.259-5.026-1.259-5.026v-4.534l2.013-4.592-31.613 5.088c0-.436-.195 8.95-.195 8.95l31.054.113z"/></g><path d="M820 284.714l-.725 7.935h5.085l-.363-7.935H820zm-5.45.377l-.362 8.312 3.269-.377.363-7.935h-3.269zm-5.45 8.307v-6.422l3.27-1.135.362 6.422-3.632 1.135zm-6.187-.364l.727-5.668 3.632.377.363 6.045-4.722-.754zm-6.9 0l.362-4.914 3.635-.377v5.668l-3.998-.377zm-84.3 4.901c1.09 0 9.447 1.889 9.447 1.889l8.72 12.093m-11.98-12.461c.363.377 7.63 25.696 42.512 25.696s43.238-28.717 43.238-28.717m5.45.746s-16.712 37.788-48.687 35.143-37.062-15.115-39.606-21.538-3.996-11.713-3.996-11.713" fill="none" class="C"/><g class="D C"><g class="F"><path d="M725.888 295.673c.362-2.269.362-70.664.362-70.664l-2.18-.377-.363 69.908 2.18 1.134zm-51.962-22.295l27.612 13.981-.725 1.889-26.525-13.226c0-.377.362-1.889-.363-2.644z"/><path d="M686.65 269.218c0 1.134 3.998 24.184 3.998 24.184s2.544.377 2.544 0-4.362-23.806-4.362-23.806l-2.179-.377zm25.425.754c1.454 0 26.163-4.156 26.163-4.156l-.365 4.156-24.344 2.645-1.454-2.645z"/></g><path d="M715.713 238.616c.725 0 8.72 4.157 11.99 3.024s1.09-3.779 1.816-3.779 3.27 1.888 4.725.377 2.543-6.045 1.816-5.668-19.985 7.557-20.348 6.045z" class="I"/><path d="M712.45 248.054c1.454.377 29.795-7.935 29.795-7.935s0 2.645-.363 2.645-29.433 7.937-29.433 7.937v-2.645z" class="F"/><path d="M778.213 236.341s1.817 4.534 3.634 3.779 3.634-2.267 3.634-2.267 1.454 3.779 3.996 3.023 4-4.914 4-4.914 2.541.758 3.631.38 2.544-6.422 2.544-6.422l-21.437 6.422zm-2.187 36.66c-.362.754 1.817 2.645 3.634 2.645s2.544-2.645 2.906-1.89.363 4.16 5.087 3.025 4.725-4.534 4.725-4.534-1.455 1.131 1.815 1.508 6.54-4.911 6.178-4.911-23.617 4.537-24.345 4.157z" class="I"/><path d="M713.538 237.095c-.363 1.512.363 3.402.363 3.402l23.618-8.313s1.09-1.89 0-1.89-24.344 7.558-23.98 6.802zm31.25-5.291c.725 0 24.344-7.935 24.344-7.935s.362 3.401 0 3.401-22.163 6.802-22.163 6.802l-2.181-2.267z" class="F"/><path d="M776.025 248.444s-3.634 4.156-2.544 9.824 2.544 10.582 2.908 10.582 4.363-7.558 8.721-7.937 12.354 4.157 12.354 4.157-1.09-9.07-.725-13.226 6.538-11.336 6.538-11.336l-27.25 7.935z" class="I"/><path d="M742.963 241.632s-.725 3.401-.363 3.401 30.884-8.313 30.884-8.313v-2.266l-30.521 7.18z" class="F"/><path d="M703.725 287.366s-7.266-1.134-6.904.754 3.634 3.78 3.997 4.914-1.09 5.291 1.09 4.914 4.36-1.892 4.36-3.025-.362-6.422-.362-6.422l-2.181-1.135z" fill="#b6b6b4" class="H"/><path d="M744.05 268.464v2.644l26.163-3.778-.728-1.89-25.435 3.024z" class="F"/><path d="M713.175 273.001c.363 0 0 3.401 2.906 2.645s3.634-2.645 3.634-2.645.725 4.156 4.725 3.779 6.175-4.914 6.175-4.914.362 3.402 2.908 2.269 3.27-3.779 3.27-3.779l-22.891 3.401-.725-.754zm0-22.295s-3.27 1.134-2.18 7.935 3.634 10.582 3.996 10.582 3.27-6.425 7.63-7.558 11.991 3.401 11.991 3.401-.727-6.045.363-11.713 4.725-9.828 4.725-9.828l-26.525 7.181z" class="I"/><path d="M774.213 270.349l.363 2.267 26.163-3.779c0-.377 0-2.644-.363-2.644s-25.8 4.534-26.163 4.156zm-.362-24.18l.362 2.644 30.885-8.69s.727-2.269.363-2.269-30.884 9.447-31.61 8.313z" class="F"/></g><path d="M777.125 234.079s-.363 2.267 0 2.267 22.891-5.668 22.891-6.045 2.18-2.647.363-2.269-22.525 7.179-23.254 6.045zm48.325 43.836l-22.538-37.037m-2.9 25.701c.363-1.134 1.454-23.806 1.454-23.806" fill="none" class="C"/><path d="M745.513 232.948c1.454.377 3.997 4.156 5.45 3.401s3.634-3.023 3.634-3.023-.363 4.537 2.544 3.779 3.27-3.778 3.27-3.778 2.18 1.135 3.996 0 3.634-6.802 2.908-6.802-21.072 6.803-21.8 6.425zm-.725 10.959c0 .754-3.634 6.802-2.544 12.47s3.27 10.959 3.634 10.959 5.812-6.045 10.537-7.18 11.625 3.778 11.263 3.778-1.816-5.668-1.816-9.825 5.45-17.004 5.45-17.004l-26.525 6.802zm0 27.209c0 .377 1.09 3.024 3.634 3.024s2.906-2.645 2.906-2.645-.363 4.537 3.634 4.16 5.45-4.537 5.45-4.537.363 2.268 3.633 1.135 7.63-4.914 7.266-4.914-26.162 4.914-26.525 3.779z" class="C D I"/></g><use href="#O" height="496.063" width="992.126" x="-6.56" y="7.28"/><use href="#O" height="496.063" width="992.126" x="6.56" y="3.76"/><use href="#O" height="496.063" width="992.126" y="11.03"/><path id="O" d="M408.98 476.96a1.89 1.89 0 1 1-3.78 0 1.89 1.89 0 0 1 3.78 0z" transform="matrix(.04 -1.07 1.02 .04 251.6 667.92)" stroke-width=".581" fill="#be0f17" class="B D H K"/><g class="K B"><g fill="none" class="C"><path d="M757.138 220.091c0-.377 11.263 4.914 11.263 5.291s39.969 55.549 40.332 55.549m-19.982-55.549l10.175 4.537 3.269 8.311m-76.669-13.602c-.363 0 11.262 9.069 11.262 9.069l1.455 7.558M685.925 279.8c5.088-2.267 40.331-34.388 40.331-34.388m-49.781 28.343l39.605-34.765m26.52 5.294l37.425 64.618m-4.413-37.903s4.415 15.223 8.775 17.491 9.446 6.045 9.446 6.045m-18.72-23.211s3.1 17.931 7.462 21.333 8.72 7.179 8.72 7.179m-46.335-28.587s4.36 24.94 13.081 30.608l15.987 10.582"/><path d="M744.598 270.872s9.446 19.651 17.44 25.697 18.894 11.713 18.894 11.713m-66.846-35.902c2.542 4.534 2.18 13.226 5.087 16.25s7.266 9.824 7.266 9.824m-11.629-25.697c1.454 2.267 5.508 13.556 7.994 17.004 1.817 3.024 20.347 22.295 20.347 22.295"/></g><g class="D C"><path d="M736.973 313.005c0 1.565-1.22 2.834-2.725 2.834s-2.725-1.269-2.725-2.834 1.22-2.834 2.725-2.834 2.725 1.269 2.725 2.834zm13.438 6.045c0 .878-.45 1.689-1.181 2.128s-1.632.439-2.363 0-1.181-1.25-1.181-2.128c0-1.357 1.058-2.457 2.363-2.457s2.362 1.1 2.362 2.457zm17.075 1.508c0 .878-.45 1.689-1.181 2.128s-1.632.439-2.363 0-1.181-1.25-1.181-2.128c0-1.357 1.058-2.457 2.363-2.457s2.362 1.1 2.362 2.457zm14.9-5.85c0 1.252-.895 2.267-2 2.267s-1.996-1.014-1.996-2.267.894-2.267 1.997-2.267 2 1.014 2 2.267zm11.987-7.371c0 1.148-1.057 2.08-2.362 2.08s-2.362-.932-2.362-2.08 1.059-2.08 2.362-2.08 2.362.932 2.362 2.08z"/><path d="M723.885 226.282c-1.09.757-19.257 5.291-16.712 4.914s17.075 3.778 16.712 2.644 0-6.802 0-7.558zm30.888-5.668c-.727 0-11.265 4.157-10.9 4.157s11.99 3.401 11.625 2.644-.362-5.668-.725-6.802zm31.612 3.783c-.727.377-13.081 3.401-10.9 3.779s10.538 3.401 10.538 2.645 0-6.045.362-6.425z" fill="red" class="H"/></g><g fill="none"><path d="M773.31 312.823c.363-6.045 10.9-40.434 10.9-40.434m-7.275 39.29c0-.377 8.357-38.922 8.357-38.922m-4.72 35.906l6.175-35.898m-13.075 35.144c1.816-1.134 7.266-2.645 7.266-2.645m-4.729-3.399c1.816 0 5.45-1.512 5.45-1.512m-4.362-3.025c0-.377 5.45-1.512 5.45-1.512m-4.725-4.156l5.813-1.134m-3.263-3.78c0 .377 3.996.377 3.996.377m-2.909-4.914c.725 0 3.996.754 3.996.754" class="C"/><path d="M742.36 317.214c.363-6.324 10.9-42.3 10.9-42.3m-7.275 42.722c0-.394 8.357-42.333 8.357-42.333m-5.495 42.401l6.947-42.398m-13.072 36.768c1.816-1.186 7.266-2.768 7.266-2.768m-4.729-3.556c1.816 0 5.45-1.582 5.45-1.582m-4.362-3.165c0-.394 5.45-1.582 5.45-1.582m-4.725-4.348l5.813-1.186m-3.263-3.955c0 .394 3.996.394 3.996.394m-2.909-5.141c.725 0 3.996.789 3.996.789" stroke-width=".62"/><path d="M742.15 314.453c-.363-6.138-10.9-41.056-10.9-41.056m7.275 39.894c0-.383-8.357-39.521-8.357-39.521m4.72 36.458l-6.175-36.45m13.075 35.685c-1.816-1.151-7.266-2.686-7.266-2.686m4.729-3.452c-1.816 0-5.45-1.535-5.45-1.535m4.362-3.072c0-.383-5.45-1.535-5.45-1.535m4.725-4.22l-5.812-1.151m3.263-3.839c0 .383-3.996.383-3.996.383m2.909-4.99c-.725 0-3.996.766-3.996.766" stroke-width=".609"/></g><path d="M792.375 296.05l34.518.757.362-2.645-35.607-.377.727 2.266zm1.463-9.451c3.997 0 34.155-6.045 34.155-6.045s1.09-3.779 0-3.779-34.155 7.18-34.155 7.18v2.644z" class="C D F"/></g><use href="#O" height="496.063" width="992.126" y="5.52"/></g></svg>