<svg xmlns="http://www.w3.org/2000/svg" height="480" width="640" xmlns:v="https://vecta.io/nano"><style><![CDATA[.B{fill:#fff100}.C{fill-rule:evenodd}.D{stroke:#000}.E{fill:#fff}.F{stroke:#fff}.G{stroke-width:8.25}.H{fill:#006d00}.I{stroke-width:1pt}.J{fill:none}.K{stroke-width:.175}.L{stroke-width:.164}]]></style><defs><clipPath id="A"><path fill-opacity=".67" d="M0 0h682.67v512H0z"/></clipPath><path id="B" d="M496.06 549.21l17.717 70.866 35.433-53.15-17.717 88.583 35.433-35.433-35.433 88.582 35.433-35.433-35.433 88.583 35.433-35.433-35.433 106.3 35.433-35.433-35.433 106.3 35.433-35.433-35.433 106.3-17.716 53.151-17.717 17.72-17.717-17.72-17.716-53.151-35.433-106.3 35.433 35.433-35.433-106.3 35.433 35.433-35.433-106.3 35.433 35.433-35.433-88.583 35.433 35.433-35.433-88.582 35.433 35.433-17.717-88.583 35.433 53.15 17.717-70.866z"/><path id="C" d="M496.06 549.21v496.07M425.2 868.11l70.86 106.3 70.87-106.3"/><path id="D" d="M425.2 797.24l70.866 106.3 70.866-106.3"/><path id="E" d="M425.2 673.23l70.866 88.583 70.866-88.583"/><path id="F" d="M425.2 620.08l70.866 88.582 70.866-88.582"/><path id="G" d="M442.91 566.93l53.15 106.3 53.15-106.3"/><path id="H" d="M460.63 549.21l28.643 70.866 42.223-53.15-10.184 88.583 27.9-35.433-17.716 88.582 25.249-35.433-25.249 88.583 35.433-35.433-35.433 106.3 35.433-35.433-35.433 106.3 35.433-35.433-35.433 106.3-17.716 53.151-17.717 17.72-17.717-17.72-17.716-53.151-35.433-106.3 35.433 35.433-35.433-106.3 35.433 35.433-35.433-106.3 35.433 35.433-45.617-88.583 45.617 35.433-53.15-88.582 42.966 35.433-25.25-88.583 35.433 53.15.001-70.866z"/><path id="I" d="M467.21 584.65l28.855 124.02v336.62"/><path id="J" d="M436.23 885.83l59.833 88.582 60.682-88.582"/><path id="K" d="M434.53 814.96l61.53 88.582 60.682-88.582"/><path id="L" d="M435.38 744.1l60.682 88.582 59.833-88.582"/><path id="M" d="M432.84 690.94l63.228 70.866 53.149-70.866"/><path id="N" d="M425.2 637.8l70.866 70.865 45.406-70.865"/><path id="O" d="M436.12 593.24l53.15 86.886 35.327-95.478"/><path id="P" d="M440.83 321.578c0 1.23 1.083 2.228 2.42 2.228s2.42-.997 2.42-2.228-1.083-2.228-2.42-2.228-2.42.997-2.42 2.228z"/><path id="Q" d="M333.886 321.578c0 1.23-1.083 2.228-2.42 2.228s-2.42-.997-2.42-2.228 1.083-2.228 2.42-2.228 2.42.997 2.42 2.228z"/><path id="R" d="M355.899 334.523s.699-1.697 3.226-1.697c1.721 0 3.227 1.697 3.227 3.394v3.394h1.613v-3.394c0-1.699 1.614-3.394 3.227-3.394 2.42 0 3.227 1.697 3.227 1.697s0-5.092-3.227-5.092c-2.42 0-3.227 1.697-3.227 1.697s.807-2.546.807-5.092-1.613-4.243-1.613-4.243c0 .325-1.614 1.697-1.614 4.243s.807 5.092.807 5.092-.807-1.697-3.227-1.697c-3.226 0-3.226 5.092-3.226 5.092z"/><path id="S" d="M348.636 357.433c0-11.138 14.529-18.181 14.529-18.181s14.51 7.043 14.51 18.181h-29.039z"/><path id="T" d="M377.679 333.568s2.766-3.819 5.531-3.819h2.765v2.546c0 3.819-4.148 5.092-4.148 5.092h11.063s-4.148-1.273-4.148-5.092v-2.546h2.765c2.765 0 5.531 3.819 5.531 3.819v-10.183s-2.766 3.819-5.531 3.819h-2.765v-2.546c0-3.819 4.148-5.092 4.148-5.092h-11.063s4.148 1.273 4.148 5.092v2.546h-2.765c-2.765 0-5.531-3.819-5.531-3.819v10.183z"/></defs><g clip-path="url(#A)" transform="scale(.9375)"><g class="C"><path d="M0 0h1024v512H0z" class="E"/><g fill="#000063"><path d="M1024 445.24c-11.474 6.903-21.332 23.035-51.814 23.035-60.947 0-76.188-33.965-121.9-33.965-30.474 0-45.712 33.965-76.187 33.965-60.952 0-76.191-33.965-121.9-33.965-30.477 0-45.715 33.965-76.191 33.965-60.952 0-76.191-33.965-121.9-33.965-30.477 0-45.715 33.965-76.191 33.965-60.952 0-76.191-33.965-121.9-33.965-30.478 0-45.715 33.965-76.191 33.965-60.952 0-76.192-33.965-121.91-33.965-30.476 0-39.619 24.203-57.905 24.203v43.727c18.286 0 27.428-24.2 57.905-24.2 45.715 0 60.955 33.96 121.9 33.96 30.476 0 45.713-33.965 76.191-33.965 45.713 0 60.952 33.965 121.9 33.965 30.476 0 45.714-33.965 76.191-33.965 45.714 0 60.952 33.965 121.9 33.965 30.476 0 45.714-33.965 76.191-33.965 45.714 0 60.952 33.965 121.9 33.965 30.476 0 45.714-33.965 76.187-33.965 45.715 0 60.956 33.965 121.9 33.965 30.482 0 40.34-9.625 51.814-16.528v-50.235zm0-84.92c-11.474 6.903-21.332 23.035-51.814 23.035-60.947 0-76.188-33.965-121.9-33.965-30.474 0-45.712 33.965-76.187 33.965-60.952 0-76.191-33.965-121.9-33.965-30.477 0-45.715 33.965-76.191 33.965-60.952 0-76.191-33.965-121.9-33.965-30.477 0-45.715 33.965-76.191 33.965-60.952 0-76.191-33.965-121.9-33.965-30.478 0-45.715 33.965-76.191 33.965-60.952 0-76.192-33.965-121.91-33.965-30.476 0-39.619 24.203-57.905 24.203v43.727c18.286.01 27.428-24.2 57.905-24.2 45.714 0 60.953 33.965 121.91 33.965 30.476 0 45.713-33.965 76.191-33.965 45.713 0 60.952 33.965 121.9 33.965 30.476 0 45.714-33.965 76.191-33.965 45.714 0 60.952 33.965 121.9 33.965 30.476 0 45.714-33.965 76.191-33.965 45.714 0 60.952 33.965 121.9 33.965 30.476 0 45.714-33.965 76.187-33.965 45.715 0 60.956 33.965 121.9 33.965 30.482 0 40.34-9.625 51.814-16.528v-50.235zm0-84.91c-11.474 6.903-21.332 23.035-51.814 23.035-60.947 0-76.188-33.965-121.9-33.965-30.474 0-45.712 33.965-76.187 33.965-60.952 0-76.191-33.965-121.9-33.965-30.477 0-45.715 33.965-76.191 33.965-60.952 0-76.191-33.965-121.9-33.965-30.477 0-45.715 33.965-76.191 33.965-60.952 0-76.191-33.965-121.9-33.965-30.478 0-45.715 33.965-76.191 33.965-60.952 0-76.192-33.965-121.91-33.965-30.476 0-39.619 24.203-57.905 24.203v43.727c18.286 0 27.428-24.2 57.905-24.2 45.714 0 60.953 33.965 121.91 33.965 30.476 0 45.713-33.965 76.191-33.965 45.713 0 60.952 33.965 121.9 33.965 30.476 0 45.714-33.965 76.191-33.965 45.714 0 60.952 33.965 121.9 33.965 30.476 0 45.714-33.965 76.191-33.965 45.714 0 60.952 33.965 121.9 33.965 30.476 0 45.714-33.965 76.187-33.965 45.715 0 60.956 33.965 121.9 33.965 30.482 0 40.34-9.625 51.814-16.528v-50.235zm0-84.91c-11.474 6.903-21.332 23.035-51.814 23.035-60.947 0-76.188-33.965-121.9-33.965-30.474 0-45.712 33.965-76.187 33.965-60.952 0-76.191-33.965-121.9-33.965-30.477 0-45.715 33.965-76.191 33.965-60.952 0-76.191-33.965-121.9-33.965-30.477 0-45.715 33.965-76.191 33.965-60.952 0-76.191-33.965-121.9-33.965-30.478 0-45.715 33.965-76.191 33.965-60.952 0-76.192-33.965-121.91-33.965-30.476 0-39.619 24.203-57.905 24.203V247.5c18.286 0 27.428-24.2 57.905-24.2 45.714 0 60.953 33.965 121.91 33.965 30.476 0 45.713-33.965 76.191-33.965 45.713 0 60.952 33.965 121.9 33.965 30.476 0 45.714-33.965 76.191-33.965 45.714 0 60.952 33.965 121.9 33.965 30.476 0 45.714-33.965 76.191-33.965 45.714 0 60.952 33.965 121.9 33.965 30.476 0 45.714-33.965 76.187-33.965 45.715 0 60.956 33.965 121.9 33.965 30.482 0 40.34-9.625 51.814-16.528v-50.235zm0-84.91c-11.474 6.903-21.332 23.035-51.814 23.035-60.947 0-76.188-33.965-121.9-33.965-30.474 0-45.712 33.965-76.187 33.965-60.952 0-76.191-33.965-121.9-33.965-30.477 0-45.715 33.965-76.191 33.965-60.952 0-76.191-33.965-121.9-33.965-30.477 0-45.715 33.965-76.191 33.965-60.952 0-76.191-33.965-121.9-33.965-30.478 0-45.715 33.965-76.191 33.965-60.952 0-76.192-33.965-121.91-33.965-30.491-.002-39.634 24.2-57.92 24.2v43.727c18.286 0 27.428-24.203 57.905-24.203 45.714 0 60.953 33.965 121.91 33.965 30.476 0 45.713-33.965 76.191-33.965 45.713 0 60.952 33.965 121.9 33.965 30.476 0 45.714-33.965 76.191-33.965 45.714 0 60.952 33.965 121.9 33.965 30.476 0 45.714-33.965 76.191-33.965 45.714 0 60.952 33.965 121.9 33.965 30.476 0 45.714-33.965 76.187-33.965 45.715 0 60.956 33.965 121.9 33.965 30.482 0 40.34-9.625 51.814-16.528v-50.235zm0-84.915c-11.474 6.903-21.332 23.035-51.814 23.035-60.947 0-76.188-33.965-121.9-33.965-30.474 0-45.712 33.965-76.187 33.965-60.952 0-76.191-33.965-121.9-33.965-30.477 0-45.715 33.965-76.191 33.965-60.952 0-76.191-33.965-121.9-33.965-30.477 0-45.715 33.965-76.191 33.965-60.952 0-76.191-33.965-121.9-33.965-30.478 0-45.715 33.965-76.191 33.965-60.952 0-76.192-33.965-121.91-33.965-30.491 0-39.634 24.203-57.92 24.203v43.727c18.286 0 27.428-24.203 57.905-24.203 45.714 0 60.953 33.965 121.91 33.965 30.476 0 45.713-33.965 76.191-33.965 45.713 0 60.952 33.965 121.9 33.965 30.476 0 45.714-33.965 76.191-33.965 45.714 0 60.952 33.965 121.9 33.965 30.476 0 45.714-33.965 76.191-33.965 45.714 0 60.952 33.965 121.9 33.965 30.476 0 45.714-33.965 76.187-33.965 45.715 0 60.956 33.965 121.9 33.965 30.482 0 40.34-9.625 51.814-16.528V20.674z"/><path d="M0 .063h261.31v157.91H0z"/></g></g><g class="E"><path d="M0 .063v17.654L232.097 157.97h29.215v-17.654L29.215.064H0zm261.312 0v17.654L29.215 157.968H0v-17.654L232.097.064h29.215z"/><path d="M108.88.063v157.905h43.552V.063H108.88zM0 52.698v52.635h261.312V52.698H0z"/></g><path d="M0 63.225v31.581h261.312v-31.58H0zM117.59.063v157.905h26.132V.063H117.59zM0 157.968l87.104-52.635h19.476l-87.104 52.635H0zM0 .063l87.104 52.635H67.628L0 11.833V.063zm154.732 52.635L241.836.063h19.476l-87.104 52.635h-19.476zm106.58 105.27l-87.104-52.635h19.476l67.628 40.866v11.77z" fill="#c00"/><g class="C F"><path d="M379.841 119.798l-3.657 347.385c0 18.283 16.532 18.283 18.284 0l-3.657-347.385h-10.97z" fill="#a24300" stroke-width="2.608"/><g transform="matrix(-.2354 .06743 -.1035 -.19501 591.314 322.549)" class="G H"><use href="#B"/></g></g><g class="D I J"><use href="#C" transform="matrix(-.2354 .06743 -.1035 -.19501 591.314 322.549)"/><use href="#D" transform="matrix(-.2354 .06743 -.1035 -.19501 591.314 322.549)"/><path d="M425.2 726.38l70.866 106.3 70.866-106.3" transform="matrix(-.2354 .06743 -.1035 -.19501 591.314 322.549)"/><use href="#E" transform="matrix(-.2354 .06743 -.1035 -.19501 591.314 322.549)"/><use href="#F" transform="matrix(-.2354 .06743 -.1035 -.19501 591.314 322.549)"/><use href="#G" transform="matrix(-.2354 .06743 -.1035 -.19501 591.314 322.549)"/></g><g transform="matrix(.17703 -.18126 .22077 .14638 73.835 93.526)"><use href="#B" class="C F G H"/><g class="D I J"><use href="#C"/><use href="#D"/><path d="M425.2 726.38l70.866 106.3 70.866-106.3"/><use href="#E"/><use href="#F"/><use href="#G"/></g></g><g transform="matrix(.1135 .2156 -.24917 .1076 581.756 -57.78)"><use href="#B" class="C F G H"/><g class="D I J"><use href="#C"/><use href="#D"/><path d="M425.2 726.38l70.866 106.3 70.866-106.3"/><use href="#E"/><use href="#F"/><use href="#G"/></g></g><g transform="matrix(-.15682 .19451 -.23555 -.12827 705.85 197.798)"><use href="#B" class="C F G H"/><g class="D I J"><use href="#C"/><use href="#D"/><path d="M425.2 726.38l70.866 106.3 70.866-106.3"/><use href="#E"/><use href="#F"/><use href="#G"/></g></g><g transform="matrix(-.15547 -.16616 .17678 -.15123 275.837 396.088)"><use href="#B" class="C F G H"/><g class="D I J"><use href="#C"/><use href="#D"/><path d="M425.2 726.38l70.866 106.3 70.866-106.3"/><use href="#E"/><use href="#F"/><use href="#G"/></g></g><g transform="matrix(-.27108 -.06397 -.15704 .20433 684.121 -32.23)"><use href="#H" class="C F G H"/><g class="D I J"><use href="#I"/><use href="#J"/><use href="#K"/><use href="#L"/><use href="#M"/><use href="#N"/><use href="#O"/></g></g><g transform="matrix(.27011 .06695 .00989 .24471 240.767 -138.419)"><use href="#H" class="C F G H"/><g class="D I J"><use href="#I"/><use href="#J"/><use href="#K"/><use href="#L"/><use href="#M"/><use href="#N"/><use href="#O"/></g></g><g transform="matrix(.03453 -.23456 .24402 .04167 115.462 229.538)"><path d="M354.33 531.5l88.583 88.583 17.716-53.149v88.582l35.433-35.433-17.716 88.583 35.432-35.434-17.716 88.584 35.433-35.433-17.716 106.3 35.433-35.433-35.433 106.3 35.433-35.433-17.717 106.3-17.716 53.151-17.717 17.72-17.717-17.72-17.716-53.151-53.15-82.294 35.434 11.429-35.433-106.3 35.433 35.433-53.15-106.3 35.433 35.433-53.15-88.584 53.15 35.434-70.866-88.583 53.149 35.433-70.866-70.866 70.866 35.433-53.149-88.583z" class="C F G H"/><g class="D I J"><path d="M378.96 560.02l63.952 95.497 17.716 53.15 8.859 45.205 8.858 78.811 9.315 70.866 8.401 141.74"/><path d="M425.2 903.54l63.665 70.866 50.749-88.583M417.08 814.96l70.579 88.583 50.75-88.583M407.48 752.44l70.867 80.235 45.948-88.583M372.05 637.8l88.583 70.866 25.831-70.866M360.62 602.36l82.296 53.149 10.515-53.149m-63.671 88.58l81.095 70.866 33.946-70.866"/></g></g><g class="C"><g class="D"><path d="M340.318 355.709l-.232-28.809-8.346-13.446c-2.087-6.616-1.059-9.817 2.318-10.03s6.724 1.707 11.592 1.921 3.941-7.469 11.129-7.256 19.707 4.055 30.372 4.695 16.228-3.415 28.516-3.841 15.534 5.335 16.23 5.335 4.173-2.348 7.65-2.774 4.637 1.28 4.637 1.28-.232 7.256-1.855 11.524-7.42 11.311-7.65 11.311-2.087 31.372-2.087 31.585-92.273-.854-92.273-1.494z" fill="#c00" class="K"/><g class="K"><path d="M435.759 326.248s9.286-6.55 9.536-22.276c.144-9.044-4.696-15.593-16.795-15.593-16.94 0-41.138 6.682-41.138 6.682v2.228s19.359-6.683 41.138-6.683c9.68 0 14.52 6.549 14.52 13.232 0 11.138-9.68 22.409-9.68 22.409v17.82h2.42v-17.82z" class="B"/><g class="E"><use href="#P"/><path d="M443.25 316.483c0 1.23 1.083 2.228 2.42 2.228s2.42-.997 2.42-2.228-1.083-2.228-2.42-2.228-2.42.997-2.42 2.228zm1.261-5.188c0 1.23 1.083 2.228 2.42 2.228s2.42-.997 2.42-2.228-1.083-2.228-2.42-2.228-2.42.997-2.42 2.228zm.927-5.549c0 1.23 1.083 2.228 2.42 2.228s2.42-.997 2.42-2.228-1.083-2.228-2.42-2.228-2.42.997-2.42 2.228zm-.231-6.016c0 1.23 1.083 2.228 2.42 2.228s2.42-.997 2.42-2.228-1.083-2.228-2.42-2.228-2.42.997-2.42 2.228zm-7.855 26.33c0 1.23 1.083 2.228 2.42 2.228s2.42-.997 2.42-2.228-1.083-2.228-2.42-2.228-2.42.997-2.42 2.228zm5.797-32.012c0 1.23 1.083 2.228 2.42 2.228s2.42-.997 2.42-2.228-1.083-2.228-2.42-2.228-2.42.997-2.42 2.228zm-4.405-4.481c0 1.23 1.083 2.228 2.42 2.228s2.42-.997 2.42-2.228-1.083-2.228-2.42-2.228-2.42.997-2.42 2.228zm-6.028-2.987c0 1.23 1.083 2.228 2.42 2.228s2.42-.997 2.42-2.228-1.083-2.228-2.42-2.228-2.42.997-2.42 2.228zm-6.028-.428c0 1.23 1.083 2.228 2.42 2.228s2.42-.997 2.42-2.228-1.083-2.228-2.42-2.228-2.42.997-2.42 2.228zm-6.491.214c0 1.23 1.083 2.228 2.42 2.228s2.42-.997 2.42-2.228-1.083-2.228-2.42-2.228-2.42.997-2.42 2.228zm-6.492.854c0 1.23 1.083 2.228 2.42 2.228s2.42-.997 2.42-2.228-1.083-2.228-2.42-2.228-2.42.997-2.42 2.228zm-6.493.854c0 1.23 1.083 2.228 2.42 2.228s2.42-.997 2.42-2.228-1.083-2.228-2.42-2.228-2.42.997-2.42 2.228zm-6.954 1.066c0 1.23 1.083 2.228 2.42 2.228s2.42-.997 2.42-2.228-1.083-2.228-2.42-2.228-2.42.997-2.42 2.228zm-6.028 1.495c0 1.23 1.083 2.228 2.42 2.228s2.42-.997 2.42-2.228-1.083-2.228-2.42-2.228-2.42.997-2.42 2.228z"/></g><g class="E"><use href="#Q"/><path d="M331.466 316.484c0 1.23-1.083 2.228-2.42 2.228s-2.42-.997-2.42-2.228 1.083-2.228 2.42-2.228 2.42.997 2.42 2.228zm-1.261-5.189c0 1.23-1.083 2.228-2.42 2.228s-2.42-.997-2.42-2.228 1.083-2.228 2.42-2.228 2.42.997 2.42 2.228zm-.927-5.549c0 1.23-1.083 2.228-2.42 2.228s-2.42-.997-2.42-2.228 1.083-2.228 2.42-2.228 2.42.997 2.42 2.228zm.232-6.016c0 1.23-1.083 2.228-2.42 2.228s-2.42-.997-2.42-2.228 1.083-2.228 2.42-2.228 2.42.997 2.42 2.228zm2.058-5.682c0 1.23-1.083 2.228-2.42 2.228s-2.42-.997-2.42-2.228 1.083-2.228 2.42-2.228 2.42.997 2.42 2.228zm4.405-4.481c0 1.23-1.083 2.228-2.42 2.228s-2.42-.997-2.42-2.228 1.083-2.228 2.42-2.228 2.42.997 2.42 2.228zm6.027-2.988c0 1.23-1.083 2.228-2.42 2.228s-2.42-.997-2.42-2.228 1.083-2.228 2.42-2.228 2.42.997 2.42 2.228zm6.028-.427c0 1.23-1.083 2.228-2.42 2.228s-2.42-.997-2.42-2.228 1.083-2.228 2.42-2.228 2.42.997 2.42 2.228zm6.491.214c0 1.23-1.083 2.228-2.42 2.228s-2.42-.997-2.42-2.228 1.083-2.228 2.42-2.228 2.42.997 2.42 2.228zm6.493.854c0 1.23-1.083 2.228-2.42 2.228s-2.42-.997-2.42-2.228 1.083-2.228 2.42-2.228 2.42.997 2.42 2.228zm6.492.853c0 1.23-1.083 2.228-2.42 2.228s-2.42-.997-2.42-2.228 1.083-2.228 2.42-2.228 2.42.997 2.42 2.228zm6.954 1.067c0 1.23-1.083 2.228-2.42 2.228s-2.42-.997-2.42-2.228 1.083-2.228 2.42-2.228 2.42.997 2.42 2.228zm6.029 1.495c0 1.23-1.083 2.228-2.42 2.228s-2.42-.997-2.42-2.228 1.083-2.228 2.42-2.228 2.42.997 2.42 2.228zm-43.123 35.425c0 1.23-1.083 2.228-2.42 2.228s-2.42-.997-2.42-2.228 1.083-2.228 2.42-2.228 2.42.997 2.42 2.228z"/></g><g class="B"><path d="M338.958 326.248s-9.286-6.55-9.536-22.276c-.144-9.044 4.696-15.593 16.795-15.593 16.94 0 41.138 6.682 41.138 6.682v2.228s-19.359-6.683-41.138-6.683c-9.68 0-14.52 6.549-14.52 13.232 0 11.138 9.68 22.409 9.68 22.409v17.82h-2.42v-17.82z"/></g></g><g stroke-width=".14" class="B"><use href="#R"/><path d="M404.296 334.523s.699-1.697 3.226-1.697c1.721 0 3.227 1.697 3.227 3.394v3.394h1.613v-3.394c0-1.699 1.614-3.394 3.227-3.394 2.42 0 3.227 1.697 3.227 1.697s0-5.092-3.227-5.092c-2.42 0-3.227 1.697-3.227 1.697s.807-2.546.807-5.092-1.613-4.243-1.613-4.243c0 .325-1.614 1.697-1.614 4.243s.807 5.092.807 5.092-.807-1.697-3.227-1.697c-3.226 0-3.226 5.092-3.226 5.092z"/></g><g class="K B"><path d="M338.958 357.433v-20.048s4.84 6.683 12.1 6.683c5.94 0 12.099-8.91 12.099-8.91s5.671 6.682 12.1 6.682c5.74 0 12.09-8.622 12.09-8.622s5.902 8.622 12.109 8.622 12.099-6.682 12.099-6.682 6.323 8.91 14.52 8.91c7.26 0 9.68-6.683 9.68-6.683v20.048h-96.796z"/><path d="M338.956 357.433V341.84s14.52 4.455 14.52 15.593h-14.52zm96.795 0V341.84s-14.52 4.455-14.52 15.593h14.52z"/><use href="#S"/><path d="M397.034 357.433c0-11.138 14.529-18.181 14.529-18.181s14.51 7.043 14.51 18.181h-29.039z"/><path d="M370.415 357.433c0-11.138 16.948-20.048 16.948-20.048s16.93 8.91 16.93 20.048h-33.878z"/></g><path d="M438.168 357.432c-4.785-2.227-22.421-4.455-50.817-4.455s-47.281 2.228-52.066 4.455-4.785 6.682 0 8.91 23.672 4.455 52.067 4.455 46.03-2.227 50.817-4.455 4.785-6.682 0-8.91z" stroke-width=".174" class="E"/></g><path d="M435.757 366.342c0 4.455-40.256 4.455-48.399 4.455-8.797 0-48.398 1.207-48.398-4.455 0-4.455 39.928-4.455 48.398-4.455s48.399.906 48.399 4.455z" fill="gray"/><path d="M343.797 350.342c0 1.456-1.084 2.636-2.42 2.636s-2.42-1.18-2.42-2.636 1.083-2.637 2.42-2.637 2.42 1.18 2.42 2.637zm91.956 0c0 1.456-1.083 2.636-2.42 2.636s-2.42-1.18-2.42-2.636 1.084-2.637 2.42-2.637 2.42 1.18 2.42 2.637z" fill="#c00"/><path d="M392.195 348.932c0 1.456-2.167 2.636-4.84 2.636s-4.84-1.18-4.84-2.636 2.167-2.636 4.84-2.636 4.84 1.18 4.84 2.636z"/><path d="M415.41 348.932c0 1.456-1.625 2.636-3.63 2.636s-3.63-1.18-3.63-2.636 1.626-2.636 3.63-2.636 3.63 1.18 3.63 2.636zm-49.834 0c0 1.456-1.626 2.636-3.63 2.636s-3.63-1.18-3.63-2.636 1.625-2.636 3.63-2.636 3.63 1.18 3.63 2.636z" fill="#006300"/><g class="D"><g class="B"><use href="#T" class="L"/><g stroke-width=".173"><path d="M338.966 341.843h2.766s-2.074-1.114-2.074-4.455v-2.228h1.383c1.383 0 2.766 3.342 2.766 3.342v-8.911s-1.383 3.342-2.766 3.342h-1.383v-2.228c0-3.342 2.074-4.455 2.074-4.455h-2.766v15.594zm96.783 0h-2.766s2.074-1.114 2.074-4.455v-2.228h-1.383c-1.383 0-2.766 3.342-2.766 3.342v-8.911s1.383 3.342 2.766 3.342h1.383v-2.228c0-3.342-2.074-4.455-2.074-4.455h2.766v15.594z"/></g></g><path d="M389.775 328.475c0 1.23-1.083 2.228-2.42 2.228s-2.42-.997-2.42-2.228 1.083-2.228 2.42-2.228 2.42.997 2.42 2.228z" class="E K"/><path d="M377.679 286.792s2.766-3.819 5.531-3.819h2.765v2.546c0 3.819-4.148 5.092-4.148 5.092h11.063s-4.148-1.273-4.148-5.092v-2.546h2.765c2.765 0 5.531 3.819 5.531 3.819v-10.183s-2.766 3.819-5.531 3.819h-2.765v-2.546c0-3.819 4.148-5.092 4.148-5.092h-11.063s4.148 1.273 4.148 5.092v2.546h-2.765c-2.765 0-5.531-3.819-5.531-3.819v10.183z" class="B L"/><g class="K"><path d="M390.007 282.071c0 1.23-1.083 2.228-2.42 2.228s-2.42-.997-2.42-2.228 1.083-2.228 2.42-2.228 2.42.997 2.42 2.228z" class="E"/><g class="B"><path d="M382.515 290.607h9.68v6.683h-9.68z"/><path d="M382.515 294.101h9.68v25.464h-9.68z"/></g><g class="E"><path d="M389.776 315.109c0 1.23-1.083 2.228-2.42 2.228s-2.42-.997-2.42-2.228 1.083-2.228 2.42-2.228 2.42.997 2.42 2.228zm0-5.762c0 1.23-1.083 2.228-2.42 2.228s-2.42-.997-2.42-2.228 1.083-2.228 2.42-2.228 2.42.997 2.42 2.228zm0-5.375c0 1.23-1.083 2.228-2.42 2.228s-2.42-.997-2.42-2.228 1.083-2.228 2.42-2.228 2.42.997 2.42 2.228zm0-5.548c0 1.23-1.083 2.228-2.42 2.228s-2.42-.997-2.42-2.228 1.083-2.228 2.42-2.228 2.42.997 2.42 2.228z"/></g></g></g><path d="M392.495 357.482c0 1-2.202 1.81-4.918 1.81s-4.918-.81-4.918-1.81 2.202-1.811 4.918-1.811 4.918.81 4.918 1.81zm44.57 4.421c-.272.685-2.668.742-5.35.127s-4.638-1.67-4.366-2.355 2.668-.743 5.35-.128 4.638 1.67 4.366 2.356zm-18.628-3.004c-.108.882-2.439 1.44-5.206 1.247s-4.925-1.065-4.817-1.947 2.439-1.44 5.206-1.247 4.925 1.065 4.817 1.947zm-81.87 3.004c.272.685 2.668.742 5.35.127s4.638-1.67 4.366-2.355-2.668-.743-5.35-.128-4.638 1.67-4.366 2.356zm19.561-3.431c.108.882 2.439 1.44 5.206 1.247s4.925-1.065 4.817-1.947-2.439-1.44-5.207-1.247-4.924 1.065-4.816 1.947z"/></g></g></svg>