<svg xmlns="http://www.w3.org/2000/svg" height="480" width="640" xmlns:v="https://vecta.io/nano"><style><![CDATA[.B{fill-opacity:.996}.C{stroke:#000}.D{fill:#fdc400}.E{stroke-width:.51}.F{fill-rule:evenodd}.G{fill:#d40f0f}.H{fill:#003017}.I{stroke-width:.986}]]></style><g fill="#006"><path d="M0 0h640v480H0z"/><path d="M0 0h400v200H0z" class="F"/></g><g fill="#fff"><path d="M0 0v27.09l334.411 215.208h42.094v-27.09L42.093.002H0zm376.505 0v27.089L42.093 242.297H0v-27.089L334.411 0h42.094z"/><path d="M156.877 0v242.297h62.75V0h-62.75zM0 80.766v80.765h376.505V80.766H0z"/></g><path fill="#c00" d="M0 96.919v48.46h376.505v-48.46H0zM169.427 0v242.297h37.65V0h-37.65zM0 242.297l125.502-80.766h28.062L28.062 242.297H0zM0 0l125.502 80.766H97.439L0 18.06V0zm222.941 80.766L348.443 0h28.062L251.003 80.766h-28.062zm153.564 161.53l-125.502-80.765h28.062l97.44 62.707v18.059z"/><g class="F"><path d="M448.33 179.141c-1.009.61-3.028 2.44-5.048 1.83s-6.562-8.542-11.61-7.322-8.078 3.051-10.097 3.051-7.573 1.831-7.573 6.712.505 8.543 1.515 8.543 2.524-3.05 2.524-3.05.505 6.1 4.039 6.1 11.106.611 11.61 2.442-3.533 6.102-2.523 9.763 5.553 9.763 5.553 9.763-6.563 4.881-6.563 7.933 1.01 6.102 1.01 6.102l-29.28 1.22-1.01 93.36 3.533 23.186s-6.562-2.134-12.116 3.358-24.988 14.948-25.493 19.219-2.272 7.934-.252 10.984 9.124 11.34 7.067 10.985c-6.777-1.17-9.3-10.798-13.882-14.34-4.504-3.476-13.378-2.745-14.387.914s-.505 9.763 0 10.984 6.057 20.747 7.572 25.018 17.416 10.677 24.484 10.068c13.377.304 19.435-5.796 19.94-5.184s28.78 29.768 86.83 29.898c45.188.1 79.258-29.29 79.258-28.678s18.679 6.101 25.241 4.272 16.155-6.105 18.174-10.376 7.573-26.239 8.078-29.897 0-7.934-4.544-9.155-7.067-.916-9.591.304-3.282 4.58-7.068 10.68c-2.019 1.833-7.32 6.713-5.805 5.492s4.795-10.372 5.3-13.426 2.02-8.542-1.514-11.593-8.947-4.297-15.145-8.846c-5.886-4.034-10.6-10.68-14.135-10.68s-7.573-1.829-7.068-1.829 4.552-8.865 3.542-18.016.496-96.7-.008-96.7-25.242 1.83-25.242.61 2.02-9.763 0-15.255-10.601-9.153-8.077-10.373 13.63-4.271 13.125-9.153-7.572-4.271-10.601-6.102-12.116-10.373-13.126-10.373 26.25-16.475 24.232-16.475-12.62-3.05-16.154-1.22c0-3.051 14.64-12.204 12.116-13.425s-14.136-2.44-11.107-3.05 4.039-7.933 3.534-7.933-13.125 1.83-13.125 1.83-3.03-4.27-4.039-4.27-5.553 2.44-5.553 2.44l-2.524-6.712-5.553 3.661-2.524-3.051s-4.544 1.22-4.544 0c.191-.044-.523-3.064-1.236-3.064s-5.712 3.883-5.89 3.667-5.712-7.982-5.712-7.766-3.927 14.67-4.105 14.67-3.927.431-4.105.647-19.99-11.434-19.811-11.218 5.175 11.218 5.175 11.218-4.283 2.373-4.283 2.59.714 4.96.714 4.96l-13.21-4.53s4.998 10.139 4.64 10.139-9.816.432-9.637.432 4.462 8.413 4.462 8.413l-1.606 4.962s14.217 10.033 13.207 10.644zm84.307 212.347c1.262 1.83 8.077 10.372 7.067 10.372s-17.92 11.289-24.737 13.426-29.027 6.1-27.765 5.796 19.946-10.535 27.519-15.414 17.915-13.57 17.915-14.18zm-105.513-.308c-1.01 1.22-5.806 10.68-5.806 10.68s13.883 9.763 24.232 13.425 28.018 4.88 27.008 4.575-22.212-9.763-28.27-14.643l-17.165-14.038z" fill="#fff"/><g stroke="#6d6666" fill="#fec500"><g stroke-width=".478"><path d="M438.212 165.228l10.854 7.932c2.019 1.526 8.582 8.238 9.087 7.933s4.039-3.661 4.039-3.661-7.32-7.017-11.863-8.543-12.116-3.051-12.116-3.661z"/><path d="M436.95 158.211c.757 0 14.64 8.543 18.931 12.814s6.058 9.763 6.563 9.763 7.067-1.22 6.815-1.22-3.029-10.983-9.339-14.339-22.717-7.017-22.969-7.017zm65.372-22.071c-.252 0-2.777 9.153-3.534 11.899s-2.019 8.543-2.019 8.543-11.106 1.22-10.601-.305 16.911-20.136 16.154-20.136z"/><path d="M439.473 147.227s13.125 10.678 17.669 16.78 9.087 16.78 9.339 16.78 12.368-3.051 12.368-2.746-14.135-17.085-20.95-22.272-18.173-7.933-18.426-8.543z"/><path d="M453.104 144.378s6.563 12.204 7.825 16.475 5.048 15.255 5.048 15.255h10.349s-5.048-13.729-10.601-20.441-12.368-10.678-12.62-11.289z"/><path d="M456.635 137.665c.253.915 9.592 11.594 11.863 18.611s4.039 15.865 4.039 15.865l9.087-2.746s-8.077-18.001-13.125-22.882-11.358-8.237-11.863-8.848zm75.473 28.784s-18.931 2.441-25.746 4.577-10.601 10.068-10.601 10.068 8.835 3.966 9.339 3.356 5.805-7.017 11.611-9.458 15.902-8.238 15.397-8.543z"/><path d="M531.349 151.498c-.505.305-15.649 15.255-20.445 20.136s-9.339 10.068-9.844 10.373-9.844-1.525-9.339-2.136 13.883-13.729 22.717-19.526 16.154-8.238 16.911-8.848z"/><path d="M527.564 140.818c-1.514 2.136-16.407 16.78-20.445 21.967s-10.601 14.34-10.601 14.34-7.825-4.272-7.32-6.102 11.106-12.509 18.678-18.611 20.445-10.984 19.688-11.594z"/><path d="M512.42 139.598c-.252.305-9.087 11.594-10.854 14.645s-7.067 16.475-7.067 16.475-7.825-8.238-7.825-8.543 9.844-12.814 15.649-17.696 10.349-3.966 10.096-4.882z"/></g><g class="E"><path d="M490.537 156.267c0 2.145-1.438 3.883-3.213 3.883s-3.213-1.739-3.213-3.883 1.438-3.883 3.213-3.883 3.213 1.739 3.213 3.883zm6.426 5.18c0 1.906-1.438 3.452-3.213 3.452s-3.213-1.546-3.213-3.452 1.438-3.452 3.213-3.452 3.213 1.546 3.213 3.452zm-14.279-3.885c0 1.906-1.758 3.452-3.927 3.452s-3.927-1.546-3.927-3.452 1.758-3.452 3.927-3.452 3.927 1.546 3.927 3.452z"/><path d="M493.036 164.683c0 3.694-1.998 6.688-4.462 6.688s-4.462-2.994-4.462-6.688 1.998-6.688 4.462-6.688 4.462 2.994 4.462 6.688zm-12.136.215c0 2.86-1.998 5.178-4.462 5.178s-4.462-2.318-4.462-5.178 1.998-5.178 4.462-5.178 4.462 2.318 4.462 5.178z"/><path d="M474.831 168.999c0 2.502-1.518 4.531-3.391 4.531s-3.391-2.028-3.391-4.531 1.518-4.531 3.391-4.531 3.391 2.028 3.391 4.531zm24.987-.434c0 2.979-2.317 5.393-5.176 5.393s-5.176-2.415-5.176-5.393 2.317-5.393 5.176-5.393 5.176 2.415 5.176 5.393zm-12.492-7.767c0 1.787-1.838 3.236-4.105 3.236s-4.105-1.449-4.105-3.236 1.838-3.236 4.105-3.236 4.105 1.449 4.105 3.236z"/><path d="M488.038 167.919c0 2.621-2.557 4.746-5.711 4.746s-5.711-2.125-5.711-4.746 2.557-4.746 5.711-4.746 5.711 2.125 5.711 4.746zm14.635 8.412c0 3.217-2.397 5.825-5.354 5.825s-5.354-2.608-5.354-5.825 2.397-5.825 5.354-5.825 5.354 2.608 5.354 5.825zm-29.269-1.51c0 2.145-1.358 3.883-3.034 3.883s-3.034-1.739-3.034-3.883 1.358-3.883 3.034-3.883 3.034 1.739 3.034 3.883z"/><path d="M494.819 174.175c0 2.74-2.078 4.962-4.641 4.962s-4.641-2.222-4.641-4.962 2.078-4.962 4.641-4.962 4.641 2.222 4.641 4.962zm-14.635-.215c0 2.383-1.838 4.315-4.105 4.315s-4.105-1.932-4.105-4.315 1.838-4.315 4.105-4.315 4.105 1.932 4.105 4.315z"/><path d="M487.325 175.251c0 2.621-1.918 4.746-4.284 4.746s-4.284-2.125-4.284-4.746 1.918-4.746 4.284-4.746 4.284 2.125 4.284 4.746zm-18.564-28.477c1.071 0 8.567 3.02 8.567 3.02l-7.853 3.883c1.428-.432 10.352-1.726 9.638-1.726s-7.853 8.198-5.711 7.766 6.426-5.609 6.782-5.609 4.641 8.198 4.998 7.766 0-8.198.357-8.198 8.924 5.178 8.21 4.746-5.711-6.472-5.354-6.472 11.78 1.294 11.066.863-7.496-4.315-7.496-4.315 4.997-5.609 3.927-5.609-9.281 5.609-8.567 5.177 8.924-11.649 8.924-11.649l-8.21 4.746s1.428-6.904.714-6.472-6.425 9.061-6.782 9.061-1.785-8.629-1.785-8.629.357 9.492-1.785 9.924-9.638 2.157-9.638 1.726z"/></g></g><path d="M445.509 216.536c.178.863 5.89 16.396 14.636 15.964s12.315-3.02 11.958-3.236-4.105-2.804-6.247-8.414-2.499-7.982-2.499-7.982l-17.848 3.668zm31.235-6.041s6.425 15.317 9.28 17.474 9.46 3.884 12.316 3.668 6.247 0 6.247 0-2.855-1.51-5.176-9.924l-3.034-11.218h-19.633zm39.266 5.609s-1.25 11.218 0 14.023 7.496 7.982 7.496 7.982 7.496-1.079 7.675-7.982-2.499-13.376-2.499-13.376l-12.672-.647z" fill="#00389b"/><g class="C E"><g fill="#005120"><path d="M439.438 196.473s.357 1.726 0 3.021-3.391 4.746-3.391 7.55 3.569 11.434 14.457 11.65 24.63-7.119 24.452-7.335-26.058-21.142-26.414-20.926-9.103 6.472-9.103 6.041zm71.927 14.886s2.32 7.551 3.212 8.414 1.249 2.589 1.428 2.589 14.992 3.883 14.992 3.883 1.428-4.961-.714-8.845-10.173-14.023-10.173-14.023l-8.746 7.982zm10.174-9.277c.357 0 3.927 3.667 6.782 1.726s7.496-7.119 7.496-7.119-3.927 1.51-6.782 1.294-7.318 4.315-7.496 4.099z"/><path d="M438.903 197.336s-1.071-3.667-3.927-3.883-8.032.432-9.816-1.294-2.32-5.825-3.213-5.609-3.213 0-3.391 0-1.071-3.452 1.428-5.178 4.641-.216 6.068-1.51 3.57-2.157 6.426-2.373 7.496 4.315 9.638 5.393 6.782 2.373 8.567 1.294 11.78-5.825 15.349-6.04 11.066-.431 13.922-.216 14.1 1.941 17.491 3.883 21.418 9.492 23.916 11.218 8.032 4.315 8.032 4.315-9.817 11.65-14.635 13.591-20.168 4.962-29.271 4.315-16.242-1.726-23.202-6.04-14.46-8.413-14.816-10.571-.178-4.962-.178-4.962l-8.388 3.667z"/><path d="M427.836 183.313c-.357.216-2.142 1.079-1.785 1.51s1.071 1.726 3.213 1.51 4.462-1.726 4.462-1.726-2.677-1.51-5.89-1.294z"/></g><path d="M427.658 183.745v2.373s2.499.863 2.499.216.178-2.157-.357-2.157-1.963-.216-2.142-.432z"/></g><path d="M452.642 185.538c.631-1.373 0-3.203 3.66-5.339s10.033-1.525 10.033-1.525-1.83 1.678-1.893 3.432.126 2.517.126 2.517-3.471-1.373-6.121-.534-5.742 1.678-5.805 1.449zm16.409-7.475c-.379.229-3.155 3.966-2.84 5.111s4.039 3.89 5.238 3.661 6.689-3.432 7.004-5.034.568-3.738.126-4.195-9.465.61-9.528.458zm12.053-.61c-.694.839-.442 4.882-.189 5.339s4.607 5.721 5.553 6.026 7.951-.534 8.519-1.449 2.271-4.805 1.767-5.721-2.019-2.136-6.689-3.356-7.446-1.068-8.96-.839zm17.855 5.11c1.136.686 7.762 4.577 11.674 7.704s5.49 6.712 6.626 7.017 5.742-3.051 5.932-3.966-5.616-5.797-9.528-8.009-14.703-2.517-14.703-2.746zm-1.388 3.28c-.568.61 7.067 16.704 8.519 17.238s10.16-3.127 10.033-4.348-2.398-3.661-7.761-7.246-9.717-5.95-10.791-5.644zm-9.465 5.873c-1.199.839-3.092 15.255-1.893 15.942s15.965-1.754 16.533-3.356-6.058-14.34-8.014-14.34-5.49.61-6.626 1.754zm-15.27-3.051c-1.578 1.754-1.262 15.178-.568 16.017s9.465 3.585 10.412 2.593 2.209-16.094 1.325-17.238-3.344-3.89-5.237-4.119-5.048 2.212-5.932 2.746zm-19.814-.229c-1.451 1.373-1.514 4.958.063 5.568s5.49 2.67 9.15 4.577 5.742 4.195 6.815 4.119 2.082-13.5.946-14.263-4.48-1.373-7.635-1.22-7.762.534-9.339 1.22z" stroke="#000007" fill="#001707" class="E"/><path d="M387.976 359.201c2.59-2.52 6.616-8.682 12.081-8.962s11.22 4.761 11.22 4.761l5.465 23.528c-.288 0-9.493 6.722-9.78 6.722s-4.028-9.243-7.48-8.404-3.164 13.445-3.739 12.605-15.245-18.206-14.67-18.766 7.192-10.642 6.904-11.483zm151.89-3.081c1.726-.28 9.493-6.163 14.958-5.882s8.63 2.8 11.506 5.321 6.329 8.962 6.329 8.962-6.904 19.046-7.479 19.046-3.452 1.681-4.028.28-2.3-5.882-5.753-6.442-4.315 6.161-4.315 6.161l-11.217-27.447z" class="B G"/><g fill="#fddc59" class="B"><path d="M543.604 362.007c0 1.682 10.643 28.01 27.903 33.05s22.724-4.761 24.737-8.122 9.205-3.08 9.205-3.08-1.725 24.647-4.603 27.727-5.178 9.803-21.286 10.082-30.778-15.123-35.667-19.605-11.22-16.244-13.81-21.567 13.809-17.924 13.52-18.485zm-187.556 52.367c.288 0 7.767 8.123 18.697 7.282s29.629-7.282 38.258-18.485 12.944-23.247 12.944-23.247l-12.944-22.406c-.288 0-1.438 7.282-3.74 12.043s-8.63 18.205-19.272 22.408-10.644 5.88-14.958 5.32-15.533-7.281-15.533-7.562-5.465 13.165-5.465 13.165-1.151 8.682 2.013 11.483z"/><path d="M387.782 358.423c-.814 0-21.154 11.091-20.34 15.844s34.985 72.089 108.206 72.88 117.975-60.998 114.719-71.296-26.034-22.181-26.034-22.181 5.694 4.753 4.881 11.09-26.036 61-89.497 59.416-93.565-49.908-93.565-55.453 3.255-8.715 1.628-10.299z"/></g><path d="M586.171 407.38c1.727-1.4 12.37-30.529 18.41-29.688s4.029 9.522 3.453 11.763-6.616 22.407-6.616 22.407.288-4.762-3.74-5.882-10.643 1.961-11.506 1.401zm-230.123 7.291c0-1.583-4.882-7.129.813-8.714s13.019 1.585 13.019 1.585-4.069-11.883-8.95-21.39-6.51-7.92-10.577-6.337-3.97 5.778-1.528 12.115 7.223 24.326 7.223 22.741z" class="B G"/><path d="M423.176 360.347l7.063-23.923-19.616-15.038 24.568-.567 8.012-23.608 8.123 23.568 24.567.455-19.549 15.13 7.17 23.887-20.201-14.216z" class="D"/><path d="M555.637 235.833v92.04c.18 44.983-45.689 84.374-76.147 92.04-30.461-7.666-76.328-47.057-76.147-92.036v-92.04h152.294z" fill="#fff"/><path d="M403.34 235.834l.129 57.588s.733-1.178 10.749-.46 10.878 12.695 21.756 12.695 10.878-12.695 21.756-12.695 10.878 12.695 21.756 12.695 10.878-12.695 21.756-12.695 10.878 12.695 22.371 13.421c10.263-.726 10.263-13.421 21.202-14.139l10.817.718v-57.129h-152.29z" stroke-width=".499" class="B C G"/><path d="M403.34 312.006v19.043h10.879c10.016.718 10.878 12.695 21.756 12.695s10.878-12.695 21.756-12.695 10.878 12.695 21.757 12.695 10.878-12.695 21.756-12.695 10.263 11.969 21.756 12.695c10.263-.726 10.817-11.977 21.757-12.695h10.878v-19.043h-10.878c-10.879 0-10.879 12.695-21.757 12.695s-10.878-12.695-21.756-12.695-10.878 12.694-21.756 12.694-10.879-12.695-21.757-12.695-10.878 12.695-21.756 12.695-10.878-12.695-21.756-12.695H403.34zm3.283 38.082l7.596 19.043c10.017.718 10.878 12.695 21.757 12.695s10.878-12.695 21.756-12.695 10.878 12.695 21.756 12.695 10.879-12.695 21.757-12.695 10.263 11.97 21.756 12.695c10.263-.726 10.564-11.977 21.504-12.695l7.85-19.337-7.598.294c-10.878 0-10.878 12.695-21.756 12.696s-10.878-12.696-21.756-12.696-10.878 12.695-21.757 12.695-10.878-12.695-21.756-12.695-10.878 12.695-21.756 12.695-10.878-12.695-21.757-12.695h-7.596zm72.867 69.823c10.879 0 35.803-19.043 35.548-19.043.253 0-2.914-12.695-13.792-12.695s-10.878 12.695-21.757 12.695-10.878-12.695-21.756-12.695-13.655 12.695-13.68 12.695c-.504 0 24.558 19.043 35.435 19.043z" fill="#0062bb" class="B"/><path d="M423.253 279.778c1.233 0 12.337 1.61 20.354 1.073s11.104-3.22 11.104-3.757v-1.61h10.485s1.85 7.513.617 8.049-4.318 2.684-4.935 2.684 0-3.757-1.233-2.684-1.85 2.684-1.85 2.684-1.233-1.611-1.85-1.611-1.85 1.611-1.85 1.611 0-1.611-.618-1.611-3.7 2.684-3.7 2.684l-3.084-2.147s-1.852 2.684-2.468 2.684-4.317-2.146-4.317-2.146l-6.169 3.219s0-4.83-1.233-4.293-8.019.537-8.019.537-1.852 3.22-2.468 3.22-3.084-2.683-2.467-2.683 1.85-1.611 1.233-2.147-3.7 0-3.7-.537-1.233-3.757-.617-3.757 3.084.538 3.084.538v-3.22h3.084l.618 3.22zm11.102-30.591c-.617 0-4.935 4.293-4.318 9.122s11.104 11.806 11.104 11.806 5.552-2.146 7.402 0 1.85 8.586 1.233 8.586-8.019 1.611-8.019.535 0-2.145-.617-2.145-7.402.535-7.402.535l.617-2.145-6.167-1.073 2.467-2.147s-9.87-3.756-9.254-3.756 4.318-2.146 4.318-2.146l-7.402-4.296h4.318s-6.169-4.292-5.552-4.292 3.7.535 3.7.535l-1.85-4.291h1.85l-1.85-3.22 3.084-1.073 1.852 2.683-.617-6.44 4.317.538v5.365s1.85-3.219 1.85-3.756 5.552 2.146 4.935 1.073z" class="C D I B"/><path d="M529.965 282.453c-.771.671-3.085 2.146-3.085 2.146l5.09-.402c-.154 0-1.85-1.342-2.005-1.744zm4.471 2.545c-.307.403-1.233 4.562-.616 4.293s3.083-3.354 3.083-3.354l-2.467-.939zm7.083.536l3.854 3.084c-.462-.67-.925-3.488-1.233-3.62s-2.314.803-2.621.536zm-62.135-4.426c-.462.135-4.317 2.684-4.317 2.684l6.167-1.074c-.307 0-2.004-1.206-1.85-1.61zm4.006 3.225c-.616.536-2.62 4.292-1.85 4.159s4.164-2.55 4.164-2.55l-2.313-1.61zm-2.475-5.235c-.462-.134-3.702-1.476-3.547-1.476s4.318-.939 4.318-.939l-.771 2.415zm-61.057-1.736l-4.626-3.22 5.86 1.61-1.234 1.61zm-4.009 2.141c-.617 0-6.477 3.219-6.323 3.219h8.019c-.154-.133-1.388-2.95-1.696-3.22zm3.7 4.699c-.617.27-5.243 3.354-4.935 3.354h6.94c0-.134-1.851-3.22-2.005-3.354zm-.617-33.41l-1.542-3.756c.154 0 4.318 2.951 4.318 2.951l-2.776.805zm4.626-4.696c0-.134.463-2.414.463-2.414l4.009 2.817c-.154 0-4.164 0-4.472-.403zm6.477 1.744c0-.134.463-3.488.463-3.488s3.855 4.562 3.547 4.696-3.701-.67-4.01-1.208z" class="B"/><g class="C D I B"><path d="M491.869 271.314c0 .269 6.476 4.83 6.631 5.903s-11.72 1.342-11.72 1.342-3.393-2.281-4.471-2.147-1.543 2.415-1.543 2.415l2.776 1.342-5.243.268 1.543 2.549 4.009-.269-.926 2.415s2.467 1.611 2.93 1.342 2.005-2.683 3.238-3.086 3.855-.402 3.855-.402-2.005 2.952-1.079 2.952 5.088-3.086 5.088-3.086.926 2.817 1.079 2.817 3.085-3.219 3.085-3.219 0 2.549.462 2.549 4.781-3.22 4.781-3.22 3.393 3.757 3.855 3.488.926-4.025 1.388-4.025 3.393-.402 3.393-.537-1.85-1.476-2.159-3.354.309-6.305.155-6.305-20.818.67-21.126.268z"/><path d="M459.023 263.142h60.449c6.169 0 11.719-2.146 11.719-5.366s-9.869-3.756-13.569-2.683-19.739 7.513-26.524 6.976-12.952-4.293-13.569-8.049 3.084-6.976 9.869-6.976 15.421 2.146 17.271 1.61 6.169-4.83 8.019-5.365 7.402-1.074 7.402-1.074l-2.467 1.61 8.019-1.61s-6.169 5.903-12.337 7.513-19.121 1.073-24.056 1.073-7.402-.535-6.785 2.684 4.318 5.366 7.402 4.829 12.337-3.219 12.337-3.219l-2.468-1.61 11.104-.537s-.617-1.61 0-1.61 6.169.535 6.169.535-3.702-1.61-3.085-1.61 3.085 0 8.019.538 15.421 2.146 14.804 6.438-4.317 8.049-8.635 8.049-8.019-1.073-8.019.538 4.935 2.683 8.019 2.683 6.785-2.146 7.402-2.146 1.85 3.219 2.467 3.219 4.318-1.073 4.318-1.073l-2.467 5.903 4.317 1.073s-2.467 2.146-1.85 2.146 4.317 0 4.317.537-4.934 3.757-4.934 4.293 3.7 2.146 3.7 2.146-2.467 3.22-3.084 2.684-3.085-3.22-3.085-3.22-.617 2.147-1.85 2.147-3.7-.537-3.7-.537 1.85-3.22 1.233-3.22-3.702 2.146-3.702 1.61l-1.849-1.613s4.934-1.744 4.934-4.293-2.005-5.098-10.948-5.5-9.099 1.877-15.73 1.61-6.631-2.549-11.566-2.549-20.201 5.366-27.294 5.232-16.037-.537-15.73-.804 5.861-12.611 6.014-13.01z"/><path d="M447.307 260.053c-.617.269-6.014.94-6.323 5.903s.464 4.964 1.08 4.696 1.85-4.561 1.85-4.561-1.85 5.903.155 7.245c1.256.826 2.664 1.46 4.164 1.877l.77-4.696s-1.541 4.562 2.159 6.172 5.09.402 4.781-.805-1.388-4.292-1.388-4.292l3.085 3.085c.153.269 1.541 2.415 5.243 1.476s1.079-3.086 1.079-3.086l-4.471-3.211s4.626 4.158 6.631 2.683-1.543-4.696-1.388-4.561 2.93 4.561 4.009 1.744-1.696-3.622-2.621-6.305-1.697-2.952-.771-4.562 1.08-4.694 1.08-4.694 3.855.804 3.546-2.013-4.164-3.488-4.934-3.622-.618-2.95-.926-2.817-2.776 1.744-2.776 1.744-2.159-4.428-2.621-4.159-2.93 2.549-4.781 2.683-2.93 2.415-2.93 2.415-6.476-2.683-6.322 1.744 3.855 3.355 3.855 3.488-.617 6.172-1.233 6.44z"/></g><path d="M450.874 253.257c.742-.227 1.833-1.174 3.098-1.06s3.291 1.085 2.288 1.615-1.745.758-2.88.491-2.005-.837-2.506-1.046zm12.578-.134c-.742-.227-1.833-1.175-3.098-1.06s-3.29 1.085-2.287 1.615 1.745.757 2.88.49 2.004-.836 2.505-1.045z" class="B"/><path d="M453.683 261.044c.155.671.617 6.306.924 5.903s2.623-5.769 2.468-5.769-3.238.134-3.393-.134z" fill="#000039" stroke-width=".592" class="B C"/></g><g fill="none" class="C"><path d="M452.138 261.234c.074-1.586 1.233-1.475 3.702-1.207s3.7 1.342 3.546 1.611-2.158.939-3.855.804c-2.005-.537-3.448.116-3.393-1.207z" stroke-width="1.184"/><path d="M455.844 257.2l-.309 2.549m10.648-9.385s2.005.805 1.697 1.61-1.697 1.207-1.697 1.207m-16.806-3.488c-.462.134-1.079.402-1.388 1.475s1.388 1.745 1.388 1.745m4.825 2.397s-2.182 1.898 1.526 1.898 1.091-1.707 1.091-1.707" stroke-width="2.105"/></g><g class="F"><path d="M462.348 403.76l6.41-21.062-17.8-13.24 22.293-.498 7.271-20.784 7.37 20.75 22.294.4-17.74 13.32 6.506 21.03-18.33-12.516z" class="D"/><path d="M465.383 398.115l5.34-16.73-14.832-10.518 18.577-.396 6.06-16.51 6.141 16.482 18.578.318-14.783 10.582 5.421 16.705-15.275-9.942z" class="B H"/><path d="M425.661 361.105l6.34-19.917-17.607-12.52 22.052-.472 7.193-19.655 7.291 19.622 22.053.378-17.548 12.597 6.435 19.887-18.132-11.836z" class="D"/><path d="M428.673 355.764l5.283-15.822-14.673-9.946 18.377-.374 5.994-15.614 6.076 15.588 18.377.3-14.623 10.007 5.363 15.798-15.11-9.403z" class="B H"/><path d="M499.57 361.105l6.423-19.917-17.835-12.52 22.337-.472 7.285-19.655 7.385 19.622 22.337.378-17.774 12.597 6.518 19.887-18.366-11.836z" class="D"/><path d="M502.618 355.764l5.352-15.822-14.862-9.946 18.614-.374 6.07-15.614 6.154 15.588 18.614.3-14.811 10.007 5.431 15.798-15.304-9.403z" class="B H"/></g><path d="M373.128 377.899l11.006-6.218 1.036 2.263-4.317 2.439 1.429 3.12 4.316-2.438 1.036 2.263-11.006 6.218-1.036-2.263 4.988-2.818-1.428-3.121-4.988 2.818-1.036-2.263m4.607 9.63l10.276-7.607 3.516 5.865-1.708 1.264-2.25-3.752-2.375 1.759 2.094 3.492-1.628 1.205-2.094-3.492-2.829 2.094 2.303 3.84-1.735 1.285-3.57-5.954m7.16 11.046l9.065-9.315 1.552 1.863-3.555 3.654 2.139 2.57 3.555-3.653 1.552 1.864-9.065 9.315-1.551-1.864 4.108-4.222-2.14-2.57-4.108 4.222-1.551-1.864m11.837 5.516l1.47 1.434 2.674-5.05-4.144 3.616m-5.75 1.72l10.232-8.277 2.321 2.261-6.031 12.372-1.863-1.815 1.588-3.039-1.99-1.938-2.491 2.157-1.767-1.72m8.93 8.294l6.097-9.238-2.134-1.739 1.205-1.825 6.122 4.99-1.204 1.825-2.134-1.74-6.097 9.24-1.856-1.513m5.008 4.003l6.432-11.71 1.95 1.322-2.522 4.593 2.69 1.824 2.522-4.593 1.95 1.323-6.432 11.71-1.95-1.322 2.915-5.308-2.69-1.824-2.915 5.308-1.95-1.323m12.09 7.652l5.19-12.448 5.857 3.014-.849 2.037-3.768-1.94-1.227 2.943 3.557 1.83-.829 1.99-3.557-1.832-2.285 5.48-2.088-1.074m11.453-1.89c-.721 2.11-1.065 3.486-1.033 4.128.039.64.358 1.085.958 1.338.59.249 1.083.152 1.48-.29.403-.446.97-1.735 1.698-3.868s1.075-3.516 1.041-4.153-.348-1.08-.943-1.332-1.095-.15-1.5.301-.973 1.743-1.701 3.876m-2.197-.927c.465-1.36.893-2.421 1.285-3.183.394-.768.783-1.306 1.169-1.613.533-.442 1.076-.69 1.626-.744s1.204.08 1.964.4 1.33.703 1.709 1.149.64 1.032.78 1.758c.1.526.067 1.217-.1 2.074-.162.859-.474 1.966-.937 3.32s-.888 2.408-1.282 3.176c-.392.762-.78 1.304-1.164 1.625-.539.44-1.083.686-1.633.74s-1.205-.08-1.965-.4-1.329-.703-1.708-1.149-.637-1.03-.773-1.755c-.105-.514-.076-1.2.086-2.06s.478-1.977.943-3.338m10.62-2.914l2.205.73-2.375 8.862c-.271 1.014-.345 1.739-.223 2.176.13.433.478.744 1.047.932s1.002.133 1.315-.16.614-.952.89-1.983l2.366-8.828 2.175.72-2.432 9.076c-.237.882-.456 1.513-.658 1.892a2.88 2.88 0 0 1-.732.92 2.867 2.867 0 0 1-1.539.625c-.584.054-1.234-.037-1.951-.274-1.353-.448-2.221-1.088-2.605-1.922-.378-.837-.35-2.067.085-3.69l2.432-9.076m5.906 16.178l2.696-13.388 2.308.574 1.252 10.143 1.823-9.379 2.12.528-2.696 13.387-2.292-.57-1.272-10.166-1.827 9.396-2.112-.525m12.07.682l1.006.175c.512.09.877.11 1.094.064a.966.966 0 0 0 .551-.337c.26-.315.48-.77.655-1.365s.36-1.575.55-2.925c.185-1.314.267-2.28.246-2.896s-.137-1.1-.347-1.45a1.086 1.086 0 0 0-.47-.406c-.198-.1-.518-.19-.961-.266l-.975-.17-1.35 9.576m-2.507 1.61l1.91-13.554 3.652.636c.745.13 1.326.303 1.745.52s.756.51.996.877c.363.538.58 1.177.655 1.917s.015 1.848-.195 3.338l-.757 4.053c-.233.77-.535 1.41-.904 1.916-.358.509-.804.831-1.337.967-.527.13-1.405.089-2.636-.125l-3.129-.545m9.55 1.57l1.188-13.655 6.312.677-.197 2.27-4.038-.433-.275 3.157 3.76.403-.189 2.164-3.759-.404-.326 3.76 4.133.444-.2 2.305-6.408-.687m10.43-1.106l1.018.04c.518.022.882-.005 1.093-.08a1 1 0 0 0 .511-.408c.225-.347.393-.828.504-1.441.111-.62.189-1.612.233-2.978.043-1.329.021-2.299-.066-2.908s-.254-1.074-.5-1.393a1.048 1.048 0 0 0-.511-.341c-.206-.074-.534-.12-.982-.138l-.986-.04-.314 9.687m-2.317 1.931l.444-13.71 3.694.148c.753.03 1.35.125 1.788.285.444.16.805.407 1.083.739.418.486.703 1.092.856 1.817.159.72.213 1.833.165 3.34l-.319 4.124c-.148.796-.379 1.47-.691 2.023-.301.552-.71.931-1.224 1.136-.51.2-1.386.275-2.63.225l-3.166-.127m13.754.18l-.49-13.71 2.3-.1.49 13.708-2.3.102m6.141-.361l-.844-11.419-2.637.241-.166-2.255 7.567-.69.167 2.255-2.637.24.844 11.418-2.294.21m8.1-14.71l2.268-.438 1.425 9.11c.163 1.042.387 1.728.672 2.059.29.324.726.43 1.31.316s.951-.376 1.114-.793c.168-.419.169-1.157.003-2.216l-1.42-9.076 2.236-.431 1.46 9.33c.141.906.198 1.58.169 2.02-.025.432-.12.827-.287 1.185a3.267 3.267 0 0 1-1.128 1.321c-.5.338-1.12.578-1.856.72-1.39.269-2.425.125-3.103-.431-.674-.563-1.142-1.679-1.403-3.346l-1.46-9.33m12.285 3.479l.935-.253c.696-.189 1.151-.47 1.366-.847s.24-.939.08-1.672-.405-1.214-.726-1.426c-.318-.22-.838-.232-1.56-.037l-.965.262.87 3.973m-.514 8.08l-2.922-13.33 3.88-1.05c1.183-.32 2.1-.257 2.748.191s1.119 1.342 1.412 2.68c.289 1.316.226 2.372-.188 3.169-.41.79-1.184 1.338-2.321 1.646l-1.628.44 1.239 5.652-2.22.601m8.817-9.659c.614 2.151 1.113 3.468 1.498 3.95.387.473.887.602 1.498.387.601-.212.934-.628.998-1.249.067-.628-.21-2.029-.83-4.203s-1.122-3.499-1.504-3.974-.877-.607-1.484-.394-.942.638-1.008 1.272.212 2.037.832 4.211m-2.239.79c-.396-1.388-.653-2.515-.772-3.383s-.115-1.563.015-2.07c.171-.715.458-1.283.859-1.705s.989-.77 1.763-1.042 1.435-.366 1.982-.278 1.078.368 1.594.84c.372.343.733.907 1.08 1.694.354.785.727 1.869 1.122 3.25s.649 2.5.77 3.374c.118.868.117 1.56-.005 2.076-.177.717-.466 1.286-.867 1.707s-.989.77-1.763 1.042-1.435.366-1.982.278-1.075-.369-1.586-.843c-.37-.33-.73-.889-1.084-1.674-.354-.79-.73-1.88-1.126-3.267m11.286 3.136l-4.594-12.735 2.196-.977 6.197 7.576-3.273-8.88 2.017-.897 4.594 12.734-2.18.972-6.226-7.584 3.279 8.896-2.01.895m14.3-7.024l-4.816-10.13-2.34 1.374-.951-2 6.713-3.942.951 2-2.339 1.374 4.817 10.13-2.034 1.194m5.435-3.24l-6.593-11.6 1.932-1.356 2.586 4.55 2.664-1.87-2.586-4.55 1.932-1.355 6.593 11.6-1.932 1.355-2.988-5.257-2.664 1.87 2.988 5.257-1.932 1.355m8.236-5.932l-7.441-10.947 5.06-4.247 1.238 1.82-3.238 2.716 1.72 2.531 3.014-2.529 1.18 1.735-3.014 2.529 2.048 3.014 3.315-2.781 1.256 1.848-5.138 4.311m6.352-11.772l1.641-1.792.557.63c.532.6.962.939 1.29 1.014.328.066.658-.082.99-.444.347-.38.524-.764.53-1.154s-.152-.783-.49-1.164c-.258-.293-.542-.474-.851-.544s-.825-.048-1.537.08l-1.425.257c-1.22.231-2.089.273-2.61.125s-1.018-.503-1.505-1.054c-.726-.822-1.077-1.705-1.05-2.65s.424-1.837 1.194-2.678c.816-.89 1.66-1.325 2.534-1.304s1.72.495 2.54 1.423l.185.222.112.14-1.555 1.698-.23-.26c-.469-.53-.882-.823-1.24-.882s-.718.109-1.076.5c-.263.287-.394.601-.393.941 0 .332.136.65.406.956.363.41 1.103.497 2.22.26a.103.103 0 0 1 .029-.005l1.505-.307c1.063-.229 1.897-.257 2.5-.083s1.188.58 1.765 1.233c.787.89 1.165 1.826 1.135 2.808s-.471 1.938-1.321 2.866c-.885.966-1.769 1.432-2.653 1.398s-1.782-.578-2.703-1.62l-.46-.571-.034-.038m9.554-3.854l-9.463-8.811 4.073-5.401 1.573 1.465-2.606 3.455 2.188 2.037 2.426-3.217 1.5 1.397-2.426 3.216 2.605 2.426 2.668-3.537 1.598 1.487-4.136 5.483m2.404-12.282l1.093-1.803-4.847-2.307 3.754 4.11m2.264 6.12l-8.687-10.229 1.725-2.844 11.809 5.078-1.384 2.284-2.914-1.365-1.479 2.438 2.242 2.473-1.312 2.165m1.465-11.156l1.051-2.275.707.403c.675.385 1.179.556 1.511.512.33-.052.602-.307.815-.767.222-.48.28-.908.177-1.28-.102-.38-.366-.69-.794-.935-.328-.187-.65-.26-.963-.218s-.797.243-1.436.612l-1.28.742c-1.092.646-1.906.99-2.442 1.03s-1.109-.121-1.727-.474c-.922-.526-1.505-1.242-1.747-2.148s-.117-1.893.376-2.96c.523-1.13 1.201-1.839 2.036-2.124s1.773-.13 2.814.464l.239.147a1.44 1.44 0 0 1 .146.093l-.996 2.155-.293-.166c-.594-.34-1.07-.474-1.427-.404s-.65.354-.88.85c-.168.365-.203.708-.106 1.031.095.315.314.57.656.765.461.263 1.189.087 2.182-.528a.079.079 0 0 1 .025-.016l1.342-.816c.945-.59 1.729-.907 2.35-.953s1.293.137 2.025.554c.999.57 1.622 1.327 1.871 2.27s.102 2.004-.443 3.182c-.566 1.226-1.274 1.977-2.123 2.254-.846.271-1.854.073-3.024-.594a11.54 11.54 0 0 1-.599-.382l-.042-.024"/></svg>