<svg xmlns="http://www.w3.org/2000/svg" height="480" width="640" xmlns:v="https://vecta.io/nano"><style><![CDATA[.B{stroke:#000}.C{fill:none}.D{fill-rule:evenodd}.E{fill:#a77b3b}.F{fill:#ff1900}.G{stroke-width:.731}.H{stroke-width:1.084}.I{stroke-width:2.54}.J{stroke-width:1.712}.K{stroke-width:2.562}.L{stroke-width:2.363}.M{stroke-width:2.573}.N{stroke-width:.508}]]></style><g class="D"><path fill="#00319c" d="M0 0h213.337v480H0z"/><path fill="#ffde00" d="M213.337 0h213.338v480H213.337z"/><path fill="#de2110" d="M426.662 0H640v480H426.662z"/><g class="B"><path d="M360.376 320.377l24.267 35.012c1.348 1.945 2.696 3.89.66 5.178s-1.374 6.467-.026 8.412c2.696 3.89 6.08 4.547 8.116 3.259l18.319-11.594c2.036-1.288 2.723-4.522.027-8.412-1.548-1.96-6.08-4.547-8.116-3.259s-3.384-.656-4.732-2.602l-24.267-35.012" stroke-width=".73" class="F"/><use href="#B" transform="matrix(.52728 -.42386 .44358 .50386 -32.42 19.918)" class="E I"/><path d="M261.952 306.142L240.53 342.81c-1.19 2.037-2.38 4.074-4.512 2.937s-6.645 1.8-7.835 3.836c-2.38 4.075-1.439 7.249.693 8.386l19.186 10.236c2.132 1.137 5.454.238 7.834-3.837 1.114-2.213 1.44-7.248-.693-8.386s-.941-3.174.249-5.211l21.423-36.667" stroke-width=".73" class="F"/><path d="M331.169 280.577h-19.532c-.646.617-6.2 35.598-12.208 48.993-7.324 16.33-29.26 30.741-29.26 30.741s13.142 3.98 17.053 6.586c.972-.273 21.936-4.665 24.377-30.329 2.442 25.664-14.61 37.329-14.61 37.329s24.415 6.999 24.415 23.33c0-16.331 24.415-23.33 24.415-23.33s-12.246-11.665-14.687-37.329c4.882 25.664 23.48 30.056 24.453 30.33 3.91-2.607 17.053-6.587 17.053-6.587s-21.936-14.41-29.26-30.741c-6.007-13.395-11.562-48.376-12.207-48.993zm-83.045-116.67l36.623 11.665c12.207 0 24.415-11.652 24.415-23.318.406-25.95-9.766-35.007-12.208-35.007l4.884-4.666-7.325-7s2.449-12.102 26.856-11.652 24.416 11.665 24.416 23.33-12.208 11.665-12.208 34.996c0 11.665 12.208 23.33 24.416 23.33l36.623-11.665v116.651H248.124V163.908z" stroke-width="1.711" class="E"/></g></g><g class="B C"><path d="M304.276 168.588l2.442 6.999 2.441-6.999 2.442 6.999 4.883-6.999 2.378 7.394 2.505-7.394 3.602 7.394 3.723-7.394 2.442 6.999 2.442-6.999" stroke-width=".172"/><path d="M314.039 142.93l-4.883 25.663m7.329-25.663v25.663m4.878-25.663v25.663m4.885-25.663l2.441 25.663m2.444-25.663l2.441 25.663" stroke-width=".137"/></g><g class="B"><g class="J"><path d="M223.707 93.936c-24.415 11.665-24.415 34.995-24.415 46.66.862 10.612 0 233.302 0 233.302s1.589-13.183 12.208-23.33l12.207-11.665 12.208-11.665c8.924-7.752 12.207-23.33 12.207-34.996v-163.31s0-11.665-24.415-34.996z" class="D E"/><g class="C"><use href="#C"/><path d="M248.127 152.248c-.287 0-12.207 11.665-12.207 11.665l-12.208-11.665-12.207 11.665-12.208-11.665"/><use href="#C" y="46.659"/></g></g><path d="M235.772 128.948l.143 198.309" class="C K"/><path d="M223.707 140.588l.143 197.853" class="C L"/><path d="M211.497 128.938l.143 221.641" class="C M"/><g class="J"><path d="M419.03 93.936c24.415 11.665 24.415 34.995 24.415 46.66-.862 10.612 0 233.302 0 233.302s-1.589-13.183-12.208-23.33l-12.207-11.665-12.208-11.665c-8.924-7.752-12.207-23.33-12.207-34.996v-163.31s0-11.665 24.415-34.996z" class="D E"/><g class="C"><use href="#D"/><path d="M394.61 152.248c.287 0 12.207 11.665 12.207 11.665l12.208-11.665 12.207 11.665 12.208-11.665"/><use href="#D" y="46.659"/></g></g><path d="M406.965 128.948l-.143 198.309" class="C K"/><path d="M419.031 140.588l-.143 197.853" class="C L"/><path d="M431.233 128.938l-.143 221.641" class="C M"/></g><g class="D"><use href="#B" transform="matrix(.63605 .25323 -.26502 .60778 361.151 -165.211)" class="B E I"/><path fill="red" d="M248.119 175.588h146.493v69.991H248.119z"/><path d="M248.12 245.58h146.492v34.996c0 23.33-36.623 23.33-73.246 46.66-36.624-23.33-73.247-23.33-73.247-46.66V245.58z" fill="#564dff"/></g><path d="M248.118 175.588H394.61v104.987c0 23.33-36.623 23.33-73.246 46.66-36.622-23.33-73.246-23.33-73.246-46.66V175.588z" stroke="#ff0" stroke-width="1.369" class="C"/><g class="D"><g fill="#ff0" class="B"><g stroke-width=".992"><path d="M294.508 180.253s-24.415 17.143-24.415 33.576 25.636 21.91 25.636 21.91-8.546 0-8.546 21.91c0 10.955 25.636 5.478 25.636 10.955s-.362 18.729 0 27.387c0 5.477-17.091 0-17.091 5.477 0 2.739 12.818 16.432 25.636 16.432s25.636-13.693 25.636-16.432c0-5.477-17.091 0-17.091-5.477v-27.387c0-5.477 25.636 0 25.636-10.955 0-21.91-8.546-21.91-8.546-21.91s25.636-5.478 25.636-21.91-24.416-33.576-24.416-33.576 13.734 22.62 13.734 33.576c0 5.478-6.409 16.432-23.5 16.432 0 0-4.322-5.477-8.546 0 0 0-4.915-5.477-8.545 0-1.253 1.891-3.476-5.477-8.546 0-2.154 1.452-3.851-5.477-8.546 0-8.545 0-25.635-5.477-25.636-16.432s15.87-33.576 15.87-33.576z"/><path d="M294.945 278.273c-1.709 1.095 2.21 18.944 3.418 19.719 1.709 1.095 11.963 1.095 13.672 0 1.218-.781 0-17.528-1.709-18.623s-14.173-1.87-15.382-1.095zm52.847 0c1.709 1.095-2.21 18.944-3.418 19.719-1.709 1.095-11.963 1.095-13.672 0-1.218-.781 0-17.528 1.709-18.623s14.173-1.87 15.382-1.095z"/></g><g stroke-width="1.169"><use href="#E"/><use href="#E" x="35.36" y="0.002"/></g></g><path d="M336.753 307.498c0 1.513-1.913 2.739-4.273 2.739s-4.272-1.226-4.272-2.739 1.913-2.739 4.272-2.739 4.273 1.226 4.273 2.739zm-22.222 0c0 1.513-1.913 2.739-4.273 2.739s-4.272-1.226-4.272-2.739 1.913-2.739 4.272-2.739 4.273 1.226 4.273 2.739z"/><g fill="#ff0" class="B"><path d="M321.368 219.916l-5.23-6.591-8.585 1.124 1.183-8.197-6.897-4.998 6.897-5.004-1.183-8.197 8.585 1.131 5.23-6.597 5.23 6.597 8.585-1.131-1.183 8.197 6.897 5.004-6.897 4.998 1.183 8.197-8.585-1.124z" stroke-width=".713"/><g class="G"><use href="#F"/><use href="#F" x="-104.984"/></g><path d="M535.04 659.06c-3.543-7.086-14.173-10.63-21.259-10.63s-14.174 0-21.26 10.63c0-14.173 10.502-21.26 21.26-21.26s21.259 10.503 21.259 21.26z" transform="matrix(.59753 -.3279 .34316 .57097 -165.149 86.49)" class="H"/><g class="G"><use href="#G"/><use href="#G" x="-4.884" y="16.332"/><use href="#G" x="-7.325" y="7"/><use href="#G" x="4.883" y="16.332"/><use href="#G" x="7.325" y="7"/><use href="#G" y="9.333"/></g></g><path d="M297.774 120.38c-12.323 0-13.952 1.945-19.533 3.89 0-5.366 13.722-11.666 26.044-11.666 0 3.889-3.256 7.778-6.511 7.777z" fill="#da4500"/><path d="M316.484 107.932c0 2.577-2.186 4.666-4.883 4.666s-4.883-2.089-4.883-4.666 2.186-4.666 4.883-4.666 4.883 2.09 4.883 4.666z" fill="#cac9c7"/><path d="M265.212 91.598v6.999h12.208v34.996h7.325V98.597h12.207v-6.999h-12.207v-9.332h-7.325v9.332h-12.208z" fill="#ff0" class="B G"/><path d="M304.263 112.607c-14.375 0-22.787 1.294-29.298 3.887 0-7.155 8.412-15.553 22.787-15.553 3.255 0 6.51 7.776 6.51 11.666z" fill="#da4500"/><path d="M67.323 612.99c-14.173-14.17-16.634-21.36 3.543-10.1l283.75 247.5-3.366 6.968-283.93-244.37z" transform="matrix(.38821 .29653 -.14073 .23692 237.452 71.286)" stroke-width=".711" fill="#008500" class="B"/><g fill="#008f00"><path d="M228.398 330.405c.77-10.585-18.61-22.036-19.377-21.292s1.178 6.907 4.854 10.119c-7.038-3.626-14.41-5.859-14.564-4.285-.574 2.122 10.937 7.19 11.893 9.148.156 1.399-8.454 1.216-8.297 2.615s24.25 13.573 25.49 3.694zm-19.363-30.835c.769-10.584-18.611-22.035-19.378-21.29s1.178 6.906 4.854 10.117c-7.038-3.625-14.41-5.858-14.564-4.284-.574 2.122 10.938 7.19 11.893 9.147.156 1.4-8.453 1.217-8.297 2.616s24.25 13.573 25.491 3.694zm-14.818-27.996c.77-10.585-18.611-22.035-19.377-21.291s1.178 6.906 4.853 10.118c-7.038-3.626-14.409-5.859-14.563-4.285-.574 2.123 10.937 7.19 11.893 9.148.156 1.399-8.454 1.216-8.298 2.615s24.25 13.573 25.492 3.695zm-14.649-30.334c.769-10.585-18.611-22.035-19.378-21.291s1.179 6.906 4.854 10.118c-7.038-3.626-14.41-5.859-14.564-4.285-.574 2.123 10.938 7.19 11.894 9.148.156 1.399-8.454 1.216-8.298 2.615s24.25 13.573 25.491 3.695z"/><path d="M184.603 239.866c9.377-5.682 7.54-27.385 6.46-27.533s-5.124 5-5.652 9.733c-1.116-7.565-3.603-14.562-5.022-13.748-2.129.816.423 12.68-.66 14.575-1.087.95-6.036-5.784-7.123-4.835s2.935 26.709 11.997 21.808zm13.582 26.631c10.825-2.365 16.676-23.408 15.709-23.893s-6.576 3.08-8.728 7.372c1.592-7.487 1.692-14.876.07-14.561-2.291.09-4.03 12.087-5.714 13.528-1.356.549-3.669-7.378-5.025-6.83s-6.565 26.112 3.689 24.384zm16.225 27.242c9.872-4.857 10.078-26.63 9.015-26.87s-5.57 4.542-6.54 9.21c-.403-7.63-2.224-14.812-3.713-14.122-2.197.63-.767 12.665-2.024 14.46-1.171.853-5.47-6.278-6.64-5.426s.418 26.853 9.902 22.747zm17.562 35.568c10.336-3.878 12.845-25.519 11.813-25.861s-6.023 3.98-7.482 8.53c.408-7.63-.644-14.95-2.198-14.408-2.253.415-2.105 12.526-3.545 14.19-1.255.735-4.776-6.775-6.032-6.04s-2.426 26.756 7.444 23.588z"/></g><g class="B"><use href="#H" transform="matrix(.60164 .32097 -.3359 .5749 389.583 -146.809)" class="F H"/><g transform="matrix(.49887 .1571 -.1826 .4713 451.443 -3.726)" fill="#ff0"><path d="M155.91 414.57v-7.087h7.086v-7.086h7.087v7.086h7.086v7.087h-7.086v17.716h-7.087V414.57h-7.086z" class="N"/><path stroke-width=".512" d="M162.99 474.8h7.087v205.51h-7.087z"/><g class="N"><path d="M159.45 676.77h14.173v56.693H159.45zm-3.54-237.4h21.259c14.174 0-3.543 38.976-3.543 38.976h-14.173s-17.717-38.976-3.543-38.976z"/><path d="M173.62 434.06c0 2.935-3.173 5.315-7.087 5.315s-7.086-2.38-7.086-5.315 3.173-5.315 7.086-5.315 7.087 2.38 7.087 5.315z"/></g></g><use href="#H" transform="matrix(.57449 -.36357 .38048 .54895 -2.259 4.212)" class="F H"/></g></g><defs ><path id="B" d="M177.17 696.26c0 24.461-9.518 44.291-21.26 44.291s-21.26-19.83-21.26-44.291 9.518-44.291 21.26-44.291 21.26 19.83 21.26 44.291z"/><path id="C" d="M248.127 140.598c-.287 0-12.207-11.665-12.207-11.665l-12.208 11.665-12.207-11.665-12.208 11.665"/><path id="D" d="M394.61 140.598c.287 0 12.207-11.665 12.207-11.665l12.208 11.665 12.207-11.665 12.208 11.665"/><path id="E" d="M312.528 271.811c0 3.394-3.958 6.146-8.84 6.146s-8.84-2.752-8.84-6.146 3.958-6.146 8.84-6.146 8.84 2.752 8.84 6.146z"/><path id="F" d="M357.986 245.579l14.649 6.999 14.649-6.999-14.649-6.999-14.649 6.999z"/><path id="G" d="M279.86 273.577c.021 1.68-.905 3.241-2.425 4.087a5.08 5.08 0 0 1-4.917 0c-1.519-.846-2.445-2.407-2.425-4.087.032-2.555 2.209-4.611 4.883-4.611s4.851 2.056 4.883 4.611z"/><path id="H" d="M209.06 775.98c0 7.828-10.312 14.173-23.031 14.173s-23.031-6.346-23.031-14.173 10.312-14.173 23.031-14.173 23.031 6.346 23.031 14.173z"/></defs></svg>