<svg xmlns="http://www.w3.org/2000/svg" height="480" width="640" xmlns:v="https://vecta.io/nano"><style><![CDATA[.B{stroke:#000}.C{stroke-width:1.857}.D{stroke-linejoin:round}.E{fill-rule:evenodd}.F{fill:#217900}.G{stroke:#8c1800}.H{stroke-width:2.477}.I{stroke-linecap:round}.J{stroke-width:.968}.K{stroke-width:2.322}.L{stroke-width:1.858}.M{stroke-width:2.489}]]></style><defs><clipPath id="A"><path fill-opacity=".67" d="M0 0h640v480H0z"/></clipPath><path id="B" d="M232.84 119.03c.002-2.109-.794-4.058-2.087-5.114s-2.888-1.055-4.18 0-2.09 3.005-2.088 5.114.794 4.058 2.087 5.114 2.887 1.055 4.18 0 2.09-3.005 2.088-5.114z"/></defs><g clip-path="url(#A)"><g class="E"><path fill="#0071bc" d="M-160 0h960v480h-960z"/><g class="B C"><path d="M369.927 365.661s15.223-16.1 29.86-13.027c4.392-16.98 20.932-18.297 20.932-18.297s-1.61-18.736 19.615-22.834c.585-12.735 13.467-23.274 13.467-23.274s-2.635-19.76 10.832-24.298c-8.198-15.662 2.78-27.08 2.634-27.372s-13.905-24.738-1.61-31.764c-13.027-10.978-8.782-23.42-8.782-23.42s-14.2-3.66-9.076-20.64c-11.71-2.049-14.052-20.931-14.052-20.931s-18.004 3.659-20.2-12.004c-11.856 1.903-13.174-9.806-13.32-9.806s-23.567 6.294-28.25-11.418c-9.075 4.684-13.028-3.66-13.028-3.66s-13.027 6.441-20.785-6c-15.516 9.66-24.152-.44-24.152-.44s-20.346 13.467-27.08 3.074c-12.003 12.15-22.688 6.88-22.688 6.88s-9.075 16.1-23.713 12.002c-3.366 14.93-20.2 15.223-20.2 15.223s1.757 13.174-18.443 16.687c-2.634 15.516-13.173 18.15-13.173 18.15s1.024 15.078-8.49 19.907c3.366 8.49-5.416 18.883-5.416 18.883s9.368 11.71-3.367 24.884c12.296 3.22 3.367 24.445 3.367 24.445s16.98 7.611 6.294 21.663c12.15 3.953 8.343 13.613 8.49 19.322 7.758 3.513 14.637 1.757 11.271 17.419 23.86 2.635 12.588 15.809 12.588 15.809s11.124.439 6.734 9.222c20.346-.44 23.273 15.223 23.273 15.223s18.883-4.977 21.372 2.342-8.197 56.647-8.197 56.647-15.955 0-27.812-12.734c-27.81-.732-21.663-19.029-22.103-19.029s-9.222 3.367-13.76-11.856c-18.59 3.806-18.004-11.856-18.15-12.002s-8.343-3.806-5.27-11.564c-19.174 1.756-17.71-16.98-17.71-16.98-4.197-1.707-5.758-5.61-5.124-9.514-2.488-.878-19.468-1.17-10.685-23.566-16.248-9.807-6.148-21.078-6.148-21.078s-22.396-11.563-5.123-24.883c-12.882-19.029 1.024-28.543 1.024-28.543s-17.858-18.151.293-31.032c-2.927-27.519 13.467-34.106 13.467-34.106s-8.636-22.395 14.784-31.764c1.463-22.688 17.858-23.273 17.858-23.273s.439-18.005 26.201-16.248c4.977-16.1 22.542-12.881 22.542-12.881s5.416-19.468 29.275-10.1c12.15-23.713 30.154-11.564 30.154-11.564s11.417-7.465 17.126-5.123c7.249-12.457 22.68-.483 32.66 1.928 3.615-1.406 16.522-11.15 26.476 1.146 13.174-8.636 24.445 6.88 24.445 6.88s18.15-9.221 26.64 11.856c38.498-3.513 32.935 21.664 32.935 21.664s30.3-6.88 23.713 23.273c27.519 1.903 24.738 20.054 24.738 20.054s17.418 13.174 9.806 25.03c15.516.732 9.807 15.662 9.807 15.662s11.856 4.538 2.05 22.982c22.687 18.15 4.39 36.155 4.244 36.009s12.15 14.637 1.025 31.617c3.367 26.933-10.246 33.813-10.246 33.813s3.513 17.419-11.71 22.396c-.293 20.492-19.615 22.981-19.615 22.981s5.124 8.902-14.051 18.27c-.757 13.712-20.786 14.812-20.786 14.812s-1.903 25.176-27.373 18.443c-6.181 20.2-36.008 14.198-36.593 13.905s-5.709-43.327-5.709-43.474z" fill="#fff"/><path d="M184.94 124.083c.074 0 6.455 5.534 5.264 13.875s-6.009 19.935-5.04 28.573c.591 3.463.367 9.669.367 9.669s-5.784-8.22-5.859-17.008 6.264-17.131 6.264-23.61-1.145-11.648-.996-11.5zm-3.168 2.489s-8.373 7.993-9.451 15.761c-.797 4.004-1.106 22.662-1.2 30.943-.188 2.54-1.24 12.57-1.464 16.218s6.159-6.229 6.524-14.272c-.2-8.325-.2-25.86.646-28.496.753-3.387.59-7.13 1.754-10.528l3.191-9.626z" class="D F"/></g><g stroke="#ef8a10" fill="#ffd200"><path d="M365.965 100.453s10.856-5.008 13.96-14.335-9.396-9.416-11.047-6.451 1.408 10.345.62 12.296-5.204 6.662-3.533 8.49z" class="L"/><path d="M269.745 103.855s7.048-9.657 5.22-19.316-12.79-3.654-12.79-.26 6.265 8.352 6.526 10.44-1.305 8.353 1.044 9.136zm-19.054 5.744s7.048-9.658 5.22-19.316-12.79-3.655-12.79-.261 6.265 8.352 6.526 10.44-1.305 8.353 1.044 9.136zm-21.141 6.525s7.047-9.658 5.22-19.316-12.79-3.655-12.79-.261 6.264 8.352 6.525 10.44-1.305 8.353 1.044 9.136zm-14.878 14.877s7.047-9.657 5.22-19.316-12.79-3.654-12.79-.26 6.264 8.352 6.526 10.44-1.306 8.353 1.044 9.136zm-15.662 14.357s7.048-9.658 5.22-19.316-12.789-3.655-12.789-.261 6.264 8.352 6.525 10.44-1.305 8.353 1.045 9.136z" class="H"/><path d="M235.018 61.727s-9.385 7.406-10.222 17.2 11.336 6.959 12.248 3.69-3.787-9.73-3.477-11.81 3.504-7.695 1.451-9.08zm31.322-9.659s-9.385 7.407-10.222 17.2 11.336 6.959 12.249 3.69-3.788-9.73-3.478-11.81 3.504-7.694 1.451-9.08zm-116.723 84.555s1.982 11.79 10.167 17.233 11.552-6.595 9.125-8.966-10.352-1.357-12.028-2.63-5.062-6.77-7.264-5.637zm-15.643 40.033s.097 11.956 7.32 18.622 12.449-4.689 10.426-7.414-10.009-2.973-11.463-4.494-3.93-7.485-6.283-6.714zm36.09 44.725s-4.267-11.169-13.364-14.891-10.026 8.741-7.18 10.588 10.417-.71 12.311.207 6.298 5.64 8.233 4.096zm-7.497-19.328s7.234-9.519 5.595-19.21-12.716-3.903-12.782-.51 6.1 8.472 6.32 10.565-1.467 8.326.867 9.154zM388.15 110.11s10.856-5.008 13.959-14.334-9.395-9.417-11.047-6.452 1.409 10.345.62 12.297-5.204 6.661-3.533 8.489zm32.825 16.374s6.386-10.107 3.917-19.622-13.006-2.79-12.779.595 6.809 7.915 7.21 9.981-.744 8.421 1.652 9.046zm89.606 93.026s-4.282-11.162-13.384-14.873-10.014 8.755-7.165 10.598 10.416-.724 12.311.19 6.305 5.633 8.238 4.085zm-43.817 6.933s.248-11.953 7.555-18.528 12.388 4.845 10.331 7.545-10.045 2.846-11.519 4.349-4.024 7.434-6.367 6.633zm-7.05-126.759s-11.176-4.245-20.008.069-.145 13.3 3.128 12.404 6.4-8.248 8.345-9.052 8.401-.948 8.536-3.42zM434.139 78.28s-11.177-4.246-20.008.068-.146 13.301 3.127 12.405 6.4-8.249 8.346-9.052 8.4-.948 8.535-3.421zM396 57.87s-9.474 7.29-10.432 17.072 11.25 7.098 12.202 3.841-3.667-9.775-3.332-11.853 3.598-7.65 1.563-9.061zm-24.84-5.976s-4.32 11.148-.066 20.008 13.299.236 12.425-3.043-8.205-6.457-8.996-8.407-.89-8.407-3.363-8.558zm-70.445 42.957s7.728-9.121 6.605-18.886-12.491-4.572-12.737-1.187 5.643 8.784 5.752 10.886-1.907 8.236.38 9.187z" class="L"/></g><g class="B C"><path d="M342.775 114.432s18.526 1.166 19.433 11.789-4.405 17.1-4.405 17.1 2.332 22.932-15.805 29.668c-19.433 2.332-49.877.519-49.877.519s-8.94 2.202-12.566-16.324-4.664-31.61-4.664-31.61 1.814-10.365 14.898-11.012 52.857.13 52.987-.13z" fill="#8c8a8c"/></g></g><path d="M357.674 143.193s-9.976 12.437-8.94 17.49" fill="none" class="B C I"/><path d="M344.333 172.337c2.462 2.073 4.793 4.405 5.312 12.049l1.036 15.287 12.955 116.595 11.4 84.339.778 13.085s-2.72 9.586-10.364 10.363c-5.57 11.66-35.756 15.028-38.736 14.899-2.72-.13-12.308-4.146-18.138-3.628s-15.935 4.405-20.469 3.757-14.768-4.145-16.582-11.53c-12.696-4.016-14.769-13.732-14.769-13.732l13.733-97.554 13.343-123.33s1.555-16.453 8.162-18.915c6.866-.648 42.363.648 52.338-1.684z" fill="#8c8a8c" class="B C E"/><g fill="none"><path d="M274.375 341.147l-2.721 86.281m86.542-74.881l7.644 71.124" class="B C"/><path d="M136.572 296.312l-.284.995m358.684-4.119l.284.995" class="B J"/><g stroke="#6b18b5" class="D"><path d="M126.965 179.83s5.675 7.86 6.694 12.37 2.91 13.39 5.385 17.028 16.591 23.868 17.319 32.308c.145 5.53-5.822 14.99-14.7 15.136-5.53-.146-19.792-3.784-20.375-16.01s4.366-12.515 4.949-19.937.727-40.75.727-40.896z" class="C"/><path d="M224.466 72.814s-5.876.42-10.4 2.872c-3.505 2.161-9.443 5.271-13.592 11.024-10.554 8.227-26.43 12.066-31.438 18.9-2.997 4.65-2.813 15.834 4.697 20.57 4.801 2.749 18.878 7.05 25.726-3.094s2.772-12.963 6.13-19.608c5.542-15.23 18.802-30.54 18.878-30.664zm142.546-14.846s-4.39-3.93-9.298-5.474c-3.991-1.015-10.638-.573-17.516-1.248-13.251-1.859-26.913-11.442-35.306-10.285-5.425 1.081-13.331 8.993-11.51 17.683 1.365 5.36 7.361 16.203 19.412 14.068s11.947-4.765 19.056-6.974c17.34-9.724 35.02-7.738 35.162-7.77zm141.361 137.396c.99-2.261-.832-6.512-2.127-11.492-1.256-3.922-3.132-10.009-7.72-15.42-5.452-12.22-4.517-28.977-9.95-35.48-3.793-4.026-14.693-6.533-21.094-.38-3.822 4-11.377 16.632-3.175 25.716s11.776 5.663 17.42 10.518c13.454 9.038 20.043 24.88 26.646 26.537zm-4.821 106.752c1.838-2.544 5.127-7.446 4.736-11.53-.31-3.233 1.482-13.037 1.678-17.315 1.216-13.326 9.557-24.142 7.289-35.72-1.342-5.366-9.203-13.022-17.794-10.783-5.289 1.623-17.065 8.103-14.35 20.036s6.573 11.736 9.123 18.73c7.321 14.46 2.636 31.637 9.318 36.581z" class="J"/></g><g class="B C"><path d="M405.485 386.834s-2.259 4.344 6.777 8.167m11.298-18.418s10.078-2.433 16.855 0m13.203-25.376c0 .174-1.39 4.518 6.603 10.773m-.868-22.06s5.908 4.344 15.812 4.17m-75.415 8.509s.348 11.468-5.56 16.855m25.367-34.582s9.73 2.433 17.724-1.564m44.663-15.284s2.085 2.954 12.859 2.433m-54.909-9.212c.348.174 12.685 4.17 20.505.522m4.167-47.785s.52-.695 4.344 12.685m5.21-50.392s-.52 7.124-6.255 10.252m42.919-39.449s-8.34 6.777-6.777 9.557m-34.751-14.421s4.344 7.298-2.78 12.337m-18.245-43.614s7.472-.347 10.774 6.082m-24.845-27.281h5.734m23.976-26.063c0 .173 1.563 1.563-1.39 4.517m-51.956-3.822s3.996 6.256 3.301 13.902m19.812-35.102c1.738-.174 7.646-2.78 7.646-2.78m-33.361-22.069c-.174 0-2.26 7.82 1.564 10.6m-11.128 25.023c0 8.34 6.603 6.255 2.085 14.248m-18.246-21.2c-.173 0-10.425 7.993-10.425 9.383m-16.335-13.726s4.344 4.344 3.302 10.252m-15.981-13.728s-2.259 6.603-5.213 8.34m-17.901-10.078c-.173.348-3.649 7.82-6.081 9.21M288.02 87.61c.174 0 3.475 6.95-.869 11.99m-6.432-47.96c.173.173.695 5.386-2.607 9.904m-28.67 1.912c0 .173 1.39 5.908-7.82 7.82m-9.898 45.174c.174.348 8.862 1.738 8.862 1.738m-30.583 18.426c.174-.174 10.6-3.301 10.6-3.301m-27.457 16.329c.348 0 7.298 1.216 9.036.347m-13.9 6.084s2.259 1.216.347 12.858m-34.234-43.439l4.17 6.256m-18.416 25.892c0-.175 4.17 6.254 9.73 7.47m23.113 25.198c.173 0 6.776-1.39 7.82-2.085m-10.779 25.712c.174 0-.174-4.344 5.213-7.298m-12.34 18.072c0 .173 5.039 6.429 8.514 7.298m-11.465 4.693c.522-.173 5.908-4.865 12.164-4.518m-13.904 20.678s.174 5.388 16.16 3.998m-14.594 14.939c0-.174 4.692-10.773 14.249-14.77m-1.386 28.329s1.39-4.518 9.382-7.646m-.523 25.538s5.734-4.692 7.819-5.387m-.692 19.293s3.475 3.65 12.163-2.606m-54.048 5.556c1.043-.174 13.727-3.127 18.072 3.476m-13.024 6.95s13.38-1.738 15.117-.348m32.667 3.132s-1.737 3.65 14.77-2.432m5.733 9.038c-2.954 5.039.695 9.035-3.128 11.294m-47.093-4.35c.521-.347 6.082-2.259 5.213-10.252m-.175 22.244c.696-.174 9.905-4.17 11.817-2.085m6.258 13.729s1.217-8.167 3.823-9.036m10.075 21.367s7.646-.174 10.948-2.606m3.82-25.015c.174.173 7.124 3.822 21.894.173m-16.333 33.009s2.085 10.6 1.911 13.033"/></g></g><g class="E"><g fill="#de2010" class="B"><g stroke-width="1.483"><use href="#B" transform="matrix(1.60885 -.2011 .2072 1.65762 94.795 74.927)"/><use href="#B" transform="matrix(1.60885 -.2011 .2072 1.65762 93.358 57.275)"/><use href="#B" transform="matrix(1.58497 -.3417 .35206 1.633 78.089 74.089)"/><use href="#B" transform="matrix(1.4455 -.73446 .7567 1.4893 55.863 162.938)"/><use href="#B" transform="matrix(1.4455 -.73446 .7567 1.4893 48.885 147.133)"/><use href="#B" transform="matrix(1.3781 -.85423 .88011 1.41987 39.958 167.39)"/><use href="#B" transform="matrix(1.28907 -.98346 1.01327 1.32812 33.795 193.08)"/><use href="#B" transform="matrix(1.1329 -1.15994 1.19508 1.16722 35.345 239.043)"/><use href="#B" transform="matrix(1.02138 -1.25922 1.29739 1.05234 34.295 262.698)"/><use href="#B" transform="matrix(.79817 -1.41132 1.45408 .82236 51.907 315.002)"/><use href="#B" transform="matrix(.66642 -1.4781 1.52289 .6866 56.808 337.386)"/><use href="#B" transform="matrix(.56582 -1.51945 1.5655 .58296 57.907 352.404)"/><use href="#B" transform="matrix(.4482 -1.5582 1.60543 .46178 63.012 370.362)"/><use href="#B" transform="matrix(.20288 -1.60864 1.65738 .20903 94.656 408.901)"/><use href="#B" transform="matrix(.06506 -1.62008 1.66918 .06703 106.295 427.394)"/><use href="#B" transform="matrix(.06506 -1.62008 1.66918 .06703 88.849 428.012)"/><use href="#B" transform="matrix(-.36132 -1.5806 1.62852 -.37226 172.505 473.533)"/><use href="#B" transform="matrix(-.49045 -1.54542 1.59227 -.50531 188.286 485.828)"/><use href="#B" transform="matrix(-.67103 -1.476 1.52073 -.69138 221.877 499.092)"/><use href="#B" transform="matrix(-.7945 -1.41337 1.4562 -.81858 241.371 508.33)"/><use href="#B" transform="matrix(-.94339 -1.31867 1.35863 -.97197 271.636 515.396)"/><use href="#B" transform="matrix(-1.05159 -1.2341 1.27151 -1.08344 292.379 520.207)"/><use href="#B" transform="matrix(-1.13737 -1.15553 1.19056 -1.17183 308.9 526.104)"/><use href="#B" transform="matrix(-1.2301 -1.05628 1.08829 -1.26738 331.402 529.562)"/><use href="#B" transform="matrix(-1.33573 -.91908 .94693 -1.3762 362.524 526.12)"/><use href="#B" transform="matrix(-1.47374 -.67597 .69645 -1.51841 415.897 504.087)"/><use href="#B" transform="matrix(-1.52895 -.53958 .55593 -1.5753 438.682 497.522)"/><use href="#B" transform="matrix(-1.61445 -.12005 .15429 -1.33344 500.491 405.96)"/><use href="#B" transform="matrix(-1.58082 -.36035 .37125 -1.62873 468.417 480.766)"/></g></g><path d="M480.012 194.65c2.146-2.297 4.143-2.946 6.669-2.109-.891-6.06-2.809-8.116-5.145-7.386s-3.393 3.845-1.524 9.496zm3.281 18.284c2.313-2.129 4.353-2.626 6.809-1.6-.432-6.11-2.19-8.305-4.574-7.754s-3.673 3.579-2.235 9.354zm-7.763-34.984c1.493-2.766 3.259-3.902 5.915-3.733-2.4-5.635-4.778-7.137-6.852-5.838s-2.305 4.58.938 9.572zm-8.136-16.638c1.492-2.767 3.258-3.903 5.914-3.734-2.4-5.635-4.777-7.137-6.852-5.838s-2.305 4.581.938 9.572zm-19.52-30.494c1.028-2.97 2.59-4.375 5.238-4.635-3.275-5.176-5.863-6.277-7.701-4.661s-1.54 4.892 2.463 9.296zm-12.757-13.288c.915-3.008 2.421-4.47 5.058-4.83-3.468-5.05-6.095-6.05-7.871-4.367s-1.354 4.947 2.813 9.197zm-26.83-22.635c-.056-3.143.927-4.999 3.325-6.154-4.855-3.735-7.663-3.878-8.834-1.73s.236 5.124 5.509 7.884zm13.959 10.465c.49-3.105 1.779-4.762 4.34-5.484-4.135-4.52-6.875-5.147-8.4-3.234s-.656 5.087 4.06 8.718zm-29.884-19.254c-.38-3.12.406-5.067 2.672-6.463-5.214-3.215-8.022-3.068-8.965-.81s.763 5.072 6.293 7.273zm-16.274-7.104c-.822-3.035-.323-5.074 1.72-6.78-5.62-2.435-8.378-1.888-8.989.482s1.481 4.91 7.269 6.298zm-17.535-5.433c-1.076-2.954-.751-5.028 1.14-6.901-5.807-1.95-8.509-1.172-8.916 1.241s1.891 4.767 7.776 5.66zm-17.223-3.335c-1.286-2.868-1.112-4.96.638-6.965-5.932-1.526-8.57-.554-8.802 1.883s2.231 4.617 8.165 5.082zm-18.24-1.398c-1.577-2.719-1.62-4.818-.087-6.993-6.059-.902-8.582.338-8.56 2.785s2.698 4.362 8.648 4.208zm-35.714 2.69c-2.186-2.258-2.735-4.285-1.772-6.766-6.097.585-8.247 2.397-7.635 4.767s3.67 3.582 9.407 2zm17.579-2.314c-1.86-2.534-2.13-4.616-.84-6.943-6.12-.246-8.495 1.259-8.21 3.69s3.151 4.045 9.05 3.253zm-34.827 6.041c-2.488-1.922-3.321-3.85-2.723-6.443-5.95 1.454-7.819 3.555-6.874 5.813s4.146 3.019 9.597.63zm-33.026 15.184c-2.808-1.413-3.992-3.147-3.899-5.806-5.565 2.559-6.999 4.977-5.642 7.013s4.644 2.176 9.542-1.207zm15.926-8.135c-2.616-1.744-3.581-3.608-3.165-6.237-5.835 1.864-7.552 4.09-6.452 6.277s4.345 2.723 9.617-.04zm-45.548 28.759c-3.041-.797-4.561-2.246-5.024-4.866-4.91 3.662-5.808 6.326-4.057 8.035s4.996 1.16 9.08-3.169zm14.132-11.566c-2.97-1.033-4.37-2.596-4.627-5.245-5.182 3.267-6.286 5.852-4.673 7.693s4.89 1.548 9.3-2.448zm-26.69 23.935c-3.101-.518-4.746-1.822-5.445-4.39-4.557 4.094-5.21 6.829-3.31 8.371s5.08.701 8.755-3.981zm-11.252 14.603c-3.135-.234-4.892-1.384-5.822-3.878-4.166 4.49-4.567 7.273-2.535 8.637s5.123.237 8.356-4.76zm-9.417 14.933c-3.133.249-5.045-.618-6.346-2.94-3.43 5.075-3.4 7.886-1.183 8.923s5.099-.55 7.53-5.983zm-8.267 15.951c-3.075.654-5.083.042-6.674-2.091-2.742 5.477-2.348 8.26-.015 9s4.984-1.207 6.69-6.909zm-6.614 16.37c-2.932 1.132-5.012.846-6.92-1.008-1.84 5.842-1.01 8.528 1.41 8.89s4.73-1.982 5.51-7.882zm-4.429 18.231c-2.85 1.326-4.945 1.18-6.973-.542-1.444 5.952-.437 8.577 2.003 8.775s4.586-2.294 4.97-8.233zm-1.802 15.186c-2.683 1.421-4.774 1.589-6.967.515-.798 4.85.48 6.768 2.918 6.595s4.3-2.412 4.05-7.11zm306.986-72.221c1.073-2.955 2.655-4.336 5.307-4.556-3.196-5.225-5.766-6.364-7.629-4.777s-1.613 4.868 2.322 9.332zm25.168 84.987c2.313-2.129 4.352-2.626 6.808-1.6-.431-6.11-2.189-8.305-4.573-7.753s-3.673 3.578-2.235 9.353z" fill="#ffe300"/><path d="M461.32 132.01c-.075 0-6.926 6.852-5.735 15.192s6.48 18.618 5.511 27.257-2.532 14.373-2.532 14.373 8.043-9.16 8.118-17.948-5.511-20.33-5.511-26.81l.149-12.063zm12.731 27.996s-5.362 3.947-4.84 13.033 9.904 25.767 9.904 25.767 6.851 14.075 6.628 17.724 1.266-3.5.596-11.543-11.022-25.767-11.022-25.767-2.234-3.649-2.01-9.681.818-9.458.744-9.533z" class="B C D F"/><g fill="#6b18b5"><path d="M312.926 47.43c0-1.88-2.114-3.405-4.724-3.405s-4.724 1.525-4.723 3.405 2.114 3.405 4.723 3.405 4.725-1.524 4.724-3.405zm2.019 7.92c0-1.804-2.177-3.266-4.863-3.266s-4.862 1.462-4.862 3.265 2.177 3.265 4.862 3.265 4.863-1.461 4.863-3.265zm6.04-9.378s-5.558 4.168-3.265 5.835 8.614-3.612 8.614-3.612l-5.35-2.223zM484.32 141.4c.002-1.184-.554-2.28-1.457-2.873a2.616 2.616 0 0 0-2.918 0c-.902.593-1.458 1.689-1.456 2.873s.554 2.28 1.456 2.874a2.616 2.616 0 0 0 2.918 0c.903-.593 1.459-1.689 1.457-2.874zm-2.123-7.945c0-1.976-1.365-3.578-3.048-3.578s-3.048 1.602-3.048 3.578 1.364 3.578 3.048 3.578 3.048-1.602 3.048-3.578zm1.462 16.161c0-1.025-.534-1.856-1.193-1.856s-1.193.83-1.193 1.856.534 1.855 1.193 1.855 1.193-.83 1.193-1.855zm4.899-14.446c0-1.172-.534-2.12-1.193-2.12s-1.192.948-1.192 2.12.534 2.12 1.192 2.12 1.193-.95 1.193-2.12zm-13.384 1.462c0-.952-.534-1.723-1.193-1.723s-1.193.771-1.193 1.723.534 1.722 1.193 1.722 1.193-.771 1.193-1.722zm2.123 11.4c0-1.538-1.127-2.784-2.518-2.784s-2.518 1.246-2.518 2.784 1.127 2.784 2.518 2.784 2.519-1.247 2.518-2.784zm-6.631-5.039c0-1.317-.95-2.385-2.12-2.385s-2.12 1.068-2.12 2.385.948 2.385 2.12 2.385 2.12-1.068 2.12-2.385zm-1.053-6.762c0-.71-.353-1.368-.927-1.724a1.749 1.749 0 0 0-1.857 0c-.574.356-.928 1.013-.927 1.724s.353 1.368.927 1.724a1.749 1.749 0 0 0 1.857 0c.574-.356.928-1.013.927-1.724zm30.206 34.366c-2.737-3.613-7.12-5.135-9.789-3.4s-2.612 6.07.125 9.682 7.12 5.135 9.789 3.4 2.612-6.07-.125-9.682zm7.78 66.652c.53-4.433-1.632-8.337-4.83-8.72s-6.22 2.9-6.75 7.334 1.632 8.337 4.83 8.72 6.22-2.901 6.75-7.334zm1.645 38.795c.91-4.37-.906-8.447-4.059-9.104s-6.447 2.353-7.358 6.724.906 8.447 4.058 9.104 6.447-2.353 7.359-6.724zm7.475-36.315c0-1.757-1.187-3.18-2.65-3.18s-2.651 1.423-2.651 3.18 1.187 3.18 2.65 3.18 2.651-1.424 2.651-3.18zm-6.492 7.292l-5.433 6.163s-5.102.132-4.837 1.789 7.023 6.626 6.957 8.614 4.506-.464 4.506-.464l3.644-11.132c0-.066-.199-7.687-2.186-7.554s-2.527 2.444-2.65 2.585zm-357.39-2.436a2.586 2.586 0 1 0-5.172 0 2.586 2.586 0 0 0 5.172 0zm2.437-7.902c0-1.508-1.158-2.73-2.586-2.73s-2.586 1.222-2.586 2.73 1.157 2.73 2.586 2.73 2.586-1.222 2.586-2.73zm-21.234-37.577c-.97-2.174-2.99-3.386-4.512-2.707s-1.968 2.992-.999 5.166 2.99 3.385 4.512 2.706 1.968-2.991.999-5.165zm6.413 23.41c-1.332-2.818-4.106-4.389-6.197-3.509s-2.705 3.878-1.372 6.695 4.107 4.388 6.197 3.508 2.705-3.877 1.372-6.694zm6.867 17.169c.431-3.519-1.027-6.751-3.257-7.22s-4.389 2.004-4.82 5.523 1.026 6.752 3.256 7.22 4.389-2.004 4.82-5.523zm-11.018 2.507c1.38-3.266.863-6.775-1.153-7.837s-4.77.725-6.15 3.991-.862 6.775 1.154 7.836 4.77-.724 6.15-3.99z"/><path d="M131.281 234.812c0-1.666-1.286-3.017-2.873-3.017s-2.874 1.35-2.874 3.017 1.287 3.017 2.874 3.017 2.873-1.35 2.873-3.017zm-2.297-7.467c0-1.507-1.158-2.73-2.586-2.73s-2.586 1.223-2.586 2.73 1.157 2.73 2.586 2.73 2.586-1.222 2.586-2.73zm2.445-14.367c0-2.54-1.126-4.598-2.514-4.598s-2.514 2.059-2.514 4.598 1.125 4.597 2.514 4.597 2.514-2.058 2.514-4.597zm7.736-1.106c.335-2.516-.509-4.705-1.885-4.888s-2.764 1.708-3.099 4.225.51 4.706 1.886 4.889 2.763-1.709 3.098-4.226zm55.121-109.978c1.025-3.564-.032-7.147-2.36-8.001s-5.047 1.342-6.071 4.906.032 7.147 2.36 8.002 5.047-1.343 6.071-4.907zm-10.469 15.862c3.071-2.613 4.383-6.227 2.93-8.071s-5.119-1.221-8.19 1.392-4.382 6.227-2.93 8.072 5.12 1.22 8.19-1.393zm-6.109-8.804c3.037-2.244 4.334-5.346 2.898-6.93s-5.063-1.047-8.1 1.196-4.333 5.346-2.897 6.93 5.063 1.047 8.1-1.196zm23.549-15.485c2.048-1.566 2.923-3.73 1.954-4.835s-3.414-.731-5.462.834-2.922 3.73-1.954 4.835 3.414.731 5.462-.834z"/><path d="M188.978 108.47c1.4-2.163 1.494-4.496.21-5.21s-3.46.462-4.86 2.626-1.495 4.497-.211 5.21 3.46-.461 4.86-2.625zm17.718-9.272c2.202-1.856 3.06-4.314 1.916-5.49s-3.856-.627-6.058 1.229-3.06 4.314-1.916 5.49 3.856.627 6.058-1.229zm-32.016 21.63c2.059-.103 3.612-1.128 3.47-2.29s-1.925-2.022-3.983-1.919-3.613 1.128-3.471 2.29 1.925 2.022 3.984 1.919zm38.76-33.125c1.4-2.164 1.495-4.497.21-5.21s-3.46.462-4.86 2.626-1.495 4.497-.21 5.21 3.46-.462 4.86-2.626z"/></g><path d="M446.83 153.375s6.386-10.108 3.917-19.621-13.006-2.791-12.78.595 6.81 7.915 7.21 9.981-.744 8.422 1.653 9.045z" stroke="#ef8a10" fill="#ffd200" class="J"/><g class="B D"><g class="F K"><path d="M324.883 69.303s23.012.894 23.16 15.788c-.074 2.308 0 5.064-.818 11.691 4.542-2.457 7.596-9.309 7-13.702.074-15.118-20.554-25.47-29.342-13.778z"/><path d="M310.29 68.633s18.542-3.873 18.691 11.021-5.883 17.277-5.883 17.277 14.224-3.053 14.298-18.17-18.32-21.82-27.107-10.128z"/></g><path d="M373.282 389.952s86.796-24.518 113.005-131.041C471.069 368.252 376.1 402.915 376.1 402.915l-2.818-12.963z" fill="#f7df73" class="H"/></g><g fill="#8c1800"><path d="M382.186 396.584c2.682 0 9.32-7.343 13.132-8.19s4.236-4.66-.142-4.8-8.19 4.942-8.19 4.942-3.812 3.247-7.766 3.671-1.412 5.366 2.966 4.377z"/><path d="M432.167 359.298s-9.037 5.225-7.766 6.496 9.32-4.942 9.46-5.084 3.39-4.094-1.694-1.412z" class="G H"/><path d="M400.678 383.036s-2.683-.988 4.236-3.67 6.496-5.79 8.755-7.061 7.06-4.66 8.048-2.683-5.083 5.93-6.495 6.354-8.331 6.778-10.308 7.343-3.389.282-4.236-.283z"/></g></g><g fill="none" class="G I"><path d="M445.582 346.035l-5.93 6.495" stroke-width="3.019"/><path d="M454.485 335.16l-5.648 6.919" stroke-width="2.786"/><path d="M463.373 321.044l-6.355 10.166" stroke-width="2.554"/><path d="M470.856 306.644l-5.224 10.449m8.616-18.083l-1.695 3.67" class="K"/><path d="M478.056 288.987l-1.412 4.377" stroke-width="1.393"/></g><g class="E"><path d="M259.52 387.665s-86.005-24.96-111.975-133.403c15.08 111.312 109.182 146.6 109.182 146.6l2.792-13.197z" fill="#f7df73" class="B D M"/><g fill="#8c1800"><path d="M250.697 394.416c-2.658 0-9.234-7.475-13.012-8.337s-4.197-4.744.14-4.888 8.115 5.032 8.115 5.032 3.778 3.306 7.695 3.737 1.4 5.462-2.938 4.456z"/><path d="M201.171 356.459s8.955 5.318 7.695 6.612-9.235-5.03-9.374-5.175-3.359-4.168 1.678-1.437z" class="G M"/><path d="M232.373 380.624s2.659-1.006-4.197-3.737-6.436-5.894-8.675-7.188-6.996-4.743-7.975-2.73 5.037 6.037 6.436 6.468 8.255 6.9 10.214 7.475 3.358.287 4.197-.288z"/></g></g><g fill="none" class="G I"><path d="M187.879 342.956l5.876 6.612" stroke-width="3.032"/><path d="M179.057 331.885l5.597 7.044" stroke-width="2.799"/><path d="M170.251 317.514l6.297 10.35" stroke-width="2.566"/><path d="M162.835 302.855l5.176 10.637m-8.536-18.409l1.678 3.738" stroke-width="2.333"/><path d="M155.701 284.879l1.399 4.456" stroke-width="1.4"/></g><g class="B D E F K"><path d="M490.42 239.302c.427 6.682 6.967 13.08 4.408 24.738-3.27 13.221-14.786 44.641-12.795 50.186-3.412-4.692-2.844-9.1-3.128-15.64s9.525-30.85 10.378-39.096c0-7.392.711-17.486 1.137-20.188z"/><path d="M490.42 239.442s10.663 13.506 10.094 24.169-6.54 23.173-4.55 28.718c-3.411-4.692-4.264-7.678-4.549-14.217s5.26-13.791 4.123-20.9-5.26-17.77-5.118-17.77zm-349.297 2.985c-.426 6.682-5.402 12.652-2.843 24.31 3.27 13.222 14.928 29.999 13.08 49.192 3.412-4.692 4.407-9.952 4.691-16.492s-12.938-28.576-13.79-36.822c0-7.392-.711-17.486-1.138-20.188z"/><path d="M141.123 242.575s-10.378 13.08-9.81 23.742c.142 7.109 13.222 36.822 11.232 42.367 3.412-4.691 4.407-4.123 4.264-11.231-3.838-18.198-10.663-29.856-9.525-36.965s3.98-17.913 3.839-17.913z"/></g><path fill="#fff" stroke-dashoffset="1" d="M318.438 122.958l25.834 79.512 83.592.003-67.626 49.145 25.828 79.515-67.627-49.119-67.631 49.131 25.829-79.511-67.626-49.142h83.592z" stroke-width="1.935" class="B D"/></g></svg>