<svg xmlns="http://www.w3.org/2000/svg" height="480" width="640" xmlns:v="https://vecta.io/nano"><style><![CDATA[.B{fill:none}.C{stroke:#000}.D{stroke-width:1.617}.E{stroke-linecap:round}.F{stroke-width:1.517}.G{fill-rule:evenodd}.H{fill:#ffc6b5}.I{stroke-linejoin:round}]]></style><path fill="#006" d="M0 0h640v480H0z"/><g class="G"><path d="M408.303 192.25h214.293l-.255 153.441c1.782 61.682-36.423 99.957-106.72 117.214-49.926-12.476-107.489-38.28-107.573-115.464l.255-155.193z" fill="#fff"/><path d="M413.046 196.876h204.785l-.243 147.026c1.703 59.105-34.809 95.781-101.99 112.318-47.703-11.953-102.714-36.674-102.794-110.643l.243-148.705z" fill="#00a2bd" class="C D"/><path d="M616.248 361.329c-7.45 56.418-50.63 81.069-100.65 94.152-44.276-11.951-91.91-31.032-101.143-93.869l201.798-.283z" fill="#a53d08"/><g class="C"><path d="M548.159 409.225c.114.114.796 11.314-5.224 18.172 5.338 1.715 8.973-.343 10.676-2.515s2.273-4.914 2.273-4.914 1.476-.914 1.703-2.971c.114-2.858-1.136-2.858-2.158-3.429l.226-6.4s-6.133-3.772-7.496 2.057z" class="F H I"/><path d="M547.821 425.232l-1.818-1.486" fill="#ff9a08" class="D E"/><path d="M531.068 253.695s.142 6.847-.284 7.56-4.299 2.52-4.299 2.52l3.307 7.084 9.355-1.33c.047 0 4.017-10.603 4.017-10.603s-2.079-3.518-1.559-7.179c-3.118-9.938-10.395 1.996-10.537 1.949z" class="D H"/><path d="M518.742 416.431s5.224 5.257 11.243 4.572c13.63-1.485 17.605-13.714 21.807-13.829s6.815 7.429 10.79 6.514c-3.407-6.286-7.041-20.229-6.474-30.058s.569-51.202.569-51.202-6.815-21.372-9.995-24.915c3.18-3.429 5.338-9.486 5.224-16.115s0-13.943 0-13.943 1.589-1.828 1.477-6.971-8.632-12.571-9.768-12.229-11.812 9.6-12.72 11.77-2.158-7.885-.114-8.8-4.771-1.485-9.087 3.658-3.066 151.773-2.953 151.541z" fill="#005121" class="F I"/></g><path d="M467.518 224.122l39.97.144-.286-18.531 14.562.144.142 18.387h39.828l.142 14.365-39.97.144-.32 169.41-14.202.09-.182-169.641-39.693.143.009-14.652z"/><path d="M507.347 268.99s-2.731-.484-4.819.162 3.213-23.84 3.213-25.861c1.847-.889 11.082-2.587 10.842-9.133-.642-3.96-14.295.243-14.054 5.253-.883 2.505-9.797 28.042-8.031 36.447 3.132 2.505 8.915 2.021 12.85 1.374v-8.243z" class="C D H"/></g><g class="B C"><path d="M509.997 233.998s-.803 4.526 3.293 5.173" stroke-width=".758" class="E"/><path d="M516.02 233.917c-.161.08-5.3 3.313-5.3 3.313m4.986-1.293l-3.614 2.667m2.247-5.656l-4.016 2.425" stroke-width=".455"/></g><g class="D C"><path d="M475.245 368.315l36.457 38.058c12.606-13.943 3.862-66.06-12.719-75.659-1.987 6.171-5.367 13.571-8.96 15.956-7.904 5.42-27.272 11.757-20.798 15.815 1.476-2.057 5.338-4 7.155.572 2.158 7.2-8.063 7.657-8.063 7.657s-6.474-.801-7.61-7.43 9.643-12.68 10.562-13.142c.908-.343 14.992-4.114 17.377-16.687 2.953-12.344 6.019-10.514 6.587-10.743 18.398 1.828 30.437 34.973 31.119 58.287s-9.426 38.743-11.244 39.772-43.84-50.172-43.84-50.172l3.975-2.286z" fill="#ff9a08" class="G"/><path d="M501.82 332.883l.226 68.687m-4.315-67.433l.226 62.402m-4.653-53.371l.226 49.601m-3.855-46.059l.227 41.031m-4.098-39.193v34.629m-4.197-31.891v27.428m-3.636-25.262v21.028" class="B"/></g><path d="M474.677 372.661l37.593 43.308m1.814-70.622s17.037 37.487 1.25 68.345m-45.087-48.918s1.25-3.314 2.839-1.943m-5.792-7.661s-6.815 6.057-3.066 9.943" stroke="#ffdf00" class="B E F"/><g class="C"><g class="D B"><path d="M530.33 270.256s.569 5.258-.567 9.257 4.316 15.086 2.27 17.372m.571 10.741l14.311-.114"/><path d="M527.378 313.456c.114.228 1.703 7.543 1.248 12.571m3.409-9.942c-.454 1.486-6.36 18.4-6.133 19.086m9.653-26.742c.114.343-.454 10.743-2.044 12.229m9.314-13.033s9.314 21.715 9.2 30.286 3.18 25.943 1.022 33.601m-7.271-33.822s-.682 16.115-7.382 22.4 16.014 24.23 16.014 24.23" class="E"/></g><path d="M545.547 383.287s2.499 22.171 6.701 23.772m-27.252-60.921c.114.229-2.272 14.972-.341 17.372s17.946 24.915 17.263 48.23m-4.548-6.97s-.455 14.057-13.402 15.2m9.544-24.451s3.862 14.628-9.313 23.886" class="B E F"/><g class="D"><path d="M538.616 360.197s14.878 15.544 15.56 22.401m-11.242-74.631s2.613 11.085 1.591 13.029" class="B E"/><path d="M497.042 330.74s-1.593-2.806-1.393-5.912-.498-7.914 9.459-11.823c6.073-6.211 12.844-9.919 16.527-11.821 5.377-3.507 8.863-2.706 12.048-3.908 2.091-2.404 1.991-7.715 4.182-12.423s6.073-14.427 10.255-12.924.896 14.127-.697 18.536-2.987 9.017-5.775 11.722-15.432 7.615-17.921 8.517-13.839 3.506-16.726 7.515-2.689 9.919-9.957 12.524z" class="G H"/><path d="M496.243 322.329c.299-.1 4.978-1.603 7.168 2.606" class="B"/></g><g class="G I"><path d="M531.394 236.419s-2.105 3.453-2.688 5.552c-.452 1.57-1.911-.106-2.683 3.296l1.252.22c-.498 1.002-.66 2.695-.76 3.095s-.801 2.232-.697 3.608c.056.71 1.393 3.807 12.246-.902s-3.485-18.075-6.671-14.869z" class="F H"/><path d="M530.173 236.861c1.114-.601 9.02-1.302 7.703 14.227 1.52-.201 2.433-.402 3.343 1.102s.812 3.307 2.433 3.307 1.825-.301 2.231-1.503 6.689 1.402 8.309-4.208c-.281-1.092-3.85-2.806-4.257-4.809.913-2.806-.405-11.922-11.957-12.424-5.98-.1-7.195 2.404-7.804 4.309z" fill="#c59200" stroke-width="1.53"/></g><path d="M529.592 239.968c.1.1 3.585 1.102 3.983 2.806" class="B D E"/></g><path d="M531.733 244.091c0 .526-.402.951-.898.951s-.897-.425-.897-.95.401-.951.897-.951.898.425.898.95z" class="G"/><g class="C B E"><g class="F"><path d="M546.478 244.139s-1.276 6.181 4.347 8.606m-8.508-7.845s2.083.095 2.083 2.045-1.71 2.186-1.568 3.756 2.933 2.091 3.028 3.423m-12.663-20.635c.094 0 9.971 1.142 9.403 3.614s-2.126 1.473-2.079 3.613 3.969.857 3.969.857.237-1.808 1.891-1.665.898 2.045 3.166 1.996" class="I"/><path d="M527.161 248.905l2.342-.078"/></g><path d="M533.257 258.933s.871 4.09-2.419 3.7" class="D"/></g><g fill="#fff"><path d="M0 .063v28.44l343.648 225.93h43.256v-28.438L43.256.064H0zm386.904 0v28.439L43.256 254.433H0v-28.439L343.648.063h43.256z"/><path d="M161.21.063v254.37h64.484V.063H161.21zM0 84.853v84.79h386.904v-84.79H0z"/></g><path fill="#c00" d="M0 101.811v50.874h386.904v-50.874H0zM174.107.063v254.37h38.69V.063h-38.69zM0 254.433l128.968-84.79h28.837l-128.968 84.79H0zM0 .063l128.968 84.79h-28.837L0 19.023V.063zm229.099 84.79L358.067.063h28.837l-128.968 84.79h-28.837zm157.805 169.58l-128.968-84.79h28.837l100.131 65.831v18.959z"/></svg>