<svg xmlns="http://www.w3.org/2000/svg" height="480" width="640" xmlns:v="https://vecta.io/nano"><style><![CDATA[.B{fill:#d0d0d0}.C{fill:gray}.D{fill-rule:evenodd}.E{stroke:#707070}.F{stroke-width:.146}]]></style><g class="D"><path fill="#ce0000" d="M320 0h320v480H320z"/><path fill="#fff" d="M0 0h320v480H0z"/></g><g transform="matrix(1.5986 0 0 1.5986 -12.38 -30.751)"><g class="D"><path d="M104.824 108.068c0 .81-.918 1.466-2.049 1.466s-2.049-.656-2.049-1.466.918-1.466 2.049-1.466 2.049.656 2.049 1.466z" fill="#f1eeee"/><path d="M40.727 100.98v37.209h37.211c0 6.2 6.202 12.402 12.404 12.402v37.207h37.208v-37.207c6.202 0 12.404-6.202 12.404-12.402h37.211V100.98h-37.211c0-6.2-6.202-12.402-12.404-12.402V51.371H90.342v37.207c-6.202 0-12.404 6.202-12.404 12.402H40.727z" fill="#c00"/><path d="M41.969 102.22v34.727H79.18c0 6.2 6.2 12.404 12.402 12.404v37.207h34.73v-37.207c6.202 0 12.402-6.204 12.402-12.404h37.211V102.22h-37.211c0-6.2-6.2-12.404-12.402-12.404V52.609h-34.73v37.207c-6.202 0-12.402 6.204-12.402 12.404H41.969z" fill="#ffe600"/><path d="M43.209 103.46v32.249h37.208c0 6.2 6.202 12.402 12.404 12.402v37.207h32.248v-37.207c6.202 0 12.404-6.202 12.404-12.402h37.208V103.46h-37.208c0-6.2-6.202-12.402-12.404-12.402V53.851H92.821v37.207c-6.202 0-12.404 6.202-12.404 12.402H43.209z" fill="#707070"/><path d="M44.45 104.7v29.766h37.208c0 6.2 6.202 12.404 12.404 12.404v37.207h29.767V146.87c6.202 0 12.404-6.204 12.404-12.404h37.208V104.7h-37.208c0-6.2-6.202-12.402-12.404-12.402V55.091H94.062v37.207c-6.202 0-12.404 6.202-12.404 12.402H44.45z" fill="#a0a0a0"/><path d="M94.37 89.223c2.179 2.18.412 7.48-3.947 11.84s-9.66 6.125-11.84 3.946-.413-7.48 3.946-11.84 9.66-6.126 11.84-3.946z" class="B"/><path d="M91.74 91.852c2.18 2.18 1.59 6.303-1.316 9.209s-7.03 3.495-9.209 1.315-1.59-6.302 1.316-9.208 7.029-3.495 9.209-1.316z" class="C"/><path d="M80.774 98.429l.877-.877 3.508 1.754-1.754-3.508.877-.877 3.508 7.016-7.016-3.508zm5.263-5.262l.877-.877 5.263 5.262-.877.877zm53.271 11.842c-2.18 2.18-7.481.412-11.84-3.947s-6.127-9.66-3.947-11.84 7.48-.412 11.84 3.947 6.126 9.66 3.947 11.84z" class="B"/><path d="M136.678 102.38c-2.18 2.179-6.303 1.59-9.209-1.316s-3.495-7.03-1.315-9.209 6.302-1.59 9.209 1.316 3.495 7.029 1.315 9.208z" class="C"/><path d="M130.101 91.414l.877.877-1.754 3.508 3.508-1.754.877.877-7.016 3.508 3.508-7.016zm5.262 5.263l.877.877-5.262 5.262-.877-.877zm-11.843 53.27c-2.179-2.18-.412-7.48 3.947-11.84s9.66-6.125 11.84-3.946.413 7.48-3.946 11.84-9.66 6.126-11.84 3.946z" class="B"/><path d="M126.15 147.318c-2.18-2.18-1.59-6.303 1.316-9.209s7.03-3.495 9.209-1.315 1.59 6.302-1.316 9.208-7.029 3.495-9.209 1.316z" class="C"/><path d="M137.116 140.741l-.877.877-3.508-1.754 1.754 3.508-.877.877-3.508-7.016 7.016 3.508zm-5.263 5.262l-.877.877-5.263-5.262.877-.877zm-53.268-11.846c2.18-2.18 7.481-.412 11.84 3.947s6.127 9.66 3.947 11.84-7.48.412-11.84-3.947-6.126-9.66-3.947-11.84z" class="B"/><path d="M81.215 136.787c2.18-2.18 6.303-1.59 9.209 1.315s3.495 7.03 1.315 9.209-6.302 1.59-9.209-1.316-3.495-7.029-1.315-9.208z" class="C"/><path d="M87.792 147.752l-.877-.877 1.754-3.508-3.508 1.754-.877-.877 7.016-3.508-3.508 7.016zm-5.262-5.263l-.877-.877 5.262-5.262.877.877z" class="B"/></g><g fill="none" class="E"><path d="M134.994 119.585c0 14.384-11.662 26.045-26.047 26.045S82.9 133.969 82.9 119.585 94.561 93.54 108.947 93.54s26.047 11.661 26.047 26.045z" stroke-width=".461"/><path d="M128.791 119.585c0 10.96-8.885 19.844-19.845 19.844s-19.845-8.885-19.845-19.844 8.885-19.844 19.845-19.844 19.845 8.885 19.845 19.844z" stroke-width=".351"/></g><g class="D"><g class="B"><path d="M100.265 140.667a1.24 1.24 0 1 1-2.481 0 1.24 1.24 0 0 1 2.48 0zm19.845 0a1.24 1.24 0 1 1-2.48 0 1.24 1.24 0 0 1 2.48 0zm-11.99.003v1.293h-1.654c-1.654 0-1.654 1.293 0 1.293h1.654v1.294c.006 1.34 1.443 1.502 1.549.104l.105-1.398h1.654c1.653 0 1.653-1.293 0-1.293h-1.654v-1.293c0-1.293-1.654-1.293-1.654 0z"/><g class="E F"><path d="M102.77 122.35v.733s-.389.561-2.868.733-2.868 0-2.868 0c.065.64.547 1.852.41 3.3.096 1.685-.475 3.21-.475 3.21.065.089-.233.133-.754.089.41-.367.362-1.428.41-2.933s-1.565-3.772-1.23-4.399 7.375-.733 7.375-.733zm9.84-2.66l6.459-.087s.954 1.914.915 2.971-.368 1.958-.819 1.508.209-.366.29-1.508-.771-2.325-.771-2.325-1.73.755-4.332.603-1.45-1.117-1.742-1.162z"/><path d="M113.43 121.58c2.412-.111 3.995.258 3.995.258s.954 1.915.915 2.972-.368 1.957-.819 1.507.21-.365.29-1.507-.771-2.326-.771-2.326-1.73.756-4.332.603-1.86-.308-2.152-.353-.362.72-4.298.827-5.944-.827-5.944-.827-.39.561-2.868.733-2.868 0-2.868 0c.064.64.547 1.852.41 3.3.096 1.685-.475 3.21-.475 3.21.065.089-.233.133-.755.089.41-.367.363-1.428.41-2.933s-1.564-3.772-1.23-4.399 2.12-.04 2.46-.366-1.59-2.621-1.23-4.766 2.404-1.54 4.917-1.466 8.078.724 9.423 0 .763-3.407 2.049-5.132c.819-1.1 2.048-1.466 3.277-1.466.82 0 2.049 2.932 2.049 3.665l-.41.367h-.41v.366c-.935.094-1.065-.8-1.639-1.466-.246 1.033.82 4.4.82 6.598 0 1.833-.766 2.641-.814 2.512z"/><path d="M105.54 118.4c.034.73-3.166 2.369-3.427 3.017s.814 1.008.481 1.378-.605.233-.673.302-1.204-2.541-1.204-2.541 3.002-1.354 2.888-1.938-2.216-.94-2.599-2.412-.17-4.315-.481-4.91-3.995-1.161-3.999-2.06 3.787-3.367 4.197-3.733.82.366.41.733-3.377 2.633-3.377 3 2.458.733 3.277.733 1.23-.367 1.23-.733c.004-.317-.82-.367-.82-1.1s.41-1.1 1.229-1.1c.41 0 1.197.47 1.229 1.1s-.729.684-.82 1.1.82.733 1.64.733 3.616 2.132 4.026 2.499.82.366.41.733-.17.8-.58.434c-.348-.354-.41-.733-.41-.733-.035-.334-3.037-1.833-3.447-1.467s0 4.766 0 5.132c0 .733.854.73.82 1.833z"/></g></g><path fill="#a7a7a7" d="M100.32 109.9h4.917v5.132h-4.917z"/><rect transform="matrix(.55442 .83223 -.88237 .47055 0 0)" rx=".445" ry=".199" height=".399" width="30.647" y="-25.672" x="138.6" class="C"/><path d="M101.545 105.869c.004.264-.152.509-.407.642s-.57.133-.825 0-.41-.378-.407-.642c.005-.401.371-.724.819-.724s.814.323.819.724z" class="B E F"/><path d="M115.88 112.54c0 .304-1.902.66-4.097.66s-4.097-.356-4.097-.66 1.902.44 4.097.44 4.097-.744 4.097-.44z" class="C"/><path fill="#a7a7a7" d="M100.73 115.03h4.097v1.466h-4.097z"/><g class="C"><path d="M114.048 111.417c-.397.744-.774 1.275-.841 1.186s.199-.764.596-1.508.774-1.275.842-1.186-.2.764-.597 1.508zm1.035 1.926c-.452.397-.83.654-.842.574s.344-.466.796-.863.83-.654.842-.574-.343.466-.796.863z"/><path d="M114.564 112.414c.333.606.553 1.12.491 1.146s-.383-.443-.717-1.05-.553-1.12-.491-1.147.383.444.717 1.05zm-.32 3.169c0 .1-1.284.183-2.868.183s-2.867-.082-2.867-.183 1.284-.184 2.867-.184 2.868.082 2.868.184zm-9.42-.368c0 .102-.918.184-2.049.184s-2.049-.082-2.049-.184.918-.183 2.049-.183 2.049.082 2.049.183z"/></g><path d="M95.813 127.96s.676 1.643 3.556 1.666 3.872-.493 2.707-1.363-3.333-.6-3.053.151-.813 1.001-1.07.473-1.289-2.09.567-2.195 5.784-.674 6.766.416-1.11 2.078.472 2.31 1.807-.265 4.528-.414 3.761.505 4.694.413.8-1.694.062-2.1-2.154-.482-2.517-.928-1.351-.083-1.26-.587 1.402.347 1.417.09c0-.008.216-.179.26-.222-.165-.038-.259.023-.383.089.135-.108.126-.157.171-.245-.023-.033-.186.124-.213.092s.19-.257.09-.176c-.033.024-.292.152-.295.064.004-.036.136-.128.09-.178-.038-.042-.235.048-.26.058.113-.15.105-.148-.004-.26-.094-.111-.163-.109-.317.017.064-.18.081-.219-.074-.287-.127-.07-.133-.135-.291.189.06-.347-.102-.362-.035-.526.04-.15.252-.214.6-.18.676.005 1.038.816 1.259.813s.468-.858 1.416-.51l1.542.624c.477.206-.335.52-.063.927s2.134 1.764 1.605 3.18-1.892 1.64-2.014 2.252 4.314.362 5.445.568 1.843 1.05 1.888 1.192-1.983.133-1.983.133-1.041-.538-3.525-.587-3.429-1.05-4.358-1.176-2.911.21-4.018.16-2.23-.224-2.947-.321-4.286 1.61-4.274 2.009l-2.423-.076c.072.047.314-.775 1.68-.92s2.694-.798 2.65-1.228.264-1.904.378-2.536.625-.938.503-1.268-1.682-.672-3.179-.663-3.157.094-3.399.454-.059 1.408.252 1.287-.075-.805.252-.946 1.165-.266 1.951-.284 2.154.67 2.14.89.44.952-.188 1.23-1.916.403-3.148.34-2.478-.485-2.927-.756-.723-1.098-.723-1.155z" stroke="gray" stroke-width=".078" class="B"/><path d="M114.053 125.53a.329.329 0 1 1-.657 0 .329.329 0 0 1 .657 0z"/></g><path d="M129.51 120.77l1.595.344 2.665-1.824-.206.958-1.389.927-.767.467.525.793.86 1.39-.198.917-1.66-2.84-1.595-.345.17-.787zm-2.72-11.73l3.086-1.421-.838-1.82.413-.191 2.017 4.38-.413.19-.842-1.828-3.086 1.421-.337-.731zm-4.78-5.81l2.841-2.602.558.61-.073 4.398 2.23-2.042.522.569-2.841 2.602-.558-.61.075-4.4-2.233 2.044-.52-.569zm-12.42-5.016l.466-3.824.799.097-.411 3.373 2.974.362-.055.452-3.773-.46zm-6.11.548l-.69-3.79.793-.144.608 3.342 2.947-.536.082.448-3.74.68zm-11.282 5.568l-.283-.353 2.01-1.613.894 1.116a5.69 5.69 0 0 1-.673 1.118 5.66 5.66 0 0 1-.917.927c-.466.373-.941.65-1.424.83s-.916.224-1.302.14a1.59 1.59 0 0 1-.934-.569 1.702 1.702 0 0 1-.367-1.049c-.009-.41.119-.822.383-1.235s.632-.81 1.106-1.189a4.786 4.786 0 0 1 1.014-.637c.335-.153.632-.23.89-.231s.51.068.754.205l-.488.552a1.293 1.293 0 0 0-.555-.148c-.176-.003-.383.048-.621.153a3.203 3.203 0 0 0-.719.444c-.287.23-.512.457-.677.681s-.278.43-.335.625-.075.37-.06.536c.028.283.13.533.304.75.214.268.466.435.755.5s.612.026.96-.11.68-.329.993-.58c.272-.217.512-.463.718-.735s.345-.504.42-.686l-.45-.56-1.396 1.118zm-.13 27.7l-3.141 2.23-2.377-3.346.371-.263 1.91 2.69.973-.69-1.653-2.329.37-.263 1.654 2.328 1.427-1.013.466.656zm-4.627-5.01c.447-.126.746-.414.897-.866s.143-.965-.02-1.538c-.164-.583-.429-1.025-.794-1.328s-.788-.39-1.266-.255a1.36 1.36 0 0 0-.72.466c-.18.224-.289.509-.324.855s-.002.71.107 1.096c.155.548.408.987.76 1.316s.802.412 1.36.254zm.218.8a1.7 1.7 0 0 1-1.665-.375c-.496-.423-.861-1.047-1.094-1.872-.152-.54-.209-1.051-.167-1.531s.176-.875.405-1.184a1.63 1.63 0 0 1 .898-.624 1.63 1.63 0 0 1 1.11.074c.364.156.686.432.963.828a4.51 4.51 0 0 1 .629 1.357c.156.552.21 1.068.164 1.55s-.183.875-.412 1.181-.506.505-.83.597zm.322-7.82l-3.852-.087.061-2.697c.013-.542.057-.953.134-1.234s.2-.503.38-.668a.821.821 0 0 1 .586-.24c.273.006.5.151.682.435s.29.718.328 1.302c.07-.21.137-.371.203-.48.141-.232.317-.452.527-.657l1.072-1.034-.023 1.012-.82.787-.543.569a1.7 1.7 0 0 0-.267.404c-.052.118-.088.24-.11.363-.015.092-.024.24-.029.447l-.021.934 1.71.04-.018.804zm-2.134-.853l.04-1.731a4.067 4.067 0 0 0-.052-.864c-.044-.209-.118-.368-.22-.478a.48.48 0 0 0-.344-.17c-.182-.004-.334.098-.456.306s-.188.531-.198.982l-.044 1.926 1.274.029zM96.55 102.2l.026-4.505.745-.446 4.115 2.027-.787.47-1.208-.636-2.183 1.307.026 1.344-.734.439zm.694-2.259l1.77-1.059-1.093-.59a8.264 8.264 0 0 1-.78-.463 3.66 3.66 0 0 1 .096.8l.007 1.312zm18.606-1.207l4.157-1.738.7.51-.255 4.58-.741-.54.113-1.36-2.056-1.498-1.227.55-.691-.504zm2.35-.245l1.667 1.215.115-1.237a8.44 8.44 0 0 1 .122-.9 3.692 3.692 0 0 1-.698.402l-1.205.52zm10.3 14.341l3.747-.897.628 2.624c.126.527.188.936.185 1.227s-.067.538-.198.743a.82.82 0 0 1-.506.381c-.265.064-.522-.019-.77-.247s-.463-.62-.648-1.176a2.463 2.463 0 0 1-.074.517 3.39 3.39 0 0 1-.343.769l-.773 1.273-.236-.984.592-.97.382-.688c.083-.177.135-.33.154-.46s.025-.253.015-.379a3.717 3.717 0 0 0-.087-.44l-.217-.908-1.664.398-.187-.783zm2.28.282l.403 1.683c.086.358.176.632.27.823s.208.326.335.406.254.106.375.077c.177-.043.298-.18.364-.411s.046-.563-.059-1.002l-.448-1.872-1.24.296z" class="B"/></g></svg>