<svg xmlns="http://www.w3.org/2000/svg" height="480" width="640" fill-rule="evenodd" xmlns:v="https://vecta.io/nano"><path fill="#f41408" d="M0 0h639.998v480H0z"/><path fill="#21873b" d="M0 319.997h639.998V480H0z"/><path d="M0 0h639.998v160.003H0z"/><g fill="#f31509"><path d="M220.479 141.06c22.308-49.262 84.502-72.826 138.83-52.597 27.36 10.188 46.74 27.754 57.987 52.56l-196.81.037zm-25.97 6.365c-23.45-1.577-48.376-6.456-52.443-7.798s-4.223-3.585-3.722-5.303 3.096-3.667 6.127-2.94c5.682 1.363 28.788 6.905 50.034 16.044zm124.63-85.911c-4.208-20.98-5.27-44.078-4.86-47.985s2.765-4.608 4.724-4.6 4.693 1.796 4.68 4.638c-.027 5.33-.132 27.003-4.544 47.948zm11.54.487c-2.21-21.23-1.086-44.326-.308-48.186s3.19-4.376 5.141-4.216 4.507 2.153 4.224 4.984c-.53 5.308-2.682 26.893-9.057 47.418zm10.46 1.285c-.276-21.322 2.94-44.256 4.066-48.046s3.576-4.123 5.506-3.818 4.295 2.483 3.757 5.283c-1.01 5.25-5.113 26.601-13.329 46.581zm11.01 2.233c1.793-21.262 7.222-43.85 8.711-47.536s3.963-3.821 5.855-3.364 4.039 2.816 3.23 5.562c-1.514 5.15-7.673 26.09-17.796 45.338zm10.85 3.134c3.867-21.034 11.486-43.097 13.33-46.647s4.321-3.488 6.161-2.88 3.747 3.13 2.674 5.8c-2.01 5.007-10.2 25.37-22.16 43.726zm10.11 3.831c5.836-20.657 15.507-42.048 17.679-45.443s4.634-3.14 6.41-2.39 3.438 3.407 2.117 5.985c-2.478 4.833-12.552 24.486-26.206 41.848zm9.95 4.723c7.808-20.113 19.507-40.655 21.999-43.863s4.92-2.76 6.617-1.873 3.095 3.668 1.53 6.13c-2.935 4.618-14.868 23.396-30.146 39.607zm9.41 5.468c9.712-19.42 23.341-38.958 26.131-41.958s5.166-2.36 6.771-1.343 2.732 3.899.936 6.228c-3.367 4.368-17.06 22.132-33.838 37.074zm8.86 6.2c11.544-18.577 27.001-36.963 30.07-39.73s5.374-1.943 6.875-.802 2.345 4.1.332 6.278c-3.775 4.085-19.126 20.697-37.277 34.254zm8.25 6.89c13.292-17.59 30.464-34.68 33.787-37.192s5.54-1.51 6.926-.254 1.94 4.27-.275 6.281c-4.154 3.77-21.049 19.1-40.439 31.166zm7.58 7.545c14.943-16.466 33.701-32.123 37.255-34.362s5.665-1.062 6.924.299 1.52 4.408-.881 6.235c-4.504 3.424-22.815 17.352-43.298 27.828zm6.52 7.735c16.41-15.274 36.549-29.451 40.297-31.413s5.743-.629 6.872.823 1.108 4.508-1.454 6.146c-4.803 3.071-24.338 15.56-45.715 24.444zm5.9 8.388c17.791-13.944 39.193-26.508 43.113-28.172s5.782-.18 6.77 1.353.678 4.578-2.03 6.01c-5.075 2.688-25.715 13.615-47.853 20.808zm5.47 9.557c19.138-12.39 41.731-23.103 45.804-24.43s5.775.304 6.602 1.915.208 4.615-2.633 5.814c-5.329 2.25-26.996 11.397-49.773 16.701zm4.18 9.231c20.24-10.856 43.763-19.771 47.946-20.778s5.725.753 6.396 2.422-.229 4.614-3.173 5.588c-5.522 1.827-27.974 9.255-51.17 12.768zm3.36 9.785c21.216-9.197 45.514-16.198 49.779-16.867s5.63 1.208 6.136 2.924-.676 4.578-3.704 5.313c-5.678 1.378-28.765 6.984-52.21 8.63zm-134.74-86.094c-6.33-20.538-9.744-43.448-9.733-47.373s2.283-4.82 4.234-4.976 4.856 1.394 5.132 4.225c.518 5.309 2.624 26.898.367 48.123zm-11.1 1.301c-8.283-19.958-13.889-42.511-14.256-46.421s1.81-4.982 3.739-5.293 4.972 1.005 5.52 3.803c1.026 5.248 5.203 26.587 4.997 47.91zm-11.03 2.2c-10.19-19.218-17.97-41.235-18.72-45.102s1.32-5.107 3.21-5.57 5.05.602 5.868 3.346c1.532 5.146 7.766 26.07 9.633 47.325zm-10.4 2.946c-11.95-18.365-21.76-39.703-22.86-43.498s.836-5.19 2.677-5.797 5.088.212 6.16 2.883c2.009 5.008 10.179 25.376 14.03 46.412zm-10.16 3.772c-13.65-17.369-25.44-37.867-26.9-41.562s.343-5.237 2.12-5.985 5.09-.184 6.409 2.395c2.475 4.834 12.539 24.492 18.362 45.152zm-10.27 4.803c-15.313-16.183-29.09-35.636-30.91-39.196s-.179-5.243 1.516-6.133 5.051-.599 6.622 1.86c2.944 4.613 14.92 23.369 22.773 43.47zm-9.35 5.372c-16.8-14.924-32.37-33.226-34.53-36.63-2.153-3.404-.677-5.21.927-6.229s4.975-.992 6.774 1.336c3.372 4.364 17.089 22.113 26.826 41.524zm-8.76 5.976c-18.139-13.57-35.382-30.6-37.847-33.825s-1.165-5.139.337-6.278 4.864-1.374 6.875.806c3.771 4.088 19.108 20.71 30.635 39.297zm-8.51 6.948c-19.4-12.053-38.25-27.621-41.02-30.634s-1.665-5.024-.281-6.28 4.709-1.762 6.926.247c4.158 3.766 21.068 19.083 34.377 36.663zm-7.35 7.128c-20.447-10.533-40.668-24.614-43.709-27.406s-2.124-4.88-.86-6.237 4.529-2.112 6.924-.28c4.492 3.438 22.758 17.416 37.645 33.922zm-7.04 8.142c-21.398-8.842-42.92-21.237-46.223-23.772s-2.594-4.69-1.469-6.143 4.305-2.47 6.87-.837c4.811 3.062 24.376 15.511 40.822 30.753zm-6.31 8.824c-22.191-7.056-44.858-17.638-48.4-19.893s-3.05-4.457-2.074-5.997 4.041-2.812 6.759-1.396c5.096 2.655 25.819 13.453 43.716 27.287zm-5.24 8.968c-22.785-5.275-46.383-14.025-50.128-15.992s-3.467-4.2-2.643-5.811 3.756-3.12 6.6-1.925c5.331 2.243 27.014 11.362 46.17 23.728zm-4.2 8.986c-23.192-3.524-47.516-10.45-51.43-12.126s-3.843-3.922-3.17-5.59 3.454-3.395 6.398-2.419c5.52 1.83 27.969 9.268 48.202 20.135z"/><path d="M194.509 147.425c-23.45-1.577-48.376-6.456-52.443-7.798s-4.223-3.585-3.722-5.303 3.096-3.667 6.127-2.94c5.682 1.363 28.788 6.905 50.034 16.044z"/></g><path d="M129.386 141.522h381.23v12.562h-381.23z"/></svg>