<svg xmlns="http://www.w3.org/2000/svg" height="480" width="640" xmlns:v="https://vecta.io/nano"><defs><g id="A"><g id="B"><path transform="translate(0 -.325)" d="M0 0v.5L1 0z"/><path transform="rotate(324 .5 -.162)" d="M0 0v-.5L1 0z"/></g><use transform="scale(-1 1)" href="#B"/><use transform="rotate(72)" href="#B"/><use transform="rotate(288)" href="#B"/><use transform="matrix(-.309017 .951057 .951057 .309017 0 0)" href="#B"/></g><clipPath id="C"><path d="M0 0h600v300H0z"/></clipPath><clipPath id="D"><path d="M0 0l300 150H0zm300 0h300L300 150zm0 150h300v150zm0 0v150H0z"/></clipPath></defs><path d="M.004 0h640v480h-640z" fill="#00247d" fill-rule="evenodd"/><g transform="matrix(.66825 0 0 .66825 -92.947 36.115)"><use fill="#fff" href="#A" transform="matrix(45.4 0 0 45.4 900 120)"/><use fill="#cc142b" href="#A" transform="matrix(30 0 0 30 900 120)"/></g><g transform="matrix(.093002 .661747 -.661747 .093002 583.596385 -421.396843)"><use fill="#fff" href="#A" transform="matrix(5.622593 -40.00683 40.00683 5.622593 900.000125 119.99971)"/><use fill="#cc142b" href="#A" transform="matrix(3.479328 -24.756702 24.756702 3.479328 900.000125 119.99971)"/><use fill="#fff" href="#A" transform="matrix(6.318459 -44.95817 44.95817 6.318459 900.000217 379.999816)"/><use fill="#cc142b" href="#A" transform="matrix(4.175193 -29.708042 29.708042 4.175193 900.000217 379.999816)"/></g><g transform="matrix(.66825 0 0 .66825 -92.947 36.115)"><use fill="#fff" href="#A" transform="matrix(50.4 0 0 50.4 900 480)"/><use fill="#cc142b" href="#A" transform="matrix(35 0 0 35 900 480)"/></g><g transform="matrix(.60681 0 0 .73139 .004 0)"><path clip-path="url(#C)" d="M0 0l600 300M0 300L600 0" stroke="#fff" stroke-width="60"/><path clip-path="url(#D)" d="M0 0l600 300M0 300L600 0" stroke="#cc142b" stroke-width="40"/></g><path clip-path="url(#C)" d="M151.707-.002v79.37H.004v60.68h151.703v79.37h60.682v-79.37h151.703v-60.68H212.389V-.003z" fill="#fff"/><path d="M163.844.002v91.502H.004v36.408h163.84v91.502h36.408v-91.502h163.84V91.504h-163.84V.002z" fill="#cc142b"/></svg>