<svg xmlns="http://www.w3.org/2000/svg" height="480" width="640" xmlns:v="https://vecta.io/nano"><style><![CDATA[.B{stroke-width:1.311}.C{fill:#fff}.D{fill-rule:evenodd}.E{stroke-width:.231}.F{stroke-width:1.406}.G{stroke-width:.232}.H{stroke-width:4.388}.I{stroke-width:1.229}]]></style><defs><clipPath id="A"><path fill-opacity=".67" d="M0 0h640v480H0z"/></clipPath><path id="B" d="M64.966 396.07l9.723.443.442 5.745 7.955 5.303 6.187-6.629 7.513 5.303-7.07 5.746 1.767 7.955 8.838-.442v10.607l-7.07-.442-3.536 6.629 7.955 7.513-6.187 6.187-6.63-6.629-9.722 2.652.442 9.723-10.607.884-1.326-9.281-8.839-4.862-4.861 6.629-7.514-4.861 4.42-7.513-5.304-4.862H34.03l-.442-13.7 7.513.884 5.304-7.955-6.187-6.187 7.955-7.071 5.745 5.745 9.723-1.768 1.326-5.746z"/><path id="C" d="M38.976 474.8l-10.63 10.63m17.717-10.63l-10.63 10.63m17.716-10.63l-10.63 10.63m17.717-10.63l-10.63 10.63m17.716-10.63l-10.63 10.63m17.717-10.63l-10.63 10.63m17.717-10.63l-10.63 10.63m17.716-10.63l-10.63 10.63m17.717-10.63l-10.63 10.63m17.716-10.63l-10.63 10.63m17.717-10.63l-10.63 10.63m17.717-10.63l-10.63 10.63M88.582 474.8l-10.63 10.63m46.063-10.63l-10.63 10.63m17.717-10.63l-10.63 10.63m17.717-10.63l-10.63 10.63m17.717-10.63l-10.63 10.63m-.002-10.63l10.63 10.63m-17.71-10.63l10.63 10.63m-17.72-10.63l10.63 10.63m-17.72-10.63l10.63 10.63m-17.71-10.63l10.63 10.63m-17.72-10.63l10.63 10.63m-17.72-10.63l10.63 10.63m-17.71-10.63l10.63 10.63m-17.72-10.63l10.63 10.63m-17.72-10.63l10.63 10.63m-17.71-10.63l10.63 10.63M56.693 474.8l10.63 10.63m17.721-10.63l10.63 10.63M49.607 474.8l10.63 10.63M42.52 474.8l10.63 10.63M35.434 474.8l10.63 10.63M28.347 474.8l10.63 10.63"/><path id="D" d="M38.976 535.036l-10.63 10.63m17.717-10.63l-10.63 10.63m17.716-10.63l-10.63 10.63m17.717-10.63l-10.63 10.63m17.716-10.63l-10.63 10.63m17.717-10.63l-10.63 10.63m17.717-10.63l-10.63 10.63m17.716-10.63l-10.63 10.63m17.717-10.63l-10.63 10.63m17.716-10.63l-10.63 10.63m17.717-10.63l-10.63 10.63m17.717-10.63l-10.63 10.63m-17.717-10.63l-10.63 10.63m46.063-10.63l-10.63 10.63m17.717-10.63l-10.63 10.63m17.717-10.63l-10.63 10.63m17.717-10.63l-10.63 10.63m-.002-10.63l10.63 10.63m-17.71-10.63l10.63 10.63m-17.72-10.63l10.63 10.63m-17.72-10.63l10.63 10.63m-17.71-10.63l10.63 10.63m-17.72-10.63l10.63 10.63m-17.72-10.63l10.63 10.63m-17.71-10.63l10.63 10.63m-17.72-10.63l10.63 10.63m-17.72-10.63l10.63 10.63m-17.71-10.63l10.63 10.63m-17.721-10.63l10.63 10.63m17.721-10.63l10.63 10.63m-46.067-10.63l10.63 10.63m-17.717-10.63l10.63 10.63m-17.716-10.63l10.63 10.63m-17.717-10.63l10.63 10.63"/><path id="E" d="M538.58 531.5c1.717 166.56 24.803 201.97 3.543 201.97s-31.89-92.07-31.89-205.51 14.173-205.51 35.433-205.51-8.913 31.909-7.086 209.06z"/><path id="F" d="M531.5 359.64c0-165.27 7.937-299.41 17.717-299.41s17.716 134.13 17.716 299.41H531.5z"/><path id="G" d="M531.5 359.64c0-165.27 7.937-299.41 17.717-299.41s17.716 134.13 17.716 299.41"/><path id="H" d="M563.39 301.18v60.236h-28.347V301.18h28.347z"/><path id="I" d="M559.84 304.72v53.15h-21.26v-53.15h21.26z"/><path id="J" d="M542.13 311.81h14.173v38.976H542.13zm0 0l14.173 38.976m-14.173.004l14.173-38.976M542.13 113.39h14.173"/><path id="K" d="M265.75 396.85v17.717c35.433 5.906 70.866 5.906 106.3 0V396.85c-35.433 5.906-70.866 5.906-106.3 0z"/><path id="L" d="M478.35 237.4c-5.888 0-10.63 6.608-10.63 14.816v16.432c0 8.208 4.742 14.816 10.63 14.816s10.63-6.608 10.63-14.816v-16.432c0-8.208-4.741-14.816-10.63-14.816zm0-7.087c-9.814 0-17.716 8.259-17.716 18.519v23.198c0 10.26 7.902 18.52 17.716 18.52s17.717-8.26 17.717-18.52v-23.198c0-10.26-7.902-18.519-17.717-18.519z"/></defs><g clip-path="url(#A)"><g class="D"><path fill="#ef2d29" d="M-3.299-21.609h702.27v553.02H-3.299z"/><path fill="#009025" d="M174.57 317.33h535.76v207.56H174.57z"/><path d="M174.57-35.415h564.88v190.08H174.57z" class="C"/></g><g stroke="#ef2d28"><g class="D C"><g transform="matrix(.19848 0 0 .17744 111.26 -13.444)"><rect rx="11.298" ry="11.851" height="85.039" width="138.19" y="467.72" x="17.717" class="F"/><g class="B"><rect rx="10.719" ry="10.864" height="77.953" width="131.1" y="471.26" x="21.26"/><use href="#B" transform="matrix(.68108 0 0 .5852 37.972 260.74)"/><ellipse transform="matrix(.65819 0 0 .70224 38.845 209.62)" cx="68.944" rx="11.049" cy="426.78" ry="9.944"/><use href="#C"/><use href="#D"/></g></g><g transform="matrix(.19848 0 0 .17744 19.131 -14.073)"><rect rx="11.298" ry="11.851" height="85.039" width="138.19" y="467.72" x="17.717" class="F"/><g class="B"><rect rx="10.719" ry="10.864" height="77.953" width="131.1" y="471.26" x="21.26"/><use href="#B" transform="matrix(.68108 0 0 .5852 37.972 260.74)"/><ellipse transform="matrix(.65819 0 0 .70224 38.845 209.62)" cx="68.944" rx="11.049" cy="426.78" ry="9.944"/><use href="#C"/><use href="#D"/></g></g><use href="#E" transform="matrix(-.32136 -.12684 -.20158 .20221 345.89 61.391)" class="B"/><path d="M36.942 124.874l11.956 3.144c-11.252 10.688-23.911 15.089-27.428 13.203s6.33-6.287 15.472-16.347z" class="E"/><path d="M36.941 126.135l9.846 2.515c-10.961 10.277-21.803 13.203-24.608 11.946-2.821-1.257 5.856-4.788 14.762-14.461z" class="G"/></g><g fill="none" class="E"><path d="M73.666 99.095l-.175 1.164c0 .396-.04.699-.087 1.009-.111.27-.092.521-.437.621-.237.327-.386.411-.699.543-.213.164-.537.328-.874.466a1.81 1.81 0 0 1-1.048.078c-.306-.189-.532-.385-.786-.543l-.175-.853c.094.251.16.654.175 1.009-.034.387-.177.556-.349.853m1.224.851l-.087-.078c.207.184.123.096-.349-.155-.339-.155-.701-.237-1.136-.31H67.64a4 4 0 0 0-1.136.155c-.246.219-.614.343-.874.543-.266.161-.38.351-.524.621-.238.211-.392.537-.612.698-.098.356-.299.344-.437.621.412.028.742.078.961.31.363.167-.305-.163-.437-.31-.286-.077-.36-.155-.786-.155-.398-.112-.64.091-1.048.155a1 1 0 0 1-.612.155m3.583 1.631c-.178.009-.99.142-1.311 0-.357-.086-.569-.253-.786-.543-.107-.21 0 .372 0 .621-.04.457-.191.461-.437.776-.254.144-.521.348-.786.466-.22.17-.491.283-.786.388-.265.111-.575.225-.786.388-.292.185-.264.407-.437.698.033.379.102.595.349.776.103.262.335.522.524.698.216.356.455.524-.087.621-.298.113-.465.024-.786 0m-.175.542a22.08 22.08 0 0 1-1.31-.388H57.68c-.474.032-.564.156-.961.31-.256.232-.432.393-.786.543-.187.215-.553.581-.699.853-.104.265-.175.623-.175 1.009.006.453.14.53.175.931a2.31 2.31 0 0 0 .524.931c.037.098.064.122.175.155m.12 1.012c-.037 0-.119.198-.248.367-.281.285-.317.306-.744.306-.385-.014-.35-.15-.62-.245-.128-.197-.287-.353-.434-.612-.1-.16-.188-.405-.31-.551-.113-.182-.254-.319-.372-.49-.116-.049-.161-.096-.31-.122.357.057.389.183.62.367l.31.551c.036.262.12.468.124.796 0 .339-.002.575-.124.857-.146.151-.254.308-.434.429-.143.138-.322.327-.434.49l-.558.367c-.187.108-.389.219-.682.245-.364-.026-.472-.127-.744-.245l-.62-.429c-.162-.112-.326-.333-.434-.49-.336-.083-.549-.05-.744.122a1.63 1.63 0 0 0-.434.429c-.101.05-.271.195-.372.245m.732.148c.099.041.459.289.617.382.099.322.256.498.308.841.084.331.077.696.077 1.07-.085.391-.249.68-.386.994-.244.164-.366.285-.694.459a7.1 7.1 0 0 1-1.003.076c-.235.078-.693.115-.925 0-.343-.046-.599-.184-.848-.306-.285-.16-.46-.311-.771-.459-.151-.22-.386-.423-.617-.688-.192-.257-.333-.402-.463-.688.114.326.287.611.386.917.175.325.277.441.308.841.107.32.077.704.077 1.07-.034.248-.052.714-.154.917v.229m-7.315 1.218v.111c0-.299-.008-.147.124.444.234.259.783.331 1.24.222.401-.296.389-.521 1.116-.665.703.045.971.227 1.365.444.467.209.682.314.992.776.154.376.24.631-.248.776-.388.246-.849.381-1.365.444-.573 0-.986-.06-1.241.222-.394.365-.372.581-.372 1.22-.132.197-.159.78-.248.998-.345.146-.547.222-1.116.222-.134-.343-.282-.962-.372-1.331-.097-.399-.127-.954-.372-1.22a3.14 3.14 0 0 0-.868-.776c-.152-.19-.441-.349-.744-.444.487.222.556.462.62.998-.428.191-.542.325-1.24.333-.687-.052-.852-.207-1.116-.554-.048.556-.247.743-.372 1.22-.255.336-.364.679-.62 1.109.109.534.345.561.372 1.22.161.432.144.849.496 1.109.157.172.275.205.62.222-.718 0-1.137-.069-1.613-.333-.368-.202-.646-.455-.993-.665-.439-.284-.982-.547-1.489-.666-.573 0-.986-.06-1.241.222-.351.224-.587.612-.744 1.109-.115.576-.159.959.124 1.331.21.427.257.594 0 1.109-.288.361-.718.403-1.365.555a4.95 4.95 0 0 1-1.24-.222"/></g><g class="D"><g transform="matrix(-.19848 0 0 .17744 145.247 -13.446)" class="B"><g class="C"><use href="#F" transform="matrix(1.4216 -.73423 .46161 .89375 -716.84 541.07)"/><use href="#G" transform="matrix(1.1373 -.58739 .44532 .86221 -554.83 471.77)"/><g transform="matrix(1.4216 -.73423 .45889 .88849 -716.67 541.39)"><use href="#H"/><use href="#I"/><use href="#J"/></g></g><circle fill="#ef0000" transform="matrix(1.6046 .45375 -.36215 1.5787 -734.9 -170.85)" cx="545.67" cy="92.126" r="3.543"/></g><g class="C"><use href="#E" transform="matrix(.32136 -.12684 .20158 .20221 -181.512 60.764)" class="B"/><path d="M127.436 124.247l-11.956 3.144c11.252 10.688 23.911 15.089 27.428 13.203s-6.33-6.287-15.472-16.347z" class="E"/><path d="M127.438 125.507l-9.846 2.515c10.961 10.277 21.803 13.203 24.608 11.946 2.821-1.257-5.856-4.788-14.762-14.461z" class="G"/></g></g><g fill="none" class="E"><path d="M90.711 98.468l.175 1.164c0 .396.04.699.087 1.009.111.27.092.521.437.621.237.327.386.411.699.543.213.164.537.328.874.466a1.81 1.81 0 0 0 1.048.078l.786-.543.175-.853c-.094.251-.16.654-.175 1.009.034.387.177.556.349.853m-1.223.851l.087-.078c-.207.184-.123.096.349-.155.339-.155.701-.237 1.136-.31h1.223a4 4 0 0 1 1.136.155c.246.219.614.343.874.543.266.161.38.351.524.621.238.211.392.537.612.698.098.356.299.344.437.621-.412.028-.742.078-.961.31-.363.167.305-.163.437-.31.286-.077.36-.155.786-.155.398-.112.64.091 1.048.155a1 1 0 0 0 .612.155m-3.582 1.631c.178.009.99.142 1.311 0 .357-.086.569-.253.786-.543.107-.21 0 .372 0 .621.04.457.191.461.437.776.254.144.521.348.786.466.22.17.491.283.786.388.265.111.575.225.786.388.292.185.264.407.437.698-.033.379-.102.595-.349.776-.103.262-.335.522-.524.698-.216.356-.455.524.087.621.298.113.465.024.786 0m.174.541a22.08 22.08 0 0 0 1.31-.388h1.223c.474.032.564.156.961.31.256.232.432.393.786.543.187.215.553.581.699.853.104.265.175.623.175 1.009-.006.453-.14.53-.175.931a2.31 2.31 0 0 1-.524.931c-.037.098-.064.122-.175.155m-.12 1.013c.037 0 .119.198.248.367.281.285.317.306.744.306.385-.014.35-.15.62-.245.128-.197.287-.353.434-.612.1-.16.188-.405.31-.551.113-.182.254-.319.372-.49.116-.049.161-.096.31-.122-.357.057-.389.183-.62.367l-.31.551c-.036.262-.12.468-.124.796 0 .339.002.575.124.857.146.151.254.308.434.429.143.138.322.327.434.49l.558.367c.187.108.389.219.682.245.364-.026.472-.127.744-.245l.62-.429c.162-.112.326-.333.434-.49.336-.083.549-.05.744.122a1.63 1.63 0 0 1 .434.429c.101.05.271.195.372.245m-.73.147c-.099.041-.459.289-.617.382-.099.322-.256.498-.308.841-.084.331-.077.696-.077 1.07.085.391.249.68.386.994.244.164.366.285.694.459a7.1 7.1 0 0 0 1.003.076c.235.078.693.115.925 0 .343-.046.599-.184.848-.306.285-.16.46-.311.771-.459.151-.22.386-.423.617-.688.192-.257.333-.402.463-.688-.114.326-.287.611-.386.917-.175.325-.277.441-.308.841-.107.32-.077.704-.077 1.07.034.248.052.714.154.917v.229m7.314 1.219v.111c0-.299.008-.147-.124.444-.234.259-.783.331-1.24.222-.401-.296-.389-.521-1.116-.665-.703.045-.971.227-1.365.444-.467.209-.682.314-.992.776-.154.376-.24.631.248.776.388.246.849.381 1.365.444.573 0 .986-.06 1.241.222.394.365.372.581.372 1.22.132.197.159.78.248.998.345.146.547.222 1.116.222.134-.343.282-.962.372-1.331.097-.399.127-.954.372-1.22a3.14 3.14 0 0 1 .868-.776c.152-.19.441-.349.744-.444-.487.222-.556.462-.62.998.428.191.542.325 1.24.333.687-.052.852-.207 1.116-.554.048.556.247.743.372 1.22.255.336.364.679.62 1.109-.109.534-.345.561-.372 1.22-.161.432-.144.849-.496 1.109-.157.172-.275.205-.62.222.718 0 1.137-.069 1.613-.333.368-.202.646-.455.993-.665.439-.284.982-.547 1.489-.666.573 0 .986-.06 1.241.222.351.224.587.612.744 1.109.115.576.159.959-.124 1.331-.21.427-.257.594 0 1.109.288.361.718.403 1.365.555a4.95 4.95 0 0 0 1.24-.222"/></g><g class="D"><g transform="matrix(.19848 0 0 .17744 19.131 -14.073)"><g class="C B"><use href="#F" transform="matrix(1.4216 -.73423 .46161 .89375 -716.84 541.07)"/><use href="#G" transform="matrix(1.1373 -.58739 .44532 .86221 -554.83 471.77)"/><g transform="matrix(1.4216 -.73423 .45889 .88849 -716.67 541.39)"><use href="#H"/><use href="#I"/><use href="#J"/></g></g><circle fill="#ef0000" transform="matrix(1.6046 .45375 -.36215 1.5787 -734.9 -170.85)" cx="545.67" cy="92.126" r="3.543" class="B"/><g class="C"><g class="B"><path d="M305.61 396.85c0 124.02.491 170.76-5.62 177.17-5.79 6.857-167.12 0-167.12 35.433s132.87 70.867 172.74 70.866c53.149 0 79.723-35.433 79.723-106.3v-177.17H305.61z" transform="matrix(1.3333 0 0 1 -141.74 0)"/><use href="#K" transform="matrix(1 0 0 .99999 0 35.437)"/><use href="#K" transform="matrix(1 0 0 .99999 0 .004)"/><use href="#K" transform="matrix(1 0 0 .99999 0 17.721)"/><use href="#K" transform="matrix(1 0 0 .99999 0 53.154)"/></g><g class="H"><ellipse transform="matrix(.54545 0 0 .14383 130.46 394.32)" cx="256.89" rx="8.858" cy="210.83" ry="26.575"/><ellipse transform="matrix(.54545 0 0 .14383 130.46 391.13)" cx="292.32" rx="8.858" cy="246.26" ry="26.575"/><g transform="matrix(.54545 0 0 .14383 130.46 390.49)"><ellipse cx="327.76" rx="8.858" cy="263.98" ry="26.575"/><ellipse cx="363.19" rx="8.858" cy="263.98" ry="26.575"/></g><ellipse transform="matrix(.54545 0 0 .14383 130.46 391.13)" cx="398.62" rx="8.858" cy="246.26" ry="26.575"/><ellipse transform="matrix(.54545 0 0 .14383 130.46 394.32)" cx="434.06" rx="8.858" cy="210.83" ry="26.575"/></g><g class="B"><path d="M265.75 485.43l106.3 95.669m-95.67-95.669l95.669 85.039M290.55 488.98l81.496 70.866M301.18 488.98l70.866 60.237M311.81 488.98l60.236 49.607M322.44 488.98l49.606 38.977M333.07 488.98l38.976 28.347M343.7 488.98l28.346 21.26m-17.716-21.26l17.716 14.174m-7.086-14.174l7.086 7.087m-106.296-.007l106.3 95.669m0-106.299l-116.93 106.3m106.3-106.3l-102.76 92.126m88.59-88.576l-81.496 70.866m70.866-70.866l-70.866 60.237m60.236-60.237l-60.236 49.607m49.606-49.607l-49.606 38.977m38.976-38.977l-38.976 28.347M294.1 488.98l-28.346 21.26m17.716-21.26l-17.716 14.174m7.086-14.174l-7.086 7.087m106.296-.007l-116.93 106.3m116.93-95.67l-116.93 106.3m116.93-95.67l-116.93 106.3m116.93-95.67l-116.93 106.3m116.93-95.67l-116.93 106.3m116.93-95.67l-116.93 106.3m116.93-95.67l-116.93 106.3m116.93-95.67l-116.93 106.3m116.93-95.67l-109.84 99.21m109.84-88.58l-99.212 88.583M368.5 605.9l-77.953 70.866m74.413-56.686l-63.779 56.693m56.689-38.983l-31.89 28.346M265.75 506.69l102.76 92.126m-102.763-81.489l102.76 92.126m-102.76-81.496l99.213 88.583m-99.213-77.953l99.213 88.583m-99.207-77.957l95.67 85.039m-99.219-77.949l95.669 85.04m-95.669-74.41l88.583 77.953m-92.124-70.873l88.583 77.953m-92.132-70.863l85.04 74.409m-85.041-63.782l81.496 70.865m-81.496-60.235l70.866 63.779"/><use href="#K" transform="matrix(1 0 0 .99999 0 70.87)"/><path d="M255.114 612.99l63.78 56.692m-63.78-46.062l56.693 49.606m-56.694-38.976l49.606 42.519m-49.605-31.889l35.434 31.889m-35.434-21.259l28.347 24.804m-28.348-14.174l17.716 14.173"/></g><g class="H"><ellipse transform="matrix(.54545 0 0 .14383 130.46 447.47)" cx="256.89" rx="8.858" cy="210.83" ry="26.575"/><ellipse transform="matrix(.54545 0 0 .14383 130.46 444.28)" cx="292.32" rx="8.858" cy="246.26" ry="26.575"/><g transform="matrix(.54545 0 0 .14383 130.46 443.64)"><ellipse cx="327.76" rx="8.858" cy="263.98" ry="26.575"/><ellipse cx="363.19" rx="8.858" cy="263.98" ry="26.575"/></g><ellipse transform="matrix(.54545 0 0 .14383 130.46 444.28)" cx="398.62" rx="8.858" cy="246.26" ry="26.575"/><ellipse transform="matrix(.54545 0 0 .14383 130.46 447.47)" cx="434.06" rx="8.858" cy="210.83" ry="26.575"/></g><g class="B"><path d="M113.39 651.97l127.55-74.41m-134.637 70.867l120.47-70.87M102.76 641.341l109.84-63.78M99.217 634.254l95.669-56.693M92.127 627.16l88.583-49.606m-85.043 38.983l60.236-35.433m-63.776 28.35l46.063-28.346m-46.066 17.709l31.89-17.717m-.001 74.407l120.47-70.86m-109.836 74.407l113.38-67.32M145.28 662.6l106.3-63.78m-95.67 67.324l88.583-53.15m-74.41 53.142l77.952-46.063m-67.322 49.607l67.323-38.976m-56.7 42.523l53.15-31.89m-38.976 31.896l42.52-24.803m-28.35 28.347l28.347-17.717m-14.164 17.713l17.717-10.63"/><use href="#K" transform="matrix(0 1 -.99999 0 655.51 308.27)"/><path d="M49.61 623.624l42.52-35.433M49.61 598.8l42.52 42.52"/><path d="M260.15 387.99l5.595 26.575c35.433 5.906 65.271 5.906 100.7 0l11.19-26.575c-35.433 5.906-82.056 5.906-117.49 0z" transform="matrix(0 .63333 -.8 0 423.78 416.34)"/><path d="M258.66 350.79v-17.865c-10.63.149-17.716-10.481-17.717-21.26l-35.432.149c0 10.63-7.087 21.26-17.717 21.26v17.716h70.866z" transform="matrix(1.4983 0 0 1 -15.633 53.149)"/></g><path stroke-width="1.356" d="M296.09 343.7h45.506v21.26H296.09zm3.79-21.26h37.922v21.26H299.88zm0-21.26h37.922v21.26H299.88zm3.79-28.35h30.337v28.346H303.67z"/><path stroke-width="1.413" d="M302.36 248.03h32.953v24.803H302.36z"/><g class="B"><g transform="matrix(1.0333 0 0 1 75.354 63.779)"><ellipse cx="237.4" rx="42.52" cy="161.22" ry="33.661"/><path d="M258.66 159.45c0 9.291 10.63 24.803 10.63 24.803-7.696 6.093-20.154 10.63-31.889 10.63s-26.349-2.528-31.89-10.63c0 0 10.63-15.512 10.63-24.803s-10.63-21.26-10.63-21.26c7.696-6.093 20.154-10.63 31.89-10.63s24.193 4.537 31.889 10.63c0 0-10.63 11.969-10.63 21.26z"/><path d="M251.58 159.45c0 9.291 10.63 28.346 10.63 28.346-7.696 6.093-13.068 7.087-24.803 7.087s-19.262 1.015-24.803-7.087c0 0 10.63-19.055 10.63-28.346s-10.63-24.803-10.63-24.803c7.696-6.093 13.067-7.087 24.803-7.087s17.107.994 24.803 7.087c0 0-10.63 15.512-10.63 24.803z"/></g><circle transform="matrix(1.0333 0 0 1 75.354 60.236)" cx="194.88" cy="166.54" r="10.63"/><circle transform="matrix(1.0333 0 0 1 163.23 60.236)" cx="194.88" cy="166.54" r="10.63"/><circle transform="matrix(1.0333 0 0 1 119.29 60.236)" cx="194.88" cy="166.54" r="10.63"/><circle transform="matrix(1.0333 0 0 1 119.29 24.803)" cx="194.88" cy="166.54" r="10.63"/><circle transform="matrix(1.0702 0 0 1 79.931 226.77)" cx="194.88" cy="166.54" r="10.63"/><circle transform="matrix(1.0702 0 0 1 140.61 226.77)" cx="194.88" cy="166.54" r="10.63"/><path d="M212.6 311.81h49.607l-24.803 31.89-24.804-31.89z" transform="matrix(1.0702 0 0 1 64.762 53.149)"/><circle transform="matrix(1.427 0 0 1.3333 40.745 167.72)" cx="194.88" cy="166.54" r="10.63"/></g></g></g><g transform="matrix(.19848 0 0 .17744 18.78 -19.095)" class="C"><g class="I"><rect rx="4.349" ry="3.687" height="21.26" width="81.496" y="524.41" x="262.2"/><path d="M368.51 506.69c-9.814 0-17.716 8.259-17.716 18.519v16.111c0 10.26 7.902 18.52 17.716 18.52s17.717-8.26 17.717-18.52v-16.111c0-10.26-7.902-18.519-17.717-18.519zm0 7.087c-5.888 0-10.63 6.608-10.63 14.816v9.345c0 8.208 4.742 14.816 10.63 14.816s10.63-6.608 10.63-14.816v-9.345c0-8.208-4.741-14.816-10.63-14.816zm-92.13-3.537c-5.888 0-10.63 6.608-10.63 14.816v16.432c0 8.208 4.742 14.816 10.63 14.816s10.63-6.608 10.63-14.816v-16.432c0-8.208-4.741-14.816-10.63-14.816zm0-7.087c-9.814 0-17.716 8.259-17.716 18.519v23.198c0 10.26 7.902 18.52 17.716 18.52s17.717-8.26 17.717-18.52v-23.198c0-10.26-7.902-18.519-17.717-18.519z"/><path d="M248.03 517.32c-5.888 0-10.63 6.608-10.63 14.816l-.001 3.864c0 8.208 4.742 14.816 10.63 14.816s10.63-6.608 10.63-14.816l.001-3.864c0-8.208-4.741-14.816-10.63-14.816zm0-7.087c-9.814 0-17.716 8.259-17.716 18.519l-.001 10.63c0 10.26 7.902 18.52 17.716 18.52s17.717-8.26 17.717-18.52l.001-10.63c0-10.26-7.902-18.519-17.717-18.519z"/></g><g stroke-width=".867"><use href="#L" transform="matrix(1.8 0 0 1.1176 -655.51 242.2)"/><use href="#L" transform="matrix(1.8 0 0 1.1176 -425.2 245.74)"/></g><g class="I"><rect rx="2.269" ry="3.687" height="21.26" width="42.52" y="524.41" x="375.59"/><rect rx="1.324" ry="4.916" height="28.346" width="24.803" y="520.87" x="336.61"/><rect rx="1.324" ry="4.916" height="28.346" width="24.803" y="520.87" x="219.69"/><rect rx="2.647" ry="6.145" height="35.433" width="49.606" y="517.32" x="141.73"/><rect rx="2.458" ry="6.145" height="35.433" width="46.063" y="520.87" x="450"/></g></g></g></g></g></svg>