<svg xmlns="http://www.w3.org/2000/svg" height="480" width="640" xmlns:v="https://vecta.io/nano"><g fill-rule="evenodd"><path d="M1.644 0l-.5 479.985H641.13L1.64 0z"/><path d="M640.63 479.984l.5-479.985H1.145l639.49 479.985z" fill="red"/></g><path d="M396.285 119.445l-8.524-.442c-2.619-6.149-10.018-8.456-14.569-5.868-4.129.354-25.751-.325-25.751-.325l15.806 6.901c3.907 10.529 17.493 13.006 17.493 13.006-1.205 19.408-19.715-2.506-35.254 8.554-11.099 6.636-11.23 14.561-17.229 27.364-1.865 3.561-9.679 12.743-9.679 12.743l13.053-1.106-4.173 5.53 15.539-2.212s-2.087 1.736-3.33 3.052c2.302.449 17.759-3.605 17.759-3.605l-1.11 4.977c7.925-3.163 17.759-6.37 17.759-6.37s3.485 2.898 6.66 4.158l2.22-8.848 8.88 2.212 2.22-8.848c13.319 17.696 17.759 35.391 42.178 39.815l-2.22-8.848c6.793 2.898 19.402 9.047 19.402 9.047l1.909-4.048c10.589 7.565 19.38 7.432 25.307 8.273l-4.44-11.06c.289.111 4.418 2.234 4.44 2.212l-6.66-17.696 6.66 2.212-8.88-13.272 3.33-2.212-1.11-6.636c13.319 4.424 31.078 11.06 33.298 26.543 2.22 24.331-24.419 30.967-42.178 28.755 13.319 11.06 37.738 6.636 48.838-4.424 4.44-4.424 6.66-11.06 8.88-17.696 2.22 6.636 6.66 15.484 6.66 24.331-2.22 19.907-28.859 26.543-46.618 28.755 19.979 11.06 55.497-2.212 57.717-30.967 0-24.331-15.539-35.391-22.199-46.451-.999-4.026-2.22-11.9-2.22-11.9.861.254 6.66 3.075 6.66 3.075s-3.929-7.322-4.44-8.87c0 0-6.926-18.801-9.435-22.96.413-.232 4.995.774 4.995.774l-18.181-22.717 5.15-.531s-21.133-16.612-26.927-18.713l6.66-2.212c-13.319-6.636-28.859-2.212-42.178 6.636l2.22-6.636-4.062.376v-7.587l4.062-6.061-6.66-2.212 4.44-11.06-6.66 2.212 2.22-11.06s-4.973 2.3-7.992 1.969c.111.243 3.53-7.565 3.53-7.565-2.109-3.296.022-9.887.022-9.887-15.539 2.212-17.759 4.424-26.639 17.696-13.319 24.331-8.88 35.391-6.66 59.722z" stroke="#fc0" fill="#fc0" stroke-width="2.36"/><g fill-rule="evenodd"><path d="M480.153 155.805c1.157 1.902 13.757 7.95 23.238 13.307-2.544-10.197-21.042-12.442-23.238-13.307z" stroke="red" fill="red" stroke-width="3.147"/><path fill="#fff" d="M174.95 399.034l-14.12-8.98-18.95 9.046 4.202-16.147-14.487-15.174 16.718-1.017 9.996-18.404 6.127 15.528 20.667 3.783-12.929 10.617zm36.234-78.944l-6.55-3.119-6.296 3.605.959-7.188-5.388-4.844 7.142-1.306 2.965-6.613 3.457 6.37 7.221.774-5.006 5.243zm31.929-45.279l-14.363-6.99-13.923 7.831 2.222-15.771-11.785-10.772 15.746-2.765 6.63-14.488 7.526 14.067 15.872 1.814-11.1 11.458zm-65.707-63.04l-16.92-8.447-16.573 9.097 2.835-18.642-13.808-12.895 18.671-3.075 8.043-17.07 8.704 16.745 18.776 2.347-13.29 13.422zm-60.801 65.473l-17.062-10.087-17.016 10.308 4.362-19.288-15.11-12.918 19.759-1.836 7.676-18.315 7.85 18.16 19.854 1.615-14.906 13.05z"/></g></svg>