<svg xmlns="http://www.w3.org/2000/svg" height="480" width="640" xmlns:v="https://vecta.io/nano"><path fill="#0038a8" d="M0 0h640v240H0z"/><path fill="#ce1126" d="M0 240h640v240H0z"/><path d="M415.692 240L0 480V0" fill="#fff"/><g transform="matrix(5.33333 0 0 5.33333 149.333 240)" fill="#fcd116"><circle r="9"/><g id="A"><g id="B"><g id="C"><path d="M-19 0l1.178 1.178L0 0-17.822-1.178z"/><path id="D" d="M-17.006 2.232l.962.962L0 0z"/><use href="#D" transform="scale(1 -1)"/></g><use href="#C" transform="rotate(45)"/></g><use href="#B" transform="rotate(90)"/></g><use href="#A" transform="scale(-1)"/><g transform="translate(-2.02)"><g id="E" transform="translate(37.962)"><path id="F" d="M5 0L1.618 1.176l-.073 3.58-2.163-2.854-3.427 1.037L-2 0z"/><use href="#F" transform="scale(1 -1)"/></g><use href="#E" transform="rotate(120)"/><use href="#E" transform="rotate(240)"/></g></g></svg>