<svg xmlns="http://www.w3.org/2000/svg" height="480" width="640" xmlns:v="https://vecta.io/nano"><style><![CDATA[.B{fill:#00d860}.C{fill:#fff}.D{fill:#cf6200}.E{stroke:#000}.F{stroke-width:.619}]]></style><path d="M640.013 480.02V.03H.003v479.99h640.01z" fill="#006"/><path d="M-.006 73.341h76.034L-.006 26.768V.03h43.503L149.86 64.75V.03h59.892v64.72L316.11.03h43.88v26.738L283.58 73.34h76.41v73.37h-76.41l76.41 46.573v26.746h-43.88l-106.36-64.73v64.73h-59.892V155.3L43.497 220.03H-.006v-26.746l76.034-46.574H-.006V73.341z" class="C"/><path d="M331.685.027L211.525 73.39h28.764L359.983.027h-28.298zm28.313 220.003l-119.822-73.323h28.89l90.932 55.843v17.48zM120.38 73.372L-.01.009v17.52l91.373 55.843h29.016zm-.251 73.314L-.013 220.009h28.748l120.16-73.323h-28.766zM-.006 88.56h162.621V.027h35.195V88.56h162.18v42.962H197.81v88.505h-35.195v-88.505H-.005V88.56z" fill="#ce1126"/><path d="M602.1 265.943c-.206 73.277-11.767 152.22-106.61 189.823-94.847-37.603-106.408-116.547-106.615-189.823H602.1z" fill="#8fc5ff" stroke="#fff" stroke-width="4.989"/><g class="E"><path d="M495.463 455.775c42.996-17.045 68.877-42.592 84.341-72.254-2.315.09-7.164-.049-9.26-.193-2.333-.153-90.94-9.054-101.433-12.904-9.129-3.347-43.96 2.845-60.218 8.655 15.168 31.55 41.439 58.803 86.57 76.696z" fill="#366cc9" stroke-width="4.944"/><path d="M429.201 410.325c1.449-.471 4.217-.359 5.307-.162 1.283.233 1.516.35 1.983-1.05s1.516-1.05 2.333-.35 2.912.35 3.728-.817 1.05-1.045 1.866-.233 1.166.583 1.983.35 2.216-1.162 2.916-2.445 1.745-1.75 2.328-1.05 1.166 1.05 1.983.933 1.05.7.933 1.745.35 1.283 2.333-.345c1.75 1.745 2.328 1.045 2.328-.817s-.462-8.745-1.162-9.678-1.4-3.616-1.516-5.716c-.22-3.962-.233-4.195-5.016-6.645 0-1.4-.35-1.983-3.728-1.75.117-.467-.467-1.866-1.166-2.45s-.816-.817-.467-2.445c1.4.117 2.916-.117 3.733-1.283s3.495-.933 5.128-.233 3.733.817 6.877.35c1.166-.933 3.149-1.983 5.249-3.15s2.678-1.633 2.795-3.266c.301-4.186-1.166-8.978-2.333-11.19s-1.512-5.016-3.145-8.516c-1.777-3.809-1.75-4.778-3.733-7.111-.543-.642-1.166-1.167-1.283-2.445s-.583-3.033-1.978-4.316c-3.526-3.235-4.899-13.644-6.299-21.339-.803-4.41-.233-14.806-2.095-16.439-3.149-2.566-4.666-2.1-6.765-2.916-1.516-2.1-2.212-6.295-3.611-10.028-2.216.35-3.733 2.683-5.249 3.5s-1.75.817-1.75 2.916-1.166 5.012-3.261 8.278-5.599 2.333-8.51 7.228c-6.415-7.811-6.532-10.028-6.998-12.244s-1.516-2.679-5.128-5.828c0-.933-.467-4.662-.117-6.761-2.683-2.216-4.666-1.866-5.944-.233s-2.216 4.078-4.199 5.012c-1.189 1.512-4.773 5.326-7.707 9.866 2.669 40.578 11.826 80.859 39.357 113.074z" fill="#5d3100" class="F"/></g><path d="M602.1 265.943c.081-27.602-1.454-54.401-.754-77.885-35.441-15.86-82.075-19.122-105.856-19.122s-70.42 3.262-105.861 19.122c.7 23.483-.83 50.282-.754 77.885H602.1z" stroke="#fff" fill="#ff0" stroke-width="4.845"/><path d="M394.613 297.888c1.166 1.867 3.266 5.075 3.499 6.82.817-1.692 1.458-2.445 1.633-3.495s1.4-3.092.933-4.2-.816-1.983.467-1.166 1.032 2.23.753 4.316c-.753 5.711-3.144 6.878-3.494 10.728 3.44 8.102.874 11.019 4.602 18.947.584.35 2.14-.274 2.607-.157 1.978-1.4 3.459-.893 6.254-.31s4.315 2.562 4.315 4.312 0 2.216.584 3.266 1.75 2.683 1.516 3.85c-.233 1.162.233 1.862.583 2.445s-.116 1.867-.466 2.683-.234 1.867 1.166 3.616 4.661 9.095 4.661 13.407.233 6.299 1.983 7.111 2.333 1.517 2.1 3.383.816 11.544 1.05 13.06.816 1.167 1.516 1.984c.695.812 1.162 1.745 3.495 1.745s4.584-.31 6.1-.076c2.1 2.916 3.383 6.878 3.85 9.328s.426 5.792 1.243 5.792 1.633.117 1.4-2.916-.467-3.5-1.517-5.012-1.633-2.216-1.05-3.15.7-2.45.467-3.616-.583-2.912 1.4-.583 2.566 2.916 3.149 3.733.812 2.333.7 3.733.112 1.979.928 1.279 1.866.466 1.4 1.983.117 2.45 1.516 2.916 1.983.817 2.333 1.867 1.516 1.512 1.516-.584-.816-6.532-1.4-7.928-1.049-4.433-1.166-6.182-.466-2.212-1.283-2.562-1.516-.934-1.633-1.75-.816-1.108-1.341-1.108-.987-.409-1.279-.992-.583-.641-1.166-.7-1.516.292-1.808-.641-.7-2.275-1.283-3.033-1.108-.992-1.166-3.612-.117-2.975-.934-3.908-2.216-3.379-2.799-4.429-1.162-2.1-1.162.117c0 2.212 0 3.379 1.395 4.195s1.75.817 1.167 1.983 0 1.983.233 2.8.7 1.633 0 2.445-1.4.584-1.283-.695-.35-2.8-.929-3.85-1.05-1.75-1.75-1.166-1.282-.117-.816-.584.35-.816 0-1.166-.466-.7.117-1.4.583-1.05.233-2.679-2.916-9.794-4.082-11.66-1.05-3.267.466-1.4 2.8 3.5 2.916 5.011c.117 1.517.467 2.45.933 3.033s.817.35 1.05-.933 1.167-.816-.466-3.262-4.666-6.532-5.832-13.877-1.633-12.244-2.8-14.223c-1.162-1.983-1.512-2.45-1.628-4.316s0-3.733-.817-5.128-1.4-1.634-1.516.466.116 6.762.7 7.578.233 2.912.116 4.079-1.951 2.32 1.867 4.666c1.516.933 1.278 2.216 1.05 3.033-.234.812-.467.695-1.284-.583-.816-1.284-1.633-2.334-2.45-3.033s-.932-1.167-.816-2.8.467-2.8 0-3.379-.7-.116-.933.812c-.233.934-.466 3.5-.933 4.2s-.7.233-1.05-1.283.117-3.845.933-6.528 1.283-5.483.584-8.978-.35-4.55-3.033-7.462-5.711-5.716-6.994-9.327c-1.283-3.617-1.516-6.766-2.916-8.4-1.395-1.628-3.378-3.728-4.661-4.311v-5.362c0-1.283-.583-2.1-2.1-1.866s-2.45 1.516-3.378 3.261-1.633.934-2.916 3.967-3.15 4.545-3.15 7.811zm8.434 34.189c.933.583 1.826.973 3.225.273s3.073-2.719 4.94-.735c1.862 1.978 2.911 5.245 2.911 7.81s0 7.346 2.916 10.029 4.428 5.478 4.545 8.978 1.4 8.86 1.75 10.26 1.166 3.03 2.099 3.962 1.633 3.617 1.75 6.412c.116 2.8-.35 4.783 0 6.183s0 2.566-1.05 1.866-1.283-1.05-1.866-2.216-1.283-.934-.7.816 2.333 3.379 3.849 3.379 1.983.233 2.916 1.166 1.045 1.4 2.678 1.4 1.866 0 3.383.467 1.516.233 2.333 0 1.628.466 2.211 1.983 1.983 5.711 1.983 6.878 0 2.333.817 3.5.583 2.333-.35 1.633-.933-.467-1.633-.35-1.167-.234-2.095-.817-.35-.466-1.283-1.866-1.517-1.867-1.517-.817-.116 2.333-.816 1.75-1.05-.583-1.633 0-.817 1.05-1.516-.117-1.517-1.166-2.217-1.4-.7-.233-1.045-1.283-1.4-1.283-2.333-1.283-1.4-.467-1.516-1.166-.7-1.163-1.166-1.513-.234-1.166-.35-1.983-.817-.466-1.283-.7-.817-.116-.817-1.283-.467-1.516-.816-2.333 0-1.633.233-2.562.116-1.516-.579-2.333-.117-1.633-1.983-3.266-2.8-.233-3.382-4.079-1.75-11.777-2.8-13.06-1.745-2.217-2.795-2.567-1.75-.116-1.866-2.333c-.117-2.212-.816-5.011-2.216-6.411s-1.983-1.867-2.683-2.45-.933-1.633 0-3.612.583-4.666.467-5.95c-.117-1.278-.467-2.911-.234-4.31s.117-3.15-.233-4.084-.816-1.166-.233-1.866zm28.083-33.157c-1.579 2.032-3.261 3.733-5.437 5.285s-4.975 2.8-3.423 5.443 2.8 2.956 3.11 4.975.78 3.733 2.332 4.2 2.176.153 2.176 3.419 0 4.509 1.4 5.752 1.242 2.485 1.866 5.442.619 9.328 2.485 13.68 6.065 12.594 5.599 14.304-1.09 2.952.776 4.971 3.109 4.976 3.266 6.685c.152 1.714.467 2.333 2.328 1.714 1.867-.624 2.8-1.247 3.423-2.023s1.862-.62 3.576.31 4.351 1.866 5.904.932 2.332-2.328 3.732-2.328c2.176-1.557 2.952-4.823 3.419-5.752s.157-.933-.777-1.867-.466-2.49-.623-4.042c-.153-1.557-.776-3.886-2.642-7.309s-2.952-7.618-4.195-8.704-1.866-3.733-2.023-4.976-1.553-2.333-2.486-3.266-1.866-2.329-2.952-7.771-1.866-9.328-1.866-10.261-.157-1.09-1.09-1.4-1.4-1.867-1.086-2.643-.314-1.552-.623-2.485 0-2.643.623-3.576.467-3.576-.157-5.752-1.242-4.043-3.732-4.357-2.952-.929-3.885-2.952-1.867-5.595-2.176-6.376-.776-.933-2.642.624-2.486 2.068-2.486 4.976c0 1.866.31 2.485.929 3.576.623 1.085.78 1.4 1.247 4.352s3.109 7.618-.314 10.26-2.952 3.267-2.795 5.13-.933 3.108-1.557.466 0-4.195 1.867-5.438 3.575-2.8 2.332-4.51-1.709-5.751-1.866-7.618-.466-2.49-1.557-1.09z" class="D"/><path d="M403.406 338.538c-.085 1.265.197 2.656.296 3.773.116 1.283.466 3.966-.467 5.95-.933 1.978-.7 3.028 0 3.611l.112.094c1.903-.637 2.15-2.76 1.638-3.787-.543-1.085-.386-2.409.233-3.495s.624-1.71.08-2.49-.546-.776.077-2.952c.548-1.916-.834-1.902-1.97-.704zm19.918 30.15c-.35-1.4-1.632-6.766-1.75-10.26-.116-3.5-1.628-6.3-4.544-8.979-2.274-2.095-2.772-5.46-2.88-8.058-1.709-1.045-2.431-.57-2.288 1.373.153 2.095 2.252 3.11 1.943 6.138-.31 3.033-.31 2.257 1.166 3.733s2.019 2.876 1.243 3.5-.857 1.709.233 2.095 1.167 1.557 1.01 2.642.856 1.324 1.475 2.1.7 2.643.081 3.733-.7 2.795.386 1.867c1.09-.934 1.557-.081 2.41 1.395.74 1.274 1.358.875 2.161.489a9.836 9.836 0 0 1-.646-1.768zm15.164 27.145c-.7 1.4-1.516.933-2.216.233s-1.517-.7-1.167-1.983.234-1.517-.7-2.217a7.21 7.21 0 0 0-.323-.224c-.291-.009-.632-.009-1.076-.009-1.633 0-1.75-.466-2.679-1.4a7.84 7.84 0 0 0-.574-.52c-.018.224-.009.52-.009.87 0 1.283 0 1.05-1.283 1.4s-1.05-1.283-1.283-2.333a3.854 3.854 0 0 0-.202-.628c-1.404-.27-2.884-1.75-3.414-3.334-.583-1.75.117-1.983.7-.816s.817 1.516 1.866 2.216 1.4-.466 1.05-1.866c-.112-.449-.139-.97-.125-1.548-.252-.453-.593-.821-1.041-1.019-1.867-.816-1.283-1.05-1.167-2.566s-.233-1.512-1.4-.7-1.282-.117-1.282-2.445c0-2.333-1.517-2.333-1.862-.7s-.933.583-1.633-1.75-1.633-2.916-1.75-.7c-.099 1.875-.619 2.324-1.84 1.283l.557 3.617c.583 3.845 1.516 2.445 3.383 4.078s1.283 2.45 1.983 3.266.812 1.4.578 2.333-.578 1.746-.233 2.562c.35.817.817 1.167.817 2.333s.35 1.05.816 1.284c.292.143.668.062.942.179.3-.395.574-.88.924-1.23 1.4-1.4 3.5.117 4.2 1.867s1.511 2.217 2.561.817.7-1.167 1.866.116 1.633 1.05 1.633 1.05 1.167-.466 1.983.234 1.283.583 2.795-1.634-.695-1.516-1.395-.116zm4.127-63.981c.462-3.418.153-6.837 1.552-8.085 1.4-1.242 3.11-3.728 2.952 1.557-.152 5.286-.31 4.976-1.395 6.219s-2.023 1.552-.933 3.576 1.243 2.176 1.086 5.285-.153 4.352 1.09 5.909 1.552 1.71 1.866 3.419 1.395 4.042 2.795 5.285 2.956 4.819 3.109 7.309 2.333 3.11 4.351 4.819c2.024 1.71-.462 2.952-2.018 2.176s-.933 0-1.867 1.086-1.242 1.247-2.018-.62-3.423-3.109-4.666-3.575-2.328-2.49-3.419-4.51c-.933-1.736-2.78-3.006-4.468-3.136.467 1.31.718 2.338.583 2.827-.466 1.71-1.09 2.952.777 4.971s3.108 4.976 3.266 6.685c.152 1.714.466 2.333 2.328 1.714s2.8-1.247 3.423-2.023 1.862-.62 3.575.31 4.352 1.866 5.904.932 2.333-2.328 3.733-2.328c2.175-1.557 2.952-4.823 3.418-5.752s.157-.933-.776-1.867-.467-2.49-.624-4.042c-.152-1.557-.776-3.886-2.642-7.309s-2.952-7.618-4.194-8.704-1.867-3.733-2.024-4.976-1.552-2.333-2.485-3.266-1.866-2.329-2.952-7.771l-1.759-9.238c-1.117 1.781-1.88 2.216-2.283.996-.467-1.396-1.09-2.176-1.71-1.243s-.78-.776-.78-1.552-.152-.934-.933-.934-.153-1.242-.467-3.576-.776-2.642-1.085.158-1.867 4.504-1.243 5.128.31 1.866-.314 3.733-.31 2.952.157 4.195-.31 3.576-.624 5.6c-.31 2.018 1.248 4.037 1.714.618zm-28.398-27.907c-1.152.085-1.942 1.095-1.283 4.626.413 2.185-1.242 1.71-1.861.62-.624-1.087-1.09-3.42-2.333-5.443s-.624 1.4-.776 3.266 1.085 1.866 2.176 3.419c1.085 1.557.152 2.18-1.09 2.18s-.62 2.486-.31 4.195-.31 2.024-1.247.624c-.929-1.4-.31-3.576-.153-6.218s.31-2.024-1.4-2.643c-1.709-.624-1.4-.933-.776-2.49s1.243-2.333.467-3.11-.624-1.242.619-1.4c1.243-.152.78-1.085 1.866-1.4 1.09-.309 1.557.158 1.71-1.861.13-1.687.695-2.724 1.96-2.212.763 2.598 1.754 6.64 2.431 7.847zm15.657 18.305c0 3.267 0 4.51 1.4 5.753s1.243 2.485 1.866 5.442.62 9.328 2.486 13.68c.556 1.297 1.323 2.943 2.108 4.657 1.032-.812 1.93-2.207 2.248-2.947.462-1.09-.933-3.267-2.024-5.129-1.085-1.866.157-2.49 1.243-4.823s-.152-2.486-1.862-3.11c-1.713-.618-1.713-2.175-2.646-4.66s-.777-3.577-.153-4.977.153-2.485-1.09-2.8c-1.243-.309-.933-1.242-.467-2.795s.776-1.866-1.085-1.4c-1.414.35-1.754.615-2.176 1.127.103.448.152 1.072.152 1.983z" fill="#00b800"/><path d="M447.774 328.757c-.17 1.866-.157 2.8-.623 3.418-.462.624-.153 1.557.314 2.49s.776 2.177.31 3.886.309 3.11 1.242 3.576 1.4 0 1.09 2.176.933 4.51 2.019 5.442 1.866 2.486 1.71 3.42.78 1.866 1.865 2.332.934.624.934 1.243c0 .624.466.624 1.709.933s2.176 1.09 3.575 2.8 3.419 2.643 3.11.776 0-3.109-1.867-4.042-3.262-5.443-4.042-8.552-3.262-7.304-4.661-8.08c-.157-2.181.157-3.267-1.243-4.357s-1.866-2.486-1.866-3.576-.776-2.486-1.4-2.795-.933-1.09-.933-2.024-1.086-.776-1.243.934z" fill="#5d3100"/><path d="M439.52 412.164c2.795-.233 10.376-2.45 11.188-3.15 1.867 1.284 5.132 3.034 6.532 3.034-2.683.583-4.432.233-5.132-.234.35.817 1.283 2.1 1.866 2.217-2.566-.117-5.477-.7-6.41-1.633-2.217.933-5.95 1.166-8.044-.234zm5.024 3.5c.992.292 5.944 1.108 6.586 1.108-1.633 1.396-.233 2.737 2.508 2.504-1.342.175-2.804.682-1.808.875 2.39.466 8.86-1.284 10.143-1.983-2.216 2.858-12.996 5.482-17.429-2.504zm4.442 7.089c1.336-.7 4.66-.467 6.235.292-1.75.641-5.186.641-6.235-.292z" class="B"/><path d="M453.965 422.663c2.391-.408 9.152 1.225 11.543-.233-.816 2.158-5.074 2.45-6.532 1.983s-2.853-1.05-3.844-.992c.525-.291-.35-.35-1.167-.758z"/><g class="B"><path d="M456.433 425.983c1.808.287 8.277-.525 10.26-1.283 2.095.7 6.235 1.804 7.169 1.687-1.983 1.225-5.774.525-6.994 0-3.5 1.167-6.357 1.517-10.435-.404z"/><path d="M459.528 427.06c2.589.583 4.796.166 7.344-.686.794.34 2.665.758 4.423.673 1.171.668 2.746 1.601 4.262 1.718-1.574.642-7.348 0-8.51-.641-2.916.058-7.932.7-9.152 1.691-.058-.817.471-1.952 1.633-2.755z"/></g><path d="M456.433 413.914c2.018.673 9.326.35 13.054-1.4 1.472-.69 2.383.467.7 1.05-6.06 2.1-10.843 2.917-14.338 1.05-1.381-.736-1.516-1.4.584-.7z"/><path d="M492.233 403.999c-8.977 4.195-14.926 5.478-27.398 1.633-1.162-.36-1.983 0-.7.816s8.16 2.679 9.794 2.795 1.05.875.058 1.167-1.283.992.058.467 8.834-.723 11.893.875c1.337.7 1.687.583 1.57.058s.584-.875 1.575-.992 1.575-.466.817-.758-.875-.467-.292-.758.642-.583-.233-.758-1.458-.409-.642-.817 2.042-.7 2.975-.812c.233-.642-.175-2.333.525-2.916z" class="B"/><path d="M477.293 405.075c5.133.364 14.576-1.983 19.592-6.878 1.745 1.046 4.194 2.212 5.477 2.445s2.45 1.4.467 1.4-4.782-.816-6.06-1.4c-6.65 4.083-14.429 5.425-19.359 5.017-1.395-.117-1.745-.7-.117-.584z"/><path d="M462.13 377.078c1.75 1.225 4.84 3.262 8.86 2.97 1.983 1.575 5.074 2.917 6.474 3.209-2.683 1.108-5.599 2.041-6.357 2.916-1.225-1.167-2.795-.992-3.203-1.575-1.167.933-.992 1.517-.233 1.983s6.644 1.458 8.102 1.05 1.848.799.641 1.22c-3.15 1.109-9.268.059-11.368-3.32s-3.907-4.666-9.618-1.575c-.642-1.633-.642-2.041-1.75-2.041s-3.15-1.458-1.575-1.4 6.24-.641 10.027-3.437zm1.39 7.493c-.973.242-3.732 1.75-4.719 1.867s-2.74 1.516-.933 1.574 4.137-1.924 5.42-2.1 1.4-1.633.233-1.34zm5.653 5.923c-.69.12-3.67.816-4.486.758s-1.633.175-1.574.758.291.933-.934.817-2.274.35-2.566.7-.525.7.7.816 1.866.233 3.266-.408 2.741-1.633 4.258-1.692c1.511-.058 3.028-2.041 1.336-1.75z" class="B"/><path d="M465.001 394.083c1.274.825 7.577 2.975 9.852 2.8s1.848.91.117 1.283c-3.558.754-7.9-.794-10.844-3.15-1.458-1.166-.116-1.575.875-.933z"/><g class="B"><path d="M494.835 397.179c-4.823 1.539-9.736.991-11.718.466s-3.791-.641-2.45.642 5.657 2.154 8.102 1.512c-8.685 1.983-10.96 1.808-13.113 1.458s-6.209-.274-7.927-.117c-1.283.117-3.033-.058-3.79-.524s-.992-1.342 1.282-1.109 2.566-.233.583-.525-4.724.525-2.04 2.217 8.568-.117 12.3.933 11.655 1.808 19.179-4.258c.386-.31 1.05-1.162-.408-.695zm-23.688-7.089c.175.583.175 1.225 0 1.633s-.175.933.584.35 1.224-1.283 1.982-.875 2.683.35 3.554.233c.879-.116 1.166-.291-.113-.816s-2.566-.7-3.266-.642-1.574-.117-2.157-.35-.759-.117-.584.467zm12.427 2.243c-.991.058-2.74-.583-3.674-.991s-2.27-.467-1.279.874 5.303 2.1 6.82 1.459.874-1.342 2.386-.409 3.091 1.575 4.2 1.575 1.515 0 .29-.7-1.807-.875-1.924-1.458-.291-.933.817-.583 2.39.991 3.266.525 2.503-1.517 3.96-1.517l.35-.875c-2.099-.175-3.436.467-4.019.7s-1.633.35-2.74.175-2.567-.291-2.917-.583-.35-.525.583-.7 1.225-.817-.058-.583-4.72.116-6.527-.467-2.567-.637-3.325-.35-.641 1.108.467 1.167 3.616.291 4.49 1.108.759.875-.233.467-2.8-.175-.933 1.166z"/><path d="M498.782 390.224l-.35.875c2.158-.058 7.407.467 9.094 1.517 1.633-1.283 1.341-1.692 2.508-1.458s2.624.641 3.266.291 1.108-.291 1.808-.175 2.211-.175 3.086-.7 2.683-1.225 3.733-1.225 2.328-.233.408-.525-4.84.292-5.832.642-3.961.583-5.711.583-4.136.875-6.12.35-4.723-.175-5.89-.175z"/></g><path d="M525.79 389.192c-3.495 2.567-7.695 3.15-12.706 3.5-1.458.103-1.009.516.234.642 5.244.525 11.31-1.4 13.288-3.5.574-.606.511-1.61-.817-.642z"/><g class="B"><path d="M501.968 395.16c1.516.058 6.76 1.4 8.452 1.983 1.283-.117 1.633-.408 1.4-.875s-.409-.992 1.924-.875l8.685.058c.817-.35 2.62-1.75 3.437-1.808-2.095.117-10.84.583-11.947.467s-1.691 0-2.391.408-1.108.583-1.983.233-2.45-.816-3.32-.291-2.683.058-4.257.7z"/><path d="M522.425 395.429c.816-.35 2.62-1.75 3.436-1.808 1.516-.117 3.266.525 4.083.641s1.69-.058 1.108-.7-.059-1.75 2.332-1.458 3.612.7 5.945.467 3.382 1.516 7.81-.233c-.35 1.75.467 1.866 1.283 1.516s1.75-.233 3.15.817 9.91 1.166 11.892.816 3.029.7 1.512 1.167c-1.512.466-1.866 1.166-1.512 1.633.346.462.696 1.045-1.166.812s-2.216.35-3.15 1.05-1.166.933-3.732.467-3.028-.117-4.428.116-1.75.234-3.149-.233-4.428-.933-6.294-.35-3.266 1.166-4.9.7-1.749-.233-.699-1.283 1.283-.934 3.266-1.167 3.5-.812 2.1-1.629-1.867-.7-3.733.234-2.8 1.512-4.894.35c-2.1-1.167-3.15-.934-4.55-.584s-3.727-.466-5.71-1.341zm6.998 3.5c-2.67.38-3.387-1.337-6.177-.988-.934.117-2.508 1.28-.35 1.104s4.486.992 6.585.817 1.167-1.108-.058-.933zm-3.095 2.019c1.404-.512 4.315.466 5.54.233s2.391.525 1.108.933-4.374-.758-5.774-.35-2.794-.117-.874-.816zm-27.86 7.537c1.925.063 8.86-.233 11.602-6.061.21-.449.408-.642 1.283-.059s4.082 2.508 10.085 3.033c1.682.148 3.499.992.116.759s-8.743-1.167-10.551-2.275c-3.033 4.778-8.48 5.344-12.535 5.245-2.445-.059-1.861-.7 0-.642z"/><path d="M513.452 400.544c-.933 1.283-4.14 3.5-5.599 3.616-1.453.117-5.827-.292-6.935-.7s-2.45-.292-.875.817 5.482 1.866 7.052 1.516 3.383-.875 4.608-.116 3.499 2.211 4.836 1.92 4.082-.287 4.957.117 2.391 1.633.117.933-4.141-.117-5.19-.584c1.166 1.634 3.812 4.258 6.064 4.258.525 0 .875.934-.233 1.459 1.108.524 3.67.933 5.011-.292-.35.467-.175.758.408 1.05s1.284.7.234.816-3.437.409-4.136.117c2.27 1.454 8.16 3.787 14.162 2.62 1.144-.22 1.75-.695-.116-.641-3.85.116-4.078.058-4.778-.346-.7-.413-.583-.758.525-1.108s3.903-.758 5.07-.758 2.332-.467-.059-.467-5.303 0-6.47-.408-2.04-.933-.816-1.75 2.508-.583 3.091-1.342c-3.849-.058-8.573-2.1-5.948-3.961.61-.436.408-.467-.584-.584s-3.903-.933-5.127-1.633-.409-1.283.583-1.458c-2.275.408-6.824-.816-9.852-3.091zm34.185-.09c-2.1 1.575-6.06 2.216-7.752 2.216s-1.925.584-.583.759 2.8.35 3.382.175.933-.234 1.804.175 2.74.641 4.374.116 4.311-.758 5.42-.7 2.332.117.116-.525-5.828-.175-6.703.059-3.266.058-1.982-.35 2.39-1.05 3.032-1.575c-.466-.117-.758-.233-1.108-.35zm-1.077 4.532c-1.808 1.341-4.427 2.62-7.11 2.736 2.45.875 4.49 3.383 6.06 3.267-.758.466-1.686 1.166-2.678 1.283 1.517.408 4.078-.058 6.178-1.225 3.5.992 8.044.35 9.56-.933-2.275 0-5.011-.817-6.236-1.867 1.108 0 2.154-.7 2.678-1.337-2.62.463-7.11-.816-8.452-1.924z"/><path d="M542.837 412.299c.991-.117 1.92-.817 2.678-1.283-1.92.641-10.318-.7-12.821-2.917s-2.508-.525-.759 1.05 4.837 3.966 10.902 3.15zm6.146 5.339c-1.05.583-6.06.933-7.694.583s-2.333-.175-1.924.467.583 1.225-.759 1.05-3.732.117-4.72.466-2.215 1.225-.116.875 4.02-.758 5.595-.35 7.168.525 8.277.059.35-.467-.175-.467-.759-.35 0-.7 1.341-1.341 1.516-1.983zm-48.496-6.775c-2.1.933-9.093 2.8-10.96 2.917-2.332 1.05-4.194 1.633-5.36 1.633.816.7 3.96 1.395 5.244 1.05-.7.695-2.329 1.512-2.912 1.862 1.862-.234 4.078.233 5.011.35-2.45 1.4-5.827 1.866-7.577 1.633.583.816 1.4 1.633 2.45 1.633-2.217.583-4.9.583-6.3.116.584 1.167 1.167 1.867 1.984 1.984-1.866.233-4.2.583-6.178-.584 1.512 1.983 4.895 2.679 9.91 2.1s9.21-2.8 10.377-3.733c-2.1.233-4.899.35-6.299.117 2.8-.7 8.86-3.266 9.91-4.316-1.166 0-2.328-.35-3.149-.934 1.633.234 7.348-.462 9.098-1.162-2.1-.466-3.383-1.75-3.966-2.566 7.344 2.333 15.518 1.57 19.47.583.933-.233 1.046-1.418-.816-1.283-3.266.233-9.56-.7-11.193-1.516 1.516 1.166 3.382 1.866 4.665 2.1-3.032.816-7.227 1.4-13.409-1.984z"/><path d="M486.49 418.356c.583-.35 2.212-1.167 2.912-1.862-1.283.345-4.428-.35-5.245-1.05 1.167 0 3.029-.583 5.361-1.633-4.194-.117-7.11-.117-8.627-.933s-4.31-.584-5.36-.35-.7 1.983 3.727 1.516c-1.866 1.283-6.877 1.75-8.743 1.283.466 1.512.816 3.029.35 3.846 2.45 1.4 8.86 3.15 12.01 2.916-2.8-1.05-4.316-2.217-1.984-2.45s3.616-.7 5.6-1.283z"/></g><path d="M479.267 425.938c5.581-.466 13.055-.565 19.004-5.599 1.516-1.283 2.535-.852 1.05.467-3.145 2.8-10.96 6.644-18.42 6.761-3.038.05-4.429-1.4-1.634-1.629z"/><g class="B"><path d="M521.079 416.696c-1.4.525-5.307 1.166-6.47.991s-2.857-.233-3.79.35-.992.934.291 1.05l3.733.175c-1.05.584-1.75 1.4-1.983 1.75 1.866-.467 5.303.35 6.294.933-.758.234-1.633-.058-2.274-.408 3.149 3.325 12.476 3.325 13.992 2.741-.7.525-1.341 1.05-2.041 1.225 2.624.467 5.653.409 8.627-1.341-.992.175-3.961-.117-4.72-.175a5.597 5.597 0 0 1 2.27-1.342c-1.161-.233-4.836-.116-5.71.35.35-.7.991-1.575 1.69-1.866-4.607 0-10.2-.059-12.242-1.167 3.266.35 6.882-1.575 8.394-1.575-2.562-.058-5.361-.641-6.061-1.691zm-11.709 2.557c-2.275.467-5.711 1.4-6.644 1.925s-1.925.817.116.817 7.578.233 8.802.408c-3.09-.467-7.285-.583-8.102-.583s-1.75-.059-.233-.525 3.5-1.517 6.06-2.042zm-4.621 5.429c.812 0 4.37 0 5.77-1.225 1.457 1.109 4.257 2.679 6.06 2.679s1.633.467.058.641-4.66-.753-6.235-1.92c-2.1.758-3.845.117-5.653-.175zm-27.007 15.704c3.611 1.4 8.394 2.45 11.889 1.283 1.982 1.75 6.065 1.866 8.277 1.4s4.199-.7 6.648.116 7.46.875 8.86 2.037c-1.283.063-4.024 0-4.665.18-.642.17-.292.579.875 1.22-3.962-.233-10.785 1.458-12.88 3.266.753-1.808 3.086-4.257 6.76-4.257-2.1-.754-8.802-.812-10.96.525-.641-.7-1.4-1.862-1.457-2.329-3.554 2.037-10.552-.875-13.347-3.441zm-9.242-6.551c4.303-.615 7.232-1.983 8.515-3.266.758.7 3.903 1.4 7.344.35-.7.525-.758 1.516-.466 2.041-2.275.058-6.59 1.167-8.044 1.925s-5.716 1.279-7.11.52c-1.4-.753-1.459-1.395-.238-1.57z"/><path d="M483.888 432.983c-2.274.058-6.59 1.166-8.044 1.924.292.584.467 1.512.525 2.154 4.195-1.516 13.813-2.445 17.488-1.862-1.75.117-5.074 1.92-6.936 2.154 4.544-.35 8.977.583 10.139.875s1.4 1.166.525 1.983-1.279.933.583.991 5.715-.175 7.465-1.866c-.7-.758-2.508-.467-3.033-.992 1.225-.408 2.625-1.283 3.15-1.925-3.15-.058-4.316-.116-5.366-.35-1.05-.228-1.808-.524-.525-1.22s1.866-1.283 2.275-1.75c-2.275.642-5.828 1.167-8.802-1.166 1.108.291 3.728.116 4.66-.292-.99-.525-1.803-.933-2.62-.933 2.388-1.167 7.111-2.217 12.94.116 2.915-.233 6.064-.116 8.276.467.933-.933 2.916-3.15 3.966-3.733-6.877.583-19.237-.7-19.004-4.312-2.216 2.912-7.344 4.545-9.56 4.079-.233 1.05.7 2.333 1.517 3.033-2.333.466-6.299.816-8.16.466 1.049 1.05 3.027 1.984 4.194 1.867-2.445 0-3.728.467-5.653.292z"/><path d="M498.154 441.193c1.867.059 5.716-.175 7.465-1.866-.7-.758-2.507-.467-3.032-.992 1.224-.408 2.624-1.283 3.149-1.925 4.894-.403 9.268-.17 11.364-.812s7.465-.291 8.514-.583c-4.665.754-5.598 1.162-5.832 1.92s1.517 1.4 2.625 1.4c-2.1-.116-4.724 2.1-4.958 2.975-2.794-1.633-4.136.292-4.427.933-1.167-.466-5.016-.35-6.999 1.342-2.562-.759-4.253-1.167-6.819-.759 1.575-.35 1.283-1.4-1.05-1.633zm22.386-13.639c1.575-.059 5.012.116 6.236-.059-.816.409-1.862 1.167-2.095 1.517 3.962-.467 9.38-.758 10.956-.525-1.92-.292-3.903.933-4.895 1.575s-.408 1.05.933 1.225 3.15 1.224.7.875-7.286-.35-8.452-.175-1.808-.409-.117-.642 2.854-.817 3.67-1.283c-1.4.35-4.078.35-4.894.116s-1.342-.7-.409-.933.292-.583-.7-.466-3.499 1.166-4.898 2.508c1.516-1.575 2.857-2.975 3.965-3.733z"/></g><path d="M502.775 430.2c1.925 2.159 4.195 3.384 7.81 3.5.759.023 2.172 1.041.35 1.109-4.898.175-7.343-.992-9.501-4.142-.444-.646.377-1.547 1.341-.466zm29.205-40.783c2.575 1.216 7.752 2.274 11.777 2.1.7-.032 2.108.717.345.874-4.545.409-8.627-.228-12.413-2.333-1.05-.583-.7-1.108.291-.641z"/><g class="B"><path d="M534.582 389.372c3.962-.117 6.936-.058 8.16 1.108 2.27-.7 6.353-1.108 7.286-.933s1.983-.233-.175-.758-7.169-.696-8.743-.404c-1.575.287-6.474.462-8.102.287.7.117 1.162.233 1.574.7zm15.388 1.57c1.866-.991 7.227-.058 8.86-.758-1.166 1.4 3.733 1.516 7.986.408-1.633 1.05-5.128 1.225-6.644 1.867s-2.333.175-3.5-.35-4.136-1.575-6.702-1.167z"/><path d="M566.838 390.583c-4.253 1.108-9.152.992-7.985-.408-1.633.7-6.994-.233-8.86.758 1.924-1.166 3.382-.233 4.777-2.624.875.179 2.916.296 3.616-.638 1.225.292 3.383.817 4.024 1.454s1.629-.175.812-1.162c1.925-.7.704.83 5.19-.292.934-.233 3.208-.641 3.966-.7-1.516 1.225-3.324 2.562-5.54 3.612z"/></g><g class="E F"><path d="M484.068 371.021l-.929-99.721c0-4.083-2.1-3.266-2.1 0v99.255l3.028.467zm32.435-105.079l3.643 105.262-.637.843-2.113.031-2.301-106.137h1.409zm30.686 88.882l-2.162-84.799c-.067-3.262-2.01-2.692-1.978.117l1.597 84.74 2.544-.058z" fill="#ff0"/><path d="M498.603 283.441l-31.013-.467c-1.745 6.295 6.065 6.178 8.981 4.545 3.378 2.566 5.944 2.333 7.81.233 2.683 2.216 6.061 1.633 7.461.233 3.733 2.8 7.577 0 6.761-4.545zm2.333 15.614l-31.713-.117c-5.478 5.245 1.633 7.811 7.698 4.195.816 1.75 4.545 2.8 7.461 1.4 2.683 2.1 6.061.583 7.81-1.167 3.266 1.517 7.111 1.983 8.744-4.312zm-.897 19.831l-30.547-.233c-.583 5.478 5.599 4.778 8.044 3.383 2.333 3.612 7.465 2.795 9.448.695 2.912 1.983 5.594 1.517 7.111-.35 3.383 2.916 6.177-.812 5.944-3.495zm1.525 19.831l-34.158-.583c-1.866 5.828 3.378 6.878 5.828 5.478.816 3.383 5.361 2.216 6.527-.233 1.75 1.75 3.966.817 5.016-.35.467 3.15 4.428 3.266 7.461.583 6.177 4.316 12.01-.7 9.327-4.895zm30.282-8.166l-28.447-.233c1.283 5.828 4.078 7.345 8.627 3.962 3.383 3.5 8.977 2.216 10.377.467 6.177 5.016 9.56-.817 9.443-4.195zm-2.916-19.472l-27.514-.817c.467 6.995 7.111 6.761 10.493 3.728 2.566 3.266 7.111 2.333 8.744 0 3.499 3.5 9.21 1.4 8.277-2.912zm3.634-21.94H502.95c.35 4.895 6.877 7.695 11.893 3.033 1.395 5.595 6.761 3.845 9.094 1.629 3.378 4.316 11.189-.579 8.627-4.662zm-1.75-14.896l-26.464.35c-.467 4.312 5.828 6.178 8.16 2.679 1.283 2.216 5.711 1.983 6.994-.117 2.1 3.266 4.666 1.05 5.478 0 3.033 2.216 6.299 1.167 5.832-2.912zm31 9.646l-32.413-.35c-.117 3.378 3.383 4.778 5.478 3.378 0 3.266 4.549 4.316 7.465 1.75 1.983 2.8 7.81 3.616 10.143-.233 4.778 3.966 9.91 1.167 9.327-4.545zm-.449 26.606l-31.713-.117c.233 4.428 5.361 5.945 8.277 3.612.7 3.733 4.666 3.966 6.994 2.1 2.799 3.15 7.465 3.383 10.027-.117 3.849 1.4 6.765-1.866 6.415-5.478zm-1.66 23.914l-25.069-.35c0 4.433 5.249 5.016 7.582 2.683 2.445 2.916 6.177 2.916 8.277.583 3.378 2.916 8.51 2.1 9.21-2.916z" class="C"/><path d="M519.509 372.053c-13.521.233-27.281.233-36.607-1.167s-12.265-2.71-18.654-6.528l-25.414-15.039c-2.073-1.216-4.32.292-1.4 2.212l25.298 16.56c6.761 4.428 11.121 8.363 15.271 13.056 5.365 6.066 9.327 6.183 11.776 5.249s6.299-2.216 10.143-1.283 8.977 1.05 11.66.583c2.449 2.216 8.044 1.75 11.193 1.05s5.478-1.05 7.694-.583 5.594.117 7.81-.233 8.044-.933 12.126-.35 8.277.233 10.96-.583 7.577-.583 9.21-.117c2.328-1.75 3.495-3.966 4.078-6.295 2.741-.35 3.652-.691 4.257-2.275 1.108-2.916 2.153-5.774 2.508-7.053h1.104l.35-2.625-2.27-2.625.816-5.012 2.445-.583c.117-1.517-.583-3.85-1.05-4.783l-39.402 1.283c-1.166.933-2.449 3.383-2.683 4.899l-11.66 1.862c-1.633.35-2.544.48-3.845 2.216-2.1 2.8-4.082 6.062-5.715 8.161z"/><path d="M566.703 354.241l6.074-21.716c.579-2.1-1.458-2.93-2.212-.233l-6.182 22.039 2.319-.09z"/><path d="M589.448 329.609c-4.957 2.562-7.348 3.553-9.618 2.679-2.091-.803-5.164-1.256-6.963-.372-.005.205-.036.409-.094.606l-4.702 16.906c3.67 1.297 9.991 1.472 11.467-.112 1.512-1.633 5.653-1.283 7.752-1.167 1.341-1.75 1.866-3.908 1.516-4.958s-.233-2.912.292-4.37 1.225-6.183.35-9.211z" class="C"/><path d="M476.576 287.524c-5.482 15.856-24.486 51.422-35.952 62.877m8.811 5.187c13.014-10.068 45.921-42.749 51.515-56.505m-31.462 19.58c-1.512 12.011-4.98 33.435-6.846 44.746m11.915-18.005c-4.428 4.316-10.709 11.849-15.374 15.932m57.096-39.891c-3.728 3.612-7.985 7.825-11.713 8.875m13.867-8.291c3.279 3.495 7.941 7.443 11.79 8.493m-14.347-27.831c-3.378 2.912-8.394 6.34-12.938 7.623m14.867-6.95c2.916 2.45 6.02 6.021 9.749 7.654m-23.925-21.877c3.611-1.05 8.99-3.85 11.79-6.761m1.624-.552c3.163 3.612 9.224 6.528 12.256 7.345m-24.952-14.568c3.728-.817 8.349-2.8 10.798-6.299m1.404-.969c3.145 2.683 8.672 6.56 12.283 6.91m14.32 3.544c-2.023 2.1-6.981 5.873-10.125 5.815m12.189-5.994c1.458 2.333 5.132 5.904 7.232 6.196m-21.543 26.557c4.078-1.4 9.793-4.738 12.651-8.179m2.243.283c1.193 2.154 5.742 7.022 8.308 8.013m-18.358 23.573c1.866-.404 6.94-2.925 8.335-5.9m2.342-1.638c1.925 2.391 6.644 6.761 9.56 7.811m-84.39 3.854c5.711-1.808 17.254-8.816 22.969-15.466m-10.946 8.422c4.778 3.378 10.332 6.761 14.585 7.52m-27.684-19.993c3.149-1.342 7.286-3.63 10.493-6.95m2.427-.453c1.283 1.804 10.713 7.565 14.733 7.623m-17.155-26.243c-2.449 1.979-8.335 5.537-11.193 6.295m13.436-6.16c3.266 2.27 9.722 6.281 14.149 6.281m-16.393-24.632c-2.624 2.97-7.052 7.56-10.727 8.61m12.835-7.937c2.041 3.266 7.505 7.681 11.063 8.265m36.132 11.342c8.174 15.071 23.333 33.493 38.662 43.171m-63.202-59.862c12.413 17.839 36.782 56.959 59.967 71.401m4.275-15.273c-5.858 8.138-13.147 15.142-21.511 20.67m20.121-15.735c-7.81-12.473-11.848-28.244-17.689-49.013m-63.332 55.474l9.618 26.467m-11.413-27.095l8.506 26.996m-10.345-28.253l7.896 28.096m-8.703-27.647l6.097 27.494m-.22-.978h7.622m-.982-2.871H488.5m6.379-2.243h-6.936m6.128-2.243h-6.617m5.72-2.423h-6.299m-.431-2.154h5.976m-6.424-1.974h5.671m-6.164-2.154h5.392m-5.796-1.929h5.087m-5.536-1.974h4.836m-5.24-1.84h4.576m-5.025-1.705h4.446m-4.715-1.436h4.141m-11.633.045l-5.419 22.128m6.989-22.532l-4.652 23.376m5.908-24.228l-3.764 24.897m5.379-25.39l-2.732 26.036m3.27-1.494h-8.627m8.627-2.378h-9.982m9.982-2.468h-9.399m9.399-2.333h-8.815m8.815-2.378h-8.246m8.246-2.647h-7.591m7.591-2.288h-7.039m7.039-2.333h-6.442m6.442-2.243h-5.904m5.904-1.974h-5.437m5.437-1.57h-5.029m5.029 24.677v-26.382m29.026-8.704l-18.075 36.253m19.196-36.836l-15.388 37.033m16.509-37.437l-12.207 37.612m12.97-36.939l-9.493 36.961m.431-1.696h-11.368m12.265-3.32h-10.583m11.076-2.692h-9.735m10.677-2.916h-9.21m9.659-2.333h-8.51m9.318-2.692h-8.017m8.824-3.141h-7.259m7.887-2.378h-6.675m7.348-2.737h-6.047m6.541-1.84h-5.594m6.043-1.75h-5.128m5.576-1.795h-4.724m5.128-1.57h-4.343m4.746-1.57h-3.979m4.428-1.615h-3.589m3.948-1.481h-3.235m14.988-.538l7.909 25.036m-6.384-24.497l9.596 24.026m-8.25-23.981l11.238 23.497m2.714-2.006l-12.395-21.931m12.395 21.886h-9.834m8.129-2.961h-9.058m7.398-2.961h-8.304m6.599-3.006h-7.573m5.913-2.961h-6.859m5.155-2.961h-6.101m4.441-2.961h-5.357m3.652-3.006h-4.63m14.769.718l-7.739 23.21m10.072-24.242l-7.178 23.793m3.32-.552l5.267-22.398m1.373.772l-4.432 21.312m-7.501-1.346h7.766m-6.779-2.916h7.402m-6.46-2.871h7.052m-6.11-2.871h6.689m-5.702-2.916h6.326m-5.339-2.871h5.962m-5.02-2.871h5.599m-4.657-2.916h4.607m4.141.494l3.795 15.914m-2.405-16.677l5.244 16.587m-3.45-16.632l5.72 16.61m-3.387-15.712l5.729 15.6m-.525-1.377h-7.348m6.496-2.333h-6.981m6.128-2.333h-6.689m5.837-2.333h-6.415m5.518-2.333h-6.092m5.24-2.333h-5.76m4.908-2.333h-5.464" fill="none"/></g><path d="M479.626 380.309c3.616-2.329 9.794-1.862 12.943.466 3.732-2.095 10.493-1.516 13.643 1.284 4.777-3.262 8.86-3.729 13.52-.584 3.617-2.562 9.211-2.795 13.527.234 4.194-1.984 8.86-3.612 12.938.7-2.445-1.75-7.694-3.267-12.938.816-4.083-4.083-11.193-2.566-13.526.233-3.033-3.616-9.444-4.2-13.293.234-4.194-3.5-10.488-3.617-13.871-.934-2.683-2.1-6.644-3.845-12.943-2.45z" fill="#00b800"/><path d="M543.33 375.329c-18.537 3.203-58.935.933-67.795-1.284-3.046-.762-2.216-1.866.35-1.283 10.21 2.32 32 2.333 44.01 1.75 2.332-3.091 6.002-8.336 7.11-9.795s1.597-1.592 3.908-1.983l10.085-1.691c.058.466.058 1.05.058 1.4-.292.233-.583.641-.817.758 0 2.391.467 8.22.933 10.32.467-.059 1.05-.234 1.342-.292.816-.234 1.628 1.866.816 2.1zm30.372.897l2.45-.058c.758-.018 1.82-.539 2.287-1.705s1.911-5.479 2.436-7.287l-1.866-2.813.992-6.106 2.386-.875c.117-.525-.112-1.952-.583-2.419l-36.257 1.194c-1.05 0-1.521-.045-1.92 1.458-2.217 8.278.847 19.894 9.21 26.584.583.466 1.319.076.345-.817-1.395-1.283-3.553-3.908-5.011-6.501l5.935-.121c.476 1.96 1.965 6.097 2.257 6.797s1.01.799.668-.247c-.803-2.45-1.225-5.24-1.574-6.582 1.516-.036 4.374-.009 6.123-.107.085 2.216.319 5.186.377 6.003s.758.875.772-.058l.022-6.04 5.428-.139c-.13 1.261-.372 5.34-.462 5.986-.134.95.364 1.4.597.058s.7-4.478.83-6.066l3.741-.13c-.085 1.243-1.251 5.02-1.601 6.012s.215 1.023.61.085c.413-.96 1.691-4.751 1.808-6.106z" class="D"/><path d="M547.233 375.284c-.641-1.284-2.624-5.847-2.8-9.167l7.964-.157 1.48 9.176-6.644.148zm6.55-9.378l1.382 9.234 6.438-.175-.386-9.247-7.434.188zm-9.017-8.12c-.323 1.678-.381 5.262-.292 6.792l7.761-.139-.619-6.855-6.85.202zm8.344-.225l.539 6.847 7.536-.189-.34-6.891-7.735.233zm9.242-.269l.206 6.905 6.555-.175.215-6.977-6.976.247zm8.254-.314l-.22 7.017 7.156-.247 1.05-7.053-7.986.283zm7.224 8.3l-7.538.23-.744 9.22 7.29-.207c.7-1.4 2.216-5.77 2.566-7.112-.525-.816-.933-1.283-1.575-2.13zm-15.209.404l.229 9.207 5.446-.153.736-9.229-6.411.175zm-30.955-1.795l-3.037.539c-1.4 2.261-6.586 9.256-7.227 10.072l10.619-.34a563.26 563.26 0 0 1-.355-10.27zm1.346-.269l.359 10.454 6.429-.435-.992-11.06-5.796 1.041z"/><g class="E F"><path d="M501.698 338.448c.408.004.462.354-.004.35l-34.445-.426c-.467-.004-.404-.354.004-.35l34.445.426zm27.097-27.593c.408.013.458.363-.009.35l-27.29-.749c-.467-.013-.399-.363.009-.35l27.29.749zm-28.801 7.897c.408.004.462.354-.004.35l-30.542-.224c-.467 0-.404-.35 0-.35l30.547.224zm.897-19.831c.408 0 .467.35 0 .35l-31.946-.166c-.467 0-.404-.35.004-.345l31.942.162zm-2.198-15.659c.408.004.458.359-.004.35l-31.04-.467c-.467-.009-.404-.359.004-.35l31.04.467z"/><path d="M530.814 274.109c.408-.004.471.345.004.35l-26.639.256c-.467.004-.413-.345-.004-.35l26.639-.256z" class="C"/><path d="M532.474 289.004c.408 0 .467.35 0 .35h-29.438c-.467 0-.408-.35 0-.35h29.438zm28.891 21.222c.408 0 .467.35 0 .35h-31.726c-.467 0-.408-.35 0-.35h31.726zm.449-26.516c.408.004.462.354-.004.35l-32.413-.319c-.467-.004-.404-.354.004-.35l32.413.319zm-29.968 46.617c.408.004.462.354-.004.35l-28.514-.188c-.467-.004-.404-.354.004-.35l28.514.188zm27.859 3.859c.408.004.462.354-.004.35l-25.064-.332c-.467-.004-.399-.354.009-.35l25.06.332z"/><path d="M582.315 338.986c.704-1.566.803-5.164.399-6.528a4.96 4.96 0 0 1-2.903-.179c-.5-.189-1.011-.348-1.53-.476-.099 1.804-.754 6.398-1.561 8.175-1.409.399-4.248-.067-5.863-.574l-1.175 4.226c2.15.449 4.37.435 6.514-.04-.157 2.697-.511 5.151-1.969 6.847 2.382.054 4.513-.296 5.294-1.131a1.81 1.81 0 0 1 .238-.215c1.099-1.84 1.131-4.235 1.395-5.851.812.058 1.862-.175 2.328-.642s1.225-.7 1.983-.642c.691.054 1.768-.09 3.136-.642.036-.826.197-1.723.48-2.504.153-.426.319-1.135.458-1.992-1.736.83-5.608 2.216-7.223 2.167z" fill="#ef072d"/><path d="M471.058 187.111c-3.549.103-11.274.175-12.898 1.086s-2.333 1.319.507 1.826 7.644 1.857 10.278 3.482 4.841 4.491 4.114 8.588c-2.176 12.307 4.257 24.143 13.58 28.607.902.431 1.117.758.915 2.432s-.812 4.464-1.319 5.173-.758 1.88.861 1.319c-1.113 2.082-3.598 6.241-4.356 7.304-7.452-.911-13.53.103-14.091 7.91-.054.763.206 1.979 1.368.054s2.485-3.755 5.675-4.262c-1.875 2.889-2.481 5.478-2.176 7.152s.758 2.688 1.57.556 2.306-4.119 3.903-5.326c.606-.453 1.014-.556.556.763s.202 4.159 1.117 5.124 1.368.556 1.113-1.014.144-4.864 2.077-5.887c2.786-1.467 5.168-.709 6.285 1.22s2.077.099.861-2.082-2.485-3.702-4.513-3.854l4.311-7.708c.453-.763 1.166-1.117 1.772-.66s1.014.404 1.624-.861 1.669-5.021 3.19-6.542c.763-.206 1.978-.507 2.432-.915 1.978 2.889 3.75 6.088 4.208 6.797s.965 1.014.507 2.486l-2.279 7.152c-5.527.202-8.057.301-9.834 3.396-.776 1.35.458 1.875 1.777 1.167s3.19-1.319 4.154-1.167 1.413.646.453 1.117c-3.392 1.674-5.514 3.8-5.37 6.744.049 1.063.489 1.593 1.319.153 1.166-2.028 3.293-4.056 5.877-4.617-.153 2.486.408 6.138 1.925 6.901s1.628-.013 1.063-1.472c-.911-2.333.036-4.68 1.166-5.936 2.382-2.638 7.806 1.014 8.82 1.929s1.938 1.292 1.368-1.068c-.763-3.141-5.222-4.967-9.022-5.474 1.063-5.124 3.903-15.47 5.424-19.019 2.23 1.216 3.97-1.992 7.703-.61 6.281 2.333 15.706 8.215 17.33 9.534s2.23 1.014 3.042.305 2.23 0 3.342.202 2.131.507.709-2.333-4.863-7.811-10.641-11.665c3.445.305 8.111.305 8.111-.606s-5.374-2.638-7.604-2.84c2.131-.507 5.374-1.727 6.891-3.45.902-1.018-.179-1.256-3.342-1.319-9.731-.202-14.594-.126-19.663-3.042-8.107-4.666-12.745-9.579-16.725-11.665-2.126-1.117-3.423-3.693-4.244-5.918-2.633-7.102-2.503-10.297-8.685-12.63s-13.293.525-16.536 3.464z"/><path d="M471.461 188.727c-1.575-.058-4.666-.431-7.227-.175-.583.058-1.283.35.117.525s5.186 1.104 6.527 1.57.758 1.167-.408.875-1.597.139-.642.817c4.957 3.5 5.482 4.841 4.199 16.848.933.642 1.691 1.108 2.508 1.517s.583.992-.292.758-1.691.292-.292.583 2.037.933.7.875-2.916 1.108-.292.817 3.67.933.583.992-1.925 1.05-.292 1.05c2.912 0 2.037.817 1.283.817s-1.108.992.816.817 2.678-.233 3.378-.117.991.695-.058.758c-1.05.054-.991.812.583.812s2.23.476.816.758c-.583.117-1.391.408.292.642 2.916.408 3.033 1.108 2.1 1.225s-1.05.642.292.758 2.503.525 1.4.817-1.691.933-.296 1.05 2.566.642 1.516.992-1.283.992.058.933 1.866.7.933 1.22-1.575.875-2.158-.054-.929-1.225-1.104-.525-.583.233-1.05-.817-1.283-1.342-1.05-.525-.816.933-1.808.525c3.674 3.728 9.094 7.111 17.72 3.612.736-.296.875 0 1.458 1.225s2.216 3.908 2.799 4.899 1.045.099 1.337-.875l2.391-7.753c.35-1.05 1.983-2.1 1.458 1.57 1.283-.875 6.967-1.7 11.368-.058 4.836 1.808 9.699 4.612 12.185 6.474a2.8 2.8 0 0 0 2.212.642c1.166-.117 1.458-.292-.758-2.333s-1.279-3.033.117-2.041 2.158.408 1.108-.817-3.553-3.612-4.37-4.195-.933-.817-2.799-.933-5.828-.117-6.994-.117-1.516.117 1.05 1.05 7.81 4.312 8.977 5.128 1.983 2.683-.583 1.05-10.61-6.645-15.971-8.511c-12.243.817-21.92 2.45-29.147-5.478-3.463-3.796-3.616-12.478 2.212-16.094-1.166-.992-.991-1.575-.525-1.808s.642-.467.175-1.05-.408-1.104 0-1.337c-1.279-.7-1.862-1.517-1.803-2.391-1.575-.35-2.275-2.216-4.374-1.633s-3.149.117-3.786-.408c-.646-.525-1.166-.758-2.333-.642s-2.1-.35-2.158-.933.987-.866 2.566-.175c3.32 1.458 6.003 2.158 8.044-.583s-.583-5.303-4.491-6.062-6.761 2.1-8.219 3.441zm19.605-1.032c-1.175-1.274-3.266-2.45-4.311-2.8s-1.166.7-.583 1.225c-.467.7-.642 2.391.175 2.858s.825 1.131.058 1.512c-1.166.583-.772 3.679.987 2.8.583-.292 1.05-.175.933.292s.117 1.05.642 1.167.467.875.35 1.167.058.408.642.467.642 1.458-.408 1.925c1.283 0 1.633-.233 1.983.817s1.75 1.279 1.75 2.562-.233 1.517-1.75 1.283-2.1.233-2.566.817-.583 1.167.583 1.225 1.4.583.233 1.108-3.087.175-3.378 1.283 0 1.629.87 1.22l3.383-1.57c.7-.408 1.341-.467 1.925.467s.117 1.979-.875 1.167-1.458-.063-2.041.404-1.458.758-2.391.758-1.57.121-1.454 2.216c.35 6.299 5.244 10.961 14.221 10.844l14.751-.058c-2.974-1.633-4.841-2.508-5.89-2.391s-1.925.292-1.458-.525-.058-.817-.525-1.167-1.045-.817-1.978.175-3.149 2.1-4.257 2.333-2.449.175-1.4-.875 3.383-1.4 4.082-1.866.7-.754.7-1.104-.175-1.342 1.166-.583c2.678 1.517 6.877 3.787 7.985 3.728s1.866-.525.875-1.167-1.283-1.57-.991-1.92.467-.7 2.216.292 4.603 2.27 5.653 2.737 2.449.292.292-1.283-8.86-6.003-10.727-7.403-1.05.292-.875.817-1.283 1.167-2.041.525-1.283-1.342-.233-1.925 1.283-.642-.292-2.041-2.037-1.279-1.687-.117.467 2.45-1.166 1.808-2.449-1.4-1.4-2.041 2.391-.987.642-2.445-1.225 0-1.633.817-1.75.817-2.508.175-1.108-1.283-.583-1.808.467-.817 1.225-.408 1.925.175.525-1.05-1.925-.7-1.633 0-.816 1.925-2.562.292c-.83-.772-.816-1.808.058-1.983s.956-.628.345-1.517c-3.553-5.187-2.095-9.386-5.653-13.231z" class="C"/></g><path d="M491.65 188.413c-.306.457-.418.44-.983.816-.696.462-.853 1.786.314 1.629.807-.108 1.278-.588 1.597-.978-.256-.494-.56-.983-.929-1.467zm-3.635-2.917c-.897.87-1.054 1.261-.596 1.261.543 0 .31.076-.08.7s.78.933 1.246.467.543-.624.776 0c.189.507.956.026 1.44-.463-.794-.767-1.861-1.476-2.786-1.965zm-1.615 5.025c-1.166.584-.771 3.68.987 2.8.584-.292 1.05-.175.934.292a1.03 1.03 0 0 0 .107.753 5.405 5.405 0 0 0 1.934-1.395c1.09-1.243.076-1.166-1.552-1.166s-2.1-.31-.548-1.243c1.391-.835.485-1.414-1.44-1.144.278.394.14.825-.422 1.103zm6.685 6.865c-.857-.933-.314-1.4.619-1.866a1.21 1.21 0 0 0 .498-.427l-.754-2.974c-.489.139-1.058 1.229-1.22 1.767-.233.777-.467 1.243-1.243 1.01-.69-.207-1.381.57-1.525 1.4.108.045.274.076.494.098.323.032.484.472.385.938 2.104-.067 2.463 1.387 2.822 2.383.39 1.09.857.933 1.167.314s-.39-1.71-1.243-2.643z" class="D"/><path d="M493.668 209.59c-.381.861-.39.776-1.633.852s-2.808.292-3.495 1.014c-.372.386-2.52.49-2.525 1.436s0 1.75.933 1.808 1.045.175.7.875c-.355.7-.584 1.867 1.045 1.983s2.8-.408 3.208.52c.408.934-.032 2.423.291 2.975s1.427.907 3.136 1.436c1.14.355 5.442.556 6.765.404s.826-.947-.498-1.063-2.292-.31-2.602-1.28-.583-1.48.157-2.292 1.476-1.44 1.05-2.8-1.13-2.956-2.683-3.383-1.063-2.552-2.606-2.759c-.583-.076-1.086-.076-1.243.274z" fill="#ff0"/><path d="M486.131 222.242c1.337.117 2.504.525 1.4.817s-1.691.933-.296 1.05 2.566.641 1.516.991-1.283.992.059.934 1.866.7.933 1.22-1.575.875-2.158-.054-.929-1.225-1.104-.525-.583.233-1.05-.816-1.283-1.342-1.05-.525-.816.933-1.807.525c.978.991 2.077 1.956 3.328 2.772 1.432-.489 3.01-.09 3.55-.036.582.059 2.39.467 3.382.992s1.633-.408 1.224-1.458-.466-.696-.991-.117-.642-.233-.583-1.453c.05-1.032-.642-.759-.875-.117s-.758-.408-.467-1.05-.058-.875-.583-.7-.583 0-.641-1.167-.584-.991-.759-.524-.641-.175-1.34-1.109c-.611-.816-1.315-.336-2.536.148.153.09.431.166.848.202z" class="D"/><path d="M500.308 229.466c-6.37 2.584-10.965 1.436-14.423-.857 1.43-.49 3.041-.072 3.58-.018.583.058 2.39.467 3.382.992s1.633-.409 1.225-1.459c.875 1.109 1.516 1.867 2.561 1.809 1.05-.059 2.8-.234 3.675-.467zm-13.594-29.343c-.39-1.32-.776-1.633-1.475-1.553s-1.01-.08-1.79-.39-1.786.076-1.943 1.476-1.01 2.1-2.176 2.953-1.866 1.556-1.866 2.956-.31 1.786-1.086 2.8c-.345.449-.834.96-1.292 1.498.503.315.974.588 1.467.83.817.409.583.992-.291.759s-1.692.291-.292.583 2.037.933.7.875-2.916 1.108-.292.817 3.67.933.583.991-1.924 1.05-.291 1.05c2.911 0 2.037.817 1.283.817s-1.108.991.816.816c.027-.004.05-.009.081-.009.278-.287.485-.646.637-1.1.31-.932.62-3.656 1.71-4.432s1.632-1.866 1.632-2.643 1.629-4.195 2.72-5.052 1.556-2.719 1.165-4.042z" fill="#ff0"/><path d="M484.427 200.168c-1.104-.736-2.176-.31-2.176 1.09s-.7 1.786-1.633 2.252-1.786 1.633-1.943 2.724.157 1.785-.619 2.642-.857 1.553-.31 2.02.543.547.777 1.242 1.552-.076 1.552-.852.314-.776 1.166-1.243c.857-.467 2.257-2.723 1.943-3.343s-1.086-1.166-.076-2.023 2.1-.933 2.1-1.786.309-1.166.618-1.476c.314-.314-.7-.78-1.4-1.247z" class="D"/><path d="M484.427 199.046c-.727-.283-1.162 1.243-.153 1.476s1.166-1.09.153-1.476zm-.18 1.974c-.772.094-1.633 1.108-.35.933s1.808-1.108.35-.933zm-1.525 1.885c-.794.399-.642 1.458.525.7s1.458-1.692-.525-.7zm-1.256 1.615c-.799.395-.642 1.454.525.7s1.458-1.692-.525-.7z"/><path d="M479.85 205.283c-.793.399-.291 1.458.875.7s1.109-1.692-.874-.7zm.988.987c-.794.399-.292 1.458.874.7s1.108-1.692-.874-.7z"/><path d="M479.447 206.673c-.794.4-.292 1.459.875.7s1.108-1.691-.875-.7zm.897 1.122c-.798.4-.292 1.458.87.7s1.109-1.691-.87-.7z"/><path d="M478.998 208.468c-.794.395-.291 1.454.875.696s1.108-1.687-.875-.696z"/><path d="M479.088 209.5c-.794.4-.292 1.458.875.7s1.108-1.691-.875-.7z"/><path d="M478.46 219.326c-.803.103-1.32 1.247-.31 1.48s1.243.31 1.243 1.086.314 1.867 1.4 1.943 2.023-1.166 1.09-1.552-1.79-.7-1.866-1.557-.934-1.476-1.557-1.4z" class="D"/><path d="M507.082 212.64a3.94 3.94 0 0 0 .53.553c.757.641 2.215 0 2.04-.525s-.991-2.217.875-.817 8.569 5.833 10.727 7.403.758 1.75-.292 1.283-3.907-1.75-5.652-2.737-1.925-.641-2.217-.291c-.246.291-.049.996.593 1.593-1.041.152-2.733-.077-3.217-1.185-.583-1.341-1.983-2.975-2.974-4.258-.368-.475-.476-.771-.413-1.018z" fill="#ff0"/><path d="M564.909 403.64c-1.454.991-3.378 2.741-2.1 5.186l.445-.26c5.702-6.9 10.582-14.156 14.764-21.693l.125-.723c-1.633 1.4-4.199 2.796-5.249 3.146.7 1.866-2.561 4.316-4.31 5.016.699 1.166.466 2.916-1.05 3.266.35 1.045-.817 1.045-2.217 1.629s-2.1 1.05-2.561 1.75c.753-.409 1.803-.759 2.386-.584s.7 1.05-.35 1.283-1.745.817-2.1 1.284c1.517-.584 3.675-.292 2.217.7z" class="B"/><path d="M495.777 210.487c-1.723-1.503-2.158-.583-1.458.35s.175 1.4-1.341 1.633l-4.724.525c-.933 0-2.037 1.283.175 1.167s5.949-.875 6.94-1.283 1.803-1.167.408-2.391zm3.365 2.647c-1.422-1.279-1.925-.933-1.575 0s-.292 1.108-1.22 1.4-4.607 1.517-6.182 1.691-1.925 1.283.408 1.225 6.819-1.925 7.344-2.275.7-1.05 1.283-.7 1.108-.292-.058-1.342zm1.077 3.724c-1.032.615-3.611 1.745-4.661 2.037s-1.925 1.458.292 1.283 4.836-2.216 5.536-2.62 1.05-.7 1.633-.642 1.633-.758-.292-1.808-3.091-.525-2.158.292.233 1.108-.35 1.458z" class="E F"/><path d="M482.049 187.515c-2.849-1.87-6.101 2.05-2.952 4.2 2.759 1.884 5.675-2.41 2.952-4.2z"/><path d="M478.505 189.22l.843.059c-.175.87.7 2.185 2.041 1.861-1.076.817-3.176-.116-2.884-1.92zm11.035 42.49c.862.25 3.854.556 4.868.605l-1.27 2.54c-.304.758-.452.812-.506-.355s-.709-1.93-1.315-.713l-1.215 2.18c-.305.507-.763.714-.61-.556s.103-2.59.049-3.702z" class="C"/><path d="M602.1 265.943c-.206 73.277-11.767 152.22-106.61 189.823-94.847-37.603-106.408-116.547-106.615-189.823H602.1zm0 0c.081-27.602-1.454-54.401-.754-77.885-35.441-15.86-82.075-19.122-105.856-19.122s-70.42 3.262-105.861 19.122c.7 23.483-.83 50.282-.754 77.885H602.1z" fill="none" stroke-width="1.234" class="E"/></svg>