<svg xmlns="http://www.w3.org/2000/svg" height="480" width="640" xmlns:v="https://vecta.io/nano"><defs><clipPath id="A"><path fill-opacity=".67" d="M-85.333 0h682.67v512h-682.67z"/></clipPath><path id="B" d="M1220.658 216.145l-30.118 10.63 30.118 10.63 30.118-10.63-30.118-10.63z"/><path id="C" d="M1194.088 230.314c1.77 0 3.545-1.772 3.545-3.543s-1.775-3.543-3.545-3.543"/></defs><g clip-path="url(#A)" transform="matrix(.9375 0 0 .9375 80 0)"><g fill-rule="evenodd"><path fill="#3e5eb9" d="M-128 0h768v512h-768z"/><path fill="#ffd900" d="M-128 91.429h768v329.14h-768z"/><path fill="#b10c0c" d="M-128 128h768v256h-768z"/><g stroke="#000"><rect rx="5.767" ry="5.851" height="10.971" width="621.71" y="250.51" x="-51.439" stroke-width="1.474" fill="#ffd900"/></g></g><g stroke="#000" transform="matrix(1.0321 0 0 1.0321 -757.03 -25.6)"><g fill-rule="evenodd"><use href="#B" fill="#fff" stroke-width="1.339"/><rect rx="4.108" ry="3.78" height="7.087" width="442.91" y="223.23" x="761.81" stroke-width="1.333" fill="#ffd900"/></g><g fill="none" stroke-width="1.334"><use href="#C"/><path d="M1190.588 230.314c1.77 0 3.545-1.772 3.545-3.543s-1.775-3.543-3.545-3.543m-3.6 7.087c1.77 0 3.545-1.772 3.545-3.543s-1.775-3.543-3.545-3.543"/></g></g><g stroke="#000" transform="matrix(1.0321 0 0 1.0321 -786.29 -3.657)"><g fill-rule="evenodd"><use href="#B" fill="#fff" stroke-width="1.339"/><rect rx="4.108" ry="3.78" height="7.087" width="442.91" y="223.23" x="761.81" stroke-width="1.333" fill="#ffd900"/></g><g fill="none" stroke-width="1.334"><use href="#C"/><path d="M1190.588 230.314c1.77 0 3.545-1.772 3.545-3.543s-1.775-3.543-3.545-3.543m-3.6 7.087c1.77 0 3.545-1.772 3.545-3.543s-1.775-3.543-3.545-3.543"/></g></g><g fill-rule="evenodd"><path d="M526.545 251.642c-5.54 9.595 4.251-3.191 28.141 12.871 4.427 2.984 8.295 10.866 8.295 16.332-1.124-.752-1.958-2.425-3.196-3.511-1.733 1.737 1.655 9.699 2.15 13.462-3.735-2.09-3.375-3.079-4.616-5.648.248 3.105-.641 11.657.844 14.95-2.943-.841-2.749-3.21-4.286-3.686 1.046 3.728-.911 7.784-.392 11.975-1.72-1.703-3.553-3.036-4.351-3.724-.134 1.996-3.308 7.24-3.381 9.127-1.46-.881-1.856-2.256-2.099-3.182-1.814 2.279-8.261 10.698-8.675 13.266-4.968-4.388-17.693-15.073-19.35-20.745-1.465 3.22-3.584 4.306-7.773 6.657-1.656-8.989-7.847-19.091-4.535-26.796-2.346 1.391-4.278 2.782-6.623 4.494 2.221-13.018 13.552-28.282 29.848-35.842z" stroke="#000" fill="#3d5da7" stroke-width="1.265"/><path d="M505.878 299.164c2.3-4.597 4.419-6.056 5.905-9.016 2.626-5.203 3-9.343 5.288-8.736s2.285 2.737-.678 7.854-4.372 6.209-10.515 9.898zm15.56 10.951c-.295-3.5.72-4.963.534-7.217-.316-3.967-1.938-6.69.171-6.883s3.096 1.159 3.102 5.156-.612 5.048-3.807 8.944zm11.805 6.864c-.922-4.887-.233-7.055-.822-10.203-1.027-5.54-3.058-9.187-1.103-9.693s3.134 1.284 3.874 6.902.35 7.162-1.95 12.994zm12.272-34.245c-2.882-2.188-4.565-2.334-6.424-3.74-3.274-2.468-4.931-5.108-5.984-3.797s-.306 2.745 3.125 5.02 4.593 2.456 9.283 2.517zm-2.031 16.228c-1.52-3.155-3.119-3.955-4.101-5.986-1.738-3.567-1.74-6.653-3.625-5.862s-2.036 2.407-.02 5.86 3.07 4.077 7.746 5.988z" fill="#a70000"/><path d="M-24.597 260.888c-.309-2.794.288-3.128-1.431-5.236 2.502 1.046 2.597 3.83 5.639 1.854 1.118-.578 1.605-.597.247-3.701 3.173.147 13.563 3.71 15.227 3.793 4.369.2 12.344-4.589 17.88 1.301 5.313 5.37 3.539 10.944 3.539 18.382-2.135-1.023-1.106-1.527-3.372-4.186 1.699 6.502-.091 18.224-.091 25.119-.872-1.662-.744-.94-1.597-2.663-2.265 6.294-4.981 7.589-4.981 15.027-.818-2.918-.028-2.299-.938-3.834-2.202 4.777-16.973 8.861-11.281 13.678-5.138-3.012-7.391-2.697-9.721-5.405-1.003.648-1.801 1.873-2.734 3.554-9.033-4.156-5.803-13.119-12.88-19.107-1.225 2.511-.666 2.146-1.99 6.233-1.433-5.676-1.824-9.282-3.435-13.455-1.391 2.313-1.266 1.427-3.79 4.922-1.044-6.913-2.744-8.545-2.072-13.12-2.683 1.893-.927 1.126-3.608 3.456 2.541-17.716 13.514-30.805 21.388-26.613z" stroke="#000" fill="#3d5da7" stroke-width="1.556"/><path d="M-35.707 289.802c2.327-5.704 4.425-7.495 5.929-11.167 2.655-6.454 3.088-11.613 5.32-10.826s2.194 3.444-.79 9.786-4.383 7.686-10.459 12.207zm8.814 14.27c.932-5.114 2.405-6.976 3.01-10.27 1.075-5.79.476-10.102 2.549-9.875s2.543 2.412 1.163 8.173-2.332 7.125-6.722 11.972zm10.539 9.921c.263-4.957 1.424-6.893 1.598-10.086.315-5.616-.767-9.637 1.211-9.66s2.682 1.997 2.076 7.62-1.338 7.025-4.885 12.126zM6.28 281.574c-4.328-4.312-6.945-5.116-9.736-7.89-4.917-4.87-7.294-9.44-9.044-7.82s-.698 4.05 4.48 8.684 6.978 5.309 14.3 7.026zM3.647 298.24c-2.819-4.33-4.887-5.451-6.707-8.237-3.21-4.895-4.312-9.1-6.132-8.06s-1.413 3.24 2.065 7.985 4.878 5.617 10.774 8.311z" fill="#a70000"/><path d="M438.852 255.994c-36.571 36.567-85.334 109.708-182.855 109.708-85.334 0-146.284-73.141-182.855-109.708 36.571-36.573 97.52-109.714 182.855-109.714 97.52 0 146.284 73.141 182.855 109.714z" stroke="#000" fill="#fff" stroke-width="1.38"/><path d="M243.234 184.445c9.73 10.943 1.605 15.354 11.903 16.073 10.86.797 4.705 11.562 13.84 11.936 6.387.28-.638 25.794 5.511 34.213 6.263 8.777 11.508 2.571 11.618 8.913.109 6.558-17.045 5.896-17.346 26.099-.503 11.642-14.476 12.388-15.143 19.879-.83 7.046 27.528 11.002 27.15 17.31-.388 6.288-30.62 5.303-31.936 12.475-.675 6.442 41.531 11.721 44.925 30.352-6.298 2.06-24.216 3.998-37.76 4.009-85.327.068-146.283-73.14-182.854-109.708 36.571-36.574 97.52-109.714 182.855-109.714 0 0-25.33 23.144-12.763 38.163z"/><g fill="#fff"><path d="M141.408 216.989h8.866v29.256h-8.866zm0 48.761h8.866v29.256h-8.866zm17.73-48.761h8.866v29.256h-8.866zm0 48.761h8.866v29.256h-8.866zm17.73-48.761h8.866v29.256h-8.866zm0 48.761h8.866v29.256h-8.866zm17.734-48.761h8.866v29.256h-8.866zm0 48.761h8.866v29.256h-8.866zm17.73-48.761h8.866v29.256h-8.866zm0 48.761h8.866v29.256h-8.866zm17.73-48.761h8.865v29.256h-8.865zm0 48.761h8.865v29.256h-8.865z"/></g><path d="M275.499 216.989h8.866v29.256h-8.866zm0 48.761h8.866v29.256h-8.866zm17.729-48.761h8.866v29.256h-8.866zm0 48.761h8.866v29.256h-8.866zm17.73-48.761h8.866v29.256h-8.866zm0 48.761h8.866v29.256h-8.866zm17.735-48.761h8.866v29.256h-8.866zm0 48.761h8.866v29.256h-8.866zm17.729-48.761h8.866v29.256h-8.866zm0 48.761h8.866v29.256h-8.866zm17.73-48.761h8.866v29.256h-8.866zm0 48.761h8.866v29.256h-8.866z"/><path d="M196.861 165.768c-5.066 9.798 8.87-3.259 30.718 13.143 4.049 3.048 9.852 15.088 9.852 20.668-4.652-.99-12.889-5.581-12.889-5.581s9.667 9.682 9.667 20.843c-3.416-2.134-5.124-1.814-6.259-4.437 0 3.613 3.037 5.916 3.037 11.497a45.2 45.2 0 0 0-6.639-4.43c3.222 5.58-5.872 16.407-1.32 20.02-7.959-1.151-16.103-6.237-19.325-11.817-1.708 1.151-1.893 2.958-1.96 4.885.251.208-12.115-9.179-10.979-12.785-1.659 2.327-1.892 3.606-2.271 6.228-4.543-4.481-8.707-8.96-10.222-14.752-2.019 2.622-2.145 2.622-4.164 5.245-1.514-9.178-1.514-8.851 1.514-16.718-2.145 1.421-3.912 2.841-6.057 4.589 2.032-13.293 12.393-28.88 27.297-36.6z" stroke="#000" fill="#3d5da7" stroke-width="1.21"/><path d="M184.375 213.644c.81-6.752 2.576-9.295 3.103-13.643.94-7.648-.175-13.237 2.534-13.095s3.49 2.962 2.151 10.593-2.468 9.484-7.788 16.145zm14.145 12.363c-.55-5.697.503-8.122.154-11.791-.602-6.457-2.596-10.83-.234-11.233s3.556 1.764 3.81 8.283-.375 8.256-3.73 14.74zm22.082 10.085c-2.401-4.929-4.464-6.4-6.015-9.572-2.739-5.576-3.31-10.129-5.422-9.304s-1.996 3.18 1.054 8.639 4.429 6.57 10.383 10.237zm7.633-44.146c-6.116-3.22-9.257-3.26-13.199-5.329-6.94-3.627-10.98-7.725-12.414-5.47s.48 4.499 7.635 7.796 9.354 3.454 17.978 3.003zm2.245 18.436c-4.455-3.705-7.088-4.25-9.96-6.633-5.06-4.182-7.578-8.288-9.268-6.624s-.56 3.864 4.75 7.804 7.127 4.43 14.477 5.453z" fill="#a70000"/></g></g></svg>