<svg xmlns="http://www.w3.org/2000/svg" height="480" width="640" xmlns:v="https://vecta.io/nano"><style><![CDATA[.B{stroke-width:.407}.C{stroke:#000}.D{stroke-width:.41}.E{fill-opacity:.996}.F{stroke-width:6.377}.G{fill-rule:evenodd}.H{stroke-width:.356}.I{stroke-width:.435}.J{stroke-width:1.027}]]></style><g fill="#006"><path d="M640 480V0H0v480h640z"/><path d="M0 0h373.68v232.168H0z" class="G"/></g><g fill="#fff"><path d="M0 0v25.957l331.901 206.21h41.778v-25.956L41.777.001H0zm373.679 0v25.956L41.777 232.166H0V206.21L331.901 0h41.778z"/><path d="M155.7 0v232.167h62.28V0H155.7zM0 77.389v77.389h373.679v-77.39H0z"/></g><path d="M0 92.867V139.3h373.679V92.867H0zM168.155 0v232.167h37.368V0h-37.368zM0 232.167l124.56-77.39h27.851l-124.56 77.39H0zM0 0l124.56 77.389H96.708L0 17.305V0zm221.267 77.389L345.827 0h27.852l-124.56 77.389h-27.852zM373.68 232.167l-124.56-77.39h27.852l96.708 60.085v17.305z" fill="#c00"/><path d="M612.54 212.442v79.91c0 65.607-25.77 125.663-102.217 162.169-76.416-36.506-102.189-96.56-102.189-162.168v-79.911h204.444z" fill="#fff" class="E"/><path d="M605.691 220.585v74.535c0 61.192-24.036 117.209-95.34 151.256-71.307-34.048-95.34-90.063-95.34-151.256v-74.535h190.69z" fill="#fdc300" class="E"/><g class="C H"><path d="M465.966 253.253a8.15 8.15 0 0 0-4.945-1.724c.457-5.063-3.221-7.248-5.867-8.171s-3.565-1.955-4.022-4.027-1.841-3.331-4.257-4.023-4.488-3.104-5.406-4.253-1.267-.923-1.954 1.032-3.452 5.637-.923 5.755c-1.837 1.493-2.873 3.217-1.724 5.52-1.267 1.036-2.185 2.529-.461 3.104s2.185 1.036 2.302 1.497c-1.552 0-1.954 3.104 1.724 3.792-.805.117-1.149 2.647.348 2.647-2.072 0-3.8 3.108-6.442 3.108s-4.026.575-4.14 1.724-1.497 2.529-2.185 3.104c1.954.235 3.217 0 4.253-.805s2.76-1.032 3.913-.113 3.565 1.38 4.714 1.149c-2.529 1.728-4.37 4.027-4.601 6.212s-1.724 4.715-3.452 5.407-4.022 2.529-4.828 4.715c2.185 5.407 5.285 6.744 8.393 8.171 5.523 2.525 8.971 4.367 11.274 6.896s3.221.692 6.669 5.063 6.673 12.651 10.12 14.035 7.822.457 10.351-3.909c2.533-4.375 4.144-48.543-8.854-55.904z" fill="#ff9e3d"/><path d="M471.829 234.848c-3.221 3.452-7.365 6.9-6.673 13.112s1.38 16.333-4.37 19.782c-5.75 3.456-8.51 12.197-1.611 17.256s7.13 11.275 8.279 17.025 4.144 10.352 8.744 6.439c4.597.692 7.13-1.149 7.13-4.828s.231-5.751 3.678-6.904 4.37-2.299 5.981-5.407 2.529-4.484 1.611-6.325-1.267-5.633-.575-8.397-.919-4.253-1.841-5.981c-.919-1.72-1.263-3.217-.805-5.52s-.688-3.792-2.298-4.945-2.302-2.299-1.955-4.144c.344-1.837-1.153-2.987-2.877-4.367s-2.99-3.221-2.99-5.981-5.289-9.203-9.429-10.813z" fill="#ff927f"/><path d="M473.119 309.959c7.705-1.955 7.017-14.609 5.867-19.899s-4.108-12.87-1.841-18.863c3.221-8.511-3.913-16.564-2.072-19.782 1.841-3.225 1.611-4.949 1.38-5.981-.227-1.04-1.954-1.845-2.068.34s-.692 2.991-2.072 4.371-1.036 4.371 0 7.709 3.221 8.397-.231 15.067-2.029 9.644-.688 12.768c2.068 4.832 7.017 21.623 1.724 24.27z" fill="#ff9ee1"/><path d="M438.603 237.838c.864 0 2.533-.344 2.533.805m-4.253 4.715c1.036-.747 2.877.117 4.714-.977m-2.877 5.579c1.38 0 3.221-.059 4.945-1.439m-3.225 5.235c1.267 0 3.624-.805 4.198-2.471m-3.846 5.117c2.47-.117 5.75.805 6.207-.059m-6.09 8.225c1.724-1.611 5.809-2.701 6.727-4.371m-2.349-21.279c2.873.919 1.685 2.697 3.104 3.796 2.533 1.955.231 4.144 2.302 4.715s2.033.927 1.493 3.221c-.633 2.705 1.955 2.815 1.036 4.601m7.818-1.724c-1.149 0-4.542.117-5.981 3.167m-18.568 30.016c1.325.231 1.986-.524 2.357-1.267.403-.805.575-1.38 1.783-1.435s3.049-.403 3.452-1.325 1.841-.059 3.049-2.471 2.013-5.293 5.23-6.329" fill="none"/><path d="M527.728 334.971c1.302 1.892-.047 3.937 2.162 4.754 2.588.958.328 4.363 3.381 5.559 2.705 1.067.02 4.32 2.943 5.782 2.615 1.306-.438 4.359 3.053 6.106s-.657 5.669 1.962 7.193-.872 5.454 2.181 6.982-1.31 4.578 1.525 6.759-.653 5.45 2.181 7.412-1.74 4.586 1.091 7.416c2.181 2.181-.786 4.316.872 7.635 1.091 2.178-1.091 10.903-7.196 10.032-2.181 3.706-10.683 6.978-13.736 5.888-3.053 2.181-12.865 5.235-17.884.434-5.011 4.801-14.827 1.748-17.88-.434-3.053 1.091-11.555-2.181-13.736-5.888-6.106.872-8.287-7.854-7.196-10.032 1.657-3.319-1.31-5.454.872-7.635 2.83-2.83-1.743-5.45 1.091-7.416s-.653-5.231 2.181-7.412-1.528-5.235 1.525-6.763-.434-5.45 2.181-6.978-1.525-5.45 1.962-7.193.438-4.801 3.053-6.106c2.924-1.462.238-4.715 2.943-5.782 3.053-1.196.794-4.601 3.381-5.559 2.244-.829.813-2.928 2.228-4.848 6.493 2.557 26.593 4.39 34.86.094z" fill="#00a728"/><path d="M495.479 346.379c.004.977-.02 1.955-.926 3.163-1.962 2.619.872 3.925-1.31 6.763-2.177 2.83.438 4.574-1.962 6.974s.438 4.582-1.962 7.197.438 4.363-1.962 6.763.438 5.016-1.962 7.412.438 5.454-2.181 8.288.438 5.016-1.743 7.193c-2.181 2.185-.219 4.363-1.743 5.891 2.615-1.963 2.615-5.016 4.577-6.544s-.653-3.706.438-4.797.219-5.669 2.181-7.85.219-6.544 1.962-8.069.434-6.106 2.615-7.631 0-5.239 1.743-7.197 0-5.016 1.747-7.416.078-4.574 1.306-6.54c.547-.876.547-7.197-.817-3.601zm6.293 2.725c-1.525 2.834 1.091 3.487-.872 6.325s1.091 5.016-1.091 7.85 1.091 4.359-.872 7.193.872 4.363-.872 6.544 1.306 4.363-.872 6.978.872 4.582-.876 6.978.657 5.016-.872 6.978 1.091 4.801-1.091 7.416.438 4.363-.872 6.106c2.619-.872 1.638-4.472 2.619-5.235s-.328-5.778 1.196-7.088-.981-5.344.438-7.088c2.4-2.944.328-4.906 1.743-7.193s-.539-5.231.547-6.763c1.853-2.619-.821-4.977.543-6.869 1.962-2.725-.379-4.973.981-6.763 2.072-2.725-.219-5.45.657-6.869s2.287-7.522-.438-8.503zm8.483 2.381c-1.525 3.8 1.091 5.317.219 8.358s1.091 5.321-.219 8.612 1.747 5.825 0 10.133 1.126 5.379 0 9.629c-1.306 4.938 2.181 7.557 0 11.044s2.498 4.644.219 8.288c-1.091 1.744.109 6.216 1.853.872s-1.306-5.997.219-8.178-.543-7.96.109-11.013-1.525-7.193-.109-10.465-2.181-6.763-.762-9.598-.653-6.325.653-8.612-.981-5.344-.434-6.654-.547-6.138-1.747-2.416z" fill="#fdc300" class="E"/><path d="M526.594 337.544c0-24.641-3.487-33.148-16.355-33.148s-16.351 8.503-16.351 33.148h32.707z" fill="#ef072d"/><path d="M498.684 335.581c-2.4 2.4.438 4.144-1.962 6.978s-.219 4.363-2.181 6.978.872 3.925-1.31 6.763.438 4.574-1.962 6.974.438 4.582-1.962 7.197.438 4.363-1.962 6.763.438 5.016-1.962 7.412.438 5.454-2.181 8.288.438 5.016-1.743 7.193c-2.181 2.185-.219 4.367-1.743 5.891s-1.743 3.655-1.091 4.582m24.635-74.15c-2.177 2.834 1.091 4.144-.872 6.54s.872 3.272-.653 6.11 1.091 3.487-.872 6.321 1.091 5.016-1.091 7.85 1.091 4.363-.872 7.197.872 4.363-.872 6.544 1.306 4.359-.872 6.978.872 4.578-.876 6.978.657 5.016-.872 6.978 1.091 4.797-1.091 7.416.438 4.359-.872 6.106-2.341 4.304-1.091 5.016m17.899-77.418c-1.087 4.558 1.528 8.612 0 12.412s1.091 5.317.219 8.358 1.091 5.321-.219 8.612 1.747 5.825 0 10.133 1.126 5.379 0 9.629c-1.306 4.938 2.181 7.557 0 11.044s1.966 4.363.219 8.288 1.091 5.454-.219 9.379m11.571-81.347c2.4 2.4-.438 4.144 1.962 6.978s.219 4.363 2.181 6.978-.872 3.925 1.31 6.763-.438 4.574 1.962 6.974-.438 4.582 1.962 7.197-.438 4.363 1.962 6.763-.438 5.016 1.962 7.412-.438 5.454 2.181 8.288-.438 5.016 1.743 7.193c2.181 2.185.219 4.367 1.743 5.891s1.747 3.655 1.091 4.582m-24.635-74.15c2.177 2.834-1.091 4.144.872 6.54s-.872 3.272.653 6.11-1.091 3.487.872 6.321-1.091 5.016 1.091 7.85-1.091 4.363.872 7.197-.872 4.363.872 6.544-1.306 4.359.876 6.978-.876 4.578.872 6.978-.657 5.016.872 6.978-1.091 4.797 1.091 7.416-.438 4.359.872 6.106 2.345 4.304 1.091 5.016" fill="none"/><path d="M493.915 337.544c0-24.641 3.487-33.148 16.351-33.148-5.887 0-9.483 4.578-10.464 7.631s-.438 2.834.872 1.638.653 1.415-.434 2.834-2.181 5.45-.657 4.144 2.725.219 1.091 2.506-3.053 7.635-1.419 5.782 1.962 1.196.985 2.725c-.985 1.525-.876 2.834 0 2.181s.762 2.506-.109 3.706h-6.215zm30.177-1.415c0-19.301-2.396-25.079-7.193-27.041-2.717-1.114-2.795-.872-1.497.872s1.098 4.253-.102 2.506-1.595-2.072-2.095-1.306 1.396 4.359 2.795 7.631c1.126 2.631.399 3.925-1.298 1.31s-1.697-.246-.207 1.963c1.912 2.834 1.853 11.451 1.853 15.047l7.744-.981z"/><path d="M510.255 341.144c5.125 0 10.734-.915 14.502-2.377 4.472-1.736 4.71-3.26 3.162-5.207-1.091-1.372-3.491-.547-5.778.457s-8.615 1.642-11.887 1.642-9.593-.637-11.883-1.642-4.687-1.83-5.778-.457c-1.548 1.947-1.31 3.472 3.162 5.207 3.764 1.462 9.378 2.377 14.498 2.377z" fill="#ef072d"/></g><g fill="#b95a1e" class="G"><g class="C"><g class="F"><use href="#B" transform="matrix(.053 -.03423 .03246 .0559 489.023 284.185)"/><use href="#B" transform="matrix(.0608 -.01361 .0129 .06412 499.988 261.06)"/></g><path d="M557.746 309.174v11.749c.007 4.958 1.232 6.877 3.373 6.79s2.555-3.856 2.146-6.036-3.309-13.042-3.309-13.042l-2.21.539z" class="B"/><path d="M557.749 309.043c6.155-.091 6.833-2.323 6.833-2.323s1.367-4.645.683-5.807-7.517-1.161-7.517-1.161v9.29z" class="I"/><g class="B"><path d="M557.754 304.396c6.608 0 7.709-2.323 7.709-2.323s2.202-4.645 1.101-5.807-8.81-1.161-8.81-1.161v9.29z"/><path d="M557.754 299.749c5.506 0 8.81-2.323 8.81-2.323s2.202-4.645 1.101-5.807-9.911-1.161-9.911-1.161v9.29z"/></g><path d="M561.465 256.921s5.467-5.807 15.033-11.613 16.487-10.273 17.766-9.29c0 1.161-8.2 6.968-15.033 11.613s-15.034 11.613-15.034 11.613l-2.733-2.323zm.638 4.647s5.404-3.41 15.766-8.13c10.2-4.19 24.599-3.484 24.599-2.323-1.366 1.161-13.666 1.161-21.866 4.645-7.828 3.325-15.767 8.129-15.767 8.129l-2.733-2.323zm.06 8s4.758-2.299 15.766-5.807c10.932-3.484 25.446-1.161 25.446 0-1.365 1.161-13.145.455-21.345 2.322-8.485 1.82-17.132 5.807-17.132 5.807l-2.733-2.323zm.52 8.118s5.483-4.652 17.161-5.807c11.748-1.162 21.314 5.807 21.314 6.967-1.365 1.162-12.304-5.111-20.496-4.214-8.691.895-15.25 5.375-15.25 5.375l-2.733-2.323z" class="D"/><g class="B"><path d="M557.754 293.95c9.919-.091 9.911-2.983 9.911-2.983s2.202-4.645 1.101-5.807-11.012-.501-11.012-.501v9.29z"/><path d="M557.754 289.303c9.919-.091 11.012-2.323 11.012-2.323s2.202-4.645 1.101-5.807-12.114-1.161-12.114-1.161v9.29z"/><path d="M557.754 283.497c9.919-.091 12.114-2.323 12.114-2.323s2.202-4.645 1.101-5.807-13.215-1.161-13.215-1.161v9.29z"/><path d="M557.754 277.69c9.919-.091 13.215-2.323 13.215-2.323s1.101-4.645 0-5.807-13.215-1.161-13.215-1.161v9.29z"/></g><g class="D"><path d="M559.961 252.139s8.81-5.807 8.81-10.452-3.884-9.29-4.985-11.613c2.203 0 7.188 6.968 7.188 11.613 0 5.076-8.279 12.774-8.279 12.774l-2.733-2.323z"/><path d="M559.961 252.139s-1.101-3.484-1.101-10.452c0-8.13 4.86-13.299 6.607-15.097.455 1.798-4.405 8.13-4.405 15.097 0 5.076 1.632 12.774 1.632 12.774l-2.733-2.323z"/></g><g class="B"><path d="M557.754 271.883c9.919-.091 13.215-2.323 13.215-2.323s0-4.645-1.101-5.807-12.114-1.161-12.114-1.161v9.29z"/><path d="M557.754 266.076c9.919-.091 12.114-2.323 12.114-2.323s0-4.645-1.101-5.807-11.012-1.161-11.012-1.161v9.29z"/></g></g><path d="M586.381 335.754c-3.423-8.018-4.405-22.065-4.405-24.388 0-6.541 2.048-38.354 2.203-51.098s-7.709-19.742-15.418-19.742c-6.608 0-11.013 4.645-11.013 11.613h3.304c0-4.645 3.304-8.13 7.709-8.13 6.608 0 11.685 5.489 12.114 16.258.473 12.447-1.325 44.767-1.101 53.421s3.185 16.369 6.608 22.065z" stroke="#fdc301" class="J"/><g class="C"><use href="#B" transform="matrix(-.053 -.03423 -.03246 .0559 626.48 284.185)" class="F"/><path d="M557.754 251.509c7.716.009 11.05 6.712 11.031 6.575l-2.221 2.186c-1.18 1.161-8.81 1.161-8.715 1.155l-.094-9.917z" class="B"/><use href="#B" transform="matrix(-.0608 -.01361 -.0129 .06412 615.506 261.06)" class="F"/><path d="M557.748 309.174v11.749c-.007 4.958-1.232 6.877-3.373 6.79s-2.555-3.856-2.146-6.036 3.309-13.042 3.309-13.042l2.21.539z" class="B"/><path d="M557.745 309.043c-6.155-.091-6.833-2.323-6.833-2.323s-1.367-4.645-.683-5.807 7.517-1.161 7.517-1.161v9.29z" class="I"/><g class="B"><path d="M557.74 304.396c-6.608 0-7.709-2.323-7.709-2.323s-2.202-4.645-1.101-5.807 8.81-1.161 8.81-1.161v9.29z"/><path d="M557.74 299.749c-5.506 0-8.81-2.323-8.81-2.323s-2.202-4.645-1.101-5.807 9.911-1.161 9.911-1.161v9.29z"/></g><path d="M554.029 256.921s-5.467-5.807-15.033-11.613-16.487-10.273-17.766-9.29c0 1.161 8.2 6.968 15.033 11.613s15.034 11.613 15.034 11.613l2.733-2.323zm-.63 4.647s-5.404-3.41-15.766-8.13c-10.2-4.19-24.599-3.484-24.599-2.323 1.366 1.161 13.666 1.161 21.866 4.645 7.828 3.325 15.767 8.129 15.767 8.129l2.733-2.323zm-.059 8s-4.758-2.299-15.766-5.807c-10.932-3.484-25.446-1.161-25.446 0 1.365 1.161 13.145.455 21.345 2.322 8.485 1.82 17.132 5.807 17.132 5.807l2.733-2.323zm-.521 8.118s-5.483-4.652-17.161-5.807c-11.748-1.162-21.314 5.807-21.314 6.967 1.365 1.162 12.304-5.111 20.496-4.214 8.691.895 15.25 5.375 15.25 5.375l2.733-2.323z" class="D"/><g class="B"><path d="M557.74 293.95c-9.919-.091-9.911-2.983-9.911-2.983s-2.202-4.645-1.101-5.807 11.012-.501 11.012-.501v9.29z"/><path d="M557.74 289.303c-9.919-.091-11.012-2.323-11.012-2.323s-2.202-4.645-1.101-5.807 12.114-1.161 12.114-1.161v9.29z"/><path d="M557.74 283.497c-9.919-.091-12.114-2.323-12.114-2.323s-2.202-4.645-1.101-5.807 13.215-1.161 13.215-1.161v9.29z"/><path d="M557.74 277.69c-9.919-.091-13.215-2.323-13.215-2.323s-1.101-4.645 0-5.807 13.215-1.161 13.215-1.161v9.29z"/></g><g class="D"><path d="M555.542 252.139s-8.81-5.807-8.81-10.452 3.884-9.29 4.985-11.613c-2.203 0-7.188 6.968-7.188 11.613 0 5.076 8.279 12.774 8.279 12.774l2.733-2.323z"/><path d="M555.542 252.139s1.101-3.484 1.101-10.452c0-8.13-4.86-13.299-6.607-15.097-.455 1.798 4.405 8.13 4.405 15.097 0 5.076-1.632 12.774-1.632 12.774l2.733-2.323z"/></g><g class="B"><path d="M557.74 271.883c-9.919-.091-13.215-2.323-13.215-2.323s0-4.645 1.101-5.807 12.114-1.161 12.114-1.161v9.29z"/><path d="M557.74 266.076c-9.919-.091-12.114-2.323-12.114-2.323s0-4.645 1.101-5.807 11.012-1.161 11.012-1.161v9.29z"/></g></g><path d="M529.113 335.754c3.423-8.018 4.405-22.065 4.405-24.388 0-6.541-2.048-38.354-2.203-51.098s7.709-19.742 15.418-19.742c6.608 0 11.013 4.645 11.013 11.613h-3.304c0-4.645-3.304-8.13-7.709-8.13-6.608 0-11.685 5.489-12.114 16.258-.473 12.447 1.325 44.767 1.101 53.421s-3.185 16.369-6.608 22.065z" stroke="#fdc301" class="J"/><path d="M557.74 251.509c-7.716.009-11.05 6.712-11.031 6.575l2.221 2.186c1.18 1.161 8.81 1.161 8.715 1.155l.094-9.917z" class="B C"/></g><defs ><path id="B" d="M779.41 912.6v179.24c.12 75.63 19.822 104.91 54.262 103.59 34.44-1.33 41.108-58.83 34.531-92.08-6.577-33.26-53.24-198.97-53.24-198.97l-35.553 8.222z"/></defs></svg>