<svg xmlns="http://www.w3.org/2000/svg" height="480" width="640" xmlns:v="https://vecta.io/nano"><path fill="#060" d="M0 0h640v480H0z"/><path fill="#fff" d="M0 0h640v342.857H0z"/><path fill="#c00" d="M0 0h640v137.143H0z"/><path d="M300.8 233.623a8.571 8.571 0 0 1 15.977 4.046v34.285h6.446V237.67a8.571 8.571 0 0 1 15.977-4.046 20.229 20.229 0 1 0-38.4 0" fill="#f8c300"/><path d="M305.394 224.674A13.714 13.714 0 0 1 320 231.223a13.714 13.714 0 0 1 14.606-6.549 14.743 14.743 0 0 0-29.212 0" fill="#fff"/><path d="M316.777 258.259a26.057 26.057 0 0 1-43.78 16.673 27.086 27.086 0 0 1-40.96 11.978c2.503 24.978 39.944 19.878 42.734-4.409 11.763 20.65 37.627 14.736 45.195-10.56z" id="A" fill="#f8c300"/><use transform="matrix(-1 0 0 1 640 0)" href="#A" fill="#f8c300"/><path d="M291.776 302.613c-5.224 11.277-15.665 13.214-24.798 4.11 0 0 3.671-2.593 7.602-3.309-.737-3.136.774-7.475 2.904-9.822 2.234 1.527 5.351 4.587 6.144 8.142 5.505-.712 8.148.88 8.148.88z" id="B" fill="#f8c300"/><g fill="#f8c300"><use transform="rotate(9.37 320 551.314)" href="#B"/><use transform="rotate(18.74 320 551.314)" href="#B"/></g><path d="M253.486 327.771a233.143 233.143 0 0 1 133.028 0" fill="none" stroke="#f8c300" stroke-width="10.971"/><g fill="#f8c300"><path id="C" d="M330.352 178.819l-27.101-19.69h33.499l-27.101 19.69L320 146.959z"/></g><g id="D" transform="matrix(.68571 0 0 .68571 320 260.571)" fill="#f8c300"><use href="#C" x="-70" y="-121.244"/><use href="#C" x="-121.244" y="-70"/><use href="#C" x="-140"/></g><use href="#D" transform="matrix(-1 0 0 1 640 0)" fill="#f8c300"/></svg>