<svg xmlns="http://www.w3.org/2000/svg" height="480" width="640" xmlns:v="https://vecta.io/nano"><style><![CDATA[.B{fill:#fff133}.C{stroke:#000}.D{stroke-width:1.197}.E{fill:silver}.F{stroke-width:.264}.G{stroke-width:12.791}.H{stroke-width:17.958}.I{stroke-width:1.273}.J{stroke-width:1.176}.K{stroke-width:1.127}.L{stroke-width:1.09}]]></style><g fill-rule="evenodd"><g fill="#fff"><path d="M320 0h320v480H320z"/><g class="C F"><path d="M466.307 187.993c0 .124-13.429 44.369-28.361 59.841-16.65 17.375-27.163 17.388-27.163 17.388l-17.008-3.527s9.959.417 29.712-20.748c20.028-21.459 26.261-56.935 25.961-56.313l16.858 3.36z"/><path d="M450.291 191.297c-.368-1.865 8.136 43.991 33.648 65.153 12.756 10.582 21.26 10.582 21.26 10.582l21.26-3.527s-12.411.747-32.165-20.418c-20.028-21.459-26.059-52.413-25.91-52.537l-18.091.747z"/><path d="M449.674 189.806c0 .124 13.429 44.369 28.361 59.841 16.65 17.375 27.163 17.388 27.163 17.388l17.008-3.527s-9.959.417-29.712-20.748c-20.028-21.459-26.261-56.935-25.961-56.313l-16.858 3.36z"/><path d="M465.69 189.484c.368-1.865-8.136 43.991-33.648 65.153-12.756 10.582-21.26 10.582-21.26 10.582l-21.26-3.527s12.411.747 32.165-20.418c20.028-21.459 26.059-52.413 25.91-52.537l18.091.747z"/></g></g><use href="#B" transform="matrix(.23995 .00428 -.00516 .19905 380.013 342.305)" class="B C D"/><g fill="#b00" class="C G"><use href="#C" transform="matrix(.01763 .00275 .01016 -.01162 411.028 329.631)"/><use href="#C" transform="matrix(.0173 .00313 .01036 -.0116 409.377 330.944)"/><use href="#C" transform="matrix(.01763 .00275 .01016 -.01162 407.292 332.556)"/><use href="#C" transform="matrix(.01789 -.0011 .00628 -.01341 429.522 312.364)"/><use href="#C" transform="matrix(.0177 -.00038 .0068 -.01331 428.348 313.853)"/><use href="#C" transform="matrix(.01791 -.00081 .0066 -.0133 426.776 315.833)"/><use href="#C" transform="matrix(.01769 .00056 .0078 -.01292 425.782 316.386)"/><use href="#C" transform="matrix(.01765 -.00269 .00455 -.0139 433.904 305.88)"/><use href="#C" transform="matrix(.0175 -.00223 .00475 -.01392 432.92 307.599)"/><use href="#C" transform="matrix(.01765 -.00269 .00455 -.0139 431.657 309.728)"/><use href="#C" transform="matrix(.01754 -.00195 .00507 -.01384 430.475 311.23)"/><use href="#C" transform="matrix(.01784 .00155 .009 -.01227 417.952 323.963)"/><use href="#C" transform="matrix(.01754 .00195 .0092 -.01225 416.433 325.382)"/><use href="#C" transform="matrix(.01784 .00155 .009 -.01227 414.51 327.13)"/><use href="#C" transform="matrix(.0173 .00313 .01036 -.0116 413.114 328.019)"/><use href="#C" transform="matrix(.01794 .00014 .00759 -.01293 424.063 318.279)"/><use href="#C" transform="matrix(.01769 .00056 .0078 -.01292 422.71 319.81)"/><use href="#C" transform="matrix(.01784 .00155 .009 -.01227 421.393 320.795)"/><use href="#C" transform="matrix(.01754 .00195 .0092 -.01225 419.875 322.214)"/><use href="#C" transform="matrix(.01668 -.00552 .00122 -.01437 443.651 284.224)"/><use href="#C" transform="matrix(.01707 -.00392 .00278 -.01429 443.624 284.813)"/><use href="#C" transform="matrix(.01715 -.00439 .00258 -.01424 442.667 287.05)"/><use href="#C" transform="matrix(.01707 -.00392 .00278 -.01429 441.928 288.854)"/><use href="#C" transform="matrix(.01664 -.00505 .0014 -.01443 445.698 277.79)"/><use href="#C" transform="matrix(.01668 -.00552 .00122 -.01437 444.956 280.083)"/><use href="#C" transform="matrix(.01664 -.00505 .0014 -.01443 444.393 281.93)"/><use href="#C" transform="matrix(.01752 -.00323 .00393 -.01402 438.058 298.304)"/><use href="#C" transform="matrix(.01738 -.00277 .00413 -.01406 437.151 300.051)"/><use href="#C" transform="matrix(.01752 -.00323 .00393 -.01402 435.983 302.218)"/><use href="#C" transform="matrix(.0175 -.00223 .00475 -.01392 435.166 303.751)"/><use href="#C" transform="matrix(.01715 -.00439 .00258 -.01424 440.97 291.091)"/><use href="#C" transform="matrix(.01738 -.00277 .00413 -.01406 441.3 292.223)"/><use href="#C" transform="matrix(.01752 -.00323 .00393 -.01402 440.132 294.39)"/><use href="#C" transform="matrix(.01738 -.00277 .00413 -.01406 439.225 296.137)"/><use href="#C" transform="matrix(.01541 -.00768 -.00154 -.01435 448.859 266.508)"/><use href="#C" transform="matrix(.01656 -.00577 .0009 -.01438 448.904 268.049)"/><use href="#C" transform="matrix(.01653 -.0053 .0011 -.01445 448.38 269.903)"/><use href="#C" transform="matrix(.01546 -.0072 -.00136 -.01443 449.652 259.882)"/><use href="#C" transform="matrix(.01541 -.00768 -.00154 -.01435 449.357 262.246)"/><use href="#C" transform="matrix(.01546 -.0072 -.00136 -.01443 449.153 264.143)"/><use href="#C" transform="matrix(.01656 -.00577 .0009 -.01438 447.689 272.209)"/><use href="#C" transform="matrix(.01664 -.00505 .0014 -.01443 447.036 273.544)"/><use href="#C" transform="matrix(.01668 -.00552 .00122 -.01437 446.296 275.838)"/><use href="#C" transform="matrix(-.01781 .00178 -.00923 -.01216 503.156 323.982)"/><use href="#C" transform="matrix(-.0175 .00217 -.00943 -.01214 504.7 325.383)"/><use href="#C" transform="matrix(-.01781 .00178 -.00923 -.01216 506.654 327.106)"/><use href="#C" transform="matrix(-.01776 -.00209 -.00521 -.01373 486.055 305.736)"/><use href="#C" transform="matrix(-.01762 -.00135 -.00574 -.01366 487.11 307.287)"/><use href="#C" transform="matrix(-.0178 -.0018 -.00554 -.01364 488.524 309.348)"/><use href="#C" transform="matrix(-.0177 -.00041 -.00676 -.01332 489.472 309.955)"/><use href="#C" transform="matrix(-.0174 -.00365 -.00345 -.01411 482.192 299.026)"/><use href="#C" transform="matrix(-.01728 -.00319 -.00365 -.01415 483.039 300.794)"/><use href="#C" transform="matrix(-.0174 -.00365 -.00345 -.01411 484.132 302.988)"/><use href="#C" transform="matrix(-.01735 -.0029 -.00398 -.01409 485.193 304.552)"/><use href="#C" transform="matrix(-.01792 .00057 -.00802 -.01274 496.69 317.946)"/><use href="#C" transform="matrix(-.01766 .00098 -.00823 -.01273 498.096 319.446)"/><use href="#C" transform="matrix(-.01792 .00057 -.00802 -.01274 499.877 321.296)"/><use href="#C" transform="matrix(-.0175 .00217 -.00943 -.01214 501.201 322.26)"/><use href="#C" transform="matrix(-.0179 -.00085 -.00656 -.01332 491.039 311.938)"/><use href="#C" transform="matrix(-.0177 -.00041 -.00676 -.01332 492.269 313.54)"/><use href="#C" transform="matrix(-.01792 .00057 -.00802 -.01274 493.506 314.596)"/><use href="#C" transform="matrix(-.01766 .00098 -.00823 -.01273 494.91 316.096)"/><use href="#C" transform="matrix(-.01621 -.00642 -.00009 -.0144 474.163 276.88)"/><use href="#C" transform="matrix(-.01672 -.00485 -.00165 -.01441 474.144 277.47)"/><use href="#C" transform="matrix(-.01677 -.00532 -.00146 -.01435 474.924 279.755)"/><use href="#C" transform="matrix(-.01672 -.00485 -.00165 -.01441 475.52 281.595)"/><use href="#C" transform="matrix(-.0162 -.00595 -.00027 -.01447 472.625 270.347)"/><use href="#C" transform="matrix(-.01621 -.00642 -.00009 -.0144 473.186 272.677)"/><use href="#C" transform="matrix(-.0162 -.00595 -.00027 -.01447 473.603 274.55)"/><use href="#C" transform="matrix(-.01723 -.00419 -.00282 -.01421 478.64 291.238)"/><use href="#C" transform="matrix(-.01713 -.00372 -.00302 -.01425 479.408 293.031)"/><use href="#C" transform="matrix(-.01723 -.00419 -.00282 -.01421 480.404 295.257)"/><use href="#C" transform="matrix(-.01728 -.00319 -.00365 -.01415 481.099 296.832)"/><use href="#C" transform="matrix(-.01677 -.00532 -.00146 -.01435 476.3 283.88)"/><use href="#C" transform="matrix(-.01713 -.00372 -.00302 -.01425 475.882 284.991)"/><use href="#C" transform="matrix(-.01723 -.00419 -.00282 -.01421 476.877 287.218)"/><use href="#C" transform="matrix(-.01713 -.00372 -.00302 -.01425 477.645 289.011)"/><use href="#C" transform="matrix(-.01478 -.0085 .00266 -.01423 470.356 258.917)"/><use href="#C" transform="matrix(-.01607 -.00667 .00022 -.0144 470.19 260.452)"/><use href="#C" transform="matrix(-.01608 -.0062 .00004 -.01448 470.567 262.331)"/><use href="#C" transform="matrix(-.01486 -.00804 .00249 -.01433 470.084 252.262)"/><use href="#C" transform="matrix(-.01478 -.0085 .00266 -.01423 470.193 254.636)"/><use href="#C" transform="matrix(-.01486 -.00804 .00249 -.01433 470.248 256.541)"/><use href="#C" transform="matrix(-.01607 -.00667 .00022 -.0144 471.076 264.67)"/><use href="#C" transform="matrix(-.0162 -.00595 -.00027 -.01447 471.623 266.038)"/><use href="#C" transform="matrix(-.01621 -.00642 -.00009 -.0144 472.182 268.368)"/></g><use href="#B" transform="matrix(-.23995 .00428 .00516 .19905 535.969 340.492)" class="B C D"/><g transform="matrix(.14437 0 0 .12085 423.643 295.291)"><path d="M324.546-255.37l-50.11 50.11L449.82-29.874l50.11-50.11z" class="E"/><g class="C"><g class="D"><circle transform="matrix(-.707107 .707107 .707107 .707107 833.166168 -197.748938)" cy="-1428" cx="354.33" r="35.433" class="B"/><path d="M-402.046-956.911l37.583 37.583-25.055 25.054-37.583-37.582c-12.528-12.528 12.527-37.583 25.055-25.055z" class="E"/><use href="#D" class="B"/><path d="M-351.926-931.851l37.583 37.583-50.11 50.11-37.583-37.583c5.027-20.028 30.082-45.084 50.11-50.11z" class="E"/><use href="#D" x="37.58" y="37.58" class="B"/><path d="M-314.356-894.281L28.44-551.477l-50.111 50.11-342.795-342.804c5.027-20.028 30.082-45.084 50.11-50.11z" class="E"/><use href="#D" x="395.54" y="395.56" class="B"/><g class="E"><path d="M48.944-530.976L274.44-305.48l-50.11 50.11L-1.166-480.866c5.027-20.028 30.082-45.084 50.11-50.11z"/><path d="M186.744-418.231l-75.166 75.166c-13.797 0-25.35-11.553-25.055-25.055 0 0 0-25.055 25.055-50.11s50.11-25.055 50.11-25.055c11.64 1.567 21.415 12.527 25.055 25.055z"/><path d="M186.744-418.231l50.11 75.166-50.11 50.11-75.165-50.111c-2.83-2.442 0-25.054 25.055-50.11s48.98-24.456 50.11-25.055z"/><path d="M336.61-506.69c0-35.433 0-86.653 17.717-129.98 17.716 43.326 17.716 94.546 17.716 129.98H336.61z" transform="matrix(-.707107 -.707107 -.578286 .578286 728.967818 339.284357)"/><use href="#E" transform="matrix(.707107 -.707107 .578286 .578286 254.270818 225.548058)"/><use href="#E" transform="matrix(-.707107 -.707107 -.578286 .578286 728.967818 339.284357)"/></g><path d="M-314.356-894.281l37.583 37.583C-251.718-831.643-164.03-718.9-164.03-718.9s117.296 92.25 142.356 117.31l37.583 37.583c-25.056-25.055-179.937-129.835-179.937-129.835S-71.784-551.479-34.2-513.896l-37.583-37.583c-25.055-25.055-117.305-142.36-117.3-142.366-.005.005-100.223-75.168-125.276-100.22l-50.111-50.111c25.055 25.055 175.382 125.281 175.382 125.281s-100.22-150.338-125.272-175.391z" class="B"/><g class="E"><path d="M299.493-230.317c50.11 75.165 100.221 125.276 112.744 137.8 23.776 23.819 50.11 25.055 50.11 25.055s0-25.056-25.055-50.11c-12.527-12.528-62.638-62.639-137.8-112.745zm-62.64-112.75c87.695 87.695 187.916 137.806 250.552 200.442 50.11 50.11 15.414 88.464 1.443 100.606s-51.966 50.282-101.664-.386c-62.638-62.638-112.746-162.857-200.442-250.552 0-25.055 25.056-50.11 50.11-50.11z"/><use href="#F" transform="matrix(-1.2487 -1.4214 -1.3593 1.3175 1166.1 -102.64)"/></g></g><g class="E I"><path d="M-330.511-843.274l-40.653 39.753 40.653 39.751-20.326 19.878-40.653-39.753-81.305 79.505 40.653 39.753-20.328 19.876-40.651-39.751-40.653 39.751 121.958 119.258 81.305-79.505-40.653-39.753-20.326 19.878-20.326-19.878 81.305-79.505 20.326 19.878-20.326 19.876 40.651 39.751 40.653-39.751-20.326-19.878 20.326-19.876 81.305 79.505-20.326 19.876-20.326-19.876-40.653 39.753 40.651 39.751 20.326-19.876 20.328 19.876-81.305 79.505-20.328-19.876 20.328-19.878-40.653-39.751-81.305 79.505 121.958 119.258 40.653-39.753-40.653-39.751 20.326-19.876 40.653 39.751 81.305-79.505-40.653-39.753 20.328-19.876 40.651 39.753 40.653-39.753-284.576-278.276z"/><path d="M-208.564-406.002v39.752l-101.63 99.381v-79.505l20.326-19.877h40.652l40.652-39.752zm101.639-98.562l-80.748 78.96-.961 39.48 81.71-79.901v-38.54z"/><use href="#G"/><use href="#G" x="101.631" y="-99.381"/><use href="#H"/><use href="#H" x="-101.631" y="99.381"/><path d="M-45.543-565.009l-41.057 39.752v39.752l41.057-40.965v-38.54z"/><use href="#G" x="-101.631" y="-218.636"/><use href="#G" x="-20.327" y="-139.138"/><use href="#I"/><use href="#H" x="-121.958" y="-159.007"/><use href="#J"/><use href="#K"/><path d="M-330.51-604.764l-81.305 79.505h-40.652l-20.327 19.876v79.506l142.288-139.531v-39.356zm81.297 238.522L-371.171-485.5h-40.652l121.958 119.258h40.652z"/><path d="M-310.192-346.373L-432.15-465.631l20.33-19.869 121.958 119.258-20.33 19.869z"/><path d="M-310.192-346.373v79.505L-432.15-386.127v-79.505l121.958 119.258zM-411.82-525.249l-121.958-119.258h-40.652l121.958 119.258h40.652z"/><path d="M-472.799-505.38l-121.958-119.258 20.33-19.869 121.958 119.258-20.33 19.869z"/><path d="M-472.799-505.38v79.505l-121.958-119.258v-79.505l121.958 119.258z"/><use href="#L"/><use href="#L" x="101.628" y="-99.378"/><path d="M-249.216-485.5v-39.752l-20.327 19.876 20.327 19.877zm40.655-39.76l40.652-39.752-20.327-19.877-20.326 19.877v39.752zm-121.961-159.007l20.326-19.877-20.326-19.876v39.752z"/></g><g class="D"><use href="#M" transform="matrix(-1.2509 -1.4194 -1.3614 1.3153 1166.1 -102.64)" class="B"/><g class="E"><g transform="matrix(-1.8992 0 0 1.8865 1166.1 -102.64)"><use href="#N"/><use href="#O"/><use href="#P"/></g><use href="#N" transform="matrix(1.8992 0 0 1.8865 224 -100.51)"/><use href="#Q" transform="matrix(-1.8992 0 0 1.8865 1166.1 -102.64)"/><use href="#R" transform="matrix(-1.6618 0 0 1.7607 1107.2 -99.519)"/><use href="#S" transform="matrix(-1.8992 0 0 2.0316 1166.1 -106.24)"/><use href="#T" transform="matrix(-1.8992 0 0 1.8865 1166.1 -102.64)"/></g><g class="B"><ellipse rx="18.433" ry="20.109" transform="matrix(-1.2929 -1.3819 -1.3912 1.2842 1257.6 -120.02)" cy="160.86" cx="82.112"/><use href="#U" transform="matrix(-1.2929 -1.3819 1.3912 -1.2842 808.89 712.05)"/><g transform="matrix(-1.2929 -1.3819 -1.3912 1.2842 1223.2 329.88)"><use href="#U"/><use href="#V"/></g><use href="#U" transform="matrix(-1.3912 1.2842 1.2929 1.3819 847.44 -345.21)"/><ellipse rx="18.433" ry="20.109" transform="matrix(-1.2929 -1.3819 -1.3912 1.2842 789.14 314.38)" cy="160.86" cx="82.112"/><use href="#W" transform="matrix(-1.3912 1.2842 1.2929 1.3819 850.63 -315.18)"/><use href="#X" transform="matrix(-1.8992 0 0 1.8865 1166.1 -102.64)"/><ellipse rx="18.433" ry="20.109" transform="matrix(-1.2929 -1.3819 -1.3912 1.2842 1237.6 329.88)" cy="160.86" cx="82.112"/></g></g></g></g><g fill="#fff" class="C F"><path d="M410.783 177.036l-8.504-3.527-8.504 3.527s17.608 7.055 17.608 31.746c0 17.636-30.062 21.164-30.062 42.329 0 9.089 8.204 17.637 16.708 17.637s21.26-3.527 34.015-14.109c-8.504 3.527-18.26 7.428-25.512 7.179-4.701-.081-13.206-3.527-13.206-10.582 0-14.109 29.465-21.288 29.465-42.452 0-24.692-12.006-31.746-12.006-31.746z"/><path d="M409.23 177.036l-11.204-3.527-2.4 3.527s16.956 7.055 16.956 31.746c0 17.636-30.214 21.164-30.214 42.329 0 9.089 6.411 17.394 15.658 17.637 17.617.47 21.71-4.772 34.015-14.109-10.356 6.433-25.2 9.308-30.965 6.806-7.045-3.059-8.406-7.179-8.406-10.706 0-14.109 29.014-20.79 29.014-41.954 0-24.692-12.456-31.746-12.456-31.746z"/><path d="M410.888 177.13c-1.681-.485-8.61-3.621-17.114 3.434-4.252 3.528-4.252 10.582-4.252 14.109l-12.756-10.582s6.976-17.296 25.829-10.67c2.67.976 6.753 2.895 8.292 3.709z"/><path d="M408.378 175.885c-2.121-.571-8.802-1.259-15.503 3.684-4.252 3.528-4.552 8.548-4.552 12.075l-9.756-7.552c-.826-.639 5.96-16.177 23.818-10.758 1.08.36 3.547 1.255 5.993 2.552z"/></g><g class="B D C"><use href="#B" transform="matrix(-.19534 -.02065 -.06668 .17315 439.546 337.121)"/><use href="#B" transform="matrix(.17775 .02412 .0031 -.13262 320.605 95.229)"/></g><g transform="matrix(.14437 0 0 .12085 423.643 295.291)"><g transform="rotate(45 478.12 -504.573)"><g class="C D"><circle cy="-1144.54" cx="478.34" r="35.433" class="E"/><path d="M460.63-1126.77v53.15h35.432l.001-53.15c0-17.717-35.433-17.717-35.433 0z" class="B"/><use href="#Y" class="E"/><path d="M442.91-1073.62v53.15h70.866v-53.15c-17.717-10.607-53.15-10.607-70.866 0z" class="B"/><use href="#Y" y="53.15" class="E"/></g><g class="B"><path d="M442.91-116.93h70.866V131.1H442.91z"/><path d="M442.91-1020.476l.006 484.79h70.867l-.007-484.79c-17.717-10.607-53.15-10.607-70.866 0z" class="C D"/></g><use href="#Y" x="0.01" y="559.392" class="C D E"/><g class="B C"><path d="M442.92-506.7v318.9h70.866v-318.9c-17.717-10.607-53.15-10.607-70.866 0z" class="D"/><path d="M425.19-329.53h106.3c9.757-9.756 9.757-26.095 0-35.433 0 0-17.716-17.716-53.149-17.716s-53.15 17.716-53.15 17.716c-7.122 9.338-6.284 24.001 0 35.433z" class="D"/><path d="M425.19-329.53l17.717 88.583h70.866l17.716-88.583c.274-3.727-17.716-17.716-53.149-17.716s-51.928 17.341-53.15 17.716z" class="D"/><g stroke-width="1.093"><path d="M460.62-240.941c0-28.978 0-70.867 17.717-106.3 17.716 35.433 17.716 77.322 17.716 106.3H460.62z"/><path d="M513.77-240.941h-17.716v-35.433c0-35.434 35.433-53.15 35.433-53.15l-17.717 88.586zm-70.86 0h17.716v-35.433c0-35.434-35.433-53.15-35.433-53.15l17.717 88.586z"/></g><path d="M478.34-116.93c17.716 88.582 17.716 159.45 17.716 177.16.031 33.655-17.716 53.15-17.716 53.15s-17.717-17.717-17.717-53.15c0-17.716 0-88.583 17.717-177.16zm-35.433-124.02c0 124.02-35.433 230.32-35.433 318.9 0 70.866 51.654 73.453 70.118 72.16s72.3-1.191 71.614-72.16c0-88.583-35.433-194.88-35.433-318.9-17.717-17.716-53.15-17.716-70.866 0z" class="D"/></g><path d="M442.91-1020.476v53.15c0 35.433 17.716 177.16 17.716 177.16s-17.71 148.17-17.71 183.61v53.15c0-35.433 35.427-219.04 35.427-219.04s35.44 165.89 35.44 219.04v-53.15c0-35.433-17.717-183.61-17.724-183.61.007 0 17.717-124.02 17.717-159.45v-70.867c0 35.433-35.426 212.6-35.426 212.6s-35.44-177.17-35.44-212.6z" class="C D E"/></g><g class="C"><g class="D"><g class="B"><use href="#F" transform="matrix(1.2487 -1.4214 1.3593 1.3175 -662.45 -102.64)"/><g transform="matrix(1.8992 0 0 1.8865 -662.45 -102.64)"><use href="#N"/><use href="#O"/><use href="#P"/></g></g><g class="E"><ellipse rx="18.433" ry="20.109" transform="matrix(1.2929 -1.3819 1.3912 1.2842 -753.9 -120.02)" cy="160.86" cx="82.112"/><use href="#M" transform="matrix(1.2509 -1.4194 1.3614 1.3153 -662.45 -102.64)"/></g><g class="B"><use href="#N" transform="matrix(-1.8992 0 0 1.8865 279.67 -100.51)"/><use href="#Q" transform="matrix(1.8992 0 0 1.8865 -662.45 -102.64)"/><use href="#R" transform="matrix(1.6618 0 0 1.7607 -603.57 -99.519)"/><use href="#S" transform="matrix(1.8992 0 0 2.0316 -662.45 -106.24)"/><use href="#T" transform="matrix(1.8992 0 0 1.8865 -662.45 -102.64)"/></g><g class="E"><use href="#U" transform="matrix(1.2929 -1.3819 -1.3912 -1.2842 -305.22 712.05)"/><g transform="matrix(1.2929 -1.3819 1.3912 1.2842 -719.56 329.88)"><use href="#U"/><use href="#V"/></g><use href="#U" transform="matrix(1.3912 1.2842 -1.2929 1.3819 -343.78 -345.21)"/><ellipse rx="18.433" ry="20.109" transform="matrix(1.2929 -1.3819 1.3912 1.2842 -285.47 314.38)" cy="160.86" cx="82.112"/><use href="#W" transform="matrix(1.3912 1.2842 -1.2929 1.3819 -346.96 -315.18)"/><use href="#X" transform="matrix(1.8992 0 0 1.8865 -662.45 -102.64)"/><ellipse rx="18.433" ry="20.109" transform="matrix(1.2929 -1.3819 1.3912 1.2842 -733.89 329.88)" cy="160.86" cx="82.112"/></g></g><g class="B I"><path d="M834.181-843.274l40.653 39.753-40.653 39.751 20.326 19.878 40.653-39.753 81.305 79.505-40.653 39.753 20.328 19.876 40.651-39.751 40.653 39.751-121.958 119.258-81.305-79.505 40.653-39.753 20.326 19.878 20.326-19.878-81.305-79.505-20.326 19.878 20.326 19.876-40.651 39.751-40.653-39.751 20.326-19.878-20.326-19.876-81.305 79.505 20.326 19.876 20.326-19.876 40.653 39.753-40.651 39.751-20.326-19.876-20.328 19.876 81.305 79.505 20.328-19.876-20.328-19.878 40.653-39.751 81.305 79.505-121.958 119.258-40.653-39.753 40.653-39.751-20.326-19.876-40.653 39.751-81.305-79.505 40.653-39.753-20.328-19.876-40.651 39.753-40.653-39.753L834.19-843.283z"/><path d="M712.234-406.002v39.752l101.63 99.381v-79.505l-20.326-19.877h-40.652l-40.652-39.752zm-101.639-98.562l80.748 78.96.961 39.48-81.71-79.901v-38.54z"/><use href="#J" x="981.769" y="218.636"/><use href="#J" x="880.138" y="119.255"/><use href="#Z"/><use href="#Z" x="101.631" y="99.381"/><path d="M549.213-565.009l41.057 39.752v39.752l-41.057-40.965v-38.54z"/><use href="#J" x="1083.4"/><use href="#J" x="1002.096" y="79.498"/><use href="#K" x="1083.394"/><use href="#Z" x="121.958" y="-159.007"/><use href="#G" x="981.769" y="-218.636"/><use href="#I" x="1083.394"/><path d="M834.18-604.764l81.305 79.505h40.652l20.327 19.876v79.506L834.176-565.409v-39.356zm-81.297 238.522L874.841-485.5h40.652L793.535-366.242h-40.652z"/><path d="M813.862-346.373L935.82-465.631 915.49-485.5 793.532-366.242l20.33 19.869z"/><path d="M813.862-346.373v79.505L935.82-386.127v-79.505L813.862-346.373zM915.49-525.249l121.958-119.258h40.652L956.142-525.249H915.49z"/><path d="M976.469-505.38l121.958-119.258-20.33-19.869-121.958 119.258 20.33 19.869z"/><path d="M976.469-505.38v79.505l121.958-119.258v-79.505L976.469-505.38z"/><use href="#a"/><use href="#a" x="-101.628" y="-99.378"/><path d="M752.886-485.5v-39.752l20.327 19.876-20.327 19.877zm-40.655-39.76l-40.652-39.752 20.327-19.877 20.326 19.877v39.752zm121.961-159.007l-20.326-19.877 20.326-19.876v39.752z"/></g></g></g><g fill="#b00" class="C"><g class="H"><use href="#C" transform="matrix(.01435 .009 -.00335 .01413 452.07 279.279)"/><use href="#C" transform="matrix(.01446 .00854 -.00318 .01423 452.107 277.374)"/><use href="#C" transform="matrix(.01435 .009 -.00335 .01413 452.114 274.997)"/><use href="#C" transform="matrix(.01446 .00854 -.00318 .01423 452.15 273.091)"/><use href="#C" transform="matrix(.01435 .009 -.00335 .01413 451.98 287.843)"/><use href="#C" transform="matrix(.01446 .00854 -.00318 .01423 452.018 285.938)"/><use href="#C" transform="matrix(.01435 .009 -.00335 .01413 452.025 283.561)"/><use href="#C" transform="matrix(.01446 .00854 -.00318 .01423 452.062 281.656)"/><use href="#C" transform="matrix(.01435 .009 -.00335 .01413 452.246 262.15)"/><use href="#C" transform="matrix(.01446 .00854 -.00318 .01423 452.284 260.246)"/><use href="#C" transform="matrix(.01435 .009 -.00335 .01413 452.29 257.87)"/><use href="#C" transform="matrix(.01446 .00854 -.00318 .01423 452.328 255.964)"/><use href="#C" transform="matrix(.01435 .009 -.00335 .01413 452.158 270.715)"/><use href="#C" transform="matrix(.01446 .00854 -.00318 .01423 452.195 268.81)"/><use href="#C" transform="matrix(.01435 .009 -.00335 .01413 452.202 266.433)"/><use href="#C" transform="matrix(.01446 .00854 -.00318 .01423 452.24 264.528)"/><use href="#C" transform="matrix(.01435 .009 -.00335 .01413 451.715 313.535)"/><use href="#C" transform="matrix(.01446 .00854 -.00318 .01423 451.753 311.63)"/><use href="#C" transform="matrix(.01435 .009 -.00335 .01413 451.76 309.253)"/><use href="#C" transform="matrix(.01446 .00854 -.00318 .01423 451.797 307.348)"/><use href="#C" transform="matrix(.01435 .009 -.00335 .01413 451.627 322.098)"/><use href="#C" transform="matrix(.01446 .00854 -.00318 .01423 451.664 320.194)"/><use href="#C" transform="matrix(.01435 .009 -.00335 .01413 451.671 317.817)"/><use href="#C" transform="matrix(.01446 .00854 -.00318 .01423 451.708 315.912)"/><use href="#C" transform="matrix(.01435 .009 -.00335 .01413 451.892 296.407)"/><use href="#C" transform="matrix(.01446 .00854 -.00318 .01423 451.93 294.502)"/><use href="#C" transform="matrix(.01435 .009 -.00335 .01413 451.937 292.125)"/><use href="#C" transform="matrix(.01446 .00854 -.00318 .01423 451.974 290.22)"/><use href="#C" transform="matrix(.01435 .009 -.00335 .01413 451.804 304.97)"/><use href="#C" transform="matrix(.01446 .00854 -.00318 .01423 451.841 303.066)"/><use href="#C" transform="matrix(.01435 .009 -.00335 .01413 451.848 300.689)"/><use href="#C" transform="matrix(.01446 .00854 -.00318 .01423 451.885 298.784)"/><use href="#C" transform="matrix(.01435 .009 -.00335 .01413 451.361 347.79)"/><use href="#C" transform="matrix(.01446 .00854 -.00318 .01423 451.399 345.886)"/><use href="#C" transform="matrix(.01435 .009 -.00335 .01413 451.406 343.509)"/><use href="#C" transform="matrix(.01446 .00854 -.00318 .01423 451.443 341.603)"/><use href="#C" transform="matrix(.01446 .00854 -.00318 .01423 451.31 354.45)"/><use href="#C" transform="matrix(.01435 .009 -.00335 .01413 451.317 352.072)"/><use href="#C" transform="matrix(.01446 .00854 -.00318 .01423 451.354 350.168)"/><use href="#C" transform="matrix(.01435 .009 -.00335 .01413 451.538 330.663)"/><use href="#C" transform="matrix(.01446 .00854 -.00318 .01423 451.576 328.757)"/><use href="#C" transform="matrix(.01435 .009 -.00335 .01413 451.583 326.381)"/><use href="#C" transform="matrix(.01446 .00854 -.00318 .01423 451.62 324.476)"/><use href="#C" transform="matrix(.01435 .009 -.00335 .01413 451.45 339.227)"/><use href="#C" transform="matrix(.01446 .00854 -.00318 .01423 451.487 337.322)"/><use href="#C" transform="matrix(.01435 .009 -.00335 .01413 451.494 334.945)"/><use href="#C" transform="matrix(.01446 .00854 -.00318 .01423 451.531 333.04)"/><use href="#C" transform="matrix(.01435 .009 -.00335 .01413 451.139 369.31)"/><use href="#C" transform="matrix(.01446 .00854 -.00318 .01423 451.176 367.404)"/><use href="#C" transform="matrix(.01435 .009 -.00335 .01413 451.183 365.028)"/><use href="#C" transform="matrix(.01446 .00854 -.00318 .01423 451.22 363.123)"/><use href="#C" transform="matrix(.01446 .00854 -.00318 .01423 451.088 375.969)"/><use href="#C" transform="matrix(.01435 .009 -.00335 .01413 451.095 373.591)"/><use href="#C" transform="matrix(.01446 .00854 -.00318 .01423 451.132 371.687)"/><use href="#C" transform="matrix(.01435 .009 -.00335 .01413 451.227 360.745)"/><use href="#C" transform="matrix(.01446 .00854 -.00318 .01423 451.265 358.841)"/><use href="#C" transform="matrix(.01435 .009 -.00335 .01413 451.272 356.464)"/><use href="#C" transform="matrix(.01447 .00887 -.00316 .01416 455.007 279.558)"/><use href="#C" transform="matrix(.01457 .0084 -.003 .01426 455.018 277.653)"/><use href="#C" transform="matrix(.01447 .00887 -.00316 .01416 454.993 275.276)"/><use href="#C" transform="matrix(.01457 .0084 -.003 .01426 455.005 273.37)"/><use href="#C" transform="matrix(.01447 .00887 -.00316 .01416 455.034 288.122)"/><use href="#C" transform="matrix(.01457 .0084 -.003 .01426 455.045 286.217)"/><use href="#C" transform="matrix(.01447 .00887 -.00316 .01416 455.02 283.84)"/><use href="#C" transform="matrix(.01457 .0084 -.003 .01426 455.032 281.935)"/><use href="#C" transform="matrix(.01447 .00887 -.00316 .01416 454.953 262.43)"/><use href="#C" transform="matrix(.01457 .0084 -.003 .01426 454.964 260.525)"/><use href="#C" transform="matrix(.01447 .00887 -.00316 .01416 454.94 258.148)"/><use href="#C" transform="matrix(.01457 .0084 -.003 .01426 454.951 256.242)"/><use href="#C" transform="matrix(.01447 .00887 -.00316 .01416 454.98 270.994)"/><use href="#C" transform="matrix(.01457 .0084 -.003 .01426 454.991 269.088)"/><use href="#C" transform="matrix(.01447 .00887 -.00316 .01416 454.966 266.711)"/><use href="#C" transform="matrix(.01457 .0084 -.003 .01426 454.978 264.807)"/><use href="#C" transform="matrix(.01447 .00887 -.00316 .01416 455.115 313.816)"/><use href="#C" transform="matrix(.01457 .0084 -.003 .01426 455.126 311.91)"/><use href="#C" transform="matrix(.01447 .00887 -.00316 .01416 455.101 309.533)"/><use href="#C" transform="matrix(.01457 .0084 -.003 .01426 455.113 307.628)"/><use href="#C" transform="matrix(.01447 .00887 -.00316 .01416 455.142 322.38)"/><use href="#C" transform="matrix(.01457 .0084 -.003 .01426 455.153 320.475)"/><use href="#C" transform="matrix(.01447 .00887 -.00316 .01416 455.128 318.097)"/><use href="#C" transform="matrix(.01457 .0084 -.003 .01426 455.14 316.193)"/><use href="#C" transform="matrix(.01447 .00887 -.00316 .01416 455.06 296.687)"/><use href="#C" transform="matrix(.01457 .0084 -.003 .01426 455.072 294.782)"/><use href="#C" transform="matrix(.01447 .00887 -.00316 .01416 455.047 292.405)"/><use href="#C" transform="matrix(.01457 .0084 -.003 .01426 455.059 290.5)"/><use href="#C" transform="matrix(.01447 .00887 -.00316 .01416 455.088 305.251)"/><use href="#C" transform="matrix(.01457 .0084 -.003 .01426 455.1 303.346)"/><use href="#C" transform="matrix(.01447 .00887 -.00316 .01416 455.074 300.969)"/><use href="#C" transform="matrix(.01457 .0084 -.003 .01426 455.086 299.064)"/><use href="#C" transform="matrix(.01447 .00887 -.00316 .01416 455.222 348.072)"/><use href="#C" transform="matrix(.01457 .0084 -.003 .01426 455.234 346.168)"/><use href="#C" transform="matrix(.01447 .00887 -.00316 .01416 455.209 343.79)"/><use href="#C" transform="matrix(.01457 .0084 -.003 .01426 455.22 341.885)"/><use href="#C" transform="matrix(.01457 .0084 -.003 .01426 455.261 354.731)"/><use href="#C" transform="matrix(.01447 .00887 -.00316 .01416 455.236 352.354)"/><use href="#C" transform="matrix(.01457 .0084 -.003 .01426 455.247 350.45)"/><use href="#C" transform="matrix(.01447 .00887 -.00316 .01416 455.169 330.944)"/><use href="#C" transform="matrix(.01457 .0084 -.003 .01426 455.18 329.038)"/><use href="#C" transform="matrix(.01447 .00887 -.00316 .01416 455.155 326.662)"/><use href="#C" transform="matrix(.01457 .0084 -.003 .01426 455.167 324.756)"/><use href="#C" transform="matrix(.01447 .00887 -.00316 .01416 455.195 339.509)"/><use href="#C" transform="matrix(.01457 .0084 -.003 .01426 455.207 337.603)"/><use href="#C" transform="matrix(.01447 .00887 -.00316 .01416 455.182 335.226)"/><use href="#C" transform="matrix(.01457 .0084 -.003 .01426 455.194 333.321)"/><use href="#C" transform="matrix(.01447 .00887 -.00316 .01416 455.29 369.592)"/><use href="#C" transform="matrix(.01457 .0084 -.003 .01426 455.302 367.687)"/><use href="#C" transform="matrix(.01447 .00887 -.00316 .01416 455.277 365.31)"/><use href="#C" transform="matrix(.01457 .0084 -.003 .01426 455.288 363.405)"/><use href="#C" transform="matrix(.01457 .0084 -.003 .01426 455.329 376.251)"/><use href="#C" transform="matrix(.01447 .00887 -.00316 .01416 455.304 373.874)"/><use href="#C" transform="matrix(.01457 .0084 -.003 .01426 455.315 371.97)"/><use href="#C" transform="matrix(.01447 .00887 -.00316 .01416 455.263 361.028)"/><use href="#C" transform="matrix(.01457 .0084 -.003 .01426 455.275 359.123)"/><use href="#C" transform="matrix(.01447 .00887 -.00316 .01416 455.25 356.746)"/></g><g class="G"><use href="#C" transform="matrix(.01804 .0045 .00258 .01426 466.68 266.44)"/><use href="#C" transform="matrix(.00502 .01448 -.01369 .00945 463.064 262.695)"/><use href="#C" transform="matrix(.01316 .01078 -.0063 .01351 464.422 264.973)"/><use href="#C" transform="matrix(-.011 .01222 -.01787 -.00248 462.708 259.138)"/><use href="#C" transform="matrix(-.0104 .0123 -.018 -.00234 465.109 259.125)"/><use href="#C" transform="matrix(-.01155 .01189 -.01775 -.003 452.207 259.055)"/><use href="#C" transform="matrix(-.01097 .01198 -.01788 -.00286 454.606 259.113)"/><use href="#C" transform="matrix(-.01155 .01189 -.01775 -.003 457.6 259.152)"/><use href="#C" transform="matrix(-.0104 .0123 -.018 -.00234 459.715 259.187)"/><use href="#C" transform="matrix(-.01155 .01189 -.01775 -.003 448.742 258.147)"/><use href="#C" transform="matrix(-.01268 .01087 -.01732 -.00452 450.414 258.509)"/><use href="#C" transform="matrix(-.01676 .00696 -.01454 -.00862 449.456 256.964)"/><use href="#C" transform="matrix(-.01456 -.00876 -.0151 .00691 500.895 356.244)"/><use href="#C" transform="matrix(-.01407 -.00899 -.01526 .0068 503.055 355.643)"/><use href="#C" transform="matrix(-.01456 -.00876 -.0151 .00691 505.762 354.925)"/><use href="#C" transform="matrix(-.01407 -.00899 -.01526 .0068 507.922 354.324)"/><use href="#C" transform="matrix(-.01737 .00284 -.00405 .01407 523.959 347.347)"/><use href="#C" transform="matrix(-.01147 .01155 .00717 .0131 526.045 341.334)"/><use href="#C" transform="matrix(-.0175 .0033 -.00385 .01404 525.113 345.175)"/><use href="#C" transform="matrix(-.0136 -.00978 -.01575 .0058 490.77 358.257)"/><use href="#C" transform="matrix(-.0131 -.00997 -.0159 .00568 492.983 357.815)"/><use href="#C" transform="matrix(-.01493 -.00832 -.0148 .00736 496.453 357.222)"/><use href="#C" transform="matrix(-.01254 -.01046 -.0162 .00507 497.317 356.546)"/><use href="#C" transform="matrix(-.01456 -.00876 -.0151 .00691 510.629 353.606)"/><use href="#C" transform="matrix(-.01407 -.00899 -.01526 .0068 512.788 353.005)"/><use href="#C" transform="matrix(-.01096 -.01188 -.01683 .003 458.727 360.068)"/><use href="#C" transform="matrix(-.01041 -.01198 -.01695 .00287 461 360.008)"/><use href="#C" transform="matrix(-.01096 -.01188 -.01683 .003 463.84 359.968)"/><use href="#C" transform="matrix(-.01041 -.01198 -.01695 .00287 466.116 359.91)"/><use href="#C" transform="matrix(-.01096 -.01188 -.01683 .003 448.498 360.265)"/><use href="#C" transform="matrix(-.01041 -.01198 -.01695 .00287 450.773 360.205)"/><use href="#C" transform="matrix(-.01096 -.01188 -.01683 .003 453.612 360.165)"/><use href="#C" transform="matrix(-.01041 -.01198 -.01695 .00287 455.887 360.107)"/><use href="#C" transform="matrix(-.01244 -.01081 -.01634 .00452 479.926 359.599)"/><use href="#C" transform="matrix(-.01231 -.01064 -.0163 .00483 482.462 359.341)"/><use href="#C" transform="matrix(-.01284 -.01048 -.01616 .00495 485.265 358.968)"/><use href="#C" transform="matrix(-.0131 -.00997 -.0159 .00568 488 358.778)"/><use href="#C" transform="matrix(-.01096 -.01188 -.01683 .003 468.954 359.87)"/><use href="#C" transform="matrix(-.0113 -.0114 -.0167 .00377 471.61 359.856)"/><use href="#C" transform="matrix(-.0125 -.01076 -.01631 .0046 474.785 359.779)"/><use href="#C" transform="matrix(-.01107 -.01156 -.01677 .00353 476.597 359.414)"/><use href="#C" transform="matrix(-.00824 -.01334 -.0172 .00043 416.695 358.169)"/><use href="#C" transform="matrix(-.00768 -.01335 -.01729 .00028 418.945 358.453)"/><use href="#C" transform="matrix(-.00983 -.01256 -.01706 .0019 422.369 359.196)"/><use href="#C" transform="matrix(-.00927 -.01262 -.01717 .00176 424.642 359.286)"/><use href="#C" transform="matrix(-.00768 -.01335 -.01729 .00028 408.84 357.112)"/><use href="#C" transform="matrix(-.00824 -.01334 -.0172 .00043 411.642 357.498)"/><use href="#C" transform="matrix(-.00768 -.01335 -.01729 .00028 413.893 357.782)"/><use href="#C" transform="matrix(-.00983 -.01256 -.01706 .0019 437.692 359.897)"/><use href="#C" transform="matrix(-.00927 -.01262 -.01717 .00176 439.965 359.987)"/><use href="#C" transform="matrix(-.01096 -.01188 -.01683 .003 443.384 360.362)"/><use href="#C" transform="matrix(-.01041 -.01198 -.01695 .00287 445.658 360.304)"/><use href="#C" transform="matrix(-.00983 -.01256 -.01706 .0019 427.477 359.43)"/><use href="#C" transform="matrix(-.00927 -.01262 -.01717 .00176 429.75 359.519)"/><use href="#C" transform="matrix(-.00983 -.01256 -.01706 .0019 432.585 359.663)"/><use href="#C" transform="matrix(-.00927 -.01262 -.01717 .00176 434.858 359.752)"/><use href="#C" transform="matrix(.01773 -.00226 .00503 -.01378 399.867 338.592)"/><use href="#C" transform="matrix(.0141 -.00895 -.00376 -.01413 397.117 342.637)"/><use href="#C" transform="matrix(.00947 -.01275 -.00925 -.01215 396.961 346.746)"/><use href="#C" transform="matrix(.00376 -.01448 -.01383 -.00869 397.682 350.215)"/><use href="#C" transform="matrix(.01766 .00094 .00819 -.01275 405.433 332.911)"/><use href="#C" transform="matrix(.01793 .00053 .00798 -.01276 403.656 334.766)"/><use href="#C" transform="matrix(.01757 -.0018 .00523 -.0138 401.203 336.495)"/><use href="#C" transform="matrix(-.001 -.01499 -.0159 -.0055 399.736 353.467)"/><use href="#C" transform="matrix(-.00438 -.01435 -.01702 -.00258 402.69 355.36)"/><use href="#C" transform="matrix(-.00824 -.01334 -.0172 .00043 406.461 356.81)"/><use href="#C" transform="matrix(-.0174 -.00361 -.01096 .0111 516.711 351.703)"/><use href="#C" transform="matrix(-.0168 -.00469 -.0118 .01058 516.854 352.14)"/><use href="#C" transform="matrix(-.01764 -.00272 -.01013 .01164 521.71 349.38)"/><use href="#C" transform="matrix(-.01667 -.00498 -.01207 .01037 518.628 350.93)"/><use href="#C" transform="matrix(.01634 -.0062 .01318 .00926 511.524 341.023)"/><use href="#C" transform="matrix(.0159 -.0065 .01336 .00919 509.547 340.079)"/><use href="#C" transform="matrix(.01686 -.00512 .01228 .01009 506.422 338.863)"/><use href="#C" transform="matrix(.0159 -.0065 .01336 .00919 518.47 344.267)"/><use href="#C" transform="matrix(.01634 -.0062 .01318 .00926 515.986 343.118)"/><use href="#C" transform="matrix(.0159 -.0065 .01336 .00919 514.008 342.173)"/></g></g><g transform="matrix(.08053 0 0 .0956 438.435 288.09)"><g class="C"><g class="D"><g class="B"><path d="M212.603-1994.912v53.15h-53.15v35.44h53.15v106.3h35.433v-106.3h53.149v-35.44h-53.149v-53.15h-35.433z"/><ellipse rx="62.008" ry="57.32" transform="matrix(.57143 0 0 .61816 93.645 -678.94)" cy="-1813.5" cx="239.17"/></g><path d="M602.36-1119.4c0 68.45-10.417 145.68-29.252 205.02-120.08-26.455-268.06-39.682-339.04-39.682-87.586 0-246.15 13.227-345.26 26.455-18.835-59.336-30.538-123.34-30.538-191.79 0-273.81 105.27-390.21 367.5-496.03 233.3 105.82 376.6 222.22 376.6 496.03z" transform="matrix(1.0576 0 0 1.3394 -5.764 363.72)" fill="#fff"/><use href="#b" transform="matrix(1.1715 0 0 .74463 -32.833 -634.89)" class="B"/></g><g class="B"><path d="M236.99-1381.568l-62.318 39.577 41.545 26.384-20.772 13.193-41.545-26.384-62.318 39.576 62.318 39.577 41.545-26.384 20.772 13.192v39.577h41.545v-39.577l20.773-13.192 41.545 26.384 62.318-39.577-62.318-39.576-41.545 26.384-20.773-13.193 41.546-26.384-62.318-39.577z" class="J"/><g class="D"><use href="#c" transform="matrix(1.13516 -.18643 .29356 .72091 -190.034 -703.65)"/><use href="#c" transform="matrix(1.1416 .16986 -.26746 .725 182.2 -778.388)"/><use href="#d" transform="matrix(.92597 -.09509 .18717 .73508 28.799 -521.9)"/><use href="#d" transform="matrix(.92699 .091 -.17909 .7359 124.84 -554.076)"/></g><path d="M631.665-1163.89c0-32.769-176.813-59.365-394.675-59.365s-394.675 26.596-394.675 59.365v19.789c0-32.769 176.813-52.769 394.675-52.769s394.675 33.193 394.675 65.962v-32.981z" class="J"/><use href="#b" transform="matrix(1.0735 0 0 .74463 -9.254 -386.86)" class="D"/><path d="M241.427-1133.538l-58.688 39.577 39.125 26.384-19.562 13.193-39.125-26.384-58.688 39.576 58.688 39.577 39.125-26.384 19.562 13.192v39.577h39.125v-39.577l19.563-13.192 39.125 26.384 58.688-39.577-58.688-39.576-39.125 26.384-19.563-13.193 39.126-26.384-58.688-39.577z" class="K"/><g class="D"><use href="#c" transform="matrix(1.069033 -.186428 .276451 .720915 -160.715269 -455.606952)"/><use href="#c" transform="matrix(1.0751 .16986 -.25188 .725 189.828 -530.358)"/><use href="#d" transform="matrix(.87203 -.09509 .17626 .73508 45.363 -273.87)"/><use href="#d" transform="matrix(.873 .091 -.16866 .7359 135.81 -306.046)"/></g><path d="M613.112-915.86c0-32.769-166.513-59.365-371.685-59.365s-371.685 26.596-371.685 59.365v19.789c0-32.769 166.513-52.769 371.685-52.769s371.685 33.193 371.685 65.962v-32.981z" class="K"/><use href="#b" transform="matrix(1.105 0 0 .74463 -16.106 -865.2)" class="D"/><path d="M242.555-1611.225l-57.397 37.331 38.264 24.887-19.132 12.444-38.264-24.887-57.397 37.331 57.397 37.331 38.264-24.887 19.132 12.443v37.331h38.264v-37.331l19.133-12.443 38.264 24.887 57.397-37.331-57.397-37.331-38.264 24.887-19.133-12.444 38.265-24.887-57.397-37.331z" class="L"/><g class="D"><use href="#c" transform="matrix(1.0455 -.17585 .27037 .68 -150.745 -971.771)"/><use href="#c" transform="matrix(1.051428 .160222 -.246339 .683862 192.096792 -1042.282898)"/><use href="#d" transform="matrix(.85284 -.0897 .17238 .69338 50.806 -800.335)"/><use href="#d" transform="matrix(.85378 .08583 -.16494 .69414 139.262 -830.684)"/></g><path d="M606.06-1405.898c0-30.91-162.849-55.997-363.505-55.997s-363.505 25.087-363.505 55.997v18.666c0-30.91 162.849-49.775 363.505-49.775s363.505 31.309 363.505 62.219v-31.11z" class="L"/></g></g><ellipse rx="375.87" ry="120.53" transform="matrix(.96627 0 0 .41385 12.936 -517.53)" cy="-822.11" cx="234.13" fill="#b90000"/></g><g class="C"><path d="M505.198 178.849l8.504-3.527 8.504 3.527s-17.608 7.055-17.608 31.746c0 17.636 30.062 21.164 30.062 42.329 0 9.089-8.204 17.637-16.708 17.637s-21.26-3.527-34.015-14.109c8.504 3.527 18.26 7.428 25.512 7.179 4.701-.081 13.206-3.527 13.206-10.582 0-14.109-29.465-21.288-29.465-42.452 0-24.692 12.006-31.746 12.006-31.746z" fill="#fff" class="F"/><use href="#C" transform="matrix(.02071 -.00148 .00948 .02238 454.378 384)" fill="#b00" class="H"/><g fill="#fff" class="F"><path d="M506.751 178.849l11.204-3.527 2.4 3.527s-16.956 7.055-16.956 31.746c0 17.636 30.214 21.164 30.214 42.329 0 9.089-6.411 17.394-15.658 17.637-17.617.47-21.71-4.772-34.015-14.109 10.356 6.433 25.2 9.308 30.965 6.806 7.045-3.059 8.406-7.179 8.406-10.706 0-14.109-29.014-20.79-29.014-41.954 0-24.692 12.456-31.746 12.456-31.746z"/><path d="M505.093 178.943c1.681-.485 8.61-3.621 17.114 3.434 4.252 3.528 4.252 10.582 4.252 14.109l12.756-10.582s-6.976-17.296-25.829-10.67c-2.67.976-6.753 2.895-8.292 3.709z"/><path d="M507.603 177.698c2.121-.571 8.802-1.259 15.503 3.684 4.252 3.528 4.552 8.548 4.552 12.075l9.756-7.552c.826-.639-5.96-16.177-23.818-10.758-1.08.36-3.547 1.255-5.993 2.552z"/></g><g class="B D"><use href="#B" transform="matrix(.19534 -.02065 .06668 .17315 476.436 338.935)"/><use href="#B" transform="matrix(-.17775 .02412 -.0031 -.13262 595.381 97.041)"/></g><g fill="#b00" class="H"><use href="#C" transform="matrix(.02071 -.00148 .00948 .02238 457.876 383.788)"/><use href="#C" transform="matrix(.03487 -.00148 .01595 .02238 452.669 386.727)"/><use href="#C" transform="matrix(.03487 -.00148 .01595 .02238 455.97 386.514)"/><use href="#C" transform="matrix(.04323 -.00148 .01978 .02238 451.35 389.865)"/><use href="#C" transform="matrix(.04323 -.00148 .01978 .02238 455.442 389.652)"/></g></g><path fill="#ffe000" d="M0 0h320v480H0z"/></g><defs ><path id="B" d="M344.54-596.29l9.152 22.141s1.455-9.767 8.526-11.534l7.071-1.768 32.168 58.167c5.302 8.838-3.536 16.793-1.769 16.793s26.517-11.49 26.517-11.49-10.606.883-15.026-6.188-34.819-59.934-34.819-59.934 6.187-2.652 11.49-5.303 10.607 7.955 10.607 7.955l-13.258-26.517s0 8.839-4.42 10.607-7.955 3.535-7.955 3.535-3.535-6.187-7.955-13.258 4.42-14.142 4.42-14.142l-22.981 11.49s7.955 4.42 10.607 8.839l5.303 8.839s-3.223 1.768-8.214 3.482c-3.589 1.875-7.696.054-9.464-1.714z"/><path id="C" d="M212.6-453.54c-35.433 0-70.866 35.433-70.866 70.866s35.433 70.866 70.866 70.866h194.88c35.433 0 70.866-35.433 70.866-70.866 0-37.027-35.433-70.866-70.866-70.866H212.6z"/><path id="D" d="M-346.606-926.531l-50.11 50.11c-13.798 0-25.351-11.553-25.055-25.055 10.878-25.879 25.028-38.434 50.11-50.11 12.477.729 24.217 10.892 25.055 25.055z"/><path id="E" d="M318.9-506.69h17.716v-43.326c0-43.327-35.433-64.99-35.433-64.99l17.717 108.32z"/><path id="F" d="M218.28 257.88h22.934v73.043H218.28z"/><path id="G" d="M-188.234-386.122l-40.652-39.752v-39.752l40.652 39.752v39.752z"/><path id="H" d="M-127.255-565.009v39.752l-20.327-19.877 20.327-19.876z"/><path id="I" d="M-188.231-624.638l-60.979-59.629v-39.752l81.305 79.505-20.326 19.877z"/><path id="J" d="M-289.865-604.758l40.652-39.752v-39.752l-40.652 39.752v39.752z"/><path id="K" d="M-391.493-624.638l60.979-59.629v-39.752l-81.305 79.505 20.326 19.877z"/><path id="L" d="M-452.48-644.507l-20.327-19.877v-39.752l40.652 39.752-20.326 19.877z"/><path id="M" d="M196.5 254.15h25.197v80.26H196.5z"/><path id="N" d="M336.61 166.54c0 14.669 35.433 35.434 35.433-17.716H336.61v17.716z"/><path id="O" d="M242.1 24.803c-147.06 0-113.13 164.24-100.37 124.02 9.359-29.503 35.433-70.866 64.935-80.225 40.225-12.761 26.696 9.359 41.364 9.359s1.14-22.12 41.364-9.359c29.503 9.359 55.577 50.722 64.936 80.225 12.76 40.224 53.149-124.02-112.23-124.02z"/><path id="P" d="M389.76 166.54c0 78.237-63.496 141.73-141.73 141.73S106.3 244.774 106.3 166.54v-17.716c.001-29.116 35.433 124.02 141.73 124.02s141.73-124.77 141.73-124.02v17.716z"/><path id="Q" d="M389.76 148.82c0 78.236-63.496 141.73-141.73 141.73S106.3 227.054 106.3 148.82 169.796 7.09 248.03 7.09s141.73 63.496 141.73 141.73zm-53.15 0c0 14.669 22.812 3.042 9.359 43.04-9.359 27.826-27.075 45.543-56.578 54.902-40.225 12.76-26.694-9.359-41.364-9.359s-1.14 22.119-41.364 9.359c-29.502-9.359-47.218-27.076-56.577-56.578-12.76-40.224 9.359-26.695 9.359-41.364s-22.119-1.139-9.359-41.364c9.359-29.502 27.075-47.219 56.577-56.578 40.225-12.761 26.696 9.359 41.364 9.359s1.14-22.12 41.364-9.359c29.503 9.359 47.219 27.075 56.578 56.578 12.76 40.224-9.359 26.694-9.359 41.364z"/><path id="R" d="M126.55 157.68c-20.248 0-1.929 67.6-9.104 51.705s-11.144-33.368-11.144-51.705 3.969-35.809 11.144-51.705-11.144 51.705 9.104 51.705z"/><path id="S" d="M372.05 139.96c0 15.892-2.13 31.632-9.751 44.811-7.965 13.775 9.751-44.811-7.965-44.811 17.716 0 1.687-58.587 7.965-44.811s9.751 28.919 9.751 44.811z"/><path id="T" d="M296.29 263.08c-14.836 6.279-31.144 9.751-48.258 9.751s-33.422-3.472-48.257-9.751 48.257 9.751 48.257-7.966c0 17.717 63.093 1.688 48.258 7.966zM248.03 42.52c0-17.716-63.092-1.688-48.257-7.966s31.143-9.75 48.257-9.75 33.422 3.472 48.258 9.75-48.258-9.75-48.258 7.966z"/><path id="U" d="M276.58 287.67c-9.223 1.889-18.773 2.881-28.552 2.881s-19.329-.992-28.553-2.881l-1.432 6.965c9.686 1.984 19.715 3.025 29.985 3.025s20.299-1.041 29.985-3.025l-1.433-6.965z"/><path id="V" d="M267.7 308.51c-9.223 1.889-20.189.927-29.969.927s-19.285-2.612-28.509-4.501l8.821-10.303c9.686 1.984 19.715 3.025 29.985 3.025s20.299-1.041 29.985-3.025L267.7 308.51z"/><path id="W" d="M267.59 281.47c-9.223 1.889-17.098 2.943-26.877 2.943s-23.112-.712-32.336-2.601l9.672 12.822c9.686 1.984 19.715 3.025 29.985 3.025s20.299-1.041 29.985-3.025L267.59 281.47z"/><path id="X" d="M173.94 271.77l-.838 14.842-3.239 4.493.976-15.087 3.101-4.248zm156.6-6.17l3.562 4.189 1.047 13.616-2.933-2.933-1.676-14.872z"/><path id="Y" d="M442.91-1066.09h70.866c9.757-9.756 9.757-26.095 0-35.433-25.991-10.607-44.874-9.48-70.866 0-8.307 9.338-9.422 24.826 0 35.433z"/><path id="Z" d="M630.925-565.009v39.752l20.327-19.877-20.327-19.876z"/><path id="a" d="M956.15-644.507l20.327-19.877v-39.752l-40.652 39.752 20.326 19.877z"/><path id="b" d="M566.93-657.28c0-44.007-150.8-79.724-336.61-79.724s-336.61 35.717-336.61 79.724v26.575c0-44.007 150.8-70.866 336.61-70.866s336.61 44.576 336.61 88.583v-44.292z"/><path id="c" d="M220.98-825.59l-8.379 53.15v35.433l-17.716 17.717v-35.434l-17.717 53.15 17.717 53.149v-35.432l17.716 17.716v53.15l17.717-.001v-53.15l17.717-17.716-.001 35.432 17.717-53.149-17.717-53.15.001 35.434-17.717-17.717v-35.433l-9.338-53.149z"/><path id="d" d="M141.73-1020.5c0-17.72 17.717-35.44 35.433-35.44s35.433 17.72 35.433 35.44-17.716 35.431-17.716 35.431l70.866 70.866h-35.433l-53.15-53.15-53.149 53.15H88.581l70.866-70.866s-17.717-17.711-17.717-35.431z"/></defs></svg>